<?xml version="1.0" encoding="utf-8" standalone="no"?>
<!DOCTYPE svg PUBLIC "-//W3C//DTD SVG 1.1//EN"
  "http://www.w3.org/Graphics/SVG/1.1/DTD/svg11.dtd">
<!-- Created with matplotlib (http://matplotlib.org/) -->
<svg height="420pt" version="1.1" viewBox="0 0 770 420" width="770pt" xmlns="http://www.w3.org/2000/svg" xmlns:xlink="http://www.w3.org/1999/xlink">
 <defs>
  <style type="text/css">
*{stroke-linecap:butt;stroke-linejoin:round;}
  </style>
 </defs>
 <g id="figure_1">
  <g id="patch_1">
   <path d="
M0 420.48
L770.577 420.48
L770.577 0
L0 0
z
" style="fill:#ffffff;"/>
  </g>
  <g id="axes_1">
   <g id="patch_2">
    <path d="
M151.399 413.28
L618.391 413.28
L618.391 7.2
L151.399 7.2
z
" style="fill:#ffffff;"/>
   </g>
   <g id="patch_3">
    <path clip-path="url(#p4fcc9e9ad1)" d="
M451.274 163.385
Q503.986 110.672 553.536 61.1223" style="fill:none;stroke:#99b2e6;stroke-linecap:round;stroke-width:4.0;"/>
    <path clip-path="url(#p4fcc9e9ad1)" d="
M542.93 64.6578
L553.536 61.1223
L550.001 71.7289
L542.93 64.6578
z
" style="fill:#99b2e6;stroke:#99b2e6;stroke-linecap:round;stroke-width:4.0;"/>
   </g>
   <g id="patch_4">
    <path clip-path="url(#p4fcc9e9ad1)" d="
M367.325 247.334
Q329.255 285.404 294.347 320.312" style="fill:none;stroke:#99b2e6;stroke-linecap:round;stroke-width:4.0;"/>
    <path clip-path="url(#p4fcc9e9ad1)" d="
M304.953 316.776
L294.347 320.312
L297.882 309.705
L304.953 316.776
z
" style="fill:#99b2e6;stroke:#99b2e6;stroke-linecap:round;stroke-width:4.0;"/>
   </g>
   <g id="PathCollection_1">
    <defs>
     <path d="
M0 4.74342
C1.25797 4.74342 2.46458 4.24362 3.3541 3.3541
C4.24362 2.46458 4.74342 1.25797 4.74342 0
C4.74342 -1.25797 4.24362 -2.46458 3.3541 -3.3541
C2.46458 -4.24362 1.25797 -4.74342 0 -4.74342
C-1.25797 -4.74342 -2.46458 -4.24362 -3.3541 -3.3541
C-4.24362 -2.46458 -4.74342 -1.25797 -4.74342 0
C-4.74342 1.25797 -4.24362 2.46458 -3.3541 3.3541
C-2.46458 4.24362 -1.25797 4.74342 0 4.74342
z
" id="C0_0_72e6d5a2bf"/>
    </defs>
    <g clip-path="url(#p4fcc9e9ad1)">
     <use style="fill:#ff0000;" x="443.464615385" xlink:href="#C0_0_72e6d5a2bf" y="288.332307692"/>
    </g>
   </g>
   <g id="PathCollection_2">
    <defs>
     <path d="
M0 4.74342
C1.25797 4.74342 2.46458 4.24362 3.3541 3.3541
C4.24362 2.46458 4.74342 1.25797 4.74342 0
C4.74342 -1.25797 4.24362 -2.46458 3.3541 -3.3541
C2.46458 -4.24362 1.25797 -4.74342 0 -4.74342
C-1.25797 -4.74342 -2.46458 -4.24362 -3.3541 -3.3541
C-4.24362 -2.46458 -4.74342 -1.25797 -4.74342 0
C-4.74342 1.25797 -4.24362 2.46458 -3.3541 3.3541
C-2.46458 4.24362 -1.25797 4.74342 0 4.74342
z
" id="C1_0_72e6d5a2bf"/>
    </defs>
    <g clip-path="url(#p4fcc9e9ad1)">
     <use style="fill:#ff0000;" x="365.372307692" xlink:href="#C1_0_72e6d5a2bf" y="132.147692308"/>
    </g>
   </g>
   <g id="PathCollection_3">
    <defs>
     <path d="
M0 4.74342
C1.25797 4.74342 2.46458 4.24362 3.3541 3.3541
C4.24362 2.46458 4.74342 1.25797 4.74342 0
C4.74342 -1.25797 4.24362 -2.46458 3.3541 -3.3541
C2.46458 -4.24362 1.25797 -4.74342 0 -4.74342
C-1.25797 -4.74342 -2.46458 -4.24362 -3.3541 -3.3541
C-4.24362 -2.46458 -4.74342 -1.25797 -4.74342 0
C-4.74342 1.25797 -4.24362 2.46458 -3.3541 3.3541
C-2.46458 4.24362 -1.25797 4.74342 0 4.74342
z
" id="C2_0_72e6d5a2bf"/>
    </defs>
    <g clip-path="url(#p4fcc9e9ad1)">
     <use style="fill:#0000ff;" x="443.464615385" xlink:href="#C2_0_72e6d5a2bf" y="171.193846154"/>
    </g>
   </g>
   <g id="PathCollection_4">
    <defs>
     <path d="
M0 4.74342
C1.25797 4.74342 2.46458 4.24362 3.3541 3.3541
C4.24362 2.46458 4.74342 1.25797 4.74342 0
C4.74342 -1.25797 4.24362 -2.46458 3.3541 -3.3541
C2.46458 -4.24362 1.25797 -4.74342 0 -4.74342
C-1.25797 -4.74342 -2.46458 -4.24362 -3.3541 -3.3541
C-4.24362 -2.46458 -4.74342 -1.25797 -4.74342 0
C-4.74342 1.25797 -4.24362 2.46458 -3.3541 3.3541
C-2.46458 4.24362 -1.25797 4.74342 0 4.74342
z
" id="C3_0_72e6d5a2bf"/>
    </defs>
    <g clip-path="url(#p4fcc9e9ad1)">
     <use style="fill:#0000ff;" x="560.603076923" xlink:href="#C3_0_72e6d5a2bf" y="54.0553846154"/>
    </g>
   </g>
   <g id="PathCollection_5">
    <defs>
     <path d="
M0 4.74342
C1.25797 4.74342 2.46458 4.24362 3.3541 3.3541
C4.24362 2.46458 4.74342 1.25797 4.74342 0
C4.74342 -1.25797 4.24362 -2.46458 3.3541 -3.3541
C2.46458 -4.24362 1.25797 -4.74342 0 -4.74342
C-1.25797 -4.74342 -2.46458 -4.24362 -3.3541 -3.3541
C-4.24362 -2.46458 -4.74342 -1.25797 -4.74342 0
C-4.74342 1.25797 -4.24362 2.46458 -3.3541 3.3541
C-2.46458 4.24362 -1.25797 4.74342 0 4.74342
z
" id="C4_0_72e6d5a2bf"/>
    </defs>
    <g clip-path="url(#p4fcc9e9ad1)">
     <use style="fill:#0000ff;" x="375.133846154" xlink:href="#C4_0_72e6d5a2bf" y="239.524615385"/>
    </g>
   </g>
   <g id="PathCollection_6">
    <defs>
     <path d="
M0 4.74342
C1.25797 4.74342 2.46458 4.24362 3.3541 3.3541
C4.24362 2.46458 4.74342 1.25797 4.74342 0
C4.74342 -1.25797 4.24362 -2.46458 3.3541 -3.3541
C2.46458 -4.24362 1.25797 -4.74342 0 -4.74342
C-1.25797 -4.74342 -2.46458 -4.24362 -3.3541 -3.3541
C-4.24362 -2.46458 -4.74342 -1.25797 -4.74342 0
C-4.74342 1.25797 -4.24362 2.46458 -3.3541 3.3541
C-2.46458 4.24362 -1.25797 4.74342 0 4.74342
z
" id="C5_0_72e6d5a2bf"/>
    </defs>
    <g clip-path="url(#p4fcc9e9ad1)">
     <use style="fill:#0000ff;" x="287.28" xlink:href="#C5_0_72e6d5a2bf" y="327.378461538"/>
    </g>
   </g>
   <g id="patch_5">
    <path clip-path="url(#p4fcc9e9ad1)" d="
M404.418 210.24
Q404.418 112.625 404.418 16.1273" style="fill:none;stroke:#000000;stroke-linecap:round;"/>
    <path clip-path="url(#p4fcc9e9ad1)" d="
M399.418 26.1273
L404.418 16.1273
L409.418 26.1273
L399.418 26.1273
z
" style="stroke:#000000;stroke-linecap:round;"/>
   </g>
   <g id="patch_6">
    <path clip-path="url(#p4fcc9e9ad1)" d="
M404.418 210.24
Q404.418 307.855 404.418 404.353" style="fill:none;stroke:#000000;stroke-linecap:round;"/>
    <path clip-path="url(#p4fcc9e9ad1)" d="
M409.418 394.353
L404.418 404.353
L399.418 394.353
L409.418 394.353
z
" style="stroke:#000000;stroke-linecap:round;"/>
   </g>
   <g id="patch_7">
    <path clip-path="url(#p4fcc9e9ad1)" d="
M404.418 210.24
Q502.034 210.24 598.531 210.24" style="fill:none;stroke:#000000;stroke-linecap:round;"/>
    <path clip-path="url(#p4fcc9e9ad1)" d="
M588.531 205.24
L598.531 210.24
L588.531 215.24
L588.531 205.24
z
" style="stroke:#000000;stroke-linecap:round;"/>
   </g>
   <g id="patch_8">
    <path clip-path="url(#p4fcc9e9ad1)" d="
M404.418 210.24
Q306.803 210.24 210.306 210.24" style="fill:none;stroke:#000000;stroke-linecap:round;"/>
    <path clip-path="url(#p4fcc9e9ad1)" d="
M220.306 215.24
L210.306 210.24
L220.306 205.24
L220.306 215.24
z
" style="stroke:#000000;stroke-linecap:round;"/>
   </g>
   <g id="line2d_1">
    <path clip-path="url(#p4fcc9e9ad1)" d="
M209.188 405.471
L599.649 15.0092" style="fill:none;stroke:#0000ff;stroke-linecap:square;"/>
   </g>
   <g id="line2d_2">
    <path clip-path="url(#p4fcc9e9ad1)" d="
M306.803 15.0092
L502.034 405.471" style="fill:none;stroke:#ff0000;stroke-linecap:square;"/>
   </g>
   <g id="matplotlib.axis_1"/>
   <g id="matplotlib.axis_2"/>
   <g id="text_1">
    <!-- $\mathrm{stays\ put}$ -->
    <defs>
     <path d="
M6.89062 -16.4062
Q8.79688 -17.9219 11.0781 -17.9219
Q17.3906 -17.9219 21.3906 -8.40625
L24.8125 0
L9.8125 36.7188
Q8.89062 38.5781 6.98438 39.0781
Q5.07812 39.5938 1.90625 39.5938
L1.90625 43.1094
L22.9062 43.1094
L22.9062 39.5938
Q17.3906 39.5938 17.3906 37.2031
Q17.3906 36.8125 17.4844 36.625
L28.6094 9.28125
L38.625 33.8906
Q38.9219 34.6719 38.9219 35.5938
Q38.9219 36.8125 38.25 37.7188
Q37.5938 38.625 36.5469 39.1094
Q35.5 39.5938 34.1875 39.5938
L34.1875 43.1094
L50.7812 43.1094
L50.7812 39.5938
Q47.7031 39.5938 45.375 38.1719
Q43.0625 36.7656 41.7969 33.9844
L24.5156 -8.40625
Q23.1406 -11.625 21.3125 -14.3281
Q19.4844 -17.0469 16.8438 -18.7812
Q14.2031 -20.5156 11.0781 -20.5156
Q7.42188 -20.5156 4.65625 -18.0938
Q1.90625 -15.6719 1.90625 -12.1094
Q1.90625 -10.25 3.17188 -8.98438
Q4.4375 -7.71875 6.29688 -7.71875
Q7.5625 -7.71875 8.5625 -8.28125
Q9.57812 -8.84375 10.125 -9.8125
Q10.6875 -10.7969 10.6875 -12.1094
Q10.6875 -13.7188 9.60938 -14.9844
Q8.54688 -16.2656 6.89062 -16.4062" id="Cmr10-79"/>
     <path d="
M10.7969 11.9219
L10.7969 33.9844
Q10.7969 36.6719 9.98438 37.8594
Q9.1875 39.0625 7.67188 39.3281
Q6.15625 39.5938 2.98438 39.5938
L2.98438 43.1094
L18.1094 44.1875
L18.1094 11.9219
Q18.1094 8.01562 18.6719 5.82812
Q19.2344 3.65625 21.0625 2.57812
Q22.9062 1.51562 26.9062 1.51562
Q32.2812 1.51562 35.4531 6
Q38.625 10.5 38.625 16.2188
L38.625 33.9844
Q38.625 36.6719 37.7969 37.8594
Q36.9688 39.0625 35.4688 39.3281
Q33.9844 39.5938 30.8125 39.5938
L30.8125 43.1094
L45.9062 44.1875
L45.9062 9.07812
Q45.9062 6.45312 46.7031 5.25
Q47.5156 4.04688 49.0156 3.78125
Q50.5312 3.51562 53.7188 3.51562
L53.7188 0
L38.9219 -1.125
L38.9219 7.32812
Q37.0625 3.5625 33.7344 1.21875
Q30.4219 -1.125 26.4219 -1.125
Q19.2344 -1.125 15.0156 1.92188
Q10.7969 4.98438 10.7969 11.9219" id="Cmr10-75"/>
     <path d="
M10.2031 12.0156
L10.2031 39.5938
L1.90625 39.5938
L1.90625 42.1875
Q8.45312 42.1875 11.5156 48.2812
Q14.5938 54.3906 14.5938 61.5312
L17.4844 61.5312
L17.4844 43.1094
L31.5938 43.1094
L31.5938 39.5938
L17.4844 39.5938
L17.4844 12.2031
Q17.4844 8.0625 18.875 4.9375
Q20.2656 1.8125 23.875 1.8125
Q27.2969 1.8125 28.8125 5.10938
Q30.3281 8.40625 30.3281 12.2031
L30.3281 18.1094
L33.2031 18.1094
L33.2031 12.0156
Q33.2031 8.89062 32.0469 5.82812
Q30.9062 2.78125 28.6562 0.828125
Q26.4219 -1.125 23.1875 -1.125
Q17.1875 -1.125 13.6875 2.46875
Q10.2031 6.0625 10.2031 12.0156" id="Cmr10-74"/>
     <path d="
M3.32812 -0.296875
L3.32812 16.0156
Q3.32812 16.7969 4.20312 16.7969
L5.42188 16.7969
Q6 16.7969 6.20312 16.0156
Q8.98438 1.51562 19.6719 1.51562
Q24.4219 1.51562 27.6094 3.65625
Q30.8125 5.8125 30.8125 10.2969
Q30.8125 13.5312 28.3125 15.7969
Q25.8281 18.0625 22.4062 18.8906
L15.7188 20.2188
Q12.3594 20.9531 9.59375 22.4531
Q6.84375 23.9688 5.07812 26.4844
Q3.32812 29 3.32812 32.3281
Q3.32812 36.7188 5.64062 39.5156
Q7.95312 42.3281 11.6562 43.5781
Q15.375 44.8281 19.6719 44.8281
Q24.8125 44.8281 28.6094 42.0938
L31.5 44.5781
Q31.5 44.8281 31.9844 44.8281
L32.7188 44.8281
Q33.0156 44.8281 33.25 44.5469
Q33.5 44.2812 33.5 44
L33.5 30.9062
Q33.5 29.9844 32.7188 29.9844
L31.5 29.9844
Q30.6094 29.9844 30.6094 30.9062
Q30.6094 36.1406 27.7031 39.3125
Q24.8125 42.4844 19.5781 42.4844
Q15.0938 42.4844 11.7969 40.8125
Q8.5 39.1562 8.5 35.1094
Q8.5 32.3281 10.8594 30.5469
Q13.2344 28.7656 16.4062 27.9844
L23.1875 26.7031
Q26.6094 25.9219 29.5625 24.0625
Q32.5156 22.2188 34.25 19.375
Q35.9844 16.5469 35.9844 12.9844
Q35.9844 9.375 34.7344 6.70312
Q33.5 4.04688 31.2656 2.28125
Q29.0469 0.53125 26.0156 -0.296875
Q23 -1.125 19.6719 -1.125
Q13.4219 -1.125 8.98438 3.07812
L5.32812 -0.875
Q5.32812 -1.125 4.78125 -1.125
L4.20312 -1.125
Q3.32812 -1.125 3.32812 -0.296875" id="Cmr10-73"/>
     <path d="
M4 9.8125
Q4 15.7656 8.6875 19.5
Q13.375 23.25 19.9375 24.7812
Q26.5156 26.3125 32.4219 26.3125
L32.4219 30.4219
Q32.4219 33.2969 31.1562 36
Q29.8906 38.7188 27.4844 40.4531
Q25.0938 42.1875 22.2188 42.1875
Q15.5781 42.1875 12.1094 39.2031
Q14.0156 39.2031 15.25 37.7656
Q16.5 36.3281 16.5 34.4219
Q16.5 32.4219 15.0781 31
Q13.6719 29.5938 11.7188 29.5938
Q9.71875 29.5938 8.29688 31
Q6.89062 32.4219 6.89062 34.4219
Q6.89062 39.7031 11.6719 42.2656
Q16.4531 44.8281 22.2188 44.8281
Q26.2656 44.8281 30.3594 43.0938
Q34.4688 41.3594 37.0781 38.125
Q39.7031 34.9062 39.7031 30.6094
L39.7031 8.10938
Q39.7031 6.15625 40.5312 4.51562
Q41.3594 2.875 43.1094 2.875
Q44.7812 2.875 45.5781 4.53125
Q46.3906 6.20312 46.3906 8.10938
L46.3906 14.5
L49.3125 14.5
L49.3125 8.10938
Q49.3125 5.85938 48.1406 3.82812
Q46.9688 1.8125 44.9844 0.609375
Q43.0156 -0.59375 40.7188 -0.59375
Q37.7969 -0.59375 35.6719 1.67188
Q33.5469 3.95312 33.2969 7.07812
Q31.4531 3.32812 27.8281 1.09375
Q24.2188 -1.125 20.125 -1.125
Q16.3125 -1.125 12.625 0
Q8.9375 1.125 6.46875 3.53125
Q4 5.95312 4 9.8125
M12.1094 9.8125
Q12.1094 6.29688 14.6875 3.90625
Q17.2812 1.51562 20.7969 1.51562
Q24.0312 1.51562 26.6562 3.125
Q29.2969 4.73438 30.8594 7.51562
Q32.4219 10.2969 32.4219 13.375
L32.4219 23.7812
Q27.875 23.7812 23.1094 22.2812
Q18.3594 20.7969 15.2344 17.625
Q12.1094 14.4531 12.1094 9.8125" id="Cmr10-61"/>
     <path d="
M2.59375 -19.3906
L2.59375 -15.9219
Q6 -15.9219 8.20312 -15.3281
Q10.4062 -14.75 10.4062 -12.7031
L10.4062 35.5
Q10.4062 38.2344 8.45312 38.9062
Q6.5 39.5938 2.59375 39.5938
L2.59375 43.1094
L17.3906 44.1875
L17.3906 37.9844
Q20.125 41.0156 23.75 42.5938
Q27.3906 44.1875 31.5 44.1875
Q37.4062 44.1875 42.1406 40.9844
Q46.875 37.7969 49.5312 32.5938
Q52.2031 27.3906 52.2031 21.5781
Q52.2031 15.5312 49.25 10.2969
Q46.2969 5.07812 41.1875 1.96875
Q36.0781 -1.125 29.9844 -1.125
Q22.7031 -1.125 17.6719 4.78125
L17.6719 -12.7031
Q17.6719 -14.75 19.8906 -15.3281
Q22.125 -15.9219 25.4844 -15.9219
L25.4844 -19.3906
z

M17.6719 9.71875
Q19.4375 6.15625 22.5625 3.82812
Q25.6875 1.51562 29.3906 1.51562
Q32.8594 1.51562 35.5156 3.35938
Q38.1875 5.21875 39.9844 8.34375
Q41.7969 11.4688 42.6406 14.9062
Q43.5 18.3594 43.5 21.5781
Q43.5 25.5938 42.0625 30.25
Q40.625 34.9062 37.6719 38.1094
Q34.7188 41.3125 30.5156 41.3125
Q26.4688 41.3125 23.0625 39.2344
Q19.6719 37.1562 17.6719 33.5938
z
" id="Cmr10-70"/>
    </defs>
    <g style="fill:#ff0000;" transform="translate(460.038461538 298.192932692)scale(0.36 -0.36)">
     <use transform="translate(0.0 0.46875)" xlink:href="#Cmr10-73"/>
     <use transform="translate(39.404296875 0.46875)" xlink:href="#Cmr10-74"/>
     <use transform="translate(78.22265625 0.46875)" xlink:href="#Cmr10-61"/>
     <use transform="translate(128.22265625 0.46875)" xlink:href="#Cmr10-79"/>
     <use transform="translate(180.908203125 0.46875)" xlink:href="#Cmr10-73"/>
     <use transform="translate(245.302734375 0.46875)" xlink:href="#Cmr10-70"/>
     <use transform="translate(300.8203125 0.46875)" xlink:href="#Cmr10-75"/>
     <use transform="translate(356.337890625 0.46875)" xlink:href="#Cmr10-74"/>
    </g>
   </g>
   <g id="text_2">
    <!-- $\mathrm{stays\ put}$ -->
    <g style="fill:#ff0000;" transform="translate(206.238461538 142.008317308)scale(0.36 -0.36)">
     <use transform="translate(0.0 0.46875)" xlink:href="#Cmr10-73"/>
     <use transform="translate(39.404296875 0.46875)" xlink:href="#Cmr10-74"/>
     <use transform="translate(78.22265625 0.46875)" xlink:href="#Cmr10-61"/>
     <use transform="translate(128.22265625 0.46875)" xlink:href="#Cmr10-79"/>
     <use transform="translate(180.908203125 0.46875)" xlink:href="#Cmr10-73"/>
     <use transform="translate(245.302734375 0.46875)" xlink:href="#Cmr10-70"/>
     <use transform="translate(300.8203125 0.46875)" xlink:href="#Cmr10-75"/>
     <use transform="translate(356.337890625 0.46875)" xlink:href="#Cmr10-74"/>
    </g>
   </g>
   <g id="text_3">
    <!-- $(1,1)\rightarrow(4,4)$ -->
    <defs>
     <path d="
M9.28125 0
L9.28125 3.51562
Q21.7812 3.51562 21.7812 6.6875
L21.7812 59.1875
Q16.6094 56.6875 8.6875 56.6875
L8.6875 60.2031
Q20.9531 60.2031 27.2031 66.6094
L28.6094 66.6094
Q28.9531 66.6094 29.2656 66.3281
Q29.5938 66.0625 29.5938 65.7188
L29.5938 6.6875
Q29.5938 3.51562 42.0938 3.51562
L42.0938 0
z
" id="Cmr10-31"/>
     <path d="
M2.78125 16.5
L2.78125 20.0156
L33.6875 66.1094
Q34.0312 66.6094 34.7188 66.6094
L36.1875 66.6094
Q37.3125 66.6094 37.3125 65.4844
L37.3125 20.0156
L47.125 20.0156
L47.125 16.5
L37.3125 16.5
L37.3125 6.6875
Q37.3125 4.64062 40.2344 4.07812
Q43.1719 3.51562 47.0156 3.51562
L47.0156 0
L19.4844 0
L19.4844 3.51562
Q23.3438 3.51562 26.2656 4.07812
Q29.2031 4.64062 29.2031 6.6875
L29.2031 16.5
z

M6.10938 20.0156
L29.7812 20.0156
L29.7812 55.4219
z
" id="Cmr10-34"/>
     <path d="
M31 -24.8125
Q25.4375 -20.4062 21.4062 -14.7188
Q17.3906 -9.03125 14.8125 -2.57812
Q12.25 3.85938 10.9844 10.8906
Q9.71875 17.9219 9.71875 25
Q9.71875 32.1719 10.9844 39.2031
Q12.25 46.2344 14.8594 52.7344
Q17.4844 59.2344 21.5312 64.8906
Q25.5938 70.5625 31 74.8125
Q31 75 31.5 75
L32.4219 75
Q32.7188 75 32.9531 74.7344
Q33.2031 74.4688 33.2031 74.125
Q33.2031 73.6875 33.0156 73.4844
Q28.125 68.7031 24.875 63.2344
Q21.625 57.7656 19.6406 51.5781
Q17.6719 45.4062 16.7969 38.7812
Q15.9219 32.1719 15.9219 25
Q15.9219 -6.78125 32.9062 -23.2969
Q33.2031 -23.5781 33.2031 -24.125
Q33.2031 -24.3594 32.9375 -24.6719
Q32.6719 -25 32.4219 -25
L31.5 -25
Q31 -25 31 -24.8125" id="Cmr10-28"/>
     <path d="
M6.5 -25
Q5.60938 -25 5.60938 -24.125
Q5.60938 -23.6875 5.8125 -23.4844
Q22.9062 -6.78125 22.9062 25
Q22.9062 56.7812 6 73.2969
Q5.60938 73.5312 5.60938 74.125
Q5.60938 74.4688 5.875 74.7344
Q6.15625 75 6.5 75
L7.42188 75
Q7.71875 75 7.90625 74.8125
Q15.0938 69.1406 19.875 61.0312
Q24.6562 52.9375 26.875 43.75
Q29.1094 34.5781 29.1094 25
Q29.1094 17.9219 27.9062 11.0625
Q26.7031 4.20312 24.0938 -2.45312
Q21.4844 -9.125 17.4844 -14.7656
Q13.4844 -20.4062 7.90625 -24.8125
Q7.71875 -25 7.42188 -25
z
" id="Cmr10-29"/>
     <path d="
M7.51562 23
Q6.6875 23 6.14062 23.625
Q5.60938 24.2656 5.60938 25
Q5.60938 25.7344 6.14062 26.3594
Q6.6875 27 7.51562 27
L83.4062 27
Q79.5938 29.7344 76.6562 33.3281
Q73.7344 36.9219 71.7812 41.0469
Q69.8281 45.1719 69 49.8125
Q69 51.125 70.0156 51.125
L72.0156 51.125
Q72.3594 51.125 72.625 50.8281
Q72.9062 50.5312 73 50.2031
Q73.8281 45.9062 75.6094 42.2188
Q77.3906 38.5312 80.0781 35.3438
Q82.7656 32.1719 86.0781 29.875
Q89.4062 27.5938 93.6094 26.125
Q94.2812 25.6875 94.2812 25
Q94.2812 24.2188 93.6094 24.0312
Q88.375 22.2188 84.0312 18.625
Q79.6875 15.0469 76.8594 10.1875
Q74.0312 5.32812 73 -0.203125
Q72.9062 -0.53125 72.6094 -0.828125
Q72.3125 -1.125 72.0156 -1.125
L70.0156 -1.125
Q69 -1.125 69 0.203125
Q70.2656 7.03125 74.0625 13.0625
Q77.875 19.0938 83.4062 23
z
" id="Cmsy10-21"/>
     <path d="
M9.90625 -18.0156
Q9.90625 -17.5781 10.2969 -17.1875
Q13.9219 -13.7188 15.9219 -9.17188
Q17.9219 -4.64062 17.9219 0.390625
L17.9219 1.60938
Q16.3125 0 13.9219 0
Q11.625 0 10.0156 1.60938
Q8.40625 3.21875 8.40625 5.51562
Q8.40625 7.85938 10.0156 9.42188
Q11.625 10.9844 13.9219 10.9844
Q17.4844 10.9844 19 7.6875
Q20.5156 4.39062 20.5156 0.390625
Q20.5156 -5.17188 18.2812 -10.1719
Q16.0625 -15.1875 12.0156 -19.1875
Q11.625 -19.3906 11.375 -19.3906
Q10.8906 -19.3906 10.3906 -18.9375
Q9.90625 -18.5 9.90625 -18.0156" id="Cmmi10-3b"/>
    </defs>
    <g style="fill:#99b2e6;" transform="translate(512.390769231 131.386153846)scale(0.36 -0.36)">
     <use xlink:href="#Cmr10-28"/>
     <use transform="translate(38.818359375 0.0)" xlink:href="#Cmr10-31"/>
     <use transform="translate(88.818359375 0.0)" xlink:href="#Cmmi10-3b"/>
     <use transform="translate(118.486328125 0.0)" xlink:href="#Cmr10-31"/>
     <use transform="translate(168.486328125 0.0)" xlink:href="#Cmr10-29"/>
     <use transform="translate(224.86328125 0.0)" xlink:href="#Cmsy10-21"/>
     <use transform="translate(331.09375 0.0)" xlink:href="#Cmr10-28"/>
     <use transform="translate(369.912109375 0.0)" xlink:href="#Cmr10-34"/>
     <use transform="translate(419.912109375 0.0)" xlink:href="#Cmmi10-3b"/>
     <use transform="translate(449.580078125 0.0)" xlink:href="#Cmr10-34"/>
     <use transform="translate(499.580078125 0.0)" xlink:href="#Cmr10-29"/>
    </g>
   </g>
   <g id="text_4">
    <!-- $\left(-\frac{3}{4},-\frac{3}{4}\right)\rightarrow(-3,-3)$ -->
    <defs>
     <path d="
M9.51562 7.71875
Q11.8594 4.29688 15.8125 2.64062
Q19.7812 0.984375 24.3125 0.984375
Q30.125 0.984375 32.5625 5.9375
Q35.0156 10.8906 35.0156 17.1875
Q35.0156 20.0156 34.5 22.8438
Q33.9844 25.6875 32.7656 28.125
Q31.5469 30.5625 29.4219 32.0312
Q27.2969 33.5 24.2188 33.5
L17.5781 33.5
Q16.7031 33.5 16.7031 34.4219
L16.7031 35.2969
Q16.7031 36.0781 17.5781 36.0781
L23.0938 36.5312
Q26.6094 36.5312 28.9219 39.1562
Q31.25 41.7969 32.3281 45.5781
Q33.4062 49.3594 33.4062 52.7812
Q33.4062 57.5625 31.1562 60.6406
Q28.9062 63.7188 24.3125 63.7188
Q20.5156 63.7188 17.0469 62.2812
Q13.5781 60.8438 11.5312 57.9062
Q11.7188 57.9531 11.8594 57.9844
Q12.0156 58.0156 12.2031 58.0156
Q14.4531 58.0156 15.9688 56.4531
Q17.4844 54.8906 17.4844 52.6875
Q17.4844 50.5312 15.9688 48.9688
Q14.4531 47.4062 12.2031 47.4062
Q10.0156 47.4062 8.45312 48.9688
Q6.89062 50.5312 6.89062 52.6875
Q6.89062 56.9844 9.46875 60.1562
Q12.0625 63.3281 16.1406 64.9688
Q20.2188 66.6094 24.3125 66.6094
Q27.3438 66.6094 30.7031 65.7031
Q34.0781 64.7969 36.8125 63.1094
Q39.5469 61.4219 41.2812 58.7812
Q43.0156 56.1562 43.0156 52.7812
Q43.0156 48.5781 41.1406 45.0156
Q39.2656 41.4531 35.9844 38.8594
Q32.7188 36.2812 28.8125 35.0156
Q33.1562 34.1875 37.0625 31.7344
Q40.9688 29.2969 43.3281 25.4844
Q45.7031 21.6875 45.7031 17.2812
Q45.7031 11.7656 42.6719 7.29688
Q39.6562 2.82812 34.7188 0.3125
Q29.7812 -2.20312 24.3125 -2.20312
Q19.625 -2.20312 14.9062 -0.40625
Q10.2031 1.375 7.20312 4.9375
Q4.20312 8.5 4.20312 13.4844
Q4.20312 15.9688 5.85938 17.625
Q7.51562 19.2812 10.0156 19.2812
Q11.625 19.2812 12.9688 18.5312
Q14.3125 17.7812 15.0625 16.4062
Q15.8281 15.0469 15.8281 13.4844
Q15.8281 11.0312 14.1094 9.375
Q12.4062 7.71875 10.0156 7.71875
z
" id="Cmr10-33"/>
     <path d="
M4.39062 -175.875
Q3.51562 -175.875 3.51562 -175
Q3.51562 -174.609 3.71875 -174.422
Q12.2031 -165.922 18.0625 -155.547
Q23.9219 -145.172 27.2969 -133.844
Q30.6719 -122.516 32.125 -110.547
Q33.5938 -98.5781 33.5938 -85.8906
Q33.5938 -72.9062 32.0938 -61.0312
Q30.6094 -49.1719 27.2344 -37.8906
Q23.875 -26.6094 18.0312 -16.2344
Q12.2031 -5.85938 3.71875 2.48438
Q3.51562 2.6875 3.51562 3.07812
Q3.51562 4 4.39062 4
L6.6875 4
Q6.98438 4 7.17188 3.8125
Q16.4062 -4.15625 23.0938 -14.5781
Q29.7812 -25 33.8594 -36.6875
Q37.9375 -48.3906 39.7656 -60.7344
Q41.6094 -73.0938 41.6094 -85.9844
Q41.6094 -98.8281 39.7656 -111.156
Q37.9375 -123.484 33.8594 -135.203
Q29.7812 -146.922 23.0938 -157.312
Q16.4062 -167.719 7.17188 -175.688
Q6.98438 -175.875 6.6875 -175.875
z
" id="Cmex10-b4"/>
     <path d="
M10.2031 23
Q9.375 23 8.82812 23.625
Q8.29688 24.2656 8.29688 25
Q8.29688 25.7344 8.82812 26.3594
Q9.375 27 10.2031 27
L67.5781 27
Q68.3594 27 68.875 26.3594
Q69.3906 25.7344 69.3906 25
Q69.3906 24.2656 68.875 23.625
Q68.3594 23 67.5781 23
z
" id="Cmsy10-a1"/>
     <path d="
M52.4844 -175.688
Q43.1719 -167.578 36.5469 -157.266
Q29.9375 -146.969 25.8594 -135.25
Q21.7812 -123.531 19.8906 -111.172
Q18.0156 -98.8281 18.0156 -85.9844
Q18.0156 -73.0938 19.8906 -60.7188
Q21.7812 -48.3438 25.8594 -36.625
Q29.9375 -24.9062 36.5469 -14.5938
Q43.1719 -4.29688 52.4844 3.8125
Q52.4844 4 52.9844 4
L55.3281 4
Q55.6094 4 55.8594 3.6875
Q56.1094 3.375 56.1094 3.07812
Q56.1094 2.6875 55.9062 2.48438
Q47.3594 -6.0625 41.5938 -16.2656
Q35.8438 -26.4688 32.375 -38.1094
Q28.9062 -49.75 27.4375 -61.6875
Q25.9844 -73.6406 25.9844 -86.0781
Q25.9844 -98.4844 27.4375 -110.469
Q28.9062 -122.469 32.375 -133.984
Q35.8438 -145.516 41.6719 -155.766
Q47.5156 -166.016 55.9062 -174.422
Q56.1094 -174.609 56.1094 -175
Q56.1094 -175.25 55.8281 -175.562
Q55.5625 -175.875 55.3281 -175.875
L52.9844 -175.875
Q52.4844 -175.875 52.4844 -175.688" id="Cmex10-b3"/>
    </defs>
    <g style="fill:#99b2e6;" transform="translate(7.2 286.670769231)scale(0.36 -0.36)">
     <use transform="translate(0.0 83.1734375)scale(0.700738359972)" xlink:href="#Cmex10-b3"/>
     <use transform="translate(41.8390808105 0.33125)" xlink:href="#Cmsy10-a1"/>
     <use transform="translate(119.524627686 39.3734375)scale(0.7)" xlink:href="#Cmr10-33"/>
     <use transform="translate(119.524627686 -40.0453125)scale(0.7)" xlink:href="#Cmr10-34"/>
     <use transform="translate(167.024627686 0.33125)" xlink:href="#Cmmi10-3b"/>
     <use transform="translate(196.692596436 0.33125)" xlink:href="#Cmsy10-a1"/>
     <use transform="translate(274.378143311 39.3734375)scale(0.7)" xlink:href="#Cmr10-33"/>
     <use transform="translate(274.378143311 -40.0453125)scale(0.7)" xlink:href="#Cmr10-34"/>
     <use transform="translate(321.878143311 83.1734375)scale(0.700738359972)" xlink:href="#Cmex10-b4"/>
     <use transform="translate(381.275817871 0.33125)" xlink:href="#Cmsy10-21"/>
     <use transform="translate(487.506286621 0.33125)" xlink:href="#Cmr10-28"/>
     <use transform="translate(526.324645996 0.33125)" xlink:href="#Cmsy10-a1"/>
     <use transform="translate(604.010192871 0.33125)" xlink:href="#Cmr10-33"/>
     <use transform="translate(654.010192871 0.33125)" xlink:href="#Cmmi10-3b"/>
     <use transform="translate(683.678161621 0.33125)" xlink:href="#Cmsy10-a1"/>
     <use transform="translate(761.363708496 0.33125)" xlink:href="#Cmr10-33"/>
     <use transform="translate(811.363708496 0.33125)" xlink:href="#Cmr10-29"/>
     <path d="
M119.525 12.8313
L119.525 19.0813
L154.525 19.0813
L154.525 12.8313
L119.525 12.8313
z
"/>
     <path d="
M274.378 12.8313
L274.378 19.0813
L309.378 19.0813
L309.378 12.8313
L274.378 12.8313
z
"/>
    </g>
   </g>
  </g>
 </g>
 <defs>
  <clipPath id="p4fcc9e9ad1">
   <rect height="406.08" width="466.992" x="151.399384615" y="7.2"/>
  </clipPath>
 </defs>
</svg>
