<?xml version="1.0" encoding="utf-8" standalone="no"?>
<!DOCTYPE svg PUBLIC "-//W3C//DTD SVG 1.1//EN"
  "http://www.w3.org/Graphics/SVG/1.1/DTD/svg11.dtd">
<!-- Created with matplotlib (http://matplotlib.org/) -->
<svg height="92pt" version="1.1" viewBox="0 0 564 92" width="564pt" xmlns="http://www.w3.org/2000/svg" xmlns:xlink="http://www.w3.org/1999/xlink">
 <defs>
  <style type="text/css">
*{stroke-linecap:butt;stroke-linejoin:round;}
  </style>
 </defs>
 <g id="figure_1">
  <g id="patch_1">
   <path d="
M0 92.9829
L564.48 92.9829
L564.48 0
L0 0
z
" style="fill:#ffffff;"/>
  </g>
  <g id="axes_1">
   <g id="patch_2">
    <path d="
M7.2 85.7829
L557.28 85.7829
L557.28 7.2
L7.2 7.2
z
" style="fill:#ffffff;"/>
   </g>
   <g id="patch_3">
    <path clip-path="url(#pe78c3a5e58)" d="
M282.24 46.4914
Q150.009 46.4914 20.0145 46.4914" style="fill:none;stroke:#000000;stroke-linecap:round;stroke-width:2.0;"/>
    <path clip-path="url(#pe78c3a5e58)" d="
M30.0145 51.4914
L20.0145 46.4914
L30.0145 41.4914
L30.0145 51.4914
z
" style="stroke:#000000;stroke-linecap:round;stroke-width:2.0;"/>
   </g>
   <g id="patch_4">
    <path clip-path="url(#pe78c3a5e58)" d="
M282.24 46.4914
Q414.471 46.4914 544.465 46.4914" style="fill:none;stroke:#000000;stroke-linecap:round;stroke-width:2.0;"/>
    <path clip-path="url(#pe78c3a5e58)" d="
M534.465 41.4914
L544.465 46.4914
L534.465 51.4914
L534.465 41.4914
z
" style="stroke:#000000;stroke-linecap:round;stroke-width:2.0;"/>
   </g>
   <g id="matplotlib.axis_1"/>
   <g id="matplotlib.axis_2"/>
   <g id="text_1">
    <!-- $-3$ -->
    <defs>
     <path d="
M9.51562 7.71875
Q11.8594 4.29688 15.8125 2.64062
Q19.7812 0.984375 24.3125 0.984375
Q30.125 0.984375 32.5625 5.9375
Q35.0156 10.8906 35.0156 17.1875
Q35.0156 20.0156 34.5 22.8438
Q33.9844 25.6875 32.7656 28.125
Q31.5469 30.5625 29.4219 32.0312
Q27.2969 33.5 24.2188 33.5
L17.5781 33.5
Q16.7031 33.5 16.7031 34.4219
L16.7031 35.2969
Q16.7031 36.0781 17.5781 36.0781
L23.0938 36.5312
Q26.6094 36.5312 28.9219 39.1562
Q31.25 41.7969 32.3281 45.5781
Q33.4062 49.3594 33.4062 52.7812
Q33.4062 57.5625 31.1562 60.6406
Q28.9062 63.7188 24.3125 63.7188
Q20.5156 63.7188 17.0469 62.2812
Q13.5781 60.8438 11.5312 57.9062
Q11.7188 57.9531 11.8594 57.9844
Q12.0156 58.0156 12.2031 58.0156
Q14.4531 58.0156 15.9688 56.4531
Q17.4844 54.8906 17.4844 52.6875
Q17.4844 50.5312 15.9688 48.9688
Q14.4531 47.4062 12.2031 47.4062
Q10.0156 47.4062 8.45312 48.9688
Q6.89062 50.5312 6.89062 52.6875
Q6.89062 56.9844 9.46875 60.1562
Q12.0625 63.3281 16.1406 64.9688
Q20.2188 66.6094 24.3125 66.6094
Q27.3438 66.6094 30.7031 65.7031
Q34.0781 64.7969 36.8125 63.1094
Q39.5469 61.4219 41.2812 58.7812
Q43.0156 56.1562 43.0156 52.7812
Q43.0156 48.5781 41.1406 45.0156
Q39.2656 41.4531 35.9844 38.8594
Q32.7188 36.2812 28.8125 35.0156
Q33.1562 34.1875 37.0625 31.7344
Q40.9688 29.2969 43.3281 25.4844
Q45.7031 21.6875 45.7031 17.2812
Q45.7031 11.7656 42.6719 7.29688
Q39.6562 2.82812 34.7188 0.3125
Q29.7812 -2.20312 24.3125 -2.20312
Q19.625 -2.20312 14.9062 -0.40625
Q10.2031 1.375 7.20312 4.9375
Q4.20312 8.5 4.20312 13.4844
Q4.20312 15.9688 5.85938 17.625
Q7.51562 19.2812 10.0156 19.2812
Q11.625 19.2812 12.9688 18.5312
Q14.3125 17.7812 15.0625 16.4062
Q15.8281 15.0469 15.8281 13.4844
Q15.8281 11.0312 14.1094 9.375
Q12.4062 7.71875 10.0156 7.71875
z
" id="Cmr10-33"/>
     <path d="
M10.2031 23
Q9.375 23 8.82812 23.625
Q8.29688 24.2656 8.29688 25
Q8.29688 25.7344 8.82812 26.3594
Q9.375 27 10.2031 27
L67.5781 27
Q68.3594 27 68.875 26.3594
Q69.3906 25.7344 69.3906 25
Q69.3906 24.2656 68.875 23.625
Q68.3594 23 67.5781 23
z
" id="Cmsy10-a1"/>
    </defs>
    <g style="fill:#ff0000;" transform="translate(106.943736264 78.3007417582)scale(0.24 -0.24)">
     <use transform="translate(0.0 0.390625)" xlink:href="#Cmsy10-a1"/>
     <use transform="translate(77.685546875 0.390625)" xlink:href="#Cmr10-33"/>
    </g>
   </g>
   <g id="text_2">
    <!-- $-1$ -->
    <defs>
     <path d="
M9.28125 0
L9.28125 3.51562
Q21.7812 3.51562 21.7812 6.6875
L21.7812 59.1875
Q16.6094 56.6875 8.6875 56.6875
L8.6875 60.2031
Q20.9531 60.2031 27.2031 66.6094
L28.6094 66.6094
Q28.9531 66.6094 29.2656 66.3281
Q29.5938 66.0625 29.5938 65.7188
L29.5938 6.6875
Q29.5938 3.51562 42.0938 3.51562
L42.0938 0
z
" id="Cmr10-31"/>
    </defs>
    <g style="fill:#ff0000;" transform="translate(207.187252747 78.3007417582)scale(0.24 -0.24)">
     <use transform="translate(0.0 0.390625)" xlink:href="#Cmsy10-a1"/>
     <use transform="translate(77.685546875 0.390625)" xlink:href="#Cmr10-31"/>
    </g>
   </g>
   <g id="text_3">
    <!-- $1$ -->
    <g style="fill:#ff0000;" transform="translate(326.613626374 78.3007417582)scale(0.24 -0.24)">
     <use transform="translate(0.0 0.390625)" xlink:href="#Cmr10-31"/>
    </g>
   </g>
   <g id="text_4">
    <!-- $3$ -->
    <g style="fill:#ff0000;" transform="translate(427.360879121 78.3007417582)scale(0.24 -0.24)">
     <use transform="translate(0.0 0.390625)" xlink:href="#Cmr10-33"/>
    </g>
   </g>
   <g id="PathCollection_1">
    <defs>
     <path d="
M0 3.87298
C1.02713 3.87298 2.01232 3.4649 2.73861 2.73861
C3.4649 2.01232 3.87298 1.02713 3.87298 0
C3.87298 -1.02713 3.4649 -2.01232 2.73861 -2.73861
C2.01232 -3.4649 1.02713 -3.87298 0 -3.87298
C-1.02713 -3.87298 -2.01232 -3.4649 -2.73861 -2.73861
C-3.4649 -2.01232 -3.87298 -1.02713 -3.87298 0
C-3.87298 1.02713 -3.4649 2.01232 -2.73861 2.73861
C-2.01232 3.4649 -1.02713 3.87298 0 3.87298
z
" id="C0_0_5009dfc2f8"/>
    </defs>
    <g clip-path="url(#pe78c3a5e58)">
     <use style="fill:#ff0000;" x="131.119120879" xlink:href="#C0_0_5009dfc2f8" y="46.4914285714"/>
    </g>
   </g>
   <g id="PathCollection_2">
    <defs>
     <path d="
M0 3.87298
C1.02713 3.87298 2.01232 3.4649 2.73861 2.73861
C3.4649 2.01232 3.87298 1.02713 3.87298 0
C3.87298 -1.02713 3.4649 -2.01232 2.73861 -2.73861
C2.01232 -3.4649 1.02713 -3.87298 0 -3.87298
C-1.02713 -3.87298 -2.01232 -3.4649 -2.73861 -2.73861
C-3.4649 -2.01232 -3.87298 -1.02713 -3.87298 0
C-3.87298 1.02713 -3.4649 2.01232 -2.73861 2.73861
C-2.01232 3.4649 -1.02713 3.87298 0 3.87298
z
" id="C1_0_5009dfc2f8"/>
    </defs>
    <g clip-path="url(#pe78c3a5e58)">
     <use style="fill:#ff0000;" x="231.866373626" xlink:href="#C1_0_5009dfc2f8" y="46.4914285714"/>
    </g>
   </g>
   <g id="PathCollection_3">
    <defs>
     <path d="
M0 3.87298
C1.02713 3.87298 2.01232 3.4649 2.73861 2.73861
C3.4649 2.01232 3.87298 1.02713 3.87298 0
C3.87298 -1.02713 3.4649 -2.01232 2.73861 -2.73861
C2.01232 -3.4649 1.02713 -3.87298 0 -3.87298
C-1.02713 -3.87298 -2.01232 -3.4649 -2.73861 -2.73861
C-3.4649 -2.01232 -3.87298 -1.02713 -3.87298 0
C-3.87298 1.02713 -3.4649 2.01232 -2.73861 2.73861
C-2.01232 3.4649 -1.02713 3.87298 0 3.87298
z
" id="C2_0_5009dfc2f8"/>
    </defs>
    <g clip-path="url(#pe78c3a5e58)">
     <use style="fill:#ff0000;" x="332.613626374" xlink:href="#C2_0_5009dfc2f8" y="46.4914285714"/>
    </g>
   </g>
   <g id="PathCollection_4">
    <defs>
     <path d="
M0 3.87298
C1.02713 3.87298 2.01232 3.4649 2.73861 2.73861
C3.4649 2.01232 3.87298 1.02713 3.87298 0
C3.87298 -1.02713 3.4649 -2.01232 2.73861 -2.73861
C2.01232 -3.4649 1.02713 -3.87298 0 -3.87298
C-1.02713 -3.87298 -2.01232 -3.4649 -2.73861 -2.73861
C-3.4649 -2.01232 -3.87298 -1.02713 -3.87298 0
C-3.87298 1.02713 -3.4649 2.01232 -2.73861 2.73861
C-2.01232 3.4649 -1.02713 3.87298 0 3.87298
z
" id="C3_0_5009dfc2f8"/>
    </defs>
    <g clip-path="url(#pe78c3a5e58)">
     <use style="fill:#ff0000;" x="433.360879121" xlink:href="#C3_0_5009dfc2f8" y="46.4914285714"/>
    </g>
   </g>
   <g id="patch_5">
    <path clip-path="url(#pe78c3a5e58)" d="
M131.119 46.4914
Q87.0422 46.4914 46.3194 46.4914" style="fill:none;stroke:#ff0000;stroke-linecap:round;stroke-width:3.0;"/>
    <path clip-path="url(#pe78c3a5e58)" d="
M56.3194 51.4914
L46.3194 46.4914
L56.3194 41.4914
L56.3194 51.4914
z
" style="fill:#ff0000;stroke:#ff0000;stroke-linecap:round;stroke-width:3.0;"/>
   </g>
   <g id="patch_6">
    <path clip-path="url(#pe78c3a5e58)" d="
M433.361 46.4914
Q477.438 46.4914 518.161 46.4914" style="fill:none;stroke:#ff0000;stroke-linecap:round;stroke-width:3.0;"/>
    <path clip-path="url(#pe78c3a5e58)" d="
M508.161 41.4914
L518.161 46.4914
L508.161 51.4914
L508.161 41.4914
z
" style="fill:#ff0000;stroke:#ff0000;stroke-linecap:round;stroke-width:3.0;"/>
   </g>
   <g id="line2d_1">
    <path clip-path="url(#pe78c3a5e58)" d="
M231.866 46.4914
L332.614 46.4914" style="fill:none;stroke:#ff0000;stroke-linecap:square;stroke-width:3.0;"/>
   </g>
  </g>
 </g>
 <defs>
  <clipPath id="pe78c3a5e58">
   <rect height="78.5828571429" width="550.08" x="7.2" y="7.2"/>
  </clipPath>
 </defs>
</svg>
