<?xml version="1.0" encoding="utf-8" standalone="no"?>
<!DOCTYPE svg PUBLIC "-//W3C//DTD SVG 1.1//EN"
  "http://www.w3.org/Graphics/SVG/1.1/DTD/svg11.dtd">
<!-- Created with matplotlib (http://matplotlib.org/) -->
<svg height="421pt" version="1.1" viewBox="0 0 420 421" width="420pt" xmlns="http://www.w3.org/2000/svg" xmlns:xlink="http://www.w3.org/1999/xlink">
 <defs>
  <style type="text/css">
*{stroke-linecap:butt;stroke-linejoin:round;}
  </style>
 </defs>
 <g id="figure_1">
  <g id="patch_1">
   <path d="
M0 421.158
L420.4 421.158
L420.4 0
L0 0
z
" style="fill:#ffffff;"/>
  </g>
  <g id="axes_1">
   <g id="patch_2">
    <path d="
M20.1203 400.28
L413.2 400.28
L413.2 7.2
L20.1203 7.2
z
" style="fill:#ffffff;"/>
   </g>
   <g id="LineCollection_1">
    <defs>
     <path d="
M75.803 -28.4374
L75.876 -28.7665
L76.3743 -30.974
L76.947 -33.5107
L77.5197 -36.0473
L78.0924 -38.584
L78.4126 -40.0027
L78.6697 -41.1206
L79.253 -43.6573
L79.8362 -46.1939
L80.4195 -48.7306
L80.9493 -51.0346
L81.0038 -51.2672
L81.5981 -53.8039
L82.1924 -56.3406
L82.7866 -58.8772
L83.3809 -61.4139
L83.4859 -61.8622
L83.9846 -63.9505
L84.5903 -66.4872
L85.196 -69.0238
L85.8017 -71.5605
L86.0226 -72.4855
L86.415 -74.0971
L87.0326 -76.6338
L87.6501 -79.1704
L88.2677 -81.7071
L88.5593 -82.9045
L88.8918 -84.2438
L89.5218 -86.7804
L90.1517 -89.3171
L90.7816 -91.8537
L91.0959 -93.1192
L91.418 -94.3904
L92.0608 -96.927
L92.7036 -99.4637
L93.3464 -102
L93.6326 -103.13
L93.9966 -104.537
L94.6528 -107.074
L95.309 -109.61
L95.9652 -112.147
L96.1692 -112.936
L96.631 -114.684
L97.3011 -117.22
L97.9713 -119.757
L98.6414 -122.294
L98.7059 -122.538
L99.3247 -124.83
L100.009 -127.367
L100.694 -129.904
L101.243 -131.935
L101.382 -132.44
L102.082 -134.977
L102.782 -137.514
L103.482 -140.05
L103.779 -141.128
L104.191 -142.587
L104.907 -145.123
L105.622 -147.66
L106.316 -150.117
L106.339 -150.197
L107.071 -152.733
L107.804 -155.27
L108.536 -157.807
L108.852 -158.902
L109.279 -160.343
L110.029 -162.88
L110.778 -165.417
L111.389 -167.482
L111.532 -167.953
L112.3 -170.49
L113.068 -173.027
L113.836 -175.563
L113.926 -175.858
L114.622 -178.1
L115.409 -180.637
L116.196 -183.173
L116.462 -184.03
L116.997 -185.71
L117.805 -188.247
L118.612 -190.783
L118.999 -191.998
L119.431 -193.32
L120.26 -195.857
L121.089 -198.393
L121.536 -199.761
L121.928 -200.93
L122.779 -203.467
L123.631 -206.003
L124.072 -207.32
L124.493 -208.54
L125.368 -211.076
L126.243 -213.613
L126.609 -214.674
L127.133 -216.15
L128.032 -218.686
L128.932 -221.223
L129.146 -221.825
L129.852 -223.76
L130.779 -226.296
L131.682 -228.771
L131.706 -228.833
L132.66 -231.37
L133.615 -233.906
L134.219 -235.512
L134.58 -236.443
L135.564 -238.98
L136.549 -241.516
L136.756 -242.05
L137.558 -244.053
L138.574 -246.59
L139.292 -248.383
L139.6 -249.126
L140.65 -251.663
L141.7 -254.2
L141.829 -254.512
L142.781 -256.736
L143.868 -259.273
L144.366 -260.436
L144.975 -261.81
L146.1 -264.346
L146.902 -266.157
L147.236 -266.883
L148.403 -269.42
L149.439 -271.672
L149.574 -271.956
L150.786 -274.493
L151.976 -276.984
L151.998 -277.03
L153.258 -279.566
L154.512 -282.091
L154.518 -282.103
L155.831 -284.639
L157.049 -286.995
L157.147 -287.176
L158.516 -289.713
L159.586 -291.693
L159.899 -292.249
L161.331 -294.786
L162.122 -296.188
L162.793 -297.323
L164.293 -299.859
L164.659 -300.478
L165.85 -302.396
L167.196 -304.564
L167.437 -304.933
L169.094 -307.469
L169.732 -308.445
L170.809 -310.006
L172.269 -312.123
L172.576 -312.543
L174.428 -315.079
L174.806 -315.596
L176.373 -317.616
L177.342 -318.864
L178.409 -320.153
L179.879 -321.929
L180.553 -322.689
L182.415 -324.789
L182.833 -325.226
L184.952 -327.445
L185.281 -327.763
L187.489 -329.896
L187.944 -330.299
L190.025 -332.144
L190.885 -332.836
L192.562 -334.187
L194.198 -335.373
L195.099 -336.025
L197.635 -337.66
L198.078 -337.909
L200.172 -339.09
L202.709 -340.315
L203.033 -340.446
L205.245 -341.337
L207.782 -342.154
L210.319 -342.767
L211.657 -342.983
L212.855 -343.175
L215.392 -343.38
L217.929 -343.38
L220.465 -343.175
L221.663 -342.983
L223.002 -342.767
L225.539 -342.154
L228.075 -341.337
L230.288 -340.446
L230.612 -340.315
L233.149 -339.09
L235.242 -337.909
L235.685 -337.66
L238.222 -336.025
L239.122 -335.373
L240.759 -334.187
L242.436 -332.836
L243.295 -332.144
L245.377 -330.299
L245.832 -329.896
L248.04 -327.763
L248.368 -327.445
L250.488 -325.226
L250.905 -324.789
L252.767 -322.689
L253.442 -321.929
L254.912 -320.153
L255.978 -318.864
L256.947 -317.616
L258.515 -315.596
L258.892 -315.079
L260.745 -312.543
L261.052 -312.123
L262.512 -310.006
L263.588 -308.445
L264.226 -307.469
L265.884 -304.933
L266.125 -304.564
L267.471 -302.396
L268.662 -300.478
L269.027 -299.859
L270.527 -297.323
L271.198 -296.188
L271.989 -294.786
L273.421 -292.249
L273.735 -291.693
L274.804 -289.713
L276.174 -287.176
L276.272 -286.995
L277.49 -284.639
L278.802 -282.103
L278.808 -282.091
L280.063 -279.566
L281.322 -277.03
L281.345 -276.984
L282.535 -274.493
L283.746 -271.956
L283.882 -271.672
L284.918 -269.42
L286.084 -266.883
L286.418 -266.157
L287.221 -264.346
L288.346 -261.81
L288.955 -260.436
L289.453 -259.273
L290.539 -256.736
L291.492 -254.512
L291.621 -254.2
L292.671 -251.663
L293.721 -249.126
L294.028 -248.383
L294.747 -246.59
L295.763 -244.053
L296.565 -242.05
L296.772 -241.516
L297.756 -238.98
L298.74 -236.443
L299.102 -235.512
L299.706 -233.906
L300.66 -231.37
L301.615 -228.833
L301.638 -228.771
L302.542 -226.296
L303.468 -223.76
L304.175 -221.825
L304.388 -221.223
L305.288 -218.686
L306.188 -216.15
L306.712 -214.674
L307.078 -213.613
L307.952 -211.076
L308.827 -208.54
L309.248 -207.32
L309.69 -206.003
L310.541 -203.467
L311.393 -200.93
L311.785 -199.761
L312.232 -198.393
L313.061 -195.857
L313.889 -193.32
L314.322 -191.998
L314.708 -190.783
L315.516 -188.247
L316.323 -185.71
L316.858 -184.03
L317.124 -183.173
L317.912 -180.637
L318.699 -178.1
L319.395 -175.858
L319.484 -175.563
L320.252 -173.027
L321.021 -170.49
L321.789 -167.953
L321.931 -167.482
L322.542 -165.417
L323.292 -162.88
L324.042 -160.343
L324.468 -158.902
L324.784 -157.807
L325.517 -155.27
L326.249 -152.733
L326.982 -150.197
L327.005 -150.117
L327.698 -147.66
L328.414 -145.123
L329.13 -142.587
L329.541 -141.128
L329.839 -140.05
L330.539 -137.514
L331.239 -134.977
L331.939 -132.44
L332.078 -131.935
L332.626 -129.904
L333.311 -127.367
L333.996 -124.83
L334.615 -122.538
L334.679 -122.294
L335.349 -119.757
L336.02 -117.22
L336.69 -114.684
L337.151 -112.936
L337.355 -112.147
L338.012 -109.61
L338.668 -107.074
L339.324 -104.537
L339.688 -103.13
L339.974 -102
L340.617 -99.4637
L341.26 -96.927
L341.903 -94.3904
L342.225 -93.1192
L342.539 -91.8537
L343.169 -89.3171
L343.799 -86.7804
L344.429 -84.2438
L344.761 -82.9045
L345.053 -81.7071
L345.67 -79.1704
L346.288 -76.6338
L346.906 -74.0971
L347.298 -72.4855
L347.519 -71.5605
L348.125 -69.0238
L348.73 -66.4872
L349.336 -63.9505
L349.835 -61.8622
L349.94 -61.4139
L350.534 -58.8772
L351.128 -56.3406
L351.723 -53.8039
L352.317 -51.2672
L352.371 -51.0346
L352.901 -48.7306
L353.484 -46.1939
L354.068 -43.6573
L354.651 -41.1206
L354.908 -40.0027
L355.228 -38.584
L355.801 -36.0473
L356.374 -33.5107
L356.946 -30.974
L357.445 -28.7665
L357.518 -28.4374" id="C0_0_ec0dc29064"/>
    </defs>
    <g clip-path="url(#p9abf9c1704)">
     <use style="fill:none;stroke:#000000;" x="0.0" xlink:href="#C0_0_ec0dc29064" y="421.158125"/>
    </g>
   </g>
   <g id="LineCollection_2">
    <defs>
     <path d="
M75.803 -28.4374
L75.876 -28.7665
L76.3743 -30.974
L76.947 -33.5107
L77.5197 -36.0473
L78.0924 -38.584
L78.4126 -40.0027
L78.6697 -41.1206
L79.253 -43.6573
L79.8362 -46.1939
L80.4195 -48.7306
L80.9493 -51.0346
L81.0038 -51.2672
L81.5981 -53.8039
L82.1924 -56.3406
L82.7866 -58.8772
L83.3809 -61.4139
L83.4859 -61.8622
L83.9846 -63.9505
L84.5903 -66.4872
L85.196 -69.0238
L85.8017 -71.5605
L86.0226 -72.4855
L86.415 -74.0971
L87.0326 -76.6338
L87.6501 -79.1704
L88.2677 -81.7071
L88.5593 -82.9045
L88.8918 -84.2438
L89.5218 -86.7804
L90.1517 -89.3171
L90.7816 -91.8537
L91.0959 -93.1192
L91.418 -94.3904
L92.0608 -96.927
L92.7036 -99.4637
L93.3464 -102
L93.6326 -103.13
L93.9966 -104.537
L94.6528 -107.074
L95.309 -109.61
L95.9652 -112.147
L96.1692 -112.936
L96.631 -114.684
L97.3011 -117.22
L97.9713 -119.757
L98.6414 -122.294
L98.7059 -122.538
L99.3247 -124.83
L100.009 -127.367
L100.694 -129.904
L101.243 -131.935
L101.382 -132.44
L102.082 -134.977
L102.782 -137.514
L103.482 -140.05
L103.779 -141.128
L104.191 -142.587
L104.907 -145.123
L105.622 -147.66
L106.316 -150.117
L106.339 -150.197
L107.071 -152.733
L107.804 -155.27
L108.536 -157.807
L108.852 -158.902
L109.279 -160.343
L110.029 -162.88
L110.778 -165.417
L111.389 -167.482
L111.532 -167.953
L112.3 -170.49
L113.068 -173.027
L113.836 -175.563
L113.926 -175.858
L114.622 -178.1
L115.409 -180.637
L116.196 -183.173
L116.462 -184.03
L116.997 -185.71
L117.805 -188.247
L118.612 -190.783
L118.999 -191.998
L119.431 -193.32
L120.26 -195.857
L121.089 -198.393
L121.536 -199.761
L121.928 -200.93
L122.779 -203.467
L123.631 -206.003
L124.072 -207.32
L124.493 -208.54
L125.368 -211.076
L126.243 -213.613
L126.609 -214.674
L127.133 -216.15
L128.032 -218.686
L128.932 -221.223
L129.146 -221.825
L129.852 -223.76
L130.779 -226.296
L131.682 -228.771
L131.706 -228.833
L132.66 -231.37
L133.615 -233.906
L134.219 -235.512
L134.58 -236.443
L135.564 -238.98
L136.549 -241.516
L136.756 -242.05
L137.558 -244.053
L138.574 -246.59
L139.292 -248.383
L139.6 -249.126
L140.65 -251.663
L141.7 -254.2
L141.829 -254.512
L142.781 -256.736
L143.868 -259.273
L144.366 -260.436
L144.975 -261.81
L146.1 -264.346
L146.902 -266.157
L147.236 -266.883
L148.403 -269.42
L149.439 -271.672
L149.574 -271.956
L150.786 -274.493
L151.976 -276.984
L151.998 -277.03
L153.258 -279.566
L154.512 -282.091
L154.518 -282.103
L155.831 -284.639
L157.049 -286.995
L157.147 -287.176
L158.516 -289.713
L159.586 -291.693
L159.899 -292.249
L161.331 -294.786
L162.122 -296.188
L162.793 -297.323
L164.293 -299.859
L164.659 -300.478
L165.85 -302.396
L167.196 -304.564
L167.437 -304.933
L169.094 -307.469
L169.732 -308.445
L170.809 -310.006
L172.269 -312.123
L172.576 -312.543
L174.428 -315.079
L174.806 -315.596
L176.373 -317.616
L177.342 -318.864
L178.409 -320.153
L179.879 -321.929
L180.553 -322.689
L182.415 -324.789
L182.833 -325.226
L184.952 -327.445
L185.281 -327.763
L187.489 -329.896
L187.944 -330.299
L190.025 -332.144
L190.885 -332.836
L192.562 -334.187
L194.198 -335.373
L195.099 -336.025
L197.635 -337.66
L198.078 -337.909
L200.172 -339.09
L202.709 -340.315
L203.033 -340.446
L205.245 -341.337
L207.782 -342.154
L210.319 -342.767
L211.657 -342.983
L212.855 -343.175
L215.392 -343.38
L217.929 -343.38
L220.465 -343.175
L221.663 -342.983
L223.002 -342.767
L225.539 -342.154
L228.075 -341.337
L230.288 -340.446
L230.612 -340.315
L233.149 -339.09
L235.242 -337.909
L235.685 -337.66
L238.222 -336.025
L239.122 -335.373
L240.759 -334.187
L242.436 -332.836
L243.295 -332.144
L245.377 -330.299
L245.832 -329.896
L248.04 -327.763
L248.368 -327.445
L250.488 -325.226
L250.905 -324.789
L252.767 -322.689
L253.442 -321.929
L254.912 -320.153
L255.978 -318.864
L256.947 -317.616
L258.515 -315.596
L258.892 -315.079
L260.745 -312.543
L261.052 -312.123
L262.512 -310.006
L263.588 -308.445
L264.226 -307.469
L265.884 -304.933
L266.125 -304.564
L267.471 -302.396
L268.662 -300.478
L269.027 -299.859
L270.527 -297.323
L271.198 -296.188
L271.989 -294.786
L273.421 -292.249
L273.735 -291.693
L274.804 -289.713
L276.174 -287.176
L276.272 -286.995
L277.49 -284.639
L278.802 -282.103
L278.808 -282.091
L280.063 -279.566
L281.322 -277.03
L281.345 -276.984
L282.535 -274.493
L283.746 -271.956
L283.882 -271.672
L284.918 -269.42
L286.084 -266.883
L286.418 -266.157
L287.221 -264.346
L288.346 -261.81
L288.955 -260.436
L289.453 -259.273
L290.539 -256.736
L291.492 -254.512
L291.621 -254.2
L292.671 -251.663
L293.721 -249.126
L294.028 -248.383
L294.747 -246.59
L295.763 -244.053
L296.565 -242.05
L296.772 -241.516
L297.756 -238.98
L298.74 -236.443
L299.102 -235.512
L299.706 -233.906
L300.66 -231.37
L301.615 -228.833
L301.638 -228.771
L302.542 -226.296
L303.468 -223.76
L304.175 -221.825
L304.388 -221.223
L305.288 -218.686
L306.188 -216.15
L306.712 -214.674
L307.078 -213.613
L307.952 -211.076
L308.827 -208.54
L309.248 -207.32
L309.69 -206.003
L310.541 -203.467
L311.393 -200.93
L311.785 -199.761
L312.232 -198.393
L313.061 -195.857
L313.889 -193.32
L314.322 -191.998
L314.708 -190.783
L315.516 -188.247
L316.323 -185.71
L316.858 -184.03
L317.124 -183.173
L317.912 -180.637
L318.699 -178.1
L319.395 -175.858
L319.484 -175.563
L320.252 -173.027
L321.021 -170.49
L321.789 -167.953
L321.931 -167.482
L322.542 -165.417
L323.292 -162.88
L324.042 -160.343
L324.468 -158.902
L324.784 -157.807
L325.517 -155.27
L326.249 -152.733
L326.982 -150.197
L327.005 -150.117
L327.698 -147.66
L328.414 -145.123
L329.13 -142.587
L329.541 -141.128
L329.839 -140.05
L330.539 -137.514
L331.239 -134.977
L331.939 -132.44
L332.078 -131.935
L332.626 -129.904
L333.311 -127.367
L333.996 -124.83
L334.615 -122.538
L334.679 -122.294
L335.349 -119.757
L336.02 -117.22
L336.69 -114.684
L337.151 -112.936
L337.355 -112.147
L338.012 -109.61
L338.668 -107.074
L339.324 -104.537
L339.688 -103.13
L339.974 -102
L340.617 -99.4637
L341.26 -96.927
L341.903 -94.3904
L342.225 -93.1192
L342.539 -91.8537
L343.169 -89.3171
L343.799 -86.7804
L344.429 -84.2438
L344.761 -82.9045
L345.053 -81.7071
L345.67 -79.1704
L346.288 -76.6338
L346.906 -74.0971
L347.298 -72.4855
L347.519 -71.5605
L348.125 -69.0238
L348.73 -66.4872
L349.336 -63.9505
L349.835 -61.8622
L349.94 -61.4139
L350.534 -58.8772
L351.128 -56.3406
L351.723 -53.8039
L352.317 -51.2672
L352.371 -51.0346
L352.901 -48.7306
L353.484 -46.1939
L354.068 -43.6573
L354.651 -41.1206
L354.908 -40.0027
L355.228 -38.584
L355.801 -36.0473
L356.374 -33.5107
L356.946 -30.974
L357.445 -28.7665
L357.518 -28.4374" id="C1_0_ec0dc29064"/>
    </defs>
    <g clip-path="url(#p9abf9c1704)">
     <use style="fill:none;stroke:#000000;" x="0.0" xlink:href="#C1_0_ec0dc29064" y="421.158125"/>
    </g>
   </g>
   <g id="LineCollection_3">
    <defs>
     <path d="
M27.6795 -28.4374
L30.2162 -30.974
L30.2162 -30.974
L32.7529 -33.5107
L32.7529 -33.5107
L35.2895 -36.0473
L35.2895 -36.0473
L37.8262 -38.584
L37.8262 -38.584
L40.3628 -41.1206
L40.3628 -41.1206
L42.8995 -43.6573
L42.8995 -43.6573
L45.4361 -46.1939
L45.4361 -46.1939
L47.9728 -48.7306
L47.9728 -48.7306
L50.5094 -51.2672
L50.5094 -51.2672
L53.0461 -53.8039
L53.0461 -53.8039
L55.5827 -56.3406
L55.5827 -56.3406
L58.1194 -58.8772
L58.1194 -58.8772
L60.6561 -61.4139
L60.6561 -61.4139
L63.1927 -63.9505
L63.1927 -63.9505
L65.7294 -66.4872
L65.7294 -66.4872
L68.266 -69.0238
L68.266 -69.0238
L70.8027 -71.5605
L70.8027 -71.5605
L73.3393 -74.0971
L73.3393 -74.0971
L75.876 -76.6338
L75.876 -76.6338
L78.4126 -79.1704
L78.4126 -79.1704
L80.9493 -81.7071
L80.9493 -81.7071
L83.4859 -84.2438
L83.4859 -84.2438
L86.0226 -86.7804
L86.0226 -86.7804
L88.5593 -89.3171
L88.5593 -89.3171
L91.0959 -91.8537
L91.0959 -91.8537
L93.6326 -94.3904
L93.6326 -94.3904
L96.1692 -96.927
L96.1692 -96.927
L98.7059 -99.4637
L98.7059 -99.4637
L101.243 -102
L101.243 -102
L103.779 -104.537
L103.779 -104.537
L106.316 -107.074
L106.316 -107.074
L108.852 -109.61
L108.852 -109.61
L111.389 -112.147
L111.389 -112.147
L113.926 -114.684
L113.926 -114.684
L116.462 -117.22
L116.462 -117.22
L118.999 -119.757
L118.999 -119.757
L121.536 -122.294
L121.536 -122.294
L124.072 -124.83
L124.072 -124.83
L126.609 -127.367
L126.609 -127.367
L129.146 -129.904
L129.146 -129.904
L131.682 -132.44
L131.682 -132.44
L134.219 -134.977
L134.219 -134.977
L136.756 -137.514
L136.756 -137.514
L139.292 -140.05
L139.292 -140.05
L141.829 -142.587
L141.829 -142.587
L144.366 -145.123
L144.366 -145.123
L146.902 -147.66
L146.902 -147.66
L149.439 -150.197
L149.439 -150.197
L151.976 -152.733
L151.976 -152.733
L154.512 -155.27
L154.512 -155.27
L157.049 -157.807
L157.049 -157.807
L159.586 -160.343
L159.586 -160.343
L162.122 -162.88
L162.122 -162.88
L164.659 -165.417
L164.659 -165.417
L167.196 -167.953
L167.196 -167.953
L169.732 -170.49
L169.732 -170.49
L172.269 -173.027
L172.269 -173.027
L174.806 -175.563
L174.806 -175.563
L177.342 -178.1
L177.342 -178.1
L179.879 -180.637
L179.879 -180.637
L182.415 -183.173
L182.415 -183.173
L184.952 -185.71
L184.952 -185.71
L187.489 -188.247
L187.489 -188.247
L190.025 -190.783
L190.025 -190.783
L192.562 -193.32
L192.562 -193.32
L195.099 -195.857
L195.099 -195.857
L197.635 -198.393
L197.635 -198.393
L200.172 -200.93
L200.172 -200.93
L202.709 -203.467
L202.709 -203.467
L205.245 -206.003
L205.245 -206.003
L207.782 -208.54
L207.782 -208.54
L210.319 -211.076
L210.319 -211.076
L212.855 -213.613
L212.855 -213.613
L215.392 -216.15
L215.392 -216.15
L217.929 -218.686
L217.929 -218.686
L220.465 -221.223
L220.465 -221.223
L223.002 -223.76
L223.002 -223.76
L225.539 -226.296
L225.539 -226.296
L228.075 -228.833
L228.075 -228.833
L230.612 -231.37
L230.612 -231.37
L233.149 -233.906
L233.149 -233.906
L235.685 -236.443
L235.685 -236.443
L238.222 -238.98
L238.222 -238.98
L240.759 -241.516
L240.759 -241.516
L243.295 -244.053
L243.295 -244.053
L245.832 -246.59
L245.832 -246.59
L248.368 -249.126
L248.368 -249.126
L250.905 -251.663
L250.905 -251.663
L253.442 -254.2
L253.442 -254.2
L255.978 -256.736
L255.978 -256.736
L258.515 -259.273
L258.515 -259.273
L261.052 -261.81
L261.052 -261.81
L263.588 -264.346
L263.588 -264.346
L266.125 -266.883
L266.125 -266.883
L268.662 -269.42
L268.662 -269.42
L271.198 -271.956
L271.198 -271.956
L273.735 -274.493
L273.735 -274.493
L276.272 -277.03
L276.272 -277.03
L278.808 -279.566
L278.808 -279.566
L281.345 -282.103
L281.345 -282.103
L283.882 -284.639
L283.882 -284.639
L286.418 -287.176
L286.418 -287.176
L288.955 -289.713
L288.955 -289.713
L291.492 -292.249
L291.492 -292.249
L294.028 -294.786
L294.028 -294.786
L296.565 -297.323
L296.565 -297.323
L299.102 -299.859
L299.102 -299.859
L301.638 -302.396
L301.638 -302.396
L304.175 -304.933
L304.175 -304.933
L306.712 -307.469
L306.712 -307.469
L309.248 -310.006
L309.248 -310.006
L311.785 -312.543
L311.785 -312.543
L314.322 -315.079
L314.322 -315.079
L316.858 -317.616
L316.858 -317.616
L319.395 -320.153
L319.395 -320.153
L321.931 -322.689
L321.931 -322.689
L324.468 -325.226
L324.468 -325.226
L327.005 -327.763
L327.005 -327.763
L329.541 -330.299
L329.541 -330.299
L332.078 -332.836
L332.078 -332.836
L334.615 -335.373
L334.615 -335.373
L337.151 -337.909
L337.151 -337.909
L339.688 -340.446
L339.688 -340.446
L342.225 -342.983
L342.225 -342.983
L344.761 -345.519
L344.761 -345.519
L347.298 -348.056
L347.298 -348.056
L349.835 -350.592
L349.835 -350.592
L352.371 -353.129
L352.371 -353.129
L354.908 -355.666
L354.908 -355.666
L357.445 -358.202
L357.445 -358.202
L359.981 -360.739
L359.981 -360.739
L362.518 -363.276
L362.518 -363.276
L365.055 -365.812
L365.055 -365.812
L367.591 -368.349
L367.591 -368.349
L370.128 -370.886
L370.128 -370.886
L372.665 -373.422
L372.665 -373.422
L375.201 -375.959
L375.201 -375.959
L377.738 -378.496
L377.738 -378.496
L380.275 -381.032
L380.275 -381.032
L382.811 -383.569
L382.811 -383.569
L385.348 -386.106
L385.348 -386.106
L387.884 -388.642
L387.884 -388.642
L390.421 -391.179
L390.421 -391.179
L392.958 -393.716
L392.958 -393.716
L395.494 -396.252
L395.494 -396.252
L398.031 -398.789
L398.031 -398.789
L400.568 -401.326
L400.568 -401.326
L403.104 -403.862
L403.104 -403.862
L405.641 -406.399" id="C2_0_bb260b6f82"/>
    </defs>
    <g clip-path="url(#p9abf9c1704)">
     <use style="fill:none;stroke:#0000ff;" x="0.0" xlink:href="#C2_0_bb260b6f82" y="421.158125"/>
    </g>
   </g>
   <g id="LineCollection_4">
    <defs>
     <path d="
M27.6795 -28.4374
L30.2162 -30.974
L30.2162 -30.974
L32.7529 -33.5107
L32.7529 -33.5107
L35.2895 -36.0473
L35.2895 -36.0473
L37.8262 -38.584
L37.8262 -38.584
L40.3628 -41.1206
L40.3628 -41.1206
L42.8995 -43.6573
L42.8995 -43.6573
L45.4361 -46.1939
L45.4361 -46.1939
L47.9728 -48.7306
L47.9728 -48.7306
L50.5094 -51.2672
L50.5094 -51.2672
L53.0461 -53.8039
L53.0461 -53.8039
L55.5827 -56.3406
L55.5827 -56.3406
L58.1194 -58.8772
L58.1194 -58.8772
L60.6561 -61.4139
L60.6561 -61.4139
L63.1927 -63.9505
L63.1927 -63.9505
L65.7294 -66.4872
L65.7294 -66.4872
L68.266 -69.0238
L68.266 -69.0238
L70.8027 -71.5605
L70.8027 -71.5605
L73.3393 -74.0971
L73.3393 -74.0971
L75.876 -76.6338
L75.876 -76.6338
L78.4126 -79.1704
L78.4126 -79.1704
L80.9493 -81.7071
L80.9493 -81.7071
L83.4859 -84.2438
L83.4859 -84.2438
L86.0226 -86.7804
L86.0226 -86.7804
L88.5593 -89.3171
L88.5593 -89.3171
L91.0959 -91.8537
L91.0959 -91.8537
L93.6326 -94.3904
L93.6326 -94.3904
L96.1692 -96.927
L96.1692 -96.927
L98.7059 -99.4637
L98.7059 -99.4637
L101.243 -102
L101.243 -102
L103.779 -104.537
L103.779 -104.537
L106.316 -107.074
L106.316 -107.074
L108.852 -109.61
L108.852 -109.61
L111.389 -112.147
L111.389 -112.147
L113.926 -114.684
L113.926 -114.684
L116.462 -117.22
L116.462 -117.22
L118.999 -119.757
L118.999 -119.757
L121.536 -122.294
L121.536 -122.294
L124.072 -124.83
L124.072 -124.83
L126.609 -127.367
L126.609 -127.367
L129.146 -129.904
L129.146 -129.904
L131.682 -132.44
L131.682 -132.44
L134.219 -134.977
L134.219 -134.977
L136.756 -137.514
L136.756 -137.514
L139.292 -140.05
L139.292 -140.05
L141.829 -142.587
L141.829 -142.587
L144.366 -145.123
L144.366 -145.123
L146.902 -147.66
L146.902 -147.66
L149.439 -150.197
L149.439 -150.197
L151.976 -152.733
L151.976 -152.733
L154.512 -155.27
L154.512 -155.27
L157.049 -157.807
L157.049 -157.807
L159.586 -160.343
L159.586 -160.343
L162.122 -162.88
L162.122 -162.88
L164.659 -165.417
L164.659 -165.417
L167.196 -167.953
L167.196 -167.953
L169.732 -170.49
L169.732 -170.49
L172.269 -173.027
L172.269 -173.027
L174.806 -175.563
L174.806 -175.563
L177.342 -178.1
L177.342 -178.1
L179.879 -180.637
L179.879 -180.637
L182.415 -183.173
L182.415 -183.173
L184.952 -185.71
L184.952 -185.71
L187.489 -188.247
L187.489 -188.247
L190.025 -190.783
L190.025 -190.783
L192.562 -193.32
L192.562 -193.32
L195.099 -195.857
L195.099 -195.857
L197.635 -198.393
L197.635 -198.393
L200.172 -200.93
L200.172 -200.93
L202.709 -203.467
L202.709 -203.467
L205.245 -206.003
L205.245 -206.003
L207.782 -208.54
L207.782 -208.54
L210.319 -211.076
L210.319 -211.076
L212.855 -213.613
L212.855 -213.613
L215.392 -216.15
L215.392 -216.15
L217.929 -218.686
L217.929 -218.686
L220.465 -221.223
L220.465 -221.223
L223.002 -223.76
L223.002 -223.76
L225.539 -226.296
L225.539 -226.296
L228.075 -228.833
L228.075 -228.833
L230.612 -231.37
L230.612 -231.37
L233.149 -233.906
L233.149 -233.906
L235.685 -236.443
L235.685 -236.443
L238.222 -238.98
L238.222 -238.98
L240.759 -241.516
L240.759 -241.516
L243.295 -244.053
L243.295 -244.053
L245.832 -246.59
L245.832 -246.59
L248.368 -249.126
L248.368 -249.126
L250.905 -251.663
L250.905 -251.663
L253.442 -254.2
L253.442 -254.2
L255.978 -256.736
L255.978 -256.736
L258.515 -259.273
L258.515 -259.273
L261.052 -261.81
L261.052 -261.81
L263.588 -264.346
L263.588 -264.346
L266.125 -266.883
L266.125 -266.883
L268.662 -269.42
L268.662 -269.42
L271.198 -271.956
L271.198 -271.956
L273.735 -274.493
L273.735 -274.493
L276.272 -277.03
L276.272 -277.03
L278.808 -279.566
L278.808 -279.566
L281.345 -282.103
L281.345 -282.103
L283.882 -284.639
L283.882 -284.639
L286.418 -287.176
L286.418 -287.176
L288.955 -289.713
L288.955 -289.713
L291.492 -292.249
L291.492 -292.249
L294.028 -294.786
L294.028 -294.786
L296.565 -297.323
L296.565 -297.323
L299.102 -299.859
L299.102 -299.859
L301.638 -302.396
L301.638 -302.396
L304.175 -304.933
L304.175 -304.933
L306.712 -307.469
L306.712 -307.469
L309.248 -310.006
L309.248 -310.006
L311.785 -312.543
L311.785 -312.543
L314.322 -315.079
L314.322 -315.079
L316.858 -317.616
L316.858 -317.616
L319.395 -320.153
L319.395 -320.153
L321.931 -322.689
L321.931 -322.689
L324.468 -325.226
L324.468 -325.226
L327.005 -327.763
L327.005 -327.763
L329.541 -330.299
L329.541 -330.299
L332.078 -332.836
L332.078 -332.836
L334.615 -335.373
L334.615 -335.373
L337.151 -337.909
L337.151 -337.909
L339.688 -340.446
L339.688 -340.446
L342.225 -342.983
L342.225 -342.983
L344.761 -345.519
L344.761 -345.519
L347.298 -348.056
L347.298 -348.056
L349.835 -350.592
L349.835 -350.592
L352.371 -353.129
L352.371 -353.129
L354.908 -355.666
L354.908 -355.666
L357.445 -358.202
L357.445 -358.202
L359.981 -360.739
L359.981 -360.739
L362.518 -363.276
L362.518 -363.276
L365.055 -365.812
L365.055 -365.812
L367.591 -368.349
L367.591 -368.349
L370.128 -370.886
L370.128 -370.886
L372.665 -373.422
L372.665 -373.422
L375.201 -375.959
L375.201 -375.959
L377.738 -378.496
L377.738 -378.496
L380.275 -381.032
L380.275 -381.032
L382.811 -383.569
L382.811 -383.569
L385.348 -386.106
L385.348 -386.106
L387.884 -388.642
L387.884 -388.642
L390.421 -391.179
L390.421 -391.179
L392.958 -393.716
L392.958 -393.716
L395.494 -396.252
L395.494 -396.252
L398.031 -398.789
L398.031 -398.789
L400.568 -401.326
L400.568 -401.326
L403.104 -403.862
L403.104 -403.862
L405.641 -406.399" id="C3_0_bb260b6f82"/>
    </defs>
    <g clip-path="url(#p9abf9c1704)">
     <use style="fill:none;stroke:#0000ff;" x="0.0" xlink:href="#C3_0_bb260b6f82" y="421.158125"/>
    </g>
   </g>
   <g id="matplotlib.axis_1">
    <g id="xtick_1">
     <g id="line2d_1">
      <defs>
       <path d="
M0 0
L0 -4" id="m93b0483c22" style="stroke:#000000;stroke-width:0.5;"/>
      </defs>
      <g>
       <use style="stroke:#000000;stroke-width:0.5;" x="27.6795432692" xlink:href="#m93b0483c22" y="400.28"/>
      </g>
     </g>
     <g id="line2d_2">
      <defs>
       <path d="
M0 0
L0 4" id="m741efc42ff" style="stroke:#000000;stroke-width:0.5;"/>
      </defs>
      <g>
       <use style="stroke:#000000;stroke-width:0.5;" x="27.6795432692" xlink:href="#m741efc42ff" y="7.2"/>
      </g>
     </g>
     <g id="text_1">
      <!-- -3 -->
      <defs>
       <path d="
M40.5781 39.3125
Q47.6562 37.7969 51.625 33
Q55.6094 28.2188 55.6094 21.1875
Q55.6094 10.4062 48.1875 4.48438
Q40.7656 -1.42188 27.0938 -1.42188
Q22.5156 -1.42188 17.6562 -0.515625
Q12.7969 0.390625 7.625 2.20312
L7.625 11.7188
Q11.7188 9.32812 16.5938 8.10938
Q21.4844 6.89062 26.8125 6.89062
Q36.0781 6.89062 40.9375 10.5469
Q45.7969 14.2031 45.7969 21.1875
Q45.7969 27.6406 41.2812 31.2656
Q36.7656 34.9062 28.7188 34.9062
L20.2188 34.9062
L20.2188 43.0156
L29.1094 43.0156
Q36.375 43.0156 40.2344 45.9219
Q44.0938 48.8281 44.0938 54.2969
Q44.0938 59.9062 40.1094 62.9062
Q36.1406 65.9219 28.7188 65.9219
Q24.6562 65.9219 20.0156 65.0312
Q15.375 64.1562 9.8125 62.3125
L9.8125 71.0938
Q15.4375 72.6562 20.3438 73.4375
Q25.25 74.2188 29.5938 74.2188
Q40.8281 74.2188 47.3594 69.1094
Q53.9062 64.0156 53.9062 55.3281
Q53.9062 49.2656 50.4375 45.0938
Q46.9688 40.9219 40.5781 39.3125" id="BitstreamVeraSans-Roman-33"/>
       <path d="
M4.89062 31.3906
L31.2031 31.3906
L31.2031 23.3906
L4.89062 23.3906
z
" id="BitstreamVeraSans-Roman-2d"/>
      </defs>
      <g transform="translate(23.3396995192 411.8784375)scale(0.1 -0.1)">
       <use xlink:href="#BitstreamVeraSans-Roman-2d"/>
       <use x="36.083984375" xlink:href="#BitstreamVeraSans-Roman-33"/>
      </g>
     </g>
    </g>
    <g id="xtick_2">
     <g id="line2d_3">
      <g>
       <use style="stroke:#000000;stroke-width:0.5;" x="90.6731330128" xlink:href="#m93b0483c22" y="400.28"/>
      </g>
     </g>
     <g id="line2d_4">
      <g>
       <use style="stroke:#000000;stroke-width:0.5;" x="90.6731330128" xlink:href="#m741efc42ff" y="7.2"/>
      </g>
     </g>
     <g id="text_2">
      <!-- -2 -->
      <defs>
       <path d="
M19.1875 8.29688
L53.6094 8.29688
L53.6094 0
L7.32812 0
L7.32812 8.29688
Q12.9375 14.1094 22.625 23.8906
Q32.3281 33.6875 34.8125 36.5312
Q39.5469 41.8438 41.4219 45.5312
Q43.3125 49.2188 43.3125 52.7812
Q43.3125 58.5938 39.2344 62.25
Q35.1562 65.9219 28.6094 65.9219
Q23.9688 65.9219 18.8125 64.3125
Q13.6719 62.7031 7.8125 59.4219
L7.8125 69.3906
Q13.7656 71.7812 18.9375 73
Q24.125 74.2188 28.4219 74.2188
Q39.75 74.2188 46.4844 68.5469
Q53.2188 62.8906 53.2188 53.4219
Q53.2188 48.9219 51.5312 44.8906
Q49.8594 40.875 45.4062 35.4062
Q44.1875 33.9844 37.6406 27.2188
Q31.1094 20.4531 19.1875 8.29688" id="BitstreamVeraSans-Roman-32"/>
      </defs>
      <g transform="translate(86.4332892628 411.8784375)scale(0.1 -0.1)">
       <use xlink:href="#BitstreamVeraSans-Roman-2d"/>
       <use x="36.083984375" xlink:href="#BitstreamVeraSans-Roman-32"/>
      </g>
     </g>
    </g>
    <g id="xtick_3">
     <g id="line2d_5">
      <g>
       <use style="stroke:#000000;stroke-width:0.5;" x="153.666722756" xlink:href="#m93b0483c22" y="400.28"/>
      </g>
     </g>
     <g id="line2d_6">
      <g>
       <use style="stroke:#000000;stroke-width:0.5;" x="153.666722756" xlink:href="#m741efc42ff" y="7.2"/>
      </g>
     </g>
     <g id="text_3">
      <!-- -1 -->
      <defs>
       <path d="
M12.4062 8.29688
L28.5156 8.29688
L28.5156 63.9219
L10.9844 60.4062
L10.9844 69.3906
L28.4219 72.9062
L38.2812 72.9062
L38.2812 8.29688
L54.3906 8.29688
L54.3906 0
L12.4062 0
z
" id="BitstreamVeraSans-Roman-31"/>
      </defs>
      <g transform="translate(149.387816506 411.8784375)scale(0.1 -0.1)">
       <use xlink:href="#BitstreamVeraSans-Roman-2d"/>
       <use x="36.083984375" xlink:href="#BitstreamVeraSans-Roman-31"/>
      </g>
     </g>
    </g>
    <g id="xtick_4">
     <g id="line2d_7">
      <g>
       <use style="stroke:#000000;stroke-width:0.5;" x="216.6603125" xlink:href="#m93b0483c22" y="400.28"/>
      </g>
     </g>
     <g id="line2d_8">
      <g>
       <use style="stroke:#000000;stroke-width:0.5;" x="216.6603125" xlink:href="#m741efc42ff" y="7.2"/>
      </g>
     </g>
     <g id="text_4">
      <!-- 0 -->
      <defs>
       <path d="
M31.7812 66.4062
Q24.1719 66.4062 20.3281 58.9062
Q16.5 51.4219 16.5 36.375
Q16.5 21.3906 20.3281 13.8906
Q24.1719 6.39062 31.7812 6.39062
Q39.4531 6.39062 43.2812 13.8906
Q47.125 21.3906 47.125 36.375
Q47.125 51.4219 43.2812 58.9062
Q39.4531 66.4062 31.7812 66.4062
M31.7812 74.2188
Q44.0469 74.2188 50.5156 64.5156
Q56.9844 54.8281 56.9844 36.375
Q56.9844 17.9688 50.5156 8.26562
Q44.0469 -1.42188 31.7812 -1.42188
Q19.5312 -1.42188 13.0625 8.26562
Q6.59375 17.9688 6.59375 36.375
Q6.59375 54.8281 13.0625 64.5156
Q19.5312 74.2188 31.7812 74.2188" id="BitstreamVeraSans-Roman-30"/>
      </defs>
      <g transform="translate(214.14078125 411.8784375)scale(0.1 -0.1)">
       <use xlink:href="#BitstreamVeraSans-Roman-30"/>
      </g>
     </g>
    </g>
    <g id="xtick_5">
     <g id="line2d_9">
      <g>
       <use style="stroke:#000000;stroke-width:0.5;" x="279.653902244" xlink:href="#m93b0483c22" y="400.28"/>
      </g>
     </g>
     <g id="line2d_10">
      <g>
       <use style="stroke:#000000;stroke-width:0.5;" x="279.653902244" xlink:href="#m741efc42ff" y="7.2"/>
      </g>
     </g>
     <g id="text_5">
      <!-- 1 -->
      <g transform="translate(277.483589744 411.8784375)scale(0.1 -0.1)">
       <use xlink:href="#BitstreamVeraSans-Roman-31"/>
      </g>
     </g>
    </g>
    <g id="xtick_6">
     <g id="line2d_11">
      <g>
       <use style="stroke:#000000;stroke-width:0.5;" x="342.647491987" xlink:href="#m93b0483c22" y="400.28"/>
      </g>
     </g>
     <g id="line2d_12">
      <g>
       <use style="stroke:#000000;stroke-width:0.5;" x="342.647491987" xlink:href="#m741efc42ff" y="7.2"/>
      </g>
     </g>
     <g id="text_6">
      <!-- 2 -->
      <g transform="translate(340.333429487 411.8784375)scale(0.1 -0.1)">
       <use xlink:href="#BitstreamVeraSans-Roman-32"/>
      </g>
     </g>
    </g>
    <g id="xtick_7">
     <g id="line2d_13">
      <g>
       <use style="stroke:#000000;stroke-width:0.5;" x="405.641081731" xlink:href="#m93b0483c22" y="400.28"/>
      </g>
     </g>
     <g id="line2d_14">
      <g>
       <use style="stroke:#000000;stroke-width:0.5;" x="405.641081731" xlink:href="#m741efc42ff" y="7.2"/>
      </g>
     </g>
     <g id="text_7">
      <!-- 3 -->
      <g transform="translate(403.241862981 411.8784375)scale(0.1 -0.1)">
       <use xlink:href="#BitstreamVeraSans-Roman-33"/>
      </g>
     </g>
    </g>
    <g id="xtick_8">
     <g id="line2d_15">
      <defs>
       <path d="
M0 0
L0 -2" id="m177f7580d0" style="stroke:#000000;stroke-width:0.5;"/>
      </defs>
      <g>
       <use style="stroke:#000000;stroke-width:0.5;" x="40.2782612179" xlink:href="#m177f7580d0" y="400.28"/>
      </g>
     </g>
     <g id="line2d_16">
      <defs>
       <path d="
M0 0
L0 2" id="m5284c7e2a0" style="stroke:#000000;stroke-width:0.5;"/>
      </defs>
      <g>
       <use style="stroke:#000000;stroke-width:0.5;" x="40.2782612179" xlink:href="#m5284c7e2a0" y="7.2"/>
      </g>
     </g>
    </g>
    <g id="xtick_9">
     <g id="line2d_17">
      <g>
       <use style="stroke:#000000;stroke-width:0.5;" x="52.8769791667" xlink:href="#m177f7580d0" y="400.28"/>
      </g>
     </g>
     <g id="line2d_18">
      <g>
       <use style="stroke:#000000;stroke-width:0.5;" x="52.8769791667" xlink:href="#m5284c7e2a0" y="7.2"/>
      </g>
     </g>
    </g>
    <g id="xtick_10">
     <g id="line2d_19">
      <g>
       <use style="stroke:#000000;stroke-width:0.5;" x="65.4756971154" xlink:href="#m177f7580d0" y="400.28"/>
      </g>
     </g>
     <g id="line2d_20">
      <g>
       <use style="stroke:#000000;stroke-width:0.5;" x="65.4756971154" xlink:href="#m5284c7e2a0" y="7.2"/>
      </g>
     </g>
    </g>
    <g id="xtick_11">
     <g id="line2d_21">
      <g>
       <use style="stroke:#000000;stroke-width:0.5;" x="78.0744150641" xlink:href="#m177f7580d0" y="400.28"/>
      </g>
     </g>
     <g id="line2d_22">
      <g>
       <use style="stroke:#000000;stroke-width:0.5;" x="78.0744150641" xlink:href="#m5284c7e2a0" y="7.2"/>
      </g>
     </g>
    </g>
    <g id="xtick_12">
     <g id="line2d_23">
      <g>
       <use style="stroke:#000000;stroke-width:0.5;" x="103.271850962" xlink:href="#m177f7580d0" y="400.28"/>
      </g>
     </g>
     <g id="line2d_24">
      <g>
       <use style="stroke:#000000;stroke-width:0.5;" x="103.271850962" xlink:href="#m5284c7e2a0" y="7.2"/>
      </g>
     </g>
    </g>
    <g id="xtick_13">
     <g id="line2d_25">
      <g>
       <use style="stroke:#000000;stroke-width:0.5;" x="115.87056891" xlink:href="#m177f7580d0" y="400.28"/>
      </g>
     </g>
     <g id="line2d_26">
      <g>
       <use style="stroke:#000000;stroke-width:0.5;" x="115.87056891" xlink:href="#m5284c7e2a0" y="7.2"/>
      </g>
     </g>
    </g>
    <g id="xtick_14">
     <g id="line2d_27">
      <g>
       <use style="stroke:#000000;stroke-width:0.5;" x="128.469286859" xlink:href="#m177f7580d0" y="400.28"/>
      </g>
     </g>
     <g id="line2d_28">
      <g>
       <use style="stroke:#000000;stroke-width:0.5;" x="128.469286859" xlink:href="#m5284c7e2a0" y="7.2"/>
      </g>
     </g>
    </g>
    <g id="xtick_15">
     <g id="line2d_29">
      <g>
       <use style="stroke:#000000;stroke-width:0.5;" x="141.068004808" xlink:href="#m177f7580d0" y="400.28"/>
      </g>
     </g>
     <g id="line2d_30">
      <g>
       <use style="stroke:#000000;stroke-width:0.5;" x="141.068004808" xlink:href="#m5284c7e2a0" y="7.2"/>
      </g>
     </g>
    </g>
    <g id="xtick_16">
     <g id="line2d_31">
      <g>
       <use style="stroke:#000000;stroke-width:0.5;" x="153.666722756" xlink:href="#m177f7580d0" y="400.28"/>
      </g>
     </g>
     <g id="line2d_32">
      <g>
       <use style="stroke:#000000;stroke-width:0.5;" x="153.666722756" xlink:href="#m5284c7e2a0" y="7.2"/>
      </g>
     </g>
    </g>
    <g id="xtick_17">
     <g id="line2d_33">
      <g>
       <use style="stroke:#000000;stroke-width:0.5;" x="166.265440705" xlink:href="#m177f7580d0" y="400.28"/>
      </g>
     </g>
     <g id="line2d_34">
      <g>
       <use style="stroke:#000000;stroke-width:0.5;" x="166.265440705" xlink:href="#m5284c7e2a0" y="7.2"/>
      </g>
     </g>
    </g>
    <g id="xtick_18">
     <g id="line2d_35">
      <g>
       <use style="stroke:#000000;stroke-width:0.5;" x="178.864158654" xlink:href="#m177f7580d0" y="400.28"/>
      </g>
     </g>
     <g id="line2d_36">
      <g>
       <use style="stroke:#000000;stroke-width:0.5;" x="178.864158654" xlink:href="#m5284c7e2a0" y="7.2"/>
      </g>
     </g>
    </g>
    <g id="xtick_19">
     <g id="line2d_37">
      <g>
       <use style="stroke:#000000;stroke-width:0.5;" x="191.462876603" xlink:href="#m177f7580d0" y="400.28"/>
      </g>
     </g>
     <g id="line2d_38">
      <g>
       <use style="stroke:#000000;stroke-width:0.5;" x="191.462876603" xlink:href="#m5284c7e2a0" y="7.2"/>
      </g>
     </g>
    </g>
    <g id="xtick_20">
     <g id="line2d_39">
      <g>
       <use style="stroke:#000000;stroke-width:0.5;" x="204.061594551" xlink:href="#m177f7580d0" y="400.28"/>
      </g>
     </g>
     <g id="line2d_40">
      <g>
       <use style="stroke:#000000;stroke-width:0.5;" x="204.061594551" xlink:href="#m5284c7e2a0" y="7.2"/>
      </g>
     </g>
    </g>
    <g id="xtick_21">
     <g id="line2d_41">
      <g>
       <use style="stroke:#000000;stroke-width:0.5;" x="216.6603125" xlink:href="#m177f7580d0" y="400.28"/>
      </g>
     </g>
     <g id="line2d_42">
      <g>
       <use style="stroke:#000000;stroke-width:0.5;" x="216.6603125" xlink:href="#m5284c7e2a0" y="7.2"/>
      </g>
     </g>
    </g>
    <g id="xtick_22">
     <g id="line2d_43">
      <g>
       <use style="stroke:#000000;stroke-width:0.5;" x="229.259030449" xlink:href="#m177f7580d0" y="400.28"/>
      </g>
     </g>
     <g id="line2d_44">
      <g>
       <use style="stroke:#000000;stroke-width:0.5;" x="229.259030449" xlink:href="#m5284c7e2a0" y="7.2"/>
      </g>
     </g>
    </g>
    <g id="xtick_23">
     <g id="line2d_45">
      <g>
       <use style="stroke:#000000;stroke-width:0.5;" x="241.857748397" xlink:href="#m177f7580d0" y="400.28"/>
      </g>
     </g>
     <g id="line2d_46">
      <g>
       <use style="stroke:#000000;stroke-width:0.5;" x="241.857748397" xlink:href="#m5284c7e2a0" y="7.2"/>
      </g>
     </g>
    </g>
    <g id="xtick_24">
     <g id="line2d_47">
      <g>
       <use style="stroke:#000000;stroke-width:0.5;" x="254.456466346" xlink:href="#m177f7580d0" y="400.28"/>
      </g>
     </g>
     <g id="line2d_48">
      <g>
       <use style="stroke:#000000;stroke-width:0.5;" x="254.456466346" xlink:href="#m5284c7e2a0" y="7.2"/>
      </g>
     </g>
    </g>
    <g id="xtick_25">
     <g id="line2d_49">
      <g>
       <use style="stroke:#000000;stroke-width:0.5;" x="267.055184295" xlink:href="#m177f7580d0" y="400.28"/>
      </g>
     </g>
     <g id="line2d_50">
      <g>
       <use style="stroke:#000000;stroke-width:0.5;" x="267.055184295" xlink:href="#m5284c7e2a0" y="7.2"/>
      </g>
     </g>
    </g>
    <g id="xtick_26">
     <g id="line2d_51">
      <g>
       <use style="stroke:#000000;stroke-width:0.5;" x="279.653902244" xlink:href="#m177f7580d0" y="400.28"/>
      </g>
     </g>
     <g id="line2d_52">
      <g>
       <use style="stroke:#000000;stroke-width:0.5;" x="279.653902244" xlink:href="#m5284c7e2a0" y="7.2"/>
      </g>
     </g>
    </g>
    <g id="xtick_27">
     <g id="line2d_53">
      <g>
       <use style="stroke:#000000;stroke-width:0.5;" x="292.252620192" xlink:href="#m177f7580d0" y="400.28"/>
      </g>
     </g>
     <g id="line2d_54">
      <g>
       <use style="stroke:#000000;stroke-width:0.5;" x="292.252620192" xlink:href="#m5284c7e2a0" y="7.2"/>
      </g>
     </g>
    </g>
    <g id="xtick_28">
     <g id="line2d_55">
      <g>
       <use style="stroke:#000000;stroke-width:0.5;" x="304.851338141" xlink:href="#m177f7580d0" y="400.28"/>
      </g>
     </g>
     <g id="line2d_56">
      <g>
       <use style="stroke:#000000;stroke-width:0.5;" x="304.851338141" xlink:href="#m5284c7e2a0" y="7.2"/>
      </g>
     </g>
    </g>
    <g id="xtick_29">
     <g id="line2d_57">
      <g>
       <use style="stroke:#000000;stroke-width:0.5;" x="317.45005609" xlink:href="#m177f7580d0" y="400.28"/>
      </g>
     </g>
     <g id="line2d_58">
      <g>
       <use style="stroke:#000000;stroke-width:0.5;" x="317.45005609" xlink:href="#m5284c7e2a0" y="7.2"/>
      </g>
     </g>
    </g>
    <g id="xtick_30">
     <g id="line2d_59">
      <g>
       <use style="stroke:#000000;stroke-width:0.5;" x="330.048774038" xlink:href="#m177f7580d0" y="400.28"/>
      </g>
     </g>
     <g id="line2d_60">
      <g>
       <use style="stroke:#000000;stroke-width:0.5;" x="330.048774038" xlink:href="#m5284c7e2a0" y="7.2"/>
      </g>
     </g>
    </g>
    <g id="xtick_31">
     <g id="line2d_61">
      <g>
       <use style="stroke:#000000;stroke-width:0.5;" x="342.647491987" xlink:href="#m177f7580d0" y="400.28"/>
      </g>
     </g>
     <g id="line2d_62">
      <g>
       <use style="stroke:#000000;stroke-width:0.5;" x="342.647491987" xlink:href="#m5284c7e2a0" y="7.2"/>
      </g>
     </g>
    </g>
    <g id="xtick_32">
     <g id="line2d_63">
      <g>
       <use style="stroke:#000000;stroke-width:0.5;" x="355.246209936" xlink:href="#m177f7580d0" y="400.28"/>
      </g>
     </g>
     <g id="line2d_64">
      <g>
       <use style="stroke:#000000;stroke-width:0.5;" x="355.246209936" xlink:href="#m5284c7e2a0" y="7.2"/>
      </g>
     </g>
    </g>
    <g id="xtick_33">
     <g id="line2d_65">
      <g>
       <use style="stroke:#000000;stroke-width:0.5;" x="367.844927885" xlink:href="#m177f7580d0" y="400.28"/>
      </g>
     </g>
     <g id="line2d_66">
      <g>
       <use style="stroke:#000000;stroke-width:0.5;" x="367.844927885" xlink:href="#m5284c7e2a0" y="7.2"/>
      </g>
     </g>
    </g>
    <g id="xtick_34">
     <g id="line2d_67">
      <g>
       <use style="stroke:#000000;stroke-width:0.5;" x="380.443645833" xlink:href="#m177f7580d0" y="400.28"/>
      </g>
     </g>
     <g id="line2d_68">
      <g>
       <use style="stroke:#000000;stroke-width:0.5;" x="380.443645833" xlink:href="#m5284c7e2a0" y="7.2"/>
      </g>
     </g>
    </g>
    <g id="xtick_35">
     <g id="line2d_69">
      <g>
       <use style="stroke:#000000;stroke-width:0.5;" x="393.042363782" xlink:href="#m177f7580d0" y="400.28"/>
      </g>
     </g>
     <g id="line2d_70">
      <g>
       <use style="stroke:#000000;stroke-width:0.5;" x="393.042363782" xlink:href="#m5284c7e2a0" y="7.2"/>
      </g>
     </g>
    </g>
   </g>
   <g id="matplotlib.axis_2">
    <g id="ytick_1">
     <g id="line2d_71">
      <defs>
       <path d="
M0 0
L4 0" id="m728421d6d4" style="stroke:#000000;stroke-width:0.5;"/>
      </defs>
      <g>
       <use style="stroke:#000000;stroke-width:0.5;" x="20.1203125" xlink:href="#m728421d6d4" y="392.720769231"/>
      </g>
     </g>
     <g id="line2d_72">
      <defs>
       <path d="
M0 0
L-4 0" id="mcb0005524f" style="stroke:#000000;stroke-width:0.5;"/>
      </defs>
      <g>
       <use style="stroke:#000000;stroke-width:0.5;" x="413.2003125" xlink:href="#mcb0005524f" y="392.720769231"/>
      </g>
     </g>
     <g id="text_8">
      <!-- -4 -->
      <defs>
       <path d="
M37.7969 64.3125
L12.8906 25.3906
L37.7969 25.3906
z

M35.2031 72.9062
L47.6094 72.9062
L47.6094 25.3906
L58.0156 25.3906
L58.0156 17.1875
L47.6094 17.1875
L47.6094 0
L37.7969 0
L37.7969 17.1875
L4.89062 17.1875
L4.89062 26.7031
z
" id="BitstreamVeraSans-Roman-34"/>
      </defs>
      <g transform="translate(7.2 395.480144231)scale(0.1 -0.1)">
       <use xlink:href="#BitstreamVeraSans-Roman-2d"/>
       <use x="36.083984375" xlink:href="#BitstreamVeraSans-Roman-34"/>
      </g>
     </g>
    </g>
    <g id="ytick_2">
     <g id="line2d_73">
      <g>
       <use style="stroke:#000000;stroke-width:0.5;" x="20.1203125" xlink:href="#m728421d6d4" y="329.727179487"/>
      </g>
     </g>
     <g id="line2d_74">
      <g>
       <use style="stroke:#000000;stroke-width:0.5;" x="413.2003125" xlink:href="#mcb0005524f" y="329.727179487"/>
      </g>
     </g>
     <g id="text_9">
      <!-- -3 -->
      <g transform="translate(7.440625 332.486554487)scale(0.1 -0.1)">
       <use xlink:href="#BitstreamVeraSans-Roman-2d"/>
       <use x="36.083984375" xlink:href="#BitstreamVeraSans-Roman-33"/>
      </g>
     </g>
    </g>
    <g id="ytick_3">
     <g id="line2d_75">
      <g>
       <use style="stroke:#000000;stroke-width:0.5;" x="20.1203125" xlink:href="#m728421d6d4" y="266.733589744"/>
      </g>
     </g>
     <g id="line2d_76">
      <g>
       <use style="stroke:#000000;stroke-width:0.5;" x="413.2003125" xlink:href="#mcb0005524f" y="266.733589744"/>
      </g>
     </g>
     <g id="text_10">
      <!-- -2 -->
      <g transform="translate(7.640625 269.492964744)scale(0.1 -0.1)">
       <use xlink:href="#BitstreamVeraSans-Roman-2d"/>
       <use x="36.083984375" xlink:href="#BitstreamVeraSans-Roman-32"/>
      </g>
     </g>
    </g>
    <g id="ytick_4">
     <g id="line2d_77">
      <g>
       <use style="stroke:#000000;stroke-width:0.5;" x="20.1203125" xlink:href="#m728421d6d4" y="203.74"/>
      </g>
     </g>
     <g id="line2d_78">
      <g>
       <use style="stroke:#000000;stroke-width:0.5;" x="413.2003125" xlink:href="#mcb0005524f" y="203.74"/>
      </g>
     </g>
     <g id="text_11">
      <!-- -1 -->
      <g transform="translate(7.5625 206.499375)scale(0.1 -0.1)">
       <use xlink:href="#BitstreamVeraSans-Roman-2d"/>
       <use x="36.083984375" xlink:href="#BitstreamVeraSans-Roman-31"/>
      </g>
     </g>
    </g>
    <g id="ytick_5">
     <g id="line2d_79">
      <g>
       <use style="stroke:#000000;stroke-width:0.5;" x="20.1203125" xlink:href="#m728421d6d4" y="140.746410256"/>
      </g>
     </g>
     <g id="line2d_80">
      <g>
       <use style="stroke:#000000;stroke-width:0.5;" x="413.2003125" xlink:href="#mcb0005524f" y="140.746410256"/>
      </g>
     </g>
     <g id="text_12">
      <!-- 0 -->
      <g transform="translate(11.08125 143.505785256)scale(0.1 -0.1)">
       <use xlink:href="#BitstreamVeraSans-Roman-30"/>
      </g>
     </g>
    </g>
    <g id="ytick_6">
     <g id="line2d_81">
      <g>
       <use style="stroke:#000000;stroke-width:0.5;" x="20.1203125" xlink:href="#m728421d6d4" y="77.7528205128"/>
      </g>
     </g>
     <g id="line2d_82">
      <g>
       <use style="stroke:#000000;stroke-width:0.5;" x="413.2003125" xlink:href="#mcb0005524f" y="77.7528205128"/>
      </g>
     </g>
     <g id="text_13">
      <!-- 1 -->
      <g transform="translate(11.7796875 80.5121955128)scale(0.1 -0.1)">
       <use xlink:href="#BitstreamVeraSans-Roman-31"/>
      </g>
     </g>
    </g>
    <g id="ytick_7">
     <g id="line2d_83">
      <g>
       <use style="stroke:#000000;stroke-width:0.5;" x="20.1203125" xlink:href="#m728421d6d4" y="14.7592307692"/>
      </g>
     </g>
     <g id="line2d_84">
      <g>
       <use style="stroke:#000000;stroke-width:0.5;" x="413.2003125" xlink:href="#mcb0005524f" y="14.7592307692"/>
      </g>
     </g>
     <g id="text_14">
      <!-- 2 -->
      <g transform="translate(11.4921875 17.5186057692)scale(0.1 -0.1)">
       <use xlink:href="#BitstreamVeraSans-Roman-32"/>
      </g>
     </g>
    </g>
    <g id="ytick_8">
     <g id="line2d_85">
      <defs>
       <path d="
M0 0
L2 0" id="mf0c55a9a47" style="stroke:#000000;stroke-width:0.5;"/>
      </defs>
      <g>
       <use style="stroke:#000000;stroke-width:0.5;" x="20.1203125" xlink:href="#mf0c55a9a47" y="380.122051282"/>
      </g>
     </g>
     <g id="line2d_86">
      <defs>
       <path d="
M0 0
L-2 0" id="ma4f294b3af" style="stroke:#000000;stroke-width:0.5;"/>
      </defs>
      <g>
       <use style="stroke:#000000;stroke-width:0.5;" x="413.2003125" xlink:href="#ma4f294b3af" y="380.122051282"/>
      </g>
     </g>
    </g>
    <g id="ytick_9">
     <g id="line2d_87">
      <g>
       <use style="stroke:#000000;stroke-width:0.5;" x="20.1203125" xlink:href="#mf0c55a9a47" y="367.523333333"/>
      </g>
     </g>
     <g id="line2d_88">
      <g>
       <use style="stroke:#000000;stroke-width:0.5;" x="413.2003125" xlink:href="#ma4f294b3af" y="367.523333333"/>
      </g>
     </g>
    </g>
    <g id="ytick_10">
     <g id="line2d_89">
      <g>
       <use style="stroke:#000000;stroke-width:0.5;" x="20.1203125" xlink:href="#mf0c55a9a47" y="354.924615385"/>
      </g>
     </g>
     <g id="line2d_90">
      <g>
       <use style="stroke:#000000;stroke-width:0.5;" x="413.2003125" xlink:href="#ma4f294b3af" y="354.924615385"/>
      </g>
     </g>
    </g>
    <g id="ytick_11">
     <g id="line2d_91">
      <g>
       <use style="stroke:#000000;stroke-width:0.5;" x="20.1203125" xlink:href="#mf0c55a9a47" y="342.325897436"/>
      </g>
     </g>
     <g id="line2d_92">
      <g>
       <use style="stroke:#000000;stroke-width:0.5;" x="413.2003125" xlink:href="#ma4f294b3af" y="342.325897436"/>
      </g>
     </g>
    </g>
    <g id="ytick_12">
     <g id="line2d_93">
      <g>
       <use style="stroke:#000000;stroke-width:0.5;" x="20.1203125" xlink:href="#mf0c55a9a47" y="317.128461538"/>
      </g>
     </g>
     <g id="line2d_94">
      <g>
       <use style="stroke:#000000;stroke-width:0.5;" x="413.2003125" xlink:href="#ma4f294b3af" y="317.128461538"/>
      </g>
     </g>
    </g>
    <g id="ytick_13">
     <g id="line2d_95">
      <g>
       <use style="stroke:#000000;stroke-width:0.5;" x="20.1203125" xlink:href="#mf0c55a9a47" y="304.52974359"/>
      </g>
     </g>
     <g id="line2d_96">
      <g>
       <use style="stroke:#000000;stroke-width:0.5;" x="413.2003125" xlink:href="#ma4f294b3af" y="304.52974359"/>
      </g>
     </g>
    </g>
    <g id="ytick_14">
     <g id="line2d_97">
      <g>
       <use style="stroke:#000000;stroke-width:0.5;" x="20.1203125" xlink:href="#mf0c55a9a47" y="291.931025641"/>
      </g>
     </g>
     <g id="line2d_98">
      <g>
       <use style="stroke:#000000;stroke-width:0.5;" x="413.2003125" xlink:href="#ma4f294b3af" y="291.931025641"/>
      </g>
     </g>
    </g>
    <g id="ytick_15">
     <g id="line2d_99">
      <g>
       <use style="stroke:#000000;stroke-width:0.5;" x="20.1203125" xlink:href="#mf0c55a9a47" y="279.332307692"/>
      </g>
     </g>
     <g id="line2d_100">
      <g>
       <use style="stroke:#000000;stroke-width:0.5;" x="413.2003125" xlink:href="#ma4f294b3af" y="279.332307692"/>
      </g>
     </g>
    </g>
    <g id="ytick_16">
     <g id="line2d_101">
      <g>
       <use style="stroke:#000000;stroke-width:0.5;" x="20.1203125" xlink:href="#mf0c55a9a47" y="266.733589744"/>
      </g>
     </g>
     <g id="line2d_102">
      <g>
       <use style="stroke:#000000;stroke-width:0.5;" x="413.2003125" xlink:href="#ma4f294b3af" y="266.733589744"/>
      </g>
     </g>
    </g>
    <g id="ytick_17">
     <g id="line2d_103">
      <g>
       <use style="stroke:#000000;stroke-width:0.5;" x="20.1203125" xlink:href="#mf0c55a9a47" y="254.134871795"/>
      </g>
     </g>
     <g id="line2d_104">
      <g>
       <use style="stroke:#000000;stroke-width:0.5;" x="413.2003125" xlink:href="#ma4f294b3af" y="254.134871795"/>
      </g>
     </g>
    </g>
    <g id="ytick_18">
     <g id="line2d_105">
      <g>
       <use style="stroke:#000000;stroke-width:0.5;" x="20.1203125" xlink:href="#mf0c55a9a47" y="241.536153846"/>
      </g>
     </g>
     <g id="line2d_106">
      <g>
       <use style="stroke:#000000;stroke-width:0.5;" x="413.2003125" xlink:href="#ma4f294b3af" y="241.536153846"/>
      </g>
     </g>
    </g>
    <g id="ytick_19">
     <g id="line2d_107">
      <g>
       <use style="stroke:#000000;stroke-width:0.5;" x="20.1203125" xlink:href="#mf0c55a9a47" y="228.937435897"/>
      </g>
     </g>
     <g id="line2d_108">
      <g>
       <use style="stroke:#000000;stroke-width:0.5;" x="413.2003125" xlink:href="#ma4f294b3af" y="228.937435897"/>
      </g>
     </g>
    </g>
    <g id="ytick_20">
     <g id="line2d_109">
      <g>
       <use style="stroke:#000000;stroke-width:0.5;" x="20.1203125" xlink:href="#mf0c55a9a47" y="216.338717949"/>
      </g>
     </g>
     <g id="line2d_110">
      <g>
       <use style="stroke:#000000;stroke-width:0.5;" x="413.2003125" xlink:href="#ma4f294b3af" y="216.338717949"/>
      </g>
     </g>
    </g>
    <g id="ytick_21">
     <g id="line2d_111">
      <g>
       <use style="stroke:#000000;stroke-width:0.5;" x="20.1203125" xlink:href="#mf0c55a9a47" y="203.74"/>
      </g>
     </g>
     <g id="line2d_112">
      <g>
       <use style="stroke:#000000;stroke-width:0.5;" x="413.2003125" xlink:href="#ma4f294b3af" y="203.74"/>
      </g>
     </g>
    </g>
    <g id="ytick_22">
     <g id="line2d_113">
      <g>
       <use style="stroke:#000000;stroke-width:0.5;" x="20.1203125" xlink:href="#mf0c55a9a47" y="191.141282051"/>
      </g>
     </g>
     <g id="line2d_114">
      <g>
       <use style="stroke:#000000;stroke-width:0.5;" x="413.2003125" xlink:href="#ma4f294b3af" y="191.141282051"/>
      </g>
     </g>
    </g>
    <g id="ytick_23">
     <g id="line2d_115">
      <g>
       <use style="stroke:#000000;stroke-width:0.5;" x="20.1203125" xlink:href="#mf0c55a9a47" y="178.542564103"/>
      </g>
     </g>
     <g id="line2d_116">
      <g>
       <use style="stroke:#000000;stroke-width:0.5;" x="413.2003125" xlink:href="#ma4f294b3af" y="178.542564103"/>
      </g>
     </g>
    </g>
    <g id="ytick_24">
     <g id="line2d_117">
      <g>
       <use style="stroke:#000000;stroke-width:0.5;" x="20.1203125" xlink:href="#mf0c55a9a47" y="165.943846154"/>
      </g>
     </g>
     <g id="line2d_118">
      <g>
       <use style="stroke:#000000;stroke-width:0.5;" x="413.2003125" xlink:href="#ma4f294b3af" y="165.943846154"/>
      </g>
     </g>
    </g>
    <g id="ytick_25">
     <g id="line2d_119">
      <g>
       <use style="stroke:#000000;stroke-width:0.5;" x="20.1203125" xlink:href="#mf0c55a9a47" y="153.345128205"/>
      </g>
     </g>
     <g id="line2d_120">
      <g>
       <use style="stroke:#000000;stroke-width:0.5;" x="413.2003125" xlink:href="#ma4f294b3af" y="153.345128205"/>
      </g>
     </g>
    </g>
    <g id="ytick_26">
     <g id="line2d_121">
      <g>
       <use style="stroke:#000000;stroke-width:0.5;" x="20.1203125" xlink:href="#mf0c55a9a47" y="140.746410256"/>
      </g>
     </g>
     <g id="line2d_122">
      <g>
       <use style="stroke:#000000;stroke-width:0.5;" x="413.2003125" xlink:href="#ma4f294b3af" y="140.746410256"/>
      </g>
     </g>
    </g>
    <g id="ytick_27">
     <g id="line2d_123">
      <g>
       <use style="stroke:#000000;stroke-width:0.5;" x="20.1203125" xlink:href="#mf0c55a9a47" y="128.147692308"/>
      </g>
     </g>
     <g id="line2d_124">
      <g>
       <use style="stroke:#000000;stroke-width:0.5;" x="413.2003125" xlink:href="#ma4f294b3af" y="128.147692308"/>
      </g>
     </g>
    </g>
    <g id="ytick_28">
     <g id="line2d_125">
      <g>
       <use style="stroke:#000000;stroke-width:0.5;" x="20.1203125" xlink:href="#mf0c55a9a47" y="115.548974359"/>
      </g>
     </g>
     <g id="line2d_126">
      <g>
       <use style="stroke:#000000;stroke-width:0.5;" x="413.2003125" xlink:href="#ma4f294b3af" y="115.548974359"/>
      </g>
     </g>
    </g>
    <g id="ytick_29">
     <g id="line2d_127">
      <g>
       <use style="stroke:#000000;stroke-width:0.5;" x="20.1203125" xlink:href="#mf0c55a9a47" y="102.95025641"/>
      </g>
     </g>
     <g id="line2d_128">
      <g>
       <use style="stroke:#000000;stroke-width:0.5;" x="413.2003125" xlink:href="#ma4f294b3af" y="102.95025641"/>
      </g>
     </g>
    </g>
    <g id="ytick_30">
     <g id="line2d_129">
      <g>
       <use style="stroke:#000000;stroke-width:0.5;" x="20.1203125" xlink:href="#mf0c55a9a47" y="90.3515384615"/>
      </g>
     </g>
     <g id="line2d_130">
      <g>
       <use style="stroke:#000000;stroke-width:0.5;" x="413.2003125" xlink:href="#ma4f294b3af" y="90.3515384615"/>
      </g>
     </g>
    </g>
    <g id="ytick_31">
     <g id="line2d_131">
      <g>
       <use style="stroke:#000000;stroke-width:0.5;" x="20.1203125" xlink:href="#mf0c55a9a47" y="77.7528205128"/>
      </g>
     </g>
     <g id="line2d_132">
      <g>
       <use style="stroke:#000000;stroke-width:0.5;" x="413.2003125" xlink:href="#ma4f294b3af" y="77.7528205128"/>
      </g>
     </g>
    </g>
    <g id="ytick_32">
     <g id="line2d_133">
      <g>
       <use style="stroke:#000000;stroke-width:0.5;" x="20.1203125" xlink:href="#mf0c55a9a47" y="65.1541025641"/>
      </g>
     </g>
     <g id="line2d_134">
      <g>
       <use style="stroke:#000000;stroke-width:0.5;" x="413.2003125" xlink:href="#ma4f294b3af" y="65.1541025641"/>
      </g>
     </g>
    </g>
    <g id="ytick_33">
     <g id="line2d_135">
      <g>
       <use style="stroke:#000000;stroke-width:0.5;" x="20.1203125" xlink:href="#mf0c55a9a47" y="52.5553846154"/>
      </g>
     </g>
     <g id="line2d_136">
      <g>
       <use style="stroke:#000000;stroke-width:0.5;" x="413.2003125" xlink:href="#ma4f294b3af" y="52.5553846154"/>
      </g>
     </g>
    </g>
    <g id="ytick_34">
     <g id="line2d_137">
      <g>
       <use style="stroke:#000000;stroke-width:0.5;" x="20.1203125" xlink:href="#mf0c55a9a47" y="39.9566666667"/>
      </g>
     </g>
     <g id="line2d_138">
      <g>
       <use style="stroke:#000000;stroke-width:0.5;" x="413.2003125" xlink:href="#ma4f294b3af" y="39.9566666667"/>
      </g>
     </g>
    </g>
    <g id="ytick_35">
     <g id="line2d_139">
      <g>
       <use style="stroke:#000000;stroke-width:0.5;" x="20.1203125" xlink:href="#mf0c55a9a47" y="27.3579487179"/>
      </g>
     </g>
     <g id="line2d_140">
      <g>
       <use style="stroke:#000000;stroke-width:0.5;" x="413.2003125" xlink:href="#ma4f294b3af" y="27.3579487179"/>
      </g>
     </g>
    </g>
   </g>
   <g id="patch_3">
    <path d="
M20.1203 7.2
L413.2 7.2" style="fill:none;stroke:#000000;stroke-width:0.8;"/>
   </g>
   <g id="patch_4">
    <path d="
M413.2 400.28
L413.2 7.2" style="fill:none;stroke:#000000;stroke-width:0.8;"/>
   </g>
   <g id="patch_5">
    <path d="
M20.1203 400.28
L413.2 400.28" style="fill:none;stroke:#000000;stroke-width:0.8;"/>
   </g>
   <g id="patch_6">
    <path d="
M20.1203 400.28
L20.1203 7.2" style="fill:none;stroke:#000000;stroke-width:0.8;"/>
   </g>
   <g id="PathCollection_1">
    <defs>
     <path d="
M0 3.87298
C1.02713 3.87298 2.01232 3.4649 2.73861 2.73861
C3.4649 2.01232 3.87298 1.02713 3.87298 0
C3.87298 -1.02713 3.4649 -2.01232 2.73861 -2.73861
C2.01232 -3.4649 1.02713 -3.87298 0 -3.87298
C-1.02713 -3.87298 -2.01232 -3.4649 -2.73861 -2.73861
C-3.4649 -2.01232 -3.87298 -1.02713 -3.87298 0
C-3.87298 1.02713 -3.4649 2.01232 -2.73861 2.73861
C-2.01232 3.4649 -1.02713 3.87298 0 3.87298
z
" id="C4_0_5009dfc2f8"/>
    </defs>
    <g clip-path="url(#p9abf9c1704)">
     <use style="fill:#ff0000;" x="279.653902244" xlink:href="#C4_0_5009dfc2f8" y="140.746410256"/>
    </g>
   </g>
   <g id="PathCollection_2">
    <defs>
     <path d="
M0 3.87298
C1.02713 3.87298 2.01232 3.4649 2.73861 2.73861
C3.4649 2.01232 3.87298 1.02713 3.87298 0
C3.87298 -1.02713 3.4649 -2.01232 2.73861 -2.73861
C2.01232 -3.4649 1.02713 -3.87298 0 -3.87298
C-1.02713 -3.87298 -2.01232 -3.4649 -2.73861 -2.73861
C-3.4649 -2.01232 -3.87298 -1.02713 -3.87298 0
C-3.87298 1.02713 -3.4649 2.01232 -2.73861 2.73861
C-2.01232 3.4649 -1.02713 3.87298 0 3.87298
z
" id="C5_0_5009dfc2f8"/>
    </defs>
    <g clip-path="url(#p9abf9c1704)">
     <use style="fill:#ff0000;" x="90.6731330128" xlink:href="#C5_0_5009dfc2f8" y="329.727179487"/>
    </g>
   </g>
  </g>
 </g>
 <defs>
  <clipPath id="p9abf9c1704">
   <rect height="393.08" width="393.08" x="20.1203125" y="7.2"/>
  </clipPath>
 </defs>
</svg>
