<?xml version="1.0" encoding="utf-8" standalone="no"?>
<!DOCTYPE svg PUBLIC "-//W3C//DTD SVG 1.1//EN"
  "http://www.w3.org/Graphics/SVG/1.1/DTD/svg11.dtd">
<!-- Created with matplotlib (http://matplotlib.org/) -->
<svg height="420pt" version="1.1" viewBox="0 0 564 420" width="564pt" xmlns="http://www.w3.org/2000/svg" xmlns:xlink="http://www.w3.org/1999/xlink">
 <defs>
  <style type="text/css">
*{stroke-linecap:butt;stroke-linejoin:round;}
  </style>
 </defs>
 <g id="figure_1">
  <g id="patch_1">
   <path d="
M0 420.48
L564.48 420.48
L564.48 0
L0 0
z
" style="fill:#ffffff;"/>
  </g>
  <g id="axes_1">
   <g id="patch_2">
    <path d="
M7.2 413.28
L557.28 413.28
L557.28 7.2
L7.2 7.2
z
" style="fill:#ffffff;"/>
   </g>
   <g id="line2d_1">
    <path clip-path="url(#pbbce88da59)" d="
M23.7381 205.739
L528.822 205.739" style="fill:none;stroke:#000000;stroke-linecap:square;"/>
   </g>
   <g id="line2d_2">
    <path clip-path="url(#pbbce88da59)" d="
M150.009 396.469
L150.009 15.0092" style="fill:none;stroke:#000000;stroke-linecap:square;"/>
   </g>
   <g id="line2d_3">
    <path clip-path="url(#pbbce88da59)" d="
M17.7785 29.0439
L29.6956 32.1677
L41.5307 35.5189
L52.6218 38.8898
L63.3598 42.3698
L72.7843 45.6023
L84.1654 49.7313
L96.043 54.3063
L106.494 58.5593
L118.505 63.7119
L130.036 68.9269
L141.147 74.2021
L152.981 80.0909
L164.893 86.3004
L175.711 92.1842
L186.447 98.2534
L197.071 104.483
L208.166 111.224
L219.382 118.282
L232.756 127.013
L245.445 135.609
L256.895 143.622
L270.22 153.246
L283.875 163.435
L296.781 173.361
L310.042 183.848
L323.88 195.092
L337.795 206.697
L352.615 219.368
L369.155 233.868
L385.253 248.319
L401.521 263.236
L418.023 278.661
L437.146 296.864
L458.469 317.52
L480.117 338.808
L505.597 364.17
L543.25 401.995
L546.702 405.471
L546.702 405.471" style="fill:none;stroke:#000000;stroke-linecap:square;stroke-width:2.0;"/>
   </g>
   <g id="matplotlib.axis_1"/>
   <g id="matplotlib.axis_2"/>
   <g id="line2d_4">
    <path clip-path="url(#pbbce88da59)" d="
M276.28 157.728
L288.758 167.157
L301.782 177.282
L315.132 187.949
L328.027 198.52
L342.157 210.394
L356.627 222.852
L371.557 236.003
L386.377 249.34
L402.551 264.191
L402.551 264.191" style="fill:none;stroke:#ff0000;stroke-linecap:square;stroke-width:3.0;"/>
   </g>
   <g id="PathCollection_1">
    <defs>
     <path d="
M0 4.74342
C1.25797 4.74342 2.46458 4.24362 3.3541 3.3541
C4.24362 2.46458 4.74342 1.25797 4.74342 0
C4.74342 -1.25797 4.24362 -2.46458 3.3541 -3.3541
C2.46458 -4.24362 1.25797 -4.74342 0 -4.74342
C-1.25797 -4.74342 -2.46458 -4.24362 -3.3541 -3.3541
C-4.24362 -2.46458 -4.74342 -1.25797 -4.74342 0
C-4.74342 1.25797 -4.24362 2.46458 -3.3541 3.3541
C-2.46458 4.24362 -1.25797 4.74342 0 4.74342
z
" id="C0_0_72e6d5a2bf"/>
    </defs>
    <g clip-path="url(#pbbce88da59)">
     <use style="fill:#ff0000;" x="402.551397392" xlink:href="#C0_0_72e6d5a2bf" y="264.191037421"/>
    </g>
   </g>
   <g id="PathCollection_2">
    <defs>
     <path d="
M0 4.74342
C1.25797 4.74342 2.46458 4.24362 3.3541 3.3541
C4.24362 2.46458 4.74342 1.25797 4.74342 0
C4.74342 -1.25797 4.24362 -2.46458 3.3541 -3.3541
C2.46458 -4.24362 1.25797 -4.74342 0 -4.74342
C-1.25797 -4.74342 -2.46458 -4.24362 -3.3541 -3.3541
C-4.24362 -2.46458 -4.74342 -1.25797 -4.74342 0
C-4.74342 1.25797 -4.24362 2.46458 -3.3541 3.3541
C-2.46458 4.24362 -1.25797 4.74342 0 4.74342
z
" id="C1_0_72e6d5a2bf"/>
    </defs>
    <g clip-path="url(#pbbce88da59)">
     <use style="fill:#ff0000;" x="276.280314081" xlink:href="#C1_0_72e6d5a2bf" y="157.72818476"/>
    </g>
   </g>
  </g>
 </g>
 <defs>
  <clipPath id="pbbce88da59">
   <rect height="406.08" width="550.08" x="7.2" y="7.2"/>
  </clipPath>
 </defs>
</svg>
