<?xml version="1.0" encoding="utf-8" standalone="no"?>
<!DOCTYPE svg PUBLIC "-//W3C//DTD SVG 1.1//EN"
  "http://www.w3.org/Graphics/SVG/1.1/DTD/svg11.dtd">
<!-- Created with matplotlib (http://matplotlib.org/) -->
<svg height="420pt" version="1.1" viewBox="0 0 564 420" width="564pt" xmlns="http://www.w3.org/2000/svg" xmlns:xlink="http://www.w3.org/1999/xlink">
 <defs>
  <style type="text/css">
*{stroke-linecap:butt;stroke-linejoin:round;}
  </style>
 </defs>
 <g id="figure_1">
  <g id="patch_1">
   <path d="
M0 420.48
L564.48 420.48
L564.48 0
L0 0
z
" style="fill:#ffffff;"/>
  </g>
  <g id="axes_1">
   <g id="patch_2">
    <path d="
M7.2 413.28
L557.28 413.28
L557.28 7.2
L7.2 7.2
z
" style="fill:#ffffff;"/>
   </g>
   <g id="line2d_1">
    <path clip-path="url(#pbbce88da59)" d="
M23.7381 205.739
L528.822 205.739" style="fill:none;stroke:#000000;stroke-linecap:square;"/>
   </g>
   <g id="line2d_2">
    <path clip-path="url(#pbbce88da59)" d="
M150.009 396.469
L150.009 15.0092" style="fill:none;stroke:#000000;stroke-linecap:square;"/>
   </g>
   <g id="line2d_3">
    <path clip-path="url(#pbbce88da59)" d="
M17.7785 29.0439
L28.6733 31.8899
L40.8754 35.3268
L51.6795 38.5946
L61.7087 41.8207
L72.585 45.5322
L84.1871 49.7394
L95.3735 54.0412
L104.165 57.5927
L116.626 62.8868
L128.583 68.2553
L141.089 74.174
L152.713 79.9545
L163.236 85.4196
L173.277 90.84
L185.712 97.8307
L198.485 105.328
L208.039 111.146
L219.962 118.653
L229.922 125.134
L242.878 133.846
L253.199 141.009
L265.043 149.469
L278.689 159.528
L289.444 167.684
L302.438 177.799
L315.76 188.458
L329.117 199.426
L341.452 209.795
L354.222 220.76
L368.631 233.403
L385.288 248.351
L400.694 262.471
L417.868 278.514
L436.967 296.692
L458.467 317.518
L481.786 340.46
L509.775 368.353
L546.702 405.471
L546.702 405.471" style="fill:none;stroke:#000000;stroke-linecap:square;stroke-width:2.0;"/>
   </g>
   <g id="matplotlib.axis_1"/>
   <g id="matplotlib.axis_2"/>
   <g id="line2d_4">
    <path clip-path="url(#pbbce88da59)" d="
M150.009 78.5858
L161.454 84.4787
L172.396 90.3567
L184.108 96.9114
L195.516 103.557
L206.564 110.236
L218.4 117.654
L229.335 124.747
L241.254 132.737
L253.807 141.437
L266.459 150.497
L278.195 159.157
L291.527 169.286
L305.295 180.061
L318.653 190.81
L332.7 202.414
L346.916 214.459
L360.289 226.05
L376.081 240.046
L391.937 254.412
L402.551 264.191
L402.551 264.191" style="fill:none;stroke:#ff0000;stroke-linecap:square;stroke-width:3.0;"/>
   </g>
   <g id="PathCollection_1">
    <defs>
     <path d="
M0 4.74342
C1.25797 4.74342 2.46458 4.24362 3.3541 3.3541
C4.24362 2.46458 4.74342 1.25797 4.74342 0
C4.74342 -1.25797 4.24362 -2.46458 3.3541 -3.3541
C2.46458 -4.24362 1.25797 -4.74342 0 -4.74342
C-1.25797 -4.74342 -2.46458 -4.24362 -3.3541 -3.3541
C-4.24362 -2.46458 -4.74342 -1.25797 -4.74342 0
C-4.74342 1.25797 -4.24362 2.46458 -3.3541 3.3541
C-2.46458 4.24362 -1.25797 4.74342 0 4.74342
z
" id="C0_0_72e6d5a2bf"/>
    </defs>
    <g clip-path="url(#pbbce88da59)">
     <use style="fill:#ff0000;" x="150.009230769" xlink:href="#C0_0_72e6d5a2bf" y="78.5858240871"/>
    </g>
   </g>
   <g id="PathCollection_2">
    <defs>
     <path d="
M0 4.74342
C1.25797 4.74342 2.46458 4.24362 3.3541 3.3541
C4.24362 2.46458 4.74342 1.25797 4.74342 0
C4.74342 -1.25797 4.24362 -2.46458 3.3541 -3.3541
C2.46458 -4.24362 1.25797 -4.74342 0 -4.74342
C-1.25797 -4.74342 -2.46458 -4.24362 -3.3541 -3.3541
C-4.24362 -2.46458 -4.74342 -1.25797 -4.74342 0
C-4.74342 1.25797 -4.24362 2.46458 -3.3541 3.3541
C-2.46458 4.24362 -1.25797 4.74342 0 4.74342
z
" id="C1_0_72e6d5a2bf"/>
    </defs>
    <g clip-path="url(#pbbce88da59)">
     <use style="fill:#ff0000;" x="402.551397392" xlink:href="#C1_0_72e6d5a2bf" y="264.191037421"/>
    </g>
   </g>
  </g>
 </g>
 <defs>
  <clipPath id="pbbce88da59">
   <rect height="406.08" width="550.08" x="7.2" y="7.2"/>
  </clipPath>
 </defs>
</svg>
