<?xml version="1.0" encoding="utf-8" standalone="no"?>
<!DOCTYPE svg PUBLIC "-//W3C//DTD SVG 1.1//EN"
  "http://www.w3.org/Graphics/SVG/1.1/DTD/svg11.dtd">
<!-- Created with matplotlib (http://matplotlib.org/) -->
<svg height="423pt" version="1.1" viewBox="0 0 457 423" width="457pt" xmlns="http://www.w3.org/2000/svg" xmlns:xlink="http://www.w3.org/1999/xlink">
 <defs>
  <style type="text/css">
*{stroke-linecap:butt;stroke-linejoin:round;}
  </style>
 </defs>
 <g id="figure_1">
  <g id="patch_1">
   <path d="
M0 423.88
L457.814 423.88
L457.814 0
L0 0
z
" style="fill:#ffffff;"/>
  </g>
  <g id="axes_1">
   <g id="patch_2">
    <path d="
M7.2 416.68
L413.28 416.68
L413.28 10.5996
L7.2 10.5996
z
" style="fill:#ffffff;"/>
   </g>
   <g id="patch_3">
    <path clip-path="url(#p52e6e38d3d)" d="
M126.57 297.31
Q126.57 157.859 126.57 19.5268" style="fill:none;stroke:#000000;stroke-linecap:round;"/>
    <path clip-path="url(#p52e6e38d3d)" d="
M121.57 29.5268
L126.57 19.5268
L131.57 29.5268
L121.57 29.5268
z
" style="stroke:#000000;stroke-linecap:round;"/>
   </g>
   <g id="patch_4">
    <path clip-path="url(#p52e6e38d3d)" d="
M126.57 297.31
Q126.57 353.09 126.57 407.752" style="fill:none;stroke:#000000;stroke-linecap:round;"/>
    <path clip-path="url(#p52e6e38d3d)" d="
M131.57 397.752
L126.57 407.752
L121.57 397.752
L131.57 397.752
z
" style="stroke:#000000;stroke-linecap:round;"/>
   </g>
   <g id="patch_5">
    <path clip-path="url(#p52e6e38d3d)" d="
M126.57 297.31
Q266.02 297.31 404.353 297.31" style="fill:none;stroke:#000000;stroke-linecap:round;"/>
    <path clip-path="url(#p52e6e38d3d)" d="
M394.353 292.31
L404.353 297.31
L394.353 302.31
L394.353 292.31
z
" style="stroke:#000000;stroke-linecap:round;"/>
   </g>
   <g id="patch_6">
    <path clip-path="url(#p52e6e38d3d)" d="
M126.57 297.31
Q70.7895 297.31 16.1273 297.31" style="fill:none;stroke:#000000;stroke-linecap:round;"/>
    <path clip-path="url(#p52e6e38d3d)" d="
M26.1273 302.31
L16.1273 297.31
L26.1273 292.31
L26.1273 302.31
z
" style="stroke:#000000;stroke-linecap:round;"/>
   </g>
   <g id="matplotlib.axis_1"/>
   <g id="matplotlib.axis_2"/>
   <g id="text_1">
    <!-- $4+i$ -->
    <defs>
     <path d="
M7.8125 7.17188
Q7.8125 9.03125 8.59375 11.0781
L16.7031 32.625
Q18.0156 36.2812 18.0156 38.625
Q18.0156 41.6094 15.8281 41.6094
Q11.8594 41.6094 9.29688 37.5312
Q6.73438 33.4531 5.51562 28.4219
Q5.32812 27.7812 4.6875 27.7812
L3.51562 27.7812
Q2.6875 27.7812 2.6875 28.7188
L2.6875 29
Q4.29688 34.9688 7.60938 39.5781
Q10.9375 44.1875 16.0156 44.1875
Q19.5781 44.1875 22.0469 41.8438
Q24.5156 39.5 24.5156 35.8906
Q24.5156 34.0312 23.6875 31.9844
L15.5781 10.5
Q14.2031 7.17188 14.2031 4.5
Q14.2031 1.51562 16.5 1.51562
Q20.4062 1.51562 23.0156 5.6875
Q25.6406 9.85938 26.7031 14.7031
Q26.9062 15.2812 27.4844 15.2812
L28.7188 15.2812
Q29.1094 15.2812 29.3438 15.0156
Q29.5938 14.75 29.5938 14.4062
Q29.5938 14.3125 29.5 14.1094
Q28.125 8.45312 24.7344 3.65625
Q21.3438 -1.125 16.3125 -1.125
Q12.7969 -1.125 10.2969 1.29688
Q7.8125 3.71875 7.8125 7.17188
M19.0938 60.5938
Q19.0938 62.7031 20.8438 64.4062
Q22.6094 66.1094 24.7031 66.1094
Q26.4219 66.1094 27.5156 65.0625
Q28.6094 64.0156 28.6094 62.4062
Q28.6094 60.1562 26.8281 58.4688
Q25.0469 56.7812 22.9062 56.7812
Q21.2969 56.7812 20.1875 57.875
Q19.0938 58.9844 19.0938 60.5938" id="Cmmi10-69"/>
     <path d="
M7.51562 23
Q6.6875 23 6.14062 23.625
Q5.60938 24.2656 5.60938 25
Q5.60938 25.7344 6.14062 26.3594
Q6.6875 27 7.51562 27
L36.9219 27
L36.9219 56.5
Q36.9219 57.2812 37.5 57.7812
Q38.0938 58.2969 38.9219 58.2969
Q39.6562 58.2969 40.2812 57.7812
Q40.9219 57.2812 40.9219 56.5
L40.9219 27
L70.3125 27
Q71.0469 27 71.5781 26.3594
Q72.125 25.7344 72.125 25
Q72.125 24.2656 71.5781 23.625
Q71.0469 23 70.3125 23
L40.9219 23
L40.9219 -6.5
Q40.9219 -7.28125 40.2812 -7.78125
Q39.6562 -8.29688 38.9219 -8.29688
Q38.0938 -8.29688 37.5 -7.78125
Q36.9219 -7.28125 36.9219 -6.5
L36.9219 23
z
" id="Cmr10-2b"/>
     <path d="
M2.78125 16.5
L2.78125 20.0156
L33.6875 66.1094
Q34.0312 66.6094 34.7188 66.6094
L36.1875 66.6094
Q37.3125 66.6094 37.3125 65.4844
L37.3125 20.0156
L47.125 20.0156
L47.125 16.5
L37.3125 16.5
L37.3125 6.6875
Q37.3125 4.64062 40.2344 4.07812
Q43.1719 3.51562 47.0156 3.51562
L47.0156 0
L19.4844 0
L19.4844 3.51562
Q23.3438 3.51562 26.2656 4.07812
Q29.2031 4.64062 29.2031 6.6875
L29.2031 16.5
z

M6.10938 20.0156
L29.7812 20.0156
L29.7812 55.4219
z
" id="Cmr10-34"/>
    </defs>
    <g style="fill:#0000ff;" transform="translate(355.140659341 248.15217033)scale(0.24 -0.24)">
     <use transform="translate(0.0 0.390625)" xlink:href="#Cmr10-34"/>
     <use transform="translate(67.55859375 0.390625)" xlink:href="#Cmr10-2b"/>
     <use transform="translate(151.6171875 0.390625)" xlink:href="#Cmmi10-69"/>
    </g>
   </g>
   <g id="text_2">
    <!-- $i(4+i)$ -->
    <defs>
     <path d="
M31 -24.8125
Q25.4375 -20.4062 21.4062 -14.7188
Q17.3906 -9.03125 14.8125 -2.57812
Q12.25 3.85938 10.9844 10.8906
Q9.71875 17.9219 9.71875 25
Q9.71875 32.1719 10.9844 39.2031
Q12.25 46.2344 14.8594 52.7344
Q17.4844 59.2344 21.5312 64.8906
Q25.5938 70.5625 31 74.8125
Q31 75 31.5 75
L32.4219 75
Q32.7188 75 32.9531 74.7344
Q33.2031 74.4688 33.2031 74.125
Q33.2031 73.6875 33.0156 73.4844
Q28.125 68.7031 24.875 63.2344
Q21.625 57.7656 19.6406 51.5781
Q17.6719 45.4062 16.7969 38.7812
Q15.9219 32.1719 15.9219 25
Q15.9219 -6.78125 32.9062 -23.2969
Q33.2031 -23.5781 33.2031 -24.125
Q33.2031 -24.3594 32.9375 -24.6719
Q32.6719 -25 32.4219 -25
L31.5 -25
Q31 -25 31 -24.8125" id="Cmr10-28"/>
     <path d="
M6.5 -25
Q5.60938 -25 5.60938 -24.125
Q5.60938 -23.6875 5.8125 -23.4844
Q22.9062 -6.78125 22.9062 25
Q22.9062 56.7812 6 73.2969
Q5.60938 73.5312 5.60938 74.125
Q5.60938 74.4688 5.875 74.7344
Q6.15625 75 6.5 75
L7.42188 75
Q7.71875 75 7.90625 74.8125
Q15.0938 69.1406 19.875 61.0312
Q24.6562 52.9375 26.875 43.75
Q29.1094 34.5781 29.1094 25
Q29.1094 17.9219 27.9062 11.0625
Q26.7031 4.20312 24.0938 -2.45312
Q21.4844 -9.125 17.4844 -14.7656
Q13.4844 -20.4062 7.90625 -24.8125
Q7.71875 -25 7.42188 -25
z
" id="Cmr10-29"/>
    </defs>
    <g style="fill:#0000ff;" transform="translate(34.9094505495 66.243956044)scale(0.24 -0.24)">
     <use xlink:href="#Cmmi10-69"/>
     <use transform="translate(34.423828125 0.0)" xlink:href="#Cmr10-28"/>
     <use transform="translate(73.2421875 0.0)" xlink:href="#Cmr10-34"/>
     <use transform="translate(140.80078125 0.0)" xlink:href="#Cmr10-2b"/>
     <use transform="translate(224.859375 0.0)" xlink:href="#Cmmi10-69"/>
     <use transform="translate(259.283203125 0.0)" xlink:href="#Cmr10-29"/>
    </g>
   </g>
   <g id="text_3">
    <!-- $\times\ i$ -->
    <defs>
     <path d="
M14.7031 2.875
Q14.7031 3.65625 15.1875 4.29688
L35.9844 25
L15.1875 45.7969
Q14.7031 46.2969 14.7031 47.125
Q14.7031 47.8594 15.2812 48.4844
Q15.875 49.125 16.7031 49.125
Q17.3906 49.125 18.2188 48.4844
L38.9219 27.7812
L59.5156 48.4844
Q60.3594 49.125 60.9844 49.125
Q61.8125 49.125 62.3906 48.5312
Q62.9844 47.9531 62.9844 47.125
Q62.9844 46.2969 62.5 45.7969
L41.7031 25
L62.5 4.29688
Q62.9844 3.65625 62.9844 2.875
Q62.9844 2.04688 62.3906 1.45312
Q61.8125 0.875 60.9844 0.875
Q60.25 0.875 59.5156 1.60938
L38.9219 22.2188
L18.2188 1.60938
Q17.4844 0.875 16.7031 0.875
Q15.875 0.875 15.2812 1.51562
Q14.7031 2.15625 14.7031 2.875" id="Cmsy10-a3"/>
    </defs>
    <g style="fill:#ff0000;" transform="translate(192.84 136.591730769)scale(0.24 -0.24)">
     <use transform="translate(17.55859375 0.890625)" xlink:href="#Cmsy10-a3"/>
     <use transform="translate(109.736328125 0.890625)" xlink:href="#Cmmi10-69"/>
    </g>
   </g>
   <g id="patch_7">
    <path clip-path="url(#p52e6e38d3d)" d="
M126.57 297.31
Q238.13 269.42 347.521 242.072" style="fill:none;stroke:#0000ff;stroke-linecap:round;stroke-width:2.0;"/>
    <path clip-path="url(#p52e6e38d3d)" d="
M336.607 239.647
L347.521 242.072
L339.032 249.348
L336.607 239.647
z
" style="fill:#0000ff;stroke:#0000ff;stroke-linecap:round;stroke-width:2.0;"/>
   </g>
   <g id="patch_8">
    <path clip-path="url(#p52e6e38d3d)" d="
M126.57 297.31
Q98.6796 185.749 71.3318 76.3583" style="fill:none;stroke:#0000ff;stroke-linecap:round;stroke-width:2.0;"/>
    <path clip-path="url(#p52e6e38d3d)" d="
M68.9064 87.2724
L71.3318 76.3583
L78.6078 84.8471
L68.9064 87.2724
z
" style="fill:#0000ff;stroke:#0000ff;stroke-linecap:round;stroke-width:2.0;"/>
   </g>
   <g id="patch_9">
    <path clip-path="url(#p52e6e38d3d)" d="
M283.818 240.076
C272.075 207.81 250.679 179.927 222.552 160.232
C194.425 140.538 160.906 129.969 126.57 129.969" style="fill:none;stroke:#ff0000;stroke-width:2.0;"/>
   </g>
   <g id="patch_10">
    <path clip-path="url(#p52e6e38d3d)" d="
M126.57 129.969
Q119.597 129.969 114.861 129.969" style="fill:none;stroke:#ff0000;stroke-linecap:round;stroke-width:2.0;"/>
    <path clip-path="url(#p52e6e38d3d)" d="
M124.861 134.969
L114.861 129.969
L124.861 124.969
L124.861 134.969
z
" style="fill:#ff0000;stroke:#ff0000;stroke-linecap:round;stroke-width:2.0;"/>
   </g>
  </g>
 </g>
 <defs>
  <clipPath id="p52e6e38d3d">
   <rect height="406.08" width="406.08" x="7.2" y="10.5995604396"/>
  </clipPath>
 </defs>
</svg>
