<?xml version="1.0" encoding="utf-8" standalone="no"?>
<!DOCTYPE svg PUBLIC "-//W3C//DTD SVG 1.1//EN"
  "http://www.w3.org/Graphics/SVG/1.1/DTD/svg11.dtd">
<!-- Created with matplotlib (http://matplotlib.org/) -->
<svg height="420pt" version="1.1" viewBox="0 0 420 420" width="420pt" xmlns="http://www.w3.org/2000/svg" xmlns:xlink="http://www.w3.org/1999/xlink">
 <defs>
  <style type="text/css">
*{stroke-linecap:butt;stroke-linejoin:round;}
  </style>
 </defs>
 <g id="figure_1">
  <g id="patch_1">
   <path d="
M0 420.48
L420.48 420.48
L420.48 0
L0 0
z
" style="fill:#ffffff;"/>
  </g>
  <g id="axes_1">
   <g id="patch_2">
    <path d="
M7.2 413.28
L413.28 413.28
L413.28 7.2
L7.2 7.2
z
" style="fill:#ffffff;"/>
   </g>
   <g id="patch_3">
    <path clip-path="url(#p85c0e9ffdb)" d="
M126.57 293.91
Q126.57 154.46 126.57 16.1273" style="fill:none;stroke:#000000;stroke-linecap:round;"/>
    <path clip-path="url(#p85c0e9ffdb)" d="
M121.57 26.1273
L126.57 16.1273
L131.57 26.1273
L121.57 26.1273
z
" style="stroke:#000000;stroke-linecap:round;"/>
   </g>
   <g id="patch_4">
    <path clip-path="url(#p85c0e9ffdb)" d="
M126.57 293.91
Q126.57 349.691 126.57 404.353" style="fill:none;stroke:#000000;stroke-linecap:round;"/>
    <path clip-path="url(#p85c0e9ffdb)" d="
M131.57 394.353
L126.57 404.353
L121.57 394.353
L131.57 394.353
z
" style="stroke:#000000;stroke-linecap:round;"/>
   </g>
   <g id="patch_5">
    <path clip-path="url(#p85c0e9ffdb)" d="
M126.57 293.91
Q266.02 293.91 404.353 293.91" style="fill:none;stroke:#000000;stroke-linecap:round;"/>
    <path clip-path="url(#p85c0e9ffdb)" d="
M394.353 288.91
L404.353 293.91
L394.353 298.91
L394.353 288.91
z
" style="stroke:#000000;stroke-linecap:round;"/>
   </g>
   <g id="patch_6">
    <path clip-path="url(#p85c0e9ffdb)" d="
M126.57 293.91
Q70.7895 293.91 16.1273 293.91" style="fill:none;stroke:#000000;stroke-linecap:round;"/>
    <path clip-path="url(#p85c0e9ffdb)" d="
M26.1273 298.91
L16.1273 293.91
L26.1273 288.91
L26.1273 298.91
z
" style="stroke:#000000;stroke-linecap:round;"/>
   </g>
   <g id="matplotlib.axis_1"/>
   <g id="matplotlib.axis_2"/>
   <g id="patch_7">
    <path clip-path="url(#p85c0e9ffdb)" d="
M126.57 293.91
Q238.13 266.02 347.521 238.672" style="fill:none;stroke:#0000ff;stroke-linecap:round;stroke-width:2.0;"/>
    <path clip-path="url(#p85c0e9ffdb)" d="
M336.607 236.247
L347.521 238.672
L339.032 245.949
L336.607 236.247
z
" style="fill:#0000ff;stroke:#0000ff;stroke-linecap:round;stroke-width:2.0;"/>
   </g>
   <g id="patch_8">
    <path clip-path="url(#p85c0e9ffdb)" d="
M126.57 293.91
Q98.6796 182.35 71.3318 72.9588" style="fill:none;stroke:#0000ff;stroke-linecap:round;stroke-width:2.0;"/>
    <path clip-path="url(#p85c0e9ffdb)" d="
M68.9064 83.8729
L71.3318 72.9588
L78.6078 81.4475
L68.9064 83.8729
z
" style="fill:#0000ff;stroke:#0000ff;stroke-linecap:round;stroke-width:2.0;"/>
   </g>
   <g id="patch_9">
    <path clip-path="url(#p85c0e9ffdb)" d="
M283.818 236.676
C272.075 204.41 250.679 176.528 222.552 156.833
C194.425 137.138 160.906 126.57 126.57 126.57" style="fill:none;stroke:#ff0000;stroke-width:2.0;"/>
   </g>
   <g id="patch_10">
    <path clip-path="url(#p85c0e9ffdb)" d="
M126.57 126.57
Q119.597 126.57 114.861 126.57" style="fill:none;stroke:#ff0000;stroke-linecap:round;stroke-width:2.0;"/>
    <path clip-path="url(#p85c0e9ffdb)" d="
M124.861 131.57
L114.861 126.57
L124.861 121.57
L124.861 131.57
z
" style="fill:#ff0000;stroke:#ff0000;stroke-linecap:round;stroke-width:2.0;"/>
   </g>
  </g>
 </g>
 <defs>
  <clipPath id="p85c0e9ffdb">
   <rect height="406.08" width="406.08" x="7.2" y="7.2"/>
  </clipPath>
 </defs>
</svg>
