<?xml version="1.0" encoding="utf-8" standalone="no"?>
<!DOCTYPE svg PUBLIC "-//W3C//DTD SVG 1.1//EN"
  "http://www.w3.org/Graphics/SVG/1.1/DTD/svg11.dtd">
<!-- Created with matplotlib (http://matplotlib.org/) -->
<svg height="420pt" version="1.1" viewBox="0 0 457 420" width="457pt" xmlns="http://www.w3.org/2000/svg" xmlns:xlink="http://www.w3.org/1999/xlink">
 <defs>
  <style type="text/css">
*{stroke-linecap:butt;stroke-linejoin:round;}
  </style>
 </defs>
 <g id="figure_1">
  <g id="patch_1">
   <path d="
M0 420.48
L457.396 420.48
L457.396 0
L0 0
z
" style="fill:#ffffff;"/>
  </g>
  <g id="axes_1">
   <g id="patch_2">
    <path d="
M7.2 413.28
L450.196 413.28
L450.196 7.2
L7.2 7.2
z
" style="fill:#ffffff;"/>
   </g>
   <g id="line2d_1">
    <path clip-path="url(#p8bc0dcd9f0)" d="
M335.188 121.499
L377.783 206.69" style="fill:none;stroke:#ff0000;stroke-dasharray:6.000000,6.000000;stroke-dashoffset:0.0;stroke-width:2.0;"/>
   </g>
   <g id="PathCollection_1">
    <defs>
     <path d="
M0 4.74342
C1.25797 4.74342 2.46458 4.24362 3.3541 3.3541
C4.24362 2.46458 4.74342 1.25797 4.74342 0
C4.74342 -1.25797 4.24362 -2.46458 3.3541 -3.3541
C2.46458 -4.24362 1.25797 -4.74342 0 -4.74342
C-1.25797 -4.74342 -2.46458 -4.24362 -3.3541 -3.3541
C-4.24362 -2.46458 -4.74342 -1.25797 -4.74342 0
C-4.74342 1.25797 -4.24362 2.46458 -3.3541 3.3541
C-2.46458 4.24362 -1.25797 4.74342 0 4.74342
z
" id="C0_0_72e6d5a2bf"/>
    </defs>
    <g clip-path="url(#p8bc0dcd9f0)">
     <use x="335.187692308" xlink:href="#C0_0_72e6d5a2bf" y="121.498741259"/>
    </g>
   </g>
   <g id="PathCollection_2">
    <defs>
     <path d="
M0 4.74342
C1.25797 4.74342 2.46458 4.24362 3.3541 3.3541
C4.24362 2.46458 4.74342 1.25797 4.74342 0
C4.74342 -1.25797 4.24362 -2.46458 3.3541 -3.3541
C2.46458 -4.24362 1.25797 -4.74342 0 -4.74342
C-1.25797 -4.74342 -2.46458 -4.24362 -3.3541 -3.3541
C-4.24362 -2.46458 -4.74342 -1.25797 -4.74342 0
C-4.74342 1.25797 -4.24362 2.46458 -3.3541 3.3541
C-2.46458 4.24362 -1.25797 4.74342 0 4.74342
z
" id="C1_0_72e6d5a2bf"/>
    </defs>
    <g clip-path="url(#p8bc0dcd9f0)">
     <use style="fill:#0000ff;" x="335.187692308" xlink:href="#C1_0_72e6d5a2bf" y="227.988251748"/>
    </g>
   </g>
   <g id="PathCollection_3">
    <defs>
     <path d="
M0 4.74342
C1.25797 4.74342 2.46458 4.24362 3.3541 3.3541
C4.24362 2.46458 4.74342 1.25797 4.74342 0
C4.74342 -1.25797 4.24362 -2.46458 3.3541 -3.3541
C2.46458 -4.24362 1.25797 -4.74342 0 -4.74342
C-1.25797 -4.74342 -2.46458 -4.24362 -3.3541 -3.3541
C-4.24362 -2.46458 -4.74342 -1.25797 -4.74342 0
C-4.74342 1.25797 -4.24362 2.46458 -3.3541 3.3541
C-2.46458 4.24362 -1.25797 4.74342 0 4.74342
z
" id="C2_0_72e6d5a2bf"/>
    </defs>
    <g clip-path="url(#p8bc0dcd9f0)">
     <use style="fill:#0000ff;" x="406.180699301" xlink:href="#C2_0_72e6d5a2bf" y="192.491748252"/>
    </g>
   </g>
   <g id="patch_3">
    <path clip-path="url(#p8bc0dcd9f0)" d="
M51.2157 369.974
Q51.2157 192.492 51.2157 16.1273" style="fill:none;stroke:#000000;stroke-linecap:round;"/>
    <path clip-path="url(#p8bc0dcd9f0)" d="
M46.2157 26.1273
L51.2157 16.1273
L56.2157 26.1273
L46.2157 26.1273
z
" style="stroke:#000000;stroke-linecap:round;"/>
   </g>
   <g id="patch_4">
    <path clip-path="url(#p8bc0dcd9f0)" d="
M51.2157 369.974
Q51.2157 387.723 51.2157 404.353" style="fill:none;stroke:#000000;stroke-linecap:round;"/>
    <path clip-path="url(#p8bc0dcd9f0)" d="
M56.2157 394.353
L51.2157 404.353
L46.2157 394.353
L56.2157 394.353
z
" style="stroke:#000000;stroke-linecap:round;"/>
   </g>
   <g id="patch_5">
    <path clip-path="url(#p8bc0dcd9f0)" d="
M51.2157 369.974
Q246.446 369.974 440.559 369.974" style="fill:none;stroke:#000000;stroke-linecap:round;"/>
    <path clip-path="url(#p8bc0dcd9f0)" d="
M430.559 364.974
L440.559 369.974
L430.559 374.974
L430.559 364.974
z
" style="stroke:#000000;stroke-linecap:round;"/>
   </g>
   <g id="patch_6">
    <path clip-path="url(#p8bc0dcd9f0)" d="
M51.2157 369.974
Q33.4674 369.974 16.8372 369.974" style="fill:none;stroke:#000000;stroke-linecap:round;"/>
    <path clip-path="url(#p8bc0dcd9f0)" d="
M26.8372 374.974
L16.8372 369.974
L26.8372 364.974
L26.8372 374.974
z
" style="stroke:#000000;stroke-linecap:round;"/>
   </g>
   <g id="patch_7">
    <path clip-path="url(#p8bc0dcd9f0)" d="
M51.2157 369.974
Q33.4674 378.848 17.7192 386.723" style="fill:none;stroke:#0000ff;stroke-linecap:round;stroke-width:2.0;"/>
    <path clip-path="url(#p8bc0dcd9f0)" d="
M28.8995 386.723
L17.7192 386.723
L24.4274 377.778
L28.8995 386.723
z
" style="fill:#0000ff;stroke:#0000ff;stroke-linecap:round;stroke-width:2.0;"/>
   </g>
   <g id="patch_8">
    <path clip-path="url(#p8bc0dcd9f0)" d="
M406.181 192.492
Q423.929 183.618 439.677 175.743" style="fill:none;stroke:#0000ff;stroke-linecap:round;stroke-width:2.0;"/>
    <path clip-path="url(#p8bc0dcd9f0)" d="
M428.497 175.743
L439.677 175.743
L432.969 184.688
L428.497 175.743
z
" style="fill:#0000ff;stroke:#0000ff;stroke-linecap:round;stroke-width:2.0;"/>
   </g>
   <g id="line2d_2">
    <path clip-path="url(#p8bc0dcd9f0)" d="
M51.2157 369.974
L406.181 192.492
L406.181 192.492" style="fill:none;stroke:#0000ff;stroke-linecap:square;stroke-width:2.0;"/>
   </g>
   <g id="matplotlib.axis_1"/>
   <g id="matplotlib.axis_2"/>
   <g id="PathCollection_4">
    <defs>
     <path d="
M0 4.74342
C1.25797 4.74342 2.46458 4.24362 3.3541 3.3541
C4.24362 2.46458 4.74342 1.25797 4.74342 0
C4.74342 -1.25797 4.24362 -2.46458 3.3541 -3.3541
C2.46458 -4.24362 1.25797 -4.74342 0 -4.74342
C-1.25797 -4.74342 -2.46458 -4.24362 -3.3541 -3.3541
C-4.24362 -2.46458 -4.74342 -1.25797 -4.74342 0
C-4.74342 1.25797 -4.24362 2.46458 -3.3541 3.3541
C-2.46458 4.24362 -1.25797 4.74342 0 4.74342
z
" id="C3_0_72e6d5a2bf"/>
    </defs>
    <g clip-path="url(#p8bc0dcd9f0)">
     <use style="fill:#ff0000;" x="377.783496503" xlink:href="#C3_0_72e6d5a2bf" y="206.69034965"/>
    </g>
   </g>
  </g>
 </g>
 <defs>
  <clipPath id="p8bc0dcd9f0">
   <rect height="406.08" width="442.996363636" x="7.2" y="7.2"/>
  </clipPath>
 </defs>
</svg>
