<?xml version="1.0" encoding="utf-8" standalone="no"?>
<!DOCTYPE svg PUBLIC "-//W3C//DTD SVG 1.1//EN"
  "http://www.w3.org/Graphics/SVG/1.1/DTD/svg11.dtd">
<!-- Created with matplotlib (http://matplotlib.org/) -->
<svg height="420pt" version="1.1" viewBox="0 0 564 420" width="564pt" xmlns="http://www.w3.org/2000/svg" xmlns:xlink="http://www.w3.org/1999/xlink">
 <defs>
  <style type="text/css">
*{stroke-linecap:butt;stroke-linejoin:round;}
  </style>
 </defs>
 <g id="figure_1">
  <g id="patch_1">
   <path d="
M0 420.48
L564.48 420.48
L564.48 0
L0 0
z
" style="fill:#ffffff;"/>
  </g>
  <g id="axes_1">
   <g id="patch_2">
    <path d="
M7.2 413.28
L557.28 413.28
L557.28 7.2
L7.2 7.2
z
" style="fill:#ffffff;"/>
   </g>
   <g id="patch_3">
    <path clip-path="url(#pbbce88da59)" d="
M70.6708 348.05
Q49.5138 351.509 30.5637 354.607" style="fill:none;stroke:#000000;stroke-linecap:round;stroke-width:2.0;"/>
    <path clip-path="url(#pbbce88da59)" d="
M41.2394 357.928
L30.5637 354.607
L39.626 348.059
L41.2394 357.928
z
" style="stroke:#000000;stroke-linecap:round;stroke-width:2.0;"/>
   </g>
   <g id="patch_4">
    <path clip-path="url(#pbbce88da59)" d="
M493.809 348.05
Q514.966 351.509 533.916 354.607" style="fill:none;stroke:#000000;stroke-linecap:round;stroke-width:2.0;"/>
    <path clip-path="url(#pbbce88da59)" d="
M524.854 348.059
L533.916 354.607
L523.241 357.928
L524.854 348.059
z
" style="stroke:#000000;stroke-linecap:round;stroke-width:2.0;"/>
   </g>
   <g id="patch_5">
    <path clip-path="url(#pbbce88da59)" d="
M282.24 210.24
Q282.24 112.625 282.24 16.1273" style="fill:none;stroke:#000000;stroke-linecap:round;"/>
    <path clip-path="url(#pbbce88da59)" d="
M277.24 26.1273
L282.24 16.1273
L287.24 26.1273
L277.24 26.1273
z
" style="stroke:#000000;stroke-linecap:round;"/>
   </g>
   <g id="patch_6">
    <path clip-path="url(#pbbce88da59)" d="
M282.24 210.24
Q282.24 307.855 282.24 404.353" style="fill:none;stroke:#000000;stroke-linecap:round;"/>
    <path clip-path="url(#pbbce88da59)" d="
M287.24 394.353
L282.24 404.353
L277.24 394.353
L287.24 394.353
z
" style="stroke:#000000;stroke-linecap:round;"/>
   </g>
   <g id="patch_7">
    <path clip-path="url(#pbbce88da59)" d="
M282.24 210.24
Q414.471 210.24 545.584 210.24" style="fill:none;stroke:#000000;stroke-linecap:round;"/>
    <path clip-path="url(#pbbce88da59)" d="
M535.584 205.24
L545.584 210.24
L535.584 215.24
L535.584 205.24
z
" style="stroke:#000000;stroke-linecap:round;"/>
   </g>
   <g id="patch_8">
    <path clip-path="url(#pbbce88da59)" d="
M282.24 210.24
Q150.009 210.24 18.8965 210.24" style="fill:none;stroke:#000000;stroke-linecap:round;"/>
    <path clip-path="url(#pbbce88da59)" d="
M28.8965 215.24
L18.8965 210.24
L28.8965 205.24
L28.8965 215.24
z
" style="stroke:#000000;stroke-linecap:round;"/>
   </g>
   <g id="line2d_1">
    <path clip-path="url(#pbbce88da59)" d="
M70.6708 348.05
L80.3583 346.36
L89.5596 344.536
L98.2654 342.577
L106.988 340.347
L112.25 338.852
L118.825 336.804
L126.56 334.099
L132.502 331.773
L138.721 329.072
L142.824 327.122
L149.658 323.536
L152.808 321.725
L157.227 318.998
L161.612 316.053
L167.199 311.916
L170.667 309.106
L175.04 305.269
L176.275 304.12
L180.187 300.283
L184.866 295.258
L187.601 292.078
L191.969 286.592
L196.726 279.989
L197.958 278.163
L203.037 270.083
L206.319 264.354
L209.867 257.671
L212.429 252.508
L216.191 244.375
L218.816 238.293
L222.464 229.253
L226.286 219.02
L228.845 211.716
L232.953 199.231
L236.857 186.511
L241.263 171.217
L245.739 154.826
L260.654 98.6552
L263.154 90.0414
L266.782 78.6349
L269.055 72.3296
L270.873 67.8454
L273.39 62.563
L274.533 60.549
L276.076 58.2403
L277.619 56.4211
L278.594 55.533
L279.568 54.8508
L280.388 54.438
L281.208 54.1743
L281.975 54.0632
L282.742 54.0836
L283.51 54.2353
L284.277 54.518
L285.365 55.1417
L286.452 56.0241
L287.556 57.1789
L288.759 58.7291
L289.962 60.574
L292.003 64.3466
L293.909 68.5531
L295.951 73.7232
L296.972 76.5425
L300.03 85.8004
L302.774 94.9691
L305.635 105.168
L310.636 123.944
L318.798 155.041
L323.826 173.388
L327.872 187.347
L332.042 200.847
L336.425 214.012
L339.862 223.583
L342.886 231.473
L347.816 243.305
L348.816 245.554
L352.853 254.154
L357.208 262.612
L361.422 270.049
L365.985 277.352
L369.713 282.792
L372.819 286.997
L377.517 292.837
L380.487 296.233
L384.881 300.881
L390.11 305.879
L395.721 310.677
L401.669 315.203
L405.772 318.031
L409.994 320.716
L415.55 323.94
L419.65 326.115
L425.187 328.808
L429.461 330.715
L436.896 333.714
L442.668 335.799
L448.29 337.65
L455.949 339.921
L463.756 341.977
L471.274 343.745
L480.912 345.75
L490.754 347.54
L493.809 348.05
L493.809 348.05" style="fill:none;stroke:#000000;stroke-linecap:square;stroke-width:2.0;"/>
   </g>
   <g id="line2d_2">
    <path clip-path="url(#pbbce88da59)" d="
M70.6708 220.002
L70.6708 200.478" style="fill:none;stroke:#000000;stroke-linecap:square;"/>
   </g>
   <g id="line2d_3">
    <path clip-path="url(#pbbce88da59)" d="
M123.563 220.002
L123.563 200.478" style="fill:none;stroke:#000000;stroke-linecap:square;"/>
   </g>
   <g id="line2d_4">
    <path clip-path="url(#pbbce88da59)" d="
M176.455 220.002
L176.455 200.478" style="fill:none;stroke:#000000;stroke-linecap:square;"/>
   </g>
   <g id="line2d_5">
    <path clip-path="url(#pbbce88da59)" d="
M229.348 220.002
L229.348 200.478" style="fill:none;stroke:#000000;stroke-linecap:square;"/>
   </g>
   <g id="line2d_6">
    <path clip-path="url(#pbbce88da59)" d="
M282.24 220.002
L282.24 200.478" style="fill:none;stroke:#000000;stroke-linecap:square;"/>
   </g>
   <g id="line2d_7">
    <path clip-path="url(#pbbce88da59)" d="
M335.132 220.002
L335.132 200.478" style="fill:none;stroke:#000000;stroke-linecap:square;"/>
   </g>
   <g id="line2d_8">
    <path clip-path="url(#pbbce88da59)" d="
M388.025 220.002
L388.025 200.478" style="fill:none;stroke:#000000;stroke-linecap:square;"/>
   </g>
   <g id="line2d_9">
    <path clip-path="url(#pbbce88da59)" d="
M440.917 220.002
L440.917 200.478" style="fill:none;stroke:#000000;stroke-linecap:square;"/>
   </g>
   <g id="line2d_10">
    <path clip-path="url(#pbbce88da59)" d="
M493.809 220.002
L493.809 200.478" style="fill:none;stroke:#000000;stroke-linecap:square;"/>
   </g>
   <g id="line2d_11">
    <path clip-path="url(#pbbce88da59)" d="
M269.017 366.425
L295.463 366.425" style="fill:none;stroke:#000000;stroke-linecap:square;"/>
   </g>
   <g id="line2d_12">
    <path clip-path="url(#pbbce88da59)" d="
M269.017 210.24
L295.463 210.24" style="fill:none;stroke:#000000;stroke-linecap:square;"/>
   </g>
   <g id="line2d_13">
    <path clip-path="url(#pbbce88da59)" d="
M269.017 54.0554
L295.463 54.0554" style="fill:none;stroke:#000000;stroke-linecap:square;"/>
   </g>
   <g id="matplotlib.axis_1"/>
   <g id="matplotlib.axis_2"/>
  </g>
 </g>
 <defs>
  <clipPath id="pbbce88da59">
   <rect height="406.08" width="550.08" x="7.2" y="7.2"/>
  </clipPath>
 </defs>
</svg>
