<?xml version="1.0" encoding="utf-8" standalone="no"?>
<!DOCTYPE svg PUBLIC "-//W3C//DTD SVG 1.1//EN"
  "http://www.w3.org/Graphics/SVG/1.1/DTD/svg11.dtd">
<!-- Created with matplotlib (http://matplotlib.org/) -->
<svg height="276pt" version="1.1" viewBox="0 0 318 276" width="318pt" xmlns="http://www.w3.org/2000/svg" xmlns:xlink="http://www.w3.org/1999/xlink">
 <defs>
  <style type="text/css">
*{stroke-linecap:butt;stroke-linejoin:round;stroke-miterlimit:100000;}
  </style>
 </defs>
 <g id="figure_1">
  <g id="patch_1">
   <path d="M 0 276.48 
L 318.002345 276.48 
L 318.002345 0 
L 0 0 
z
" style="fill:#ffffff;"/>
  </g>
  <g id="axes_1">
   <g id="patch_2">
    <path d="M 7.2 269.28 
L 310.802345 269.28 
L 310.802345 7.2 
L 7.2 7.2 
z
" style="fill:#ffffff;"/>
   </g>
   <g id="patch_3">
    <path clip-path="url(#p7511224f0c)" d="M 159.001276 245.813695 
L 159.001276 245.813695 
L 159.001276 245.813695 
L 159.001276 245.813695 
L 159.001276 245.813695 
L 159.001276 245.813695 
L 159.001276 245.813695 
L 159.001276 245.813695 
L 159.001276 245.813695 
L 159.001276 245.813695 
L 159.001276 245.813695 
L 159.001276 245.813695 
L 159.001276 245.813695 
L 159.001276 245.813695 
L 159.001276 245.813695 
L 159.001276 245.813695 
L 159.001276 245.813695 
L 159.001276 245.813695 
L 159.001276 245.813695 
L 159.001276 245.813695 
L 159.001276 245.813695 
L 159.001276 245.813695 
L 159.001276 245.813695 
L 159.001276 245.813695 
L 159.001276 245.813695 
L 159.001276 245.813695 
L 159.001276 245.813695 
L 159.001276 245.813695 
L 159.001276 245.813695 
L 159.001276 245.813695 
L 159.001276 245.813695 
L 159.001276 245.813695 
L 159.001276 245.813695 
L 159.001276 245.813695 
L 159.001276 245.813695 
L 159.001276 245.813695 
L 159.001276 245.813695 
L 159.001276 245.813695 
L 159.001276 245.813695 
L 159.001276 245.813695 
L 159.001276 245.813695 
L 159.001276 245.813695 
L 159.001276 245.813695 
L 159.001276 245.813695 
L 159.001276 245.813695 
L 159.001276 245.813695 
L 159.001276 245.813695 
L 159.001276 245.813695 
L 159.001276 245.813695 
L 159.001276 245.813695 
L 159.001276 245.813695 
L 159.001276 245.813695 
L 159.001276 245.813695 
L 159.001276 245.813695 
L 159.001276 245.813695 
L 159.001276 245.813695 
L 159.001276 245.813695 
L 159.001276 245.813695 
L 159.001276 245.813695 
L 159.001276 245.813695 
L 159.001276 245.813695 
L 159.001276 245.813695 
L 159.001276 245.813695 
L 159.001276 245.813695 
L 159.001276 245.813695 
L 159.001276 245.813695 
L 159.001276 245.813695 
L 159.001276 245.813695 
L 159.001276 245.813695 
L 159.001276 245.813695 
L 159.001276 245.813695 
L 159.001276 245.813695 
L 159.001276 245.813695 
L 159.001276 245.813695 
L 159.001276 245.813695 
L 159.001276 245.813695 
L 159.001276 245.813695 
L 159.001276 245.813695 
L 159.001276 245.813695 
L 159.001276 245.813695 
L 159.001276 245.813695 
L 159.001276 245.813695 
L 159.001276 245.813695 
L 159.001276 245.813695 
L 159.001276 245.813695 
L 159.001276 245.813695 
L 159.001276 245.813695 
L 159.001276 245.813695 
L 159.001276 245.813695 
L 159.001276 245.813695 
L 159.001276 245.813695 
L 159.001276 245.813695 
L 159.001276 245.813695 
L 159.001276 245.813695 
L 159.001276 245.813695 
L 159.001276 245.813695 
L 159.001276 245.813695 
L 159.001276 245.813695 
L 159.001276 245.813695 
L 159.001276 245.813695 
L 159.001276 245.813695 
L 159.001276 245.813695 
L 159.001276 245.813695 
L 159.001276 245.813695 
L 159.001276 245.813695 
L 159.001276 245.813695 
L 159.001276 245.813695 
L 159.001276 245.813695 
L 159.001276 245.813695 
L 159.001276 245.813695 
L 159.001276 245.813695 
L 159.001276 245.813695 
L 159.001276 245.813695 
L 159.001276 245.813695 
L 159.001276 245.813695 
L 159.001276 245.813695 
L 159.001276 245.813695 
L 159.001276 245.813695 
L 159.001276 245.813695 
L 159.001276 245.813695 
L 159.001276 245.813695 
L 159.001276 245.813695 
L 159.001276 245.813695 
L 159.001276 245.813695 
L 159.001276 245.813695 
L 159.001276 245.813695 
L 159.001276 245.813695 
L 159.001276 245.813695 
L 159.001276 245.813695 
L 159.001276 245.813695 
L 159.001276 245.813695 
L 159.001276 245.813695 
L 159.001276 245.813695 
L 159.001276 245.813695 
L 159.001276 245.813695 
L 159.001276 245.813695 
L 159.001276 245.813695 
L 159.001276 245.813695 
L 159.001276 245.813695 
L 159.001276 245.813695 
L 159.001276 245.813695 
L 159.001276 245.813695 
L 159.001276 245.813695 
L 159.001276 245.813695 
L 159.001276 245.813695 
L 159.001276 245.813695 
L 159.001276 245.813695 
L 159.001276 245.813695 
L 159.001276 245.813695 
L 159.001276 245.813695 
L 159.001276 245.813695 
L 159.001276 245.813695 
L 159.001276 245.813695 
L 159.001276 245.813695 
L 159.001276 245.813695 
L 159.001276 245.813695 
L 159.001276 245.813695 
L 159.001276 245.813695 
L 159.001276 245.813695 
L 159.001276 245.813695 
L 159.001276 245.813695 
L 159.001276 245.813695 
L 159.001276 245.813695 
L 159.001276 245.813695 
L 159.001276 245.813695 
L 159.001276 245.813695 
L 159.001276 245.813695 
L 159.001276 245.813695 
L 159.001276 245.813695 
L 159.001276 245.813695 
L 159.001276 245.813695 
L 159.001276 245.813695 
L 159.001276 245.813695 
L 159.001276 245.813695 
L 159.001276 245.813695 
L 159.001276 245.813695 
L 159.001276 245.813695 
L 159.001276 245.813695 
L 159.001276 245.813695 
L 159.001276 245.813695 
L 159.001276 245.813695 
L 159.001276 245.813695 
L 159.001276 245.813695 
L 159.001276 245.813695 
L 159.001276 245.813695 
L 159.001276 245.813695 
L 159.001276 245.813695 
L 159.001276 245.813695 
L 159.001276 245.813695 
L 159.001276 245.813695 
L 159.001276 245.813695 
L 159.001276 245.813695 
L 159.001276 245.813695 
L 159.001276 245.813695 
L 159.001276 245.813695 
L 159.001276 245.813695 
L 159.001276 245.813695 
L 159.001276 245.813695 
L 159.001276 245.813695 
L 159.001276 245.813695 
L 159.001276 245.813695 
L 173.577149 245.509933 
L 183.865892 244.926527 
L 195.038727 243.938493 
L 201.397542 243.206251 
L 207.666154 242.359478 
L 212.504068 241.618466 
L 219.948415 240.323354 
L 225.740255 239.17992 
L 231.397118 237.942017 
L 237.631468 236.430663 
L 244.518145 234.568327 
L 251.116181 232.576332 
L 256.419783 230.812233 
L 261.505782 228.96881 
L 266.349251 227.058854 
L 270.293327 225.378284 
L 273.468002 223.933685 
L 276.50356 222.466468 
L 279.396842 220.980136 
L 282.144919 219.478245 
L 284.908906 217.865684 
L 287.502167 216.243965 
L 289.707769 214.766511 
L 291.768496 213.288513 
L 294.49171 211.154925 
L 296.184777 209.695989 
L 297.72976 208.247993 
L 298.920609 207.033946 
L 300.004514 205.832088 
L 300.981217 204.644398 
L 301.850568 203.472839 
L 302.736265 202.117134 
L 303.473308 200.789609 
L 304.220756 199.081403 
L 304.709845 197.434953 
L 304.907071 196.255877 
L 304.963838 195.117367 
L 304.880908 194.018815 
L 304.659317 192.966335 
L 304.262928 191.87721 
L 303.706831 190.848629 
L 302.820113 189.684809 
L 301.706552 188.619794 
L 300.709976 187.878071 
L 299.587766 187.19835 
L 298.227768 186.531557 
L 296.726302 185.942512 
L 295.064816 185.427047 
L 293.266671 184.995409 
L 291.626427 184.69447 
L 289.892891 184.456877 
L 288.123055 184.287576 
L 286.271073 184.179485 
L 284.339941 184.133176 
L 282.332735 184.149115 
L 279.381997 184.277868 
L 276.295541 184.531524 
L 275.456403 184.619679 
L 273.138904 184.902747 
L 270.761014 185.250226 
L 265.838349 186.137493 
L 262.315805 186.899863 
L 258.70815 187.782148 
L 256.024634 188.501363 
L 252.790067 189.436315 
L 249.510799 190.457172 
L 245.161899 191.919931 
L 240.762252 193.521609 
L 236.13497 195.334205 
L 231.484865 197.284793 
L 223.787873 200.792374 
L 222.767051 201.283479 
L 209.952011 207.966196 
L 204.500058 211.104837 
L 200.666185 213.421211 
L 191.830999 219.118452 
L 185.630821 223.435002 
L 180.369583 227.32271 
L 177.136146 229.823059 
L 172.835684 233.29137 
L 168.804577 236.705333 
L 167.064999 238.232224 
L 165.105415 239.994469 
L 163.230101 241.725992 
L 160.534795 244.299687 
L 158.045146 246.777818 
L 156.287366 248.594761 
L 154.176264 250.863458 
L 152.279772 252.998327 
L 150.614613 254.967867 
L 149.642689 256.169505 
L 148.761793 257.300626 
L 147.971826 258.357848 
L 147.272532 259.337877 
L 146.729313 260.137709 
L 146.256303 260.872508 
L 145.868397 261.513802 
L 145.54404 262.091655 
L 145.282649 262.604344 
L 145.083567 263.050205 
L 144.948447 263.420024 
L 144.871452 263.722978 
L 144.875971 264.093518 
L 145.058199 264.238931 
L 145.12209 264.24 
L 145.511461 264.102506 
L 146.063458 263.728103 
L 146.531087 263.33297 
L 147.069144 262.823249 
L 147.594532 262.283571 
L 148.169974 261.654898 
L 148.793686 260.936617 
L 149.463827 260.128219 
L 150.097102 259.333472 
L 150.76422 258.46695 
L 151.536673 257.429059 
L 152.346611 256.303763 
L 153.254462 255.000112 
L 154.200745 253.596076 
L 155.182985 252.091896 
L 156.198669 250.487941 
L 157.406667 248.517511 
L 158.651711 246.416368 
L 159.98695 244.084265 
L 161.35365 241.612624 
L 162.926831 238.660405 
L 164.719266 235.153795 
L 166.536795 231.437156 
L 167.776963 228.804253 
L 169.021478 226.079626 
L 171.094265 221.348151 
L 173.158046 216.378938 
L 174.602685 212.733531 
L 176.031935 208.979587 
L 177.976312 203.613995 
L 180.215875 197.015138 
L 181.879361 191.777371 
L 183.483179 186.408974 
L 185.546532 178.950329 
L 187.468344 171.302232 
L 188.962341 164.747381 
L 191.204536 153.481739 
L 191.856626 149.752074 
L 193.23014 140.857821 
L 194.76829 127.892866 
L 195.703131 115.586713 
L 195.960545 109.731743 
L 196.091078 103.932322 
L 196.05966 95.990544 
L 195.922434 91.331299 
L 195.534473 84.243874 
L 194.934682 77.349443 
L 194.386528 72.625191 
L 193.735871 68.019869 
L 193.031663 63.804331 
L 192.239808 59.709752 
L 191.57902 56.676716 
L 190.869389 53.721257 
L 189.916063 50.14378 
L 188.890246 46.697926 
L 187.36324 42.178416 
L 185.791581 38.129672 
L 184.111444 34.34099 
L 182.853332 31.809024 
L 181.546195 29.417831 
L 179.680184 26.375895 
L 177.751073 23.635188 
L 175.750654 21.176009 
L 174.557825 19.878298 
L 173.344972 18.679138 
L 172.113651 17.579609 
L 170.865441 16.580702 
L 169.097093 15.355786 
L 167.303375 14.330998 
L 165.623477 13.561995 
L 163.9293 12.967348 
L 161.889037 12.486287 
L 159.839862 12.25703 
L 158.633757 12.24 
L 157.428045 12.310163 
L 156.267201 12.460311 
L 155.109067 12.69135 
L 153.954791 13.003119 
L 152.805517 13.395403 
L 150.885261 14.236853 
L 149.010269 15.289973 
L 147.162654 16.561441 
L 145.817466 17.640252 
L 144.492008 18.83592 
L 143.188257 20.147194 
L 141.908156 21.572703 
L 139.934377 24.059647 
L 137.908373 27.015749 
L 135.972103 30.27703 
L 134.399975 33.287839 
L 132.903615 36.506515 
L 131.709317 39.363863 
L 130.574135 42.358517 
L 129.225954 46.338234 
L 127.94905 50.635242 
L 126.7852 55.135424 
L 125.932617 58.900616 
L 125.157892 62.784125 
L 124.418728 67.052901 
L 123.771969 71.441351 
L 122.962463 78.39067 
L 122.393837 85.333379 
L 122.05549 91.981825 
L 121.903465 98.771999 
L 121.940219 105.827409 
L 122.121933 111.877577 
L 122.587476 120.187005 
L 123.299569 128.558072 
L 124.563705 139.34001 
L 124.953521 142.132696 
L 126.808421 153.539246 
L 130.180165 169.803194 
L 131.076202 173.538932 
L 132.879919 180.539859 
L 134.316843 185.706184 
L 135.814064 190.768499 
L 137.992403 197.641884 
L 140.257872 204.269905 
L 141.591295 207.957117 
L 143.672612 213.43289 
L 145.784807 218.676486 
L 147.665972 223.10665 
L 149.550638 227.337052 
L 151.100726 230.67052 
L 152.640881 233.859021 
L 153.99241 236.559574 
L 156.071926 240.543293 
L 158.097109 244.228959 
L 158.653136 245.207931 
L 159.891706 247.337856 
L 161.096882 249.342914 
L 162.264929 251.222057 
L 163.392156 252.974445 
L 164.03314 253.943464 
L 164.828524 255.117358 
L 165.596248 256.219393 
L 166.334841 257.249505 
L 167.042852 258.207694 
L 168.083398 259.559637 
L 169.040709 260.737136 
L 169.725713 261.534383 
L 170.354735 262.226892 
L 170.841003 262.73103 
L 171.28435 263.161432 
L 171.683498 263.518701 
L 172.037211 263.803505 
L 172.510308 264.112769 
L 172.856551 264.237723 
L 173.091299 264.159816 
L 173.151335 263.912284 
L 173.078964 263.502761 
L 172.912161 263.033558 
L 172.646835 262.455022 
L 172.234617 261.687779 
L 171.66016 260.735468 
L 170.943011 259.646807 
L 169.893793 258.171195 
L 168.636314 256.519748 
L 167.823059 255.500441 
L 166.941429 254.429615 
L 165.991515 253.309548 
L 164.973501 252.142558 
L 164.415424 251.515858 
L 162.335413 249.250817 
L 160.036216 246.858018 
L 157.994149 244.815072 
L 155.810234 242.704514 
L 153.071727 240.153757 
L 150.147604 237.534629 
L 148.985956 236.521537 
L 145.519412 233.583388 
L 141.852237 230.603263 
L 138.951281 228.331498 
L 135.946659 226.052993 
L 130.740536 222.272521 
L 124.454195 217.970511 
L 118.869063 214.373095 
L 110.028174 209.083915 
L 101.788189 204.580268 
L 97.593884 202.441228 
L 88.772639 198.276574 
L 87.329961 197.638615 
L 81.758986 195.290188 
L 76.221317 193.139964 
L 71.924484 191.601673 
L 67.679213 190.197526 
L 65.284865 189.458065 
L 59.837226 187.923394 
L 54.548777 186.64255 
L 53.374231 186.387914 
L 49.680931 185.662756 
L 46.103764 185.07701 
L 43.017838 184.672648 
L 40.041807 184.380449 
L 37.980173 184.23998 
L 35.98198 184.157029 
L 34.050045 184.131383 
L 32.187128 184.162741 
L 30.241956 184.261142 
L 28.062298 184.462377 
L 26.010745 184.754664 
L 23.664363 185.238443 
L 21.530152 185.855346 
L 20.379744 186.278027 
L 19.307216 186.744496 
L 18.183391 187.327554 
L 17.164889 187.964811 
L 16.253912 188.654797 
L 15.452545 189.395956 
L 14.645531 190.340891 
L 14.114968 191.146005 
L 13.68883 191.992549 
L 13.368465 192.878906 
L 13.155112 193.803402 
L 13.038507 195.136867 
L 13.129901 196.534808 
L 13.392322 197.846021 
L 13.814602 199.169622 
L 14.401911 200.532427 
L 15.113564 201.860501 
L 15.975258 203.217628 
L 16.988846 204.602791 
L 18.153072 206.010685 
L 19.467678 207.438046 
L 20.932189 208.881577 
L 23.326447 211.001578 
L 25.511481 212.744367 
L 27.902313 214.492837 
L 30.686384 216.364194 
L 33.699757 218.22887 
L 37.063311 220.148768 
L 40.663917 222.046755 
L 43.308571 223.351778 
L 46.063261 224.640162 
L 50.357288 226.519747 
L 54.881461 228.349492 
L 58.494108 229.71151 
L 62.23238 231.036651 
L 66.149265 232.340216 
L 70.186291 233.59933 
L 73.361481 234.533137 
L 77.350797 235.639809 
L 81.434517 236.699816 
L 85.608101 237.71085 
L 89.866873 238.670713 
L 98.950468 240.489504 
L 108.228917 242.046207 
L 117.636943 243.333652 
L 125.389633 244.184986 
L 139.772474 245.284302 
L 153.1975 245.765611 
L 159.001276 245.813695 
z
" style="fill:#ffff00;opacity:0.5;"/>
   </g>
   <g id="line2d_1">
    <path clip-path="url(#p7511224f0c)" d="M 159.001276 245.813695 
L 173.577149 245.509933 
L 183.865892 244.926527 
L 195.038727 243.938493 
L 201.397542 243.206251 
L 212.504068 241.618466 
L 219.948415 240.323354 
L 225.740255 239.17992 
L 231.397118 237.942017 
L 237.631468 236.430663 
L 244.518145 234.568327 
L 251.116181 232.576332 
L 256.419783 230.812233 
L 261.505782 228.96881 
L 266.349251 227.058854 
L 273.468002 223.933685 
L 279.396842 220.980136 
L 284.908906 217.865684 
L 289.707769 214.766511 
L 291.768496 213.288513 
L 296.184777 209.695989 
L 298.920609 207.033946 
L 300.981217 204.644398 
L 302.736265 202.117134 
L 303.473308 200.789609 
L 304.220756 199.081403 
L 304.709845 197.434953 
L 304.907071 196.255877 
L 304.963838 195.117367 
L 304.880908 194.018815 
L 304.659317 192.966335 
L 304.262928 191.87721 
L 303.706831 190.848629 
L 302.820113 189.684809 
L 301.706552 188.619794 
L 300.709976 187.878071 
L 299.587766 187.19835 
L 298.227768 186.531557 
L 296.726302 185.942512 
L 295.064816 185.427047 
L 291.626427 184.69447 
L 288.123055 184.287576 
L 284.339941 184.133176 
L 279.381997 184.277868 
L 275.456403 184.619679 
L 270.761014 185.250226 
L 265.838349 186.137493 
L 258.70815 187.782148 
L 252.790067 189.436315 
L 245.161899 191.919931 
L 240.762252 193.521609 
L 236.13497 195.334205 
L 231.484865 197.284793 
L 222.767051 201.283479 
L 209.952011 207.966196 
L 200.666185 213.421211 
L 191.830999 219.118452 
L 185.630821 223.435002 
L 177.136146 229.823059 
L 172.835684 233.29137 
L 167.064999 238.232224 
L 163.230101 241.725992 
L 158.045146 246.777818 
L 154.176264 250.863458 
L 150.614613 254.967867 
L 147.971826 258.357848 
L 146.256303 260.872508 
L 145.282649 262.604344 
L 144.871452 263.722978 
L 144.875971 264.093518 
L 145.12209 264.24 
L 145.511461 264.102506 
L 146.531087 263.33297 
L 148.169974 261.654898 
L 150.097102 259.333472 
L 152.346611 256.303763 
L 155.182985 252.091896 
L 158.651711 246.416368 
L 161.35365 241.612624 
L 164.719266 235.153795 
L 167.776963 228.804253 
L 171.094265 221.348151 
L 174.602685 212.733531 
L 177.976312 203.613995 
L 181.879361 191.777371 
L 183.483179 186.408974 
L 185.546532 178.950329 
L 187.468344 171.302232 
L 188.962341 164.747381 
L 191.856626 149.752074 
L 193.23014 140.857821 
L 194.76829 127.892866 
L 195.703131 115.586713 
L 195.960545 109.731743 
L 196.091078 103.932322 
L 196.05966 95.990544 
L 195.922434 91.331299 
L 195.534473 84.243874 
L 194.934682 77.349443 
L 194.386528 72.625191 
L 193.031663 63.804331 
L 191.57902 56.676716 
L 189.916063 50.14378 
L 188.890246 46.697926 
L 187.36324 42.178416 
L 185.791581 38.129672 
L 184.111444 34.34099 
L 181.546195 29.417831 
L 179.680184 26.375895 
L 177.751073 23.635188 
L 174.557825 19.878298 
L 172.113651 17.579609 
L 170.865441 16.580702 
L 169.097093 15.355786 
L 167.303375 14.330998 
L 165.623477 13.561995 
L 163.9293 12.967348 
L 161.889037 12.486287 
L 159.839862 12.25703 
L 157.428045 12.310163 
L 155.109067 12.69135 
L 152.805517 13.395403 
L 150.885261 14.236853 
L 149.010269 15.289973 
L 147.162654 16.561441 
L 144.492008 18.83592 
L 141.908156 21.572703 
L 139.934377 24.059647 
L 137.908373 27.015749 
L 135.972103 30.27703 
L 134.399975 33.287839 
L 132.903615 36.506515 
L 130.574135 42.358517 
L 129.225954 46.338234 
L 127.94905 50.635242 
L 126.7852 55.135424 
L 125.157892 62.784125 
L 124.418728 67.052901 
L 123.771969 71.441351 
L 122.962463 78.39067 
L 122.393837 85.333379 
L 122.05549 91.981825 
L 121.903465 98.771999 
L 121.940219 105.827409 
L 122.121933 111.877577 
L 122.587476 120.187005 
L 123.299569 128.558072 
L 124.953521 142.132696 
L 126.808421 153.539246 
L 130.180165 169.803194 
L 131.076202 173.538932 
L 134.316843 185.706184 
L 135.814064 190.768499 
L 137.992403 197.641884 
L 141.591295 207.957117 
L 143.672612 213.43289 
L 147.665972 223.10665 
L 151.100726 230.67052 
L 153.99241 236.559574 
L 158.097109 244.228959 
L 161.096882 249.342914 
L 164.03314 253.943464 
L 167.042852 258.207694 
L 169.725713 261.534383 
L 171.28435 263.161432 
L 172.510308 264.112769 
L 172.856551 264.237723 
L 173.091299 264.159816 
L 173.151335 263.912284 
L 172.912161 263.033558 
L 172.234617 261.687779 
L 170.943011 259.646807 
L 168.636314 256.519748 
L 165.991515 253.309548 
L 162.335413 249.250817 
L 157.994149 244.815072 
L 153.071727 240.153757 
L 148.985956 236.521537 
L 141.852237 230.603263 
L 135.946659 226.052993 
L 130.740536 222.272521 
L 124.454195 217.970511 
L 118.869063 214.373095 
L 110.028174 209.083915 
L 101.788189 204.580268 
L 97.593884 202.441228 
L 87.329961 197.638615 
L 81.758986 195.290188 
L 76.221317 193.139964 
L 67.679213 190.197526 
L 65.284865 189.458065 
L 59.837226 187.923394 
L 53.374231 186.387914 
L 49.680931 185.662756 
L 43.017838 184.672648 
L 37.980173 184.23998 
L 34.050045 184.131383 
L 30.241956 184.261142 
L 26.010745 184.754664 
L 23.664363 185.238443 
L 20.379744 186.278027 
L 18.183391 187.327554 
L 16.253912 188.654797 
L 15.452545 189.395956 
L 14.645531 190.340891 
L 13.68883 191.992549 
L 13.368465 192.878906 
L 13.155112 193.803402 
L 13.038507 195.136867 
L 13.129901 196.534808 
L 13.392322 197.846021 
L 13.814602 199.169622 
L 14.401911 200.532427 
L 15.113564 201.860501 
L 15.975258 203.217628 
L 18.153072 206.010685 
L 20.932189 208.881577 
L 23.326447 211.001578 
L 25.511481 212.744367 
L 27.902313 214.492837 
L 30.686384 216.364194 
L 33.699757 218.22887 
L 37.063311 220.148768 
L 43.308571 223.351778 
L 46.063261 224.640162 
L 50.357288 226.519747 
L 58.494108 229.71151 
L 66.149265 232.340216 
L 73.361481 234.533137 
L 81.434517 236.699816 
L 89.866873 238.670713 
L 98.950468 240.489504 
L 108.228917 242.046207 
L 117.636943 243.333652 
L 125.389633 244.184986 
L 139.772474 245.284302 
L 153.1975 245.765611 
L 159.001276 245.813695 
L 159.001276 245.813695 
" style="fill:none;stroke:#daa520;stroke-linecap:square;stroke-width:2.0;"/>
   </g>
   <g id="matplotlib.axis_1"/>
   <g id="matplotlib.axis_2"/>
  </g>
 </g>
 <defs>
  <clipPath id="p7511224f0c">
   <rect height="262.08" width="303.602344843" x="7.2" y="7.2"/>
  </clipPath>
 </defs>
</svg>
