<?xml version="1.0" encoding="utf-8" standalone="no"?>
<!DOCTYPE svg PUBLIC "-//W3C//DTD SVG 1.1//EN"
  "http://www.w3.org/Graphics/SVG/1.1/DTD/svg11.dtd">
<!-- Created with matplotlib (http://matplotlib.org/) -->
<svg height="276pt" version="1.1" viewBox="0 0 276 276" width="276pt" xmlns="http://www.w3.org/2000/svg" xmlns:xlink="http://www.w3.org/1999/xlink">
 <defs>
  <style type="text/css">
*{stroke-linecap:butt;stroke-linejoin:round;stroke-miterlimit:100000;}
  </style>
 </defs>
 <g id="figure_1">
  <g id="patch_1">
   <path d="M 0 276.341011 
L 276.341625 276.341011 
L 276.341625 0 
L 0 0 
z
" style="fill:#ffffff;"/>
  </g>
  <g id="axes_1">
   <g id="patch_2">
    <path d="M 7.2 269.141011 
L 269.141625 269.141011 
L 269.141625 7.2 
L 7.2 7.2 
z
" style="fill:#ffffff;"/>
   </g>
   <g id="line2d_1">
    <path clip-path="url(#pb26ec15991)" d="M 264.104286 138.170804 
L 263.977969 136.760594 
L 263.599271 135.350562 
L 262.968953 133.940883 
L 262.088278 132.531734 
L 260.840694 130.991532 
L 258.173993 128.480145 
L 255.580376 126.537421 
L 254.114071 125.567076 
L 251.756588 124.141688 
L 249.163686 122.718118 
L 243.106437 119.793269 
L 236.127515 116.878515 
L 230.131068 114.630215 
L 221.176176 111.575581 
L 213.258125 109.093703 
L 204.849731 106.623699 
L 193.087165 103.381551 
L 176.932345 99.216717 
L 158.674395 94.773984 
L 126.368317 87.261639 
L 90.08601 78.83191 
L 71.361403 74.235723 
L 59.661349 71.172531 
L 49.480961 68.311145 
L 39.097827 65.094999 
L 31.564017 62.45391 
L 25.181743 59.86398 
L 21.570819 58.151128 
L 18.654582 56.538154 
L 16.27163 54.947953 
L 15.026006 53.937576 
L 14.007662 52.936917 
L 13.21848 51.946092 
L 12.659914 50.965214 
L 12.310712 49.885649 
L 12.249087 48.818694 
L 12.394174 48.018155 
L 12.704512 47.22502 
L 13.240107 46.355964 
L 13.976736 45.496142 
L 14.913212 44.645642 
L 17.159862 43.101433 
L 19.798973 41.715721 
L 22.820466 40.420756 
L 26.13979 39.213139 
L 30.519986 37.84115 
L 36.169172 36.318349 
L 42.451003 34.845828 
L 52.507225 32.81268 
L 59.691555 31.53325 
L 70.794185 29.759214 
L 85.895899 27.636401 
L 95.240926 26.449021 
L 116.751359 23.988239 
L 130.159048 22.605154 
L 162.722686 19.600304 
L 191.166066 17.285879 
L 224.714456 14.830496 
L 261.322288 12.411804 
L 264.104265 12.237327 
L 261.443472 12.404179 
L 261.443472 12.404179 
L 228.943967 14.538433 
L 199.603718 16.643292 
L 173.141042 18.723806 
L 148.849964 20.826813 
L 137.97484 21.842198 
L 107.695012 24.983643 
L 90.912565 26.988618 
L 74.252217 29.247211 
L 64.941973 30.667384 
L 53.40851 32.645356 
L 44.756208 34.349338 
L 36.558851 36.221099 
L 29.202961 38.232568 
L 24.498029 39.788068 
L 21.414252 40.994495 
L 18.470412 42.37385 
L 16.12324 43.753813 
L 14.351587 45.132439 
L 13.213274 46.392673 
L 12.566339 47.527453 
L 12.261803 48.68457 
L 12.240183 49.272391 
L 12.421879 50.335879 
L 12.886194 51.411707 
L 13.632084 52.499725 
L 14.657874 53.599778 
L 15.75245 54.54759 
L 18.011321 56.140307 
L 20.195974 57.423969 
L 22.951695 58.835299 
L 26.363156 60.378035 
L 32.063112 62.640237 
L 36.263709 64.140436 
L 44.018656 66.66667 
L 52.683028 69.236103 
L 63.817771 72.283397 
L 79.572197 76.287102 
L 92.464542 79.397819 
L 124.797403 86.900871 
L 157.525959 94.501136 
L 181.045396 100.25186 
L 193.96366 103.616078 
L 205.007533 106.668743 
L 215.377152 109.741285 
L 224.03149 112.516876 
L 231.156272 115.00124 
L 238.030656 117.636602 
L 244.492883 120.423353 
L 250.130921 123.234176 
L 252.625092 124.650113 
L 254.879236 126.064093 
L 256.895545 127.479615 
L 258.434607 128.696718 
L 259.792798 129.914712 
L 260.968075 131.133483 
L 262.519864 133.172723 
L 263.388529 134.812942 
L 263.946181 136.593074 
L 264.080036 137.552957 
L 264.096853 138.512877 
L 263.996613 139.472776 
L 263.630041 140.903738 
L 262.539699 143.137453 
L 261.36783 144.743024 
L 260.661292 145.545424 
L 259.009312 147.149291 
L 257.042467 148.751695 
L 255.17612 150.079307 
L 251.667214 152.251249 
L 248.554034 153.94061 
L 243.498335 156.372259 
L 235.93308 159.539206 
L 226.705504 162.916809 
L 215.156648 166.668236 
L 208.325937 168.714621 
L 196.55784 172.025249 
L 182.10434 175.820724 
L 161.864974 180.806117 
L 125.834659 189.202532 
L 91.788095 197.104419 
L 73.392053 201.592212 
L 60.189642 205.026293 
L 50.725738 207.667811 
L 43.33622 209.887242 
L 36.633708 212.074184 
L 29.363069 214.733861 
L 24.268224 216.888984 
L 20.751156 218.617778 
L 17.823332 220.32133 
L 15.973614 221.620318 
L 14.490248 222.903667 
L 13.682472 223.780205 
L 13.052521 224.6491 
L 12.601296 225.510273 
L 12.32944 226.363647 
L 12.237339 227.227871 
L 12.333221 228.083785 
L 12.616943 228.93131 
L 13.524466 230.347183 
L 14.853745 231.647127 
L 16.894911 233.080966 
L 18.130255 233.787438 
L 19.972791 234.707247 
L 24.377673 236.509781 
L 28.912117 238.020362 
L 33.219654 239.256636 
L 38.321939 240.549967 
L 44.291775 241.893883 
L 50.500877 243.148605 
L 61.353966 245.08824 
L 73.024182 246.914521 
L 81.57081 248.125573 
L 100.0668 250.474941 
L 118.34214 252.522828 
L 126.849303 253.404192 
L 159.408742 256.454778 
L 188.503025 258.849063 
L 221.322944 261.274302 
L 256.036129 263.594888 
L 264.094711 264.103684 
L 256.661807 263.634764 
L 256.661807 263.634764 
L 221.90161 261.314875 
L 191.28863 259.065195 
L 170.13465 257.368521 
L 148.767717 255.507303 
L 122.657647 252.975017 
L 100.227509 250.494004 
L 84.899884 248.573533 
L 70.835608 246.58863 
L 57.947475 244.508592 
L 48.262046 242.710537 
L 40.228034 240.996318 
L 33.695651 239.384244 
L 27.959879 237.723907 
L 24.479703 236.546892 
L 21.414937 235.347405 
L 19.225141 234.349915 
L 16.176174 232.623194 
L 14.312729 231.173116 
L 13.601385 230.437683 
L 12.866853 229.41803 
L 12.412454 228.385626 
L 12.239204 227.340615 
L 12.34749 226.283141 
L 12.595984 225.522912 
L 12.986733 224.756496 
L 13.689625 223.771533 
L 14.621234 222.776739 
L 15.77985 221.772228 
L 17.163342 220.758115 
L 19.115428 219.529449 
L 21.382093 218.287345 
L 23.941769 217.039218 
L 29.347066 214.740171 
L 35.739196 212.382501 
L 43.864445 209.722767 
L 53.673359 206.824467 
L 67.156987 203.184776 
L 84.515233 198.848366 
L 105.929113 193.787998 
L 163.1687 180.493387 
L 182.011083 175.844459 
L 192.172394 173.203752 
L 205.2728 169.597042 
L 214.91861 166.74141 
L 223.895483 163.870204 
L 231.192202 161.327272 
L 238.979211 158.317753 
L 245.602489 155.398808 
L 249.90112 153.231545 
L 253.661649 151.059747 
L 256.035271 149.486892 
L 258.112039 147.912256 
L 259.886724 146.336085 
L 261.354855 144.75863 
L 262.253179 143.573885 
L 263.061918 142.223659 
L 263.640656 140.872966 
L 263.988325 139.521963 
L 264.104286 138.170804 
L 264.104286 138.170804 
" style="fill:none;stroke:#0000ff;stroke-linecap:square;"/>
   </g>
   <g id="patch_3">
    <path d="M 7.2 138.170804 
L 269.141625 138.170804 
" style="fill:none;stroke:#000000;stroke-linecap:square;stroke-linejoin:miter;stroke-width:0.8;"/>
   </g>
   <g id="patch_4">
    <path d="M 138.170808 269.141011 
L 138.170808 7.2 
" style="fill:none;stroke:#000000;stroke-linecap:square;stroke-linejoin:miter;stroke-width:0.8;"/>
   </g>
   <g id="matplotlib.axis_1">
    <g id="xtick_1">
     <g id="line2d_2">
      <defs>
       <path d="M 0 0 
L 0 -4 
" id="ma5c1b47e7c" style="stroke:#000000;stroke-width:0.5;"/>
      </defs>
      <g>
       <use style="stroke:#000000;stroke-width:0.5;" x="12.2373294297" xlink:href="#ma5c1b47e7c" y="138.170804051"/>
      </g>
     </g>
     <g id="text_1">
      <!-- -1 -->
      <defs>
       <path d="M 12.40625 8.296875 
L 28.515625 8.296875 
L 28.515625 63.921875 
L 10.984375 60.40625 
L 10.984375 69.390625 
L 28.421875 72.90625 
L 38.28125 72.90625 
L 38.28125 8.296875 
L 54.390625 8.296875 
L 54.390625 0 
L 12.40625 0 
z
" id="BitstreamVeraSans-Roman-31"/>
       <path d="M 4.890625 31.390625 
L 31.203125 31.390625 
L 31.203125 23.390625 
L 4.890625 23.390625 
z
" id="BitstreamVeraSans-Roman-2d"/>
      </defs>
      <g transform="translate(7.25217317972 149.769241551)scale(0.1 -0.1)">
       <use xlink:href="#BitstreamVeraSans-Roman-2d"/>
       <use x="36.083984375" xlink:href="#BitstreamVeraSans-Roman-31"/>
      </g>
     </g>
    </g>
    <g id="xtick_2">
     <g id="line2d_3">
      <g>
       <use style="stroke:#000000;stroke-width:0.5;" x="75.2040685307" xlink:href="#ma5c1b47e7c" y="138.170804051"/>
      </g>
     </g>
     <g id="text_2">
      <!-- -0.5 -->
      <defs>
       <path d="M 31.78125 66.40625 
Q 24.171875 66.40625 20.328125 58.90625 
Q 16.5 51.421875 16.5 36.375 
Q 16.5 21.390625 20.328125 13.890625 
Q 24.171875 6.390625 31.78125 6.390625 
Q 39.453125 6.390625 43.28125 13.890625 
Q 47.125 21.390625 47.125 36.375 
Q 47.125 51.421875 43.28125 58.90625 
Q 39.453125 66.40625 31.78125 66.40625 
M 31.78125 74.21875 
Q 44.046875 74.21875 50.515625 64.515625 
Q 56.984375 54.828125 56.984375 36.375 
Q 56.984375 17.96875 50.515625 8.265625 
Q 44.046875 -1.421875 31.78125 -1.421875 
Q 19.53125 -1.421875 13.0625 8.265625 
Q 6.59375 17.96875 6.59375 36.375 
Q 6.59375 54.828125 13.0625 64.515625 
Q 19.53125 74.21875 31.78125 74.21875 
" id="BitstreamVeraSans-Roman-30"/>
       <path d="M 10.6875 12.40625 
L 21 12.40625 
L 21 0 
L 10.6875 0 
z
" id="BitstreamVeraSans-Roman-2e"/>
       <path d="M 10.796875 72.90625 
L 49.515625 72.90625 
L 49.515625 64.59375 
L 19.828125 64.59375 
L 19.828125 46.734375 
Q 21.96875 47.46875 24.109375 47.828125 
Q 26.265625 48.1875 28.421875 48.1875 
Q 40.625 48.1875 47.75 41.5 
Q 54.890625 34.8125 54.890625 23.390625 
Q 54.890625 11.625 47.5625 5.09375 
Q 40.234375 -1.421875 26.90625 -1.421875 
Q 22.3125 -1.421875 17.546875 -0.640625 
Q 12.796875 0.140625 7.71875 1.703125 
L 7.71875 11.625 
Q 12.109375 9.234375 16.796875 8.0625 
Q 21.484375 6.890625 26.703125 6.890625 
Q 35.15625 6.890625 40.078125 11.328125 
Q 45.015625 15.765625 45.015625 23.390625 
Q 45.015625 31 40.078125 35.4375 
Q 35.15625 39.890625 26.703125 39.890625 
Q 22.75 39.890625 18.8125 39.015625 
Q 14.890625 38.140625 10.796875 36.28125 
z
" id="BitstreamVeraSans-Roman-35"/>
      </defs>
      <g transform="translate(65.4485997807 149.769241551)scale(0.1 -0.1)">
       <use xlink:href="#BitstreamVeraSans-Roman-2d"/>
       <use x="36.083984375" xlink:href="#BitstreamVeraSans-Roman-30"/>
       <use x="99.70703125" xlink:href="#BitstreamVeraSans-Roman-2e"/>
       <use x="131.494140625" xlink:href="#BitstreamVeraSans-Roman-35"/>
      </g>
     </g>
    </g>
    <g id="xtick_3">
     <g id="line2d_4">
      <g>
       <use style="stroke:#000000;stroke-width:0.5;" x="138.170807632" xlink:href="#ma5c1b47e7c" y="138.170804051"/>
      </g>
     </g>
    </g>
    <g id="xtick_4">
     <g id="line2d_5">
      <g>
       <use style="stroke:#000000;stroke-width:0.5;" x="201.137546733" xlink:href="#ma5c1b47e7c" y="138.170804051"/>
      </g>
     </g>
     <g id="text_3">
      <!-- 0.5 -->
      <g transform="translate(193.185984233 149.769241551)scale(0.1 -0.1)">
       <use xlink:href="#BitstreamVeraSans-Roman-30"/>
       <use x="63.623046875" xlink:href="#BitstreamVeraSans-Roman-2e"/>
       <use x="95.41015625" xlink:href="#BitstreamVeraSans-Roman-35"/>
      </g>
     </g>
    </g>
    <g id="xtick_5">
     <g id="line2d_6">
      <g>
       <use style="stroke:#000000;stroke-width:0.5;" x="264.104285833" xlink:href="#ma5c1b47e7c" y="138.170804051"/>
      </g>
     </g>
     <g id="text_4">
      <!-- 1 -->
      <g transform="translate(260.923035833 149.769241551)scale(0.1 -0.1)">
       <use xlink:href="#BitstreamVeraSans-Roman-31"/>
      </g>
     </g>
    </g>
    <g id="xtick_6">
     <g id="line2d_7">
      <defs>
       <path d="M 0 0 
L 0 -2 
" id="mdf243e25b3" style="stroke:#000000;stroke-width:0.5;"/>
      </defs>
      <g>
       <use style="stroke:#000000;stroke-width:0.5;" x="24.8306772499" xlink:href="#mdf243e25b3" y="138.170804051"/>
      </g>
     </g>
    </g>
    <g id="xtick_7">
     <g id="line2d_8">
      <g>
       <use style="stroke:#000000;stroke-width:0.5;" x="37.4240250701" xlink:href="#mdf243e25b3" y="138.170804051"/>
      </g>
     </g>
    </g>
    <g id="xtick_8">
     <g id="line2d_9">
      <g>
       <use style="stroke:#000000;stroke-width:0.5;" x="50.0173728903" xlink:href="#mdf243e25b3" y="138.170804051"/>
      </g>
     </g>
    </g>
    <g id="xtick_9">
     <g id="line2d_10">
      <g>
       <use style="stroke:#000000;stroke-width:0.5;" x="62.6107207105" xlink:href="#mdf243e25b3" y="138.170804051"/>
      </g>
     </g>
    </g>
    <g id="xtick_10">
     <g id="line2d_11">
      <g>
       <use style="stroke:#000000;stroke-width:0.5;" x="75.2040685307" xlink:href="#mdf243e25b3" y="138.170804051"/>
      </g>
     </g>
    </g>
    <g id="xtick_11">
     <g id="line2d_12">
      <g>
       <use style="stroke:#000000;stroke-width:0.5;" x="87.7974163508" xlink:href="#mdf243e25b3" y="138.170804051"/>
      </g>
     </g>
    </g>
    <g id="xtick_12">
     <g id="line2d_13">
      <g>
       <use style="stroke:#000000;stroke-width:0.5;" x="100.390764171" xlink:href="#mdf243e25b3" y="138.170804051"/>
      </g>
     </g>
    </g>
    <g id="xtick_13">
     <g id="line2d_14">
      <g>
       <use style="stroke:#000000;stroke-width:0.5;" x="112.984111991" xlink:href="#mdf243e25b3" y="138.170804051"/>
      </g>
     </g>
    </g>
    <g id="xtick_14">
     <g id="line2d_15">
      <g>
       <use style="stroke:#000000;stroke-width:0.5;" x="125.577459811" xlink:href="#mdf243e25b3" y="138.170804051"/>
      </g>
     </g>
    </g>
    <g id="xtick_15">
     <g id="line2d_16">
      <g>
       <use style="stroke:#000000;stroke-width:0.5;" x="138.170807632" xlink:href="#mdf243e25b3" y="138.170804051"/>
      </g>
     </g>
    </g>
    <g id="xtick_16">
     <g id="line2d_17">
      <g>
       <use style="stroke:#000000;stroke-width:0.5;" x="150.764155452" xlink:href="#mdf243e25b3" y="138.170804051"/>
      </g>
     </g>
    </g>
    <g id="xtick_17">
     <g id="line2d_18">
      <g>
       <use style="stroke:#000000;stroke-width:0.5;" x="163.357503272" xlink:href="#mdf243e25b3" y="138.170804051"/>
      </g>
     </g>
    </g>
    <g id="xtick_18">
     <g id="line2d_19">
      <g>
       <use style="stroke:#000000;stroke-width:0.5;" x="175.950851092" xlink:href="#mdf243e25b3" y="138.170804051"/>
      </g>
     </g>
    </g>
    <g id="xtick_19">
     <g id="line2d_20">
      <g>
       <use style="stroke:#000000;stroke-width:0.5;" x="188.544198912" xlink:href="#mdf243e25b3" y="138.170804051"/>
      </g>
     </g>
    </g>
    <g id="xtick_20">
     <g id="line2d_21">
      <g>
       <use style="stroke:#000000;stroke-width:0.5;" x="201.137546733" xlink:href="#mdf243e25b3" y="138.170804051"/>
      </g>
     </g>
    </g>
    <g id="xtick_21">
     <g id="line2d_22">
      <g>
       <use style="stroke:#000000;stroke-width:0.5;" x="213.730894553" xlink:href="#mdf243e25b3" y="138.170804051"/>
      </g>
     </g>
    </g>
    <g id="xtick_22">
     <g id="line2d_23">
      <g>
       <use style="stroke:#000000;stroke-width:0.5;" x="226.324242373" xlink:href="#mdf243e25b3" y="138.170804051"/>
      </g>
     </g>
    </g>
    <g id="xtick_23">
     <g id="line2d_24">
      <g>
       <use style="stroke:#000000;stroke-width:0.5;" x="238.917590193" xlink:href="#mdf243e25b3" y="138.170804051"/>
      </g>
     </g>
    </g>
    <g id="xtick_24">
     <g id="line2d_25">
      <g>
       <use style="stroke:#000000;stroke-width:0.5;" x="251.510938013" xlink:href="#mdf243e25b3" y="138.170804051"/>
      </g>
     </g>
    </g>
    <g id="xtick_25">
     <g id="line2d_26">
      <g>
       <use style="stroke:#000000;stroke-width:0.5;" x="264.104285833" xlink:href="#mdf243e25b3" y="138.170804051"/>
      </g>
     </g>
    </g>
   </g>
   <g id="matplotlib.axis_2">
    <g id="ytick_1">
     <g id="line2d_27">
      <defs>
       <path d="M 0 0 
L 4 0 
" id="m930de9655c" style="stroke:#000000;stroke-width:0.5;"/>
      </defs>
      <g>
       <use style="stroke:#000000;stroke-width:0.5;" x="138.170807632" xlink:href="#m930de9655c" y="264.104282253"/>
      </g>
     </g>
     <g id="text_5">
      <!-- -1 -->
      <g transform="translate(124.200495132 266.863657253)scale(0.1 -0.1)">
       <use xlink:href="#BitstreamVeraSans-Roman-2d"/>
       <use x="36.083984375" xlink:href="#BitstreamVeraSans-Roman-31"/>
      </g>
     </g>
    </g>
    <g id="ytick_2">
     <g id="line2d_28">
      <g>
       <use style="stroke:#000000;stroke-width:0.5;" x="138.170807632" xlink:href="#m930de9655c" y="201.137543152"/>
      </g>
     </g>
     <g id="text_6">
      <!-- -0.5 -->
      <g transform="translate(114.659870132 203.896918152)scale(0.1 -0.1)">
       <use xlink:href="#BitstreamVeraSans-Roman-2d"/>
       <use x="36.083984375" xlink:href="#BitstreamVeraSans-Roman-30"/>
       <use x="99.70703125" xlink:href="#BitstreamVeraSans-Roman-2e"/>
       <use x="131.494140625" xlink:href="#BitstreamVeraSans-Roman-35"/>
      </g>
     </g>
    </g>
    <g id="ytick_3">
     <g id="line2d_29">
      <g>
       <use style="stroke:#000000;stroke-width:0.5;" x="138.170807632" xlink:href="#m930de9655c" y="138.170804051"/>
      </g>
     </g>
    </g>
    <g id="ytick_4">
     <g id="line2d_30">
      <g>
       <use style="stroke:#000000;stroke-width:0.5;" x="138.170807632" xlink:href="#m930de9655c" y="75.2040649503"/>
      </g>
     </g>
     <g id="text_7">
      <!-- 0.5 -->
      <g transform="translate(118.267682632 77.9634399503)scale(0.1 -0.1)">
       <use xlink:href="#BitstreamVeraSans-Roman-30"/>
       <use x="63.623046875" xlink:href="#BitstreamVeraSans-Roman-2e"/>
       <use x="95.41015625" xlink:href="#BitstreamVeraSans-Roman-35"/>
      </g>
     </g>
    </g>
    <g id="ytick_5">
     <g id="line2d_31">
      <g>
       <use style="stroke:#000000;stroke-width:0.5;" x="138.170807632" xlink:href="#m930de9655c" y="12.2373258494"/>
      </g>
     </g>
     <g id="text_8">
      <!-- 1 -->
      <g transform="translate(127.808307632 14.9967008494)scale(0.1 -0.1)">
       <use xlink:href="#BitstreamVeraSans-Roman-31"/>
      </g>
     </g>
    </g>
    <g id="ytick_6">
     <g id="line2d_32">
      <defs>
       <path d="M 0 0 
L 2 0 
" id="m4ec5b09684" style="stroke:#000000;stroke-width:0.5;"/>
      </defs>
      <g>
       <use style="stroke:#000000;stroke-width:0.5;" x="138.170807632" xlink:href="#m4ec5b09684" y="251.510934433"/>
      </g>
     </g>
    </g>
    <g id="ytick_7">
     <g id="line2d_33">
      <g>
       <use style="stroke:#000000;stroke-width:0.5;" x="138.170807632" xlink:href="#m4ec5b09684" y="238.917586613"/>
      </g>
     </g>
    </g>
    <g id="ytick_8">
     <g id="line2d_34">
      <g>
       <use style="stroke:#000000;stroke-width:0.5;" x="138.170807632" xlink:href="#m4ec5b09684" y="226.324238793"/>
      </g>
     </g>
    </g>
    <g id="ytick_9">
     <g id="line2d_35">
      <g>
       <use style="stroke:#000000;stroke-width:0.5;" x="138.170807632" xlink:href="#m4ec5b09684" y="213.730890972"/>
      </g>
     </g>
    </g>
    <g id="ytick_10">
     <g id="line2d_36">
      <g>
       <use style="stroke:#000000;stroke-width:0.5;" x="138.170807632" xlink:href="#m4ec5b09684" y="201.137543152"/>
      </g>
     </g>
    </g>
    <g id="ytick_11">
     <g id="line2d_37">
      <g>
       <use style="stroke:#000000;stroke-width:0.5;" x="138.170807632" xlink:href="#m4ec5b09684" y="188.544195332"/>
      </g>
     </g>
    </g>
    <g id="ytick_12">
     <g id="line2d_38">
      <g>
       <use style="stroke:#000000;stroke-width:0.5;" x="138.170807632" xlink:href="#m4ec5b09684" y="175.950847512"/>
      </g>
     </g>
    </g>
    <g id="ytick_13">
     <g id="line2d_39">
      <g>
       <use style="stroke:#000000;stroke-width:0.5;" x="138.170807632" xlink:href="#m4ec5b09684" y="163.357499692"/>
      </g>
     </g>
    </g>
    <g id="ytick_14">
     <g id="line2d_40">
      <g>
       <use style="stroke:#000000;stroke-width:0.5;" x="138.170807632" xlink:href="#m4ec5b09684" y="150.764151871"/>
      </g>
     </g>
    </g>
    <g id="ytick_15">
     <g id="line2d_41">
      <g>
       <use style="stroke:#000000;stroke-width:0.5;" x="138.170807632" xlink:href="#m4ec5b09684" y="138.170804051"/>
      </g>
     </g>
    </g>
    <g id="ytick_16">
     <g id="line2d_42">
      <g>
       <use style="stroke:#000000;stroke-width:0.5;" x="138.170807632" xlink:href="#m4ec5b09684" y="125.577456231"/>
      </g>
     </g>
    </g>
    <g id="ytick_17">
     <g id="line2d_43">
      <g>
       <use style="stroke:#000000;stroke-width:0.5;" x="138.170807632" xlink:href="#m4ec5b09684" y="112.984108411"/>
      </g>
     </g>
    </g>
    <g id="ytick_18">
     <g id="line2d_44">
      <g>
       <use style="stroke:#000000;stroke-width:0.5;" x="138.170807632" xlink:href="#m4ec5b09684" y="100.390760591"/>
      </g>
     </g>
    </g>
    <g id="ytick_19">
     <g id="line2d_45">
      <g>
       <use style="stroke:#000000;stroke-width:0.5;" x="138.170807632" xlink:href="#m4ec5b09684" y="87.7974127705"/>
      </g>
     </g>
    </g>
    <g id="ytick_20">
     <g id="line2d_46">
      <g>
       <use style="stroke:#000000;stroke-width:0.5;" x="138.170807632" xlink:href="#m4ec5b09684" y="75.2040649503"/>
      </g>
     </g>
    </g>
    <g id="ytick_21">
     <g id="line2d_47">
      <g>
       <use style="stroke:#000000;stroke-width:0.5;" x="138.170807632" xlink:href="#m4ec5b09684" y="62.6107171302"/>
      </g>
     </g>
    </g>
    <g id="ytick_22">
     <g id="line2d_48">
      <g>
       <use style="stroke:#000000;stroke-width:0.5;" x="138.170807632" xlink:href="#m4ec5b09684" y="50.01736931"/>
      </g>
     </g>
    </g>
    <g id="ytick_23">
     <g id="line2d_49">
      <g>
       <use style="stroke:#000000;stroke-width:0.5;" x="138.170807632" xlink:href="#m4ec5b09684" y="37.4240214898"/>
      </g>
     </g>
    </g>
    <g id="ytick_24">
     <g id="line2d_50">
      <g>
       <use style="stroke:#000000;stroke-width:0.5;" x="138.170807632" xlink:href="#m4ec5b09684" y="24.8306736696"/>
      </g>
     </g>
    </g>
    <g id="ytick_25">
     <g id="line2d_51">
      <g>
       <use style="stroke:#000000;stroke-width:0.5;" x="138.170807632" xlink:href="#m4ec5b09684" y="12.2373258494"/>
      </g>
     </g>
    </g>
   </g>
  </g>
 </g>
 <defs>
  <clipPath id="pb26ec15991">
   <rect height="261.941010979" width="261.941624771" x="7.2" y="7.2"/>
  </clipPath>
 </defs>
</svg>
