<?xml version="1.0" encoding="utf-8" standalone="no"?>
<!DOCTYPE svg PUBLIC "-//W3C//DTD SVG 1.1//EN"
  "http://www.w3.org/Graphics/SVG/1.1/DTD/svg11.dtd">
<!-- Created with matplotlib (http://matplotlib.org/) -->
<svg height="276pt" version="1.1" viewBox="0 0 338 276" width="338pt" xmlns="http://www.w3.org/2000/svg" xmlns:xlink="http://www.w3.org/1999/xlink">
 <defs>
  <style type="text/css">
*{stroke-linecap:butt;stroke-linejoin:round;stroke-miterlimit:100000;}
  </style>
 </defs>
 <g id="figure_1">
  <g id="patch_1">
   <path d="M 0 276.359479 
L 338.997468 276.359479 
L 338.997468 0 
L 0 0 
z
" style="fill:#ffffff;"/>
  </g>
  <g id="axes_1">
   <g id="patch_2">
    <path d="M 7.2 269.159479 
L 331.797468 269.159479 
L 331.797468 8.123184 
L 7.2 8.123184 
z
" style="fill:#ffffff;"/>
   </g>
   <g id="patch_3">
    <path clip-path="url(#pa84cb9d350)" d="M 159.17473 117.960165 
L 160.121693 117.891062 
L 160.535952 117.814114 
L 161.16823 117.629119 
L 161.459673 117.509017 
L 161.731 117.370731 
L 161.990598 117.206725 
L 162.263241 116.986089 
L 162.491895 116.738367 
L 162.616475 116.560543 
L 162.718951 116.371364 
L 162.795593 116.179089 
L 162.849975 115.976675 
L 162.881286 115.764301 
L 162.888788 115.54216 
L 162.852809 115.184519 
L 162.757731 114.805317 
L 162.653233 114.522913 
L 162.51757 114.230305 
L 162.35041 113.927809 
L 162.151544 113.615747 
L 161.838486 113.187367 
L 161.495266 112.772918 
L 161.103579 112.345666 
L 160.702589 111.943444 
L 160.26218 111.531636 
L 159.783283 111.110826 
L 159.267031 110.681612 
L 158.802255 110.312514 
L 158.312624 109.938223 
L 157.496937 109.34155 
L 156.626974 108.734568 
L 155.798128 108.178422 
L 154.932972 107.6163 
L 153.924613 106.980076 
L 152.882624 106.339546 
L 150.95463 105.18696 
L 149.442309 104.301934 
L 147.100892 102.944194 
L 145.712296 102.135287 
L 144.520958 101.431967 
L 143.379328 100.743648 
L 142.648705 100.29215 
L 141.950306 99.849446 
L 141.381177 99.478197 
L 140.840915 99.114502 
L 140.331884 98.758868 
L 139.856401 98.411802 
L 139.805207 98.373389 
L 139.314321 97.992119 
L 138.872948 97.623299 
L 138.484141 97.267646 
L 138.150817 96.925868 
L 137.9784 96.727492 
L 137.827585 96.534527 
L 137.698925 96.347119 
L 137.592946 96.165417 
L 137.51209 95.994259 
L 137.453621 95.82877 
L 137.417958 95.669082 
L 137.405496 95.515325 
L 137.428587 95.306576 
L 137.500597 95.110513 
L 137.565562 95.002122 
L 137.64764 94.898243 
L 137.746974 94.798942 
L 137.863695 94.70429 
L 137.997922 94.614354 
L 138.149758 94.529199 
L 138.319294 94.448892 
L 138.506606 94.373497 
L 138.726512 94.298423 
L 138.966849 94.229108 
L 139.227656 94.165628 
L 139.508952 94.108058 
L 139.860664 94.048813 
L 140.239874 93.997716 
L 140.646513 93.954875 
L 141.080479 93.920394 
L 141.540662 93.894421 
L 142.027746 93.876977 
L 142.541522 93.868157 
L 143.081742 93.868056 
L 143.745564 93.879093 
L 144.44454 93.902279 
L 145.178093 93.937748 
L 145.945581 93.985631 
L 146.538528 94.029408 
L 147.149573 94.080182 
L 147.778381 94.137998 
L 148.424597 94.202903 
L 149.16397 94.283545 
L 149.923903 94.373081 
L 151.080296 94.521388 
L 152.278152 94.689301 
L 153.515384 94.876969 
L 154.789777 95.084528 
L 155.998366 95.294107 
L 157.234746 95.520859 
L 158.496893 95.764857 
L 159.7827 96.026166 
L 161.703991 96.440224 
L 163.664178 96.891649 
L 166.776294 97.669172 
L 171.713789 99.063701 
L 175.205951 100.181544 
L 176.800559 100.732729 
L 178.4196 101.321207 
L 180.019078 101.933564 
L 181.594287 102.569614 
L 183.140519 103.229148 
L 185.100669 104.121786 
L 186.82006 104.964661 
L 188.476591 105.838942 
L 189.278948 106.287702 
L 190.062801 106.744119 
L 190.827241 107.208121 
L 191.57137 107.679635 
L 192.292653 108.157471 
L 192.991966 108.64263 
L 193.668456 109.135033 
L 194.32128 109.634595 
L 195.117291 110.281183 
L 195.871901 110.939066 
L 196.583492 111.608053 
L 197.250495 112.287948 
L 197.917192 113.032097 
L 198.528597 113.788396 
L 198.942077 114.352394 
L 199.324018 114.92271 
L 199.628901 115.421795 
L 199.909232 115.925461 
L 200.164624 116.433633 
L 200.394706 116.946231 
L 200.599122 117.463176 
L 200.777531 117.984388 
L 200.92961 118.509785 
L 201.055053 119.039283 
L 201.180948 119.75555 
L 201.257783 120.478831 
L 201.284968 121.208912 
L 201.261967 121.945577 
L 201.224862 122.381305 
L 201.170188 122.819183 
L 201.027041 123.613616 
L 200.826175 124.414615 
L 200.567266 125.221903 
L 200.250072 126.035199 
L 199.851931 126.899708 
L 199.388606 127.770251 
L 198.860108 128.646479 
L 198.266555 129.528042 
L 197.802809 130.160888 
L 197.306087 130.796143 
L 196.776529 131.433674 
L 196.214304 132.073347 
L 195.46188 132.879907 
L 194.658648 133.689362 
L 193.805127 134.50144 
L 192.901906 135.315863 
L 192.124099 135.985698 
L 191.313667 136.656768 
L 190.471037 137.328916 
L 189.596667 138.001985 
L 188.262332 138.98727 
L 186.862857 139.973682 
L 185.400023 140.960712 
L 183.87574 141.947853 
L 182.881756 142.571468 
L 181.86459 143.194791 
L 180.824804 143.817692 
L 179.76298 144.440038 
L 177.863331 145.521959 
L 175.90202 146.601098 
L 173.882532 147.676753 
L 171.808523 148.748213 
L 170.436954 149.440089 
L 169.045152 150.12971 
L 166.954998 151.143639 
L 164.826752 152.151596 
L 162.664162 153.152951 
L 160.471087 154.147073 
L 158.336035 155.096102 
L 156.18003 156.037287 
L 151.743214 157.92603 
L 147.266733 159.775214 
L 142.506316 161.690274 
L 137.778094 163.549774 
L 136.706895 163.966111 
L 134.227431 164.92382 
L 131.777369 165.86301 
L 129.362853 166.782853 
L 126.990004 167.682532 
L 125.500561 168.245668 
L 124.03213 168.800055 
L 122.58627 169.345484 
L 121.16453 169.881749 
L 119.584215 170.478218 
L 118.039065 171.062356 
L 116.53126 171.633869 
L 115.062952 172.192467 
L 114.033905 172.585548 
L 113.027098 172.971711 
L 112.043295 173.350854 
L 111.083245 173.722872 
L 110.21234 174.062375 
L 109.363206 174.395544 
L 108.536421 174.722298 
L 107.732551 175.042556 
L 106.7378 175.44293 
L 105.782655 175.832361 
L 104.86823 176.210687 
L 103.995607 176.577744 
L 103.165835 176.933374 
L 102.379934 177.277419 
L 101.638885 177.609724 
L 100.943639 177.930136 
L 100.353448 178.210328 
L 99.802337 178.480502 
L 99.290935 178.74055 
L 98.819842 178.990365 
L 98.292208 179.285952 
L 97.828555 179.565423 
L 97.429855 179.828585 
L 97.097011 180.075249 
L 96.871668 180.267038 
L 96.692565 180.447265 
L 96.585151 180.579853 
L 96.506336 180.705289 
L 96.456285 180.823524 
L 96.435146 180.934515 
L 96.443058 181.038215 
L 96.480144 181.134583 
L 96.546514 181.223575 
L 96.642263 181.305148 
L 96.79475 181.392568 
L 96.989143 181.469338 
L 97.225528 181.535395 
L 97.503962 181.590672 
L 97.743199 181.62537 
L 98.006644 181.653806 
L 98.294289 181.675953 
L 98.606115 181.691785 
L 98.942097 181.701279 
L 99.302197 181.70441 
L 99.68637 181.701155 
L 100.094559 181.69149 
L 100.751243 181.664952 
L 101.461478 181.623893 
L 102.224954 181.568244 
L 103.041313 181.49794 
L 103.63542 181.440834 
L 104.254381 181.376697 
L 104.898038 181.30551 
L 105.566222 181.227256 
L 106.258752 181.141919 
L 106.975438 181.04948 
L 107.716078 180.949925 
L 108.48046 180.84324 
L 109.42349 180.706561 
L 110.399618 180.559683 
L 111.408424 180.402586 
L 112.449465 180.235251 
L 113.941107 179.986985 
L 115.492194 179.719074 
L 117.101361 179.431482 
L 118.767165 179.12418 
L 119.756856 178.937255 
L 120.764718 178.743713 
L 121.79044 178.543552 
L 122.8337 178.336769 
L 124.349485 178.030766 
L 125.899215 177.711324 
L 127.481882 177.378443 
L 129.096448 177.032129 
L 130.978336 176.620129 
L 132.898811 176.190628 
L 134.856187 175.743647 
L 136.848733 175.279213 
L 138.874669 174.797358 
L 140.932177 174.298116 
L 143.019391 173.781529 
L 145.134411 173.247645 
L 147.101639 172.741621 
L 149.08919 172.221066 
L 151.095503 171.686025 
L 153.118993 171.136551 
L 156.71764 170.134451 
L 160.3556 169.088126 
L 165.129607 167.662118 
L 176.493668 164.003511 
L 180.592943 162.582021 
L 184.665182 161.109572 
L 188.742996 159.569228 
L 192.765757 157.97846 
L 195.449397 156.874015 
L 198.097325 155.747221 
L 200.705342 154.598395 
L 203.269284 153.427865 
L 204.891994 152.66424 
L 206.493708 151.891881 
L 208.073348 151.110881 
L 209.629849 150.321338 
L 211.843796 149.161374 
L 214.003678 147.983951 
L 216.106368 146.789383 
L 218.148793 145.577988 
L 219.308372 144.865449 
L 220.445941 144.147389 
L 221.560924 143.423875 
L 222.652756 142.694975 
L 223.720877 141.960756 
L 224.764737 141.221289 
L 225.783796 140.476643 
L 226.777521 139.726889 
L 227.617792 139.073076 
L 228.438312 138.415527 
L 229.238752 137.754292 
L 230.018789 137.089418 
L 230.778107 136.420953 
L 231.516395 135.748947 
L 232.233349 135.07345 
L 232.92867 134.394511 
L 234.037363 133.256825 
L 235.083999 132.109977 
L 235.794317 131.283635 
L 236.471755 130.45281 
L 237.115884 129.617591 
L 237.726287 128.778069 
L 238.302565 127.934334 
L 238.84433 127.086479 
L 239.351212 126.234595 
L 239.822855 125.378777 
L 240.329153 124.3733 
L 240.786298 123.362724 
L 241.193802 122.347204 
L 241.551208 121.326893 
L 241.864272 120.279346 
L 242.124143 119.227126 
L 242.330433 118.170404 
L 242.482789 117.10935 
L 242.580894 116.044138 
L 242.624465 114.97494 
L 242.613255 113.901933 
L 242.547053 112.825292 
L 242.438698 111.841242 
L 242.284433 110.854458 
L 242.084177 109.865077 
L 241.837876 108.873234 
L 241.546352 107.881757 
L 241.208997 106.888107 
L 240.825834 105.892422 
L 240.396908 104.894842 
L 240.005431 104.063944 
L 239.582415 103.231914 
L 239.127928 102.398831 
L 238.642049 101.564777 
L 238.027808 100.57844 
L 237.37007 99.590997 
L 236.669034 98.602584 
L 235.924921 97.613338 
L 235.137976 96.623395 
L 234.308471 95.632893 
L 233.436696 94.64197 
L 232.52297 93.650764 
L 231.65706 92.750425 
L 230.7571 91.850071 
L 229.823376 90.949808 
L 228.856192 90.04974 
L 227.855867 89.149972 
L 226.822735 88.250609 
L 225.757148 87.351757 
L 224.659469 86.453523 
L 223.724954 85.709052 
L 222.76885 84.965138 
L 221.791389 84.221844 
L 220.792808 83.479229 
L 219.773356 82.737355 
L 218.733285 81.996283 
L 217.672854 81.256073 
L 216.592333 80.516786 
L 215.198982 79.584242 
L 213.77457 78.653394 
L 212.319679 77.724364 
L 210.834911 76.797277 
L 209.317063 75.869948 
L 207.770446 74.944821 
L 206.195712 74.022021 
L 204.593532 73.101673 
L 203.085191 72.251253 
L 201.554432 71.403145 
L 200.001823 70.557448 
L 198.427942 69.714261 
L 196.833377 68.873683 
L 195.218728 68.035814 
L 193.584602 67.200754 
L 191.931619 66.3686 
L 190.136378 65.478389 
L 188.320907 64.591768 
L 186.48601 63.708858 
L 184.632501 62.829783 
L 182.234004 61.710281 
L 179.808118 60.597519 
L 177.35663 59.491751 
L 174.881351 58.393234 
L 172.384121 57.30222 
L 169.866801 56.218964 
L 164.779461 54.076735 
L 162.297187 53.052655 
L 157.038203 50.924913 
L 151.744126 48.835544 
L 141.118331 44.780222 
L 139.358285 44.124343 
L 132.311722 41.538048 
L 128.815759 40.276557 
L 125.344846 39.036951 
L 122.147208 37.905443 
L 118.979697 36.793783 
L 115.846385 35.702426 
L 112.75132 34.631821 
L 110.552625 33.875395 
L 108.377245 33.130082 
L 106.226653 32.396046 
L 104.102309 31.673447 
L 102.00566 30.962444 
L 99.938142 30.263195 
L 97.901175 29.575856 
L 95.896166 28.900582 
L 94.665132 28.486495 
L 92.987375 27.922641 
L 91.335733 27.367971 
L 89.711062 26.82258 
L 88.114206 26.286561 
L 86.545998 25.760008 
L 85.00726 25.243011 
L 83.498802 24.735662 
L 82.021424 24.23805 
L 80.309008 23.66008 
L 78.642789 23.096104 
L 77.024031 22.546266 
L 75.453969 22.010709 
L 74.096046 21.545326 
L 72.778638 21.091507 
L 71.502563 20.649347 
L 70.268617 20.218943 
L 69.07758 19.800387 
L 67.930208 19.393773 
L 66.827237 18.99919 
L 65.769382 18.616729 
L 64.600141 18.188538 
L 63.493534 17.776897 
L 62.709242 17.480613 
L 61.960778 17.193671 
L 61.248529 16.916123 
L 60.572871 16.648022 
L 59.934161 16.389418 
L 59.332747 16.140363 
L 58.76896 15.900904 
L 58.24312 15.671092 
L 57.701125 15.425916 
L 57.207231 15.192892 
L 56.761815 14.972085 
L 56.365234 14.763556 
L 56.151873 14.644931 
L 55.956105 14.530717 
L 55.777996 14.420926 
L 55.617606 14.315572 
L 55.474992 14.214665 
L 55.35021 14.118218 
L 55.24331 14.026243 
L 55.154342 13.938751 
L 55.083351 13.855753 
L 55.030379 13.77726 
L 54.995465 13.703284 
L 54.978645 13.633835 
L 54.979952 13.568923 
L 54.999417 13.508559 
L 55.037065 13.452753 
L 55.092921 13.401515 
L 55.208534 13.334319 
L 55.363827 13.277105 
L 55.593352 13.22335 
L 55.876195 13.183072 
L 56.212361 13.156312 
L 56.601827 13.143112 
L 57.044543 13.143511 
L 57.540431 13.157545 
L 58.089385 13.185249 
L 58.691272 13.226658 
L 59.178787 13.266855 
L 59.696082 13.314837 
L 60.243067 13.370615 
L 60.819648 13.434202 
L 61.558431 13.521807 
L 62.340379 13.620931 
L 63.165266 13.731591 
L 64.03285 13.853803 
L 64.942867 13.987581 
L 65.895037 14.13294 
L 66.88906 14.289892 
L 67.924617 14.458447 
L 69.003406 14.638961 
L 70.123186 14.831139 
L 71.283583 15.03499 
L 72.484201 15.250518 
L 73.724628 15.477728 
L 75.004432 15.716624 
L 76.323165 15.967207 
L 77.680358 16.229478 
L 78.655256 16.420462 
L 79.648675 16.617198 
L 80.660438 16.819685 
L 81.690365 17.027922 
L 83.306641 17.358836 
L 84.964611 17.703293 
L 86.663563 18.061285 
L 88.402763 18.432799 
L 90.181455 18.817823 
L 91.998863 19.216343 
L 93.854186 19.628342 
L 95.746606 20.053801 
L 97.566796 20.467874 
L 99.418587 20.893911 
L 101.301239 21.331894 
L 103.213997 21.7818 
L 105.156089 22.243606 
L 107.126729 22.71729 
L 109.125118 23.202824 
L 111.150441 23.700182 
L 113.70948 24.336154 
L 116.307386 24.990366 
L 118.942496 25.662756 
L 121.613118 26.353259 
L 124.526598 27.116973 
L 127.477069 27.901518 
L 130.462306 28.706799 
L 133.480048 29.532717 
L 137.465751 30.642095 
L 141.497782 31.786238 
L 145.535902 32.954667 
L 149.609168 34.156751 
L 153.712299 35.39221 
L 157.839953 36.660756 
L 165.71747 39.156775 
L 173.626474 41.76854 
L 183.796041 45.298255 
L 190.572006 47.768824 
L 193.93688 49.034378 
L 197.282263 50.31981 
L 200.605099 51.624888 
L 203.902345 52.949374 
L 207.170968 54.293025 
L 210.407951 55.655594 
L 212.995522 56.768998 
L 215.558961 57.894424 
L 218.096712 59.031736 
L 220.607229 60.180792 
L 223.359656 61.469591 
L 226.074575 62.772482 
L 228.148151 63.790114 
L 230.197096 64.815968 
L 232.220477 65.849948 
L 234.217366 66.891958 
L 236.186847 67.941901 
L 238.128013 68.999677 
L 240.039966 70.065186 
L 241.921822 71.138328 
L 243.924653 72.30888 
L 245.890068 73.488131 
L 247.816988 74.675949 
L 249.70435 75.872198 
L 251.006402 76.717796 
L 252.288045 77.567444 
L 253.548927 78.421094 
L 254.788698 79.278698 
L 256.007014 80.140208 
L 257.203538 81.005574 
L 258.377934 81.874748 
L 259.529873 82.747681 
L 260.62507 83.597639 
L 261.698558 84.451038 
L 262.750051 85.307832 
L 263.779267 86.167975 
L 264.785929 87.031421 
L 265.769766 87.898123 
L 266.730511 88.768034 
L 267.6679 89.641106 
L 268.581678 90.517292 
L 269.471592 91.396545 
L 270.337395 92.278816 
L 271.178846 93.164056 
L 271.99571 94.052218 
L 272.787754 94.943252 
L 273.554754 95.83711 
L 274.29649 96.733742 
L 275.357299 98.078613 
L 276.360529 99.429401 
L 276.896539 100.187788 
L 277.414199 100.947946 
L 277.9134 101.709845 
L 278.394036 102.473455 
L 278.856002 103.238746 
L 279.299199 104.005689 
L 279.723528 104.774252 
L 280.128895 105.544407 
L 280.515207 106.316123 
L 280.882377 107.089369 
L 281.230319 107.864115 
L 281.558949 108.64033 
L 281.868188 109.417984 
L 282.157959 110.197045 
L 282.42819 110.977483 
L 282.678809 111.759267 
L 283.040683 113.019752 
L 283.351362 114.28351 
L 283.519469 115.075158 
L 283.667417 115.868002 
L 283.795157 116.66201 
L 283.902638 117.457149 
L 283.989816 118.253387 
L 284.056649 119.050691 
L 284.1031 119.84903 
L 284.129131 120.64837 
L 284.134713 121.448679 
L 284.119817 122.249924 
L 284.084417 123.052072 
L 284.028491 123.85509 
L 283.952022 124.658946 
L 283.854995 125.463605 
L 283.737398 126.269036 
L 283.599223 127.075205 
L 283.358277 128.263622 
L 283.072696 129.45346 
L 282.839054 130.312341 
L 282.582217 131.171865 
L 282.3022 132.031992 
L 281.999021 132.892681 
L 281.672705 133.753892 
L 281.323279 134.615585 
L 280.950776 135.477718 
L 280.555232 136.340252 
L 280.136688 137.203144 
L 279.69519 138.066355 
L 279.230788 138.929843 
L 278.743535 139.793568 
L 278.23349 140.657488 
L 277.700716 141.521562 
L 277.14528 142.385749 
L 276.567252 143.250008 
L 275.7094 144.475055 
L 274.806546 145.700045 
L 273.858937 146.92486 
L 272.866839 148.149383 
L 271.730704 149.488714 
L 270.542039 150.827398 
L 269.301264 152.165278 
L 268.00882 153.502199 
L 266.665173 154.838005 
L 265.270813 156.17254 
L 263.826256 157.505646 
L 262.332038 158.837168 
L 260.781506 160.173064 
L 259.182015 161.507043 
L 257.91036 162.538468 
L 256.61002 163.568575 
L 255.281298 164.597291 
L 253.924506 165.62454 
L 252.539965 166.65025 
L 251.128002 167.674347 
L 249.688954 168.696756 
L 248.223165 169.717403 
L 245.929125 171.275705 
L 243.574586 172.829444 
L 241.160886 174.378355 
L 238.689404 175.922174 
L 236.16156 177.460638 
L 233.578811 178.993481 
L 230.942655 180.520439 
L 228.254627 182.041251 
L 225.754544 183.425227 
L 223.213692 184.803651 
L 220.63332 186.176323 
L 218.014702 187.543043 
L 215.948781 188.603643 
L 213.861053 189.660416 
L 211.752148 190.713266 
L 209.622705 191.762101 
L 206.025895 193.502829 
L 202.376766 195.231685 
L 198.678423 196.948238 
L 194.934024 198.652057 
L 191.146778 200.342714 
L 187.319942 202.019784 
L 183.456818 203.68284 
L 179.560749 205.331462 
L 174.082813 207.604039 
L 168.556745 209.846639 
L 163.762036 211.754766 
L 158.944621 213.639076 
L 144.084838 219.265253 
L 136.652406 221.985478 
L 129.248371 224.640515 
L 121.983835 227.197093 
L 118.37705 228.449925 
L 114.790875 229.68541 
L 110.174032 231.261776 
L 106.557147 232.486138 
L 102.971325 233.691305 
L 99.419435 234.876989 
L 95.904327 236.0429 
L 92.428831 237.188754 
L 88.995754 238.314272 
L 85.607876 239.419175 
L 82.267948 240.503189 
L 80.073435 241.212796 
L 77.902153 241.912956 
L 75.75489 242.60359 
L 73.632426 243.284621 
L 71.535534 243.955972 
L 69.464981 244.617568 
L 67.421525 245.269333 
L 65.405915 245.911193 
L 62.834648 246.72872 
L 60.313057 247.529305 
L 57.842712 248.312793 
L 55.425157 249.079029 
L 53.673283 249.63414 
L 51.951675 250.179683 
L 50.260926 250.715601 
L 48.601622 251.241834 
L 46.974339 251.758323 
L 45.379645 252.26501 
L 43.818095 252.761839 
L 42.290239 253.248753 
L 40.716087 253.751441 
L 39.180624 254.242976 
L 37.684457 254.723296 
L 36.228179 255.192337 
L 34.922906 255.614238 
L 33.652395 256.026475 
L 32.417082 256.429002 
L 31.217389 256.821772 
L 30.053731 257.204741 
L 28.926513 257.577863 
L 27.836126 257.941094 
L 26.782955 258.294393 
L 25.883217 258.59841 
L 25.013104 258.894603 
L 24.172862 259.182941 
L 23.362726 259.463398 
L 22.582929 259.735946 
L 21.833692 260.000557 
L 21.115235 260.257205 
L 20.427765 260.505864 
L 19.922842 260.690699 
L 19.436266 260.87083 
L 18.968122 261.046248 
L 18.518494 261.216939 
L 18.087463 261.382895 
L 17.675108 261.544103 
L 17.281503 261.700553 
L 16.906724 261.852235 
L 16.449162 262.041692 
L 16.023483 262.223102 
L 15.629826 262.396443 
L 15.268326 262.561694 
L 14.93911 262.718835 
L 14.642297 262.867846 
L 14.378 263.008707 
L 14.146324 263.141397 
L 13.976687 263.246731 
L 13.830281 263.346254 
L 13.707156 263.439955 
L 13.60736 263.527822 
L 13.530934 263.609847 
L 13.47792 263.68602 
L 13.448351 263.756329 
L 13.442259 263.820766 
L 13.482641 263.913091 
L 13.585428 263.989786 
L 13.750693 264.050814 
L 13.978481 264.096139 
L 14.26881 264.125729 
L 14.621672 264.13955 
L 15.037031 264.137573 
L 15.514825 264.119768 
L 16.049001 264.086542 
L 16.644114 264.037766 
L 17.300026 263.973418 
L 18.016571 263.893477 
L 18.79356 263.797922 
L 19.630775 263.686736 
L 20.527975 263.559903 
L 21.484891 263.417408 
L 22.086521 263.324554 
L 22.709402 263.226074 
L 23.353463 263.121966 
L 24.01863 263.012228 
L 24.704827 262.896858 
L 25.411971 262.775854 
L 26.13998 262.649215 
L 26.888766 262.516941 
L 28.129194 262.293689 
L 29.42214 262.056017 
L 30.767197 261.803926 
L 32.163937 261.537413 
L 33.61191 261.256482 
L 35.110645 260.961136 
L 36.659653 260.651378 
L 38.258423 260.327215 
L 39.882366 259.993627 
L 41.553606 259.646061 
L 43.271597 259.284528 
L 45.035774 258.909037 
L 46.845556 258.519603 
L 48.70034 258.116238 
L 50.599508 257.698958 
L 52.542423 257.267779 
L 54.161236 256.905331 
L 55.808428 256.533634 
L 57.483627 256.152701 
L 59.186453 255.762542 
L 60.916519 255.363171 
L 62.67343 254.954601 
L 64.456783 254.536844 
L 66.266169 254.109916 
L 68.20537 253.648976 
L 70.172658 253.177835 
L 72.167524 252.696513 
L 74.189453 252.20503 
L 76.23792 251.703405 
L 78.312393 251.191662 
L 80.412329 250.66982 
L 82.53718 250.137904 
L 85.673614 249.345659 
L 88.859915 248.532192 
L 91.752388 247.786233 
L 94.682082 247.023397 
L 97.647681 246.243746 
L 100.647847 245.447343 
L 103.681226 244.634252 
L 106.746443 243.804543 
L 109.842109 242.958284 
L 112.966813 242.095548 
L 116.905239 240.995787 
L 120.883874 239.870624 
L 124.899878 238.720211 
L 128.950376 237.544708 
L 134.069188 236.036846 
L 139.231796 234.490194 
L 146.093636 232.392881 
L 153.007846 230.229604 
L 159.960715 228.001227 
L 166.938406 225.70865 
L 180.770475 220.984469 
L 187.668475 218.531798 
L 194.536251 216.020079 
L 199.068854 214.321781 
L 205.389879 211.895889 
L 211.654097 209.421227 
L 214.761497 208.165892 
L 217.850616 206.898707 
L 220.920105 205.619792 
L 223.968621 204.329266 
L 226.819742 203.103163 
L 229.649959 201.866968 
L 232.458166 200.620782 
L 235.243267 199.364712 
L 238.004168 198.098862 
L 240.739788 196.823338 
L 243.449049 195.538249 
L 246.130885 194.243704 
L 248.426944 193.11677 
L 250.701027 191.98292 
L 252.952458 190.842225 
L 255.18057 189.694758 
L 258.053302 188.186607 
L 260.883698 186.667205 
L 263.670319 185.136718 
L 266.41174 183.595315 
L 269.10656 182.043165 
L 271.753394 180.480442 
L 274.35088 178.907317 
L 276.897677 177.323966 
L 278.445499 176.340535 
L 279.973156 175.353308 
L 281.480343 174.362328 
L 282.966761 173.367637 
L 284.432113 172.369278 
L 285.876106 171.367294 
L 287.29845 170.361727 
L 288.698861 169.352621 
L 290.694609 167.879712 
L 292.642574 166.399552 
L 294.541923 164.912278 
L 296.39184 163.418025 
L 298.191525 161.916931 
L 299.9402 160.409134 
L 301.637102 158.894771 
L 303.281489 157.373984 
L 304.286404 156.416278 
L 305.270172 155.456131 
L 306.232622 154.493579 
L 307.173586 153.528657 
L 308.089747 152.564757 
L 308.984244 151.598574 
L 309.856921 150.630142 
L 310.707623 149.659496 
L 311.536199 148.686673 
L 312.342501 147.711708 
L 313.126383 146.734636 
L 313.887706 145.755493 
L 314.62633 144.774316 
L 315.342121 143.79114 
L 316.034948 142.806001 
L 316.704682 141.818935 
L 317.351199 140.82998 
L 317.974378 139.839171 
L 318.5741 138.846545 
L 319.150252 137.852138 
L 319.621547 137.005188 
L 320.075653 136.157 
L 320.512505 135.307596 
L 320.932041 134.457 
L 321.3342 133.605235 
L 321.718924 132.752322 
L 322.086155 131.898285 
L 322.435839 131.043148 
L 323.050193 129.419662 
L 323.600996 127.792463 
L 324.087932 126.161708 
L 324.510707 124.527556 
L 324.869052 122.890166 
L 325.162726 121.249697 
L 325.391509 119.60631 
L 325.555209 117.960165 
z
" style="fill:#808080;opacity:0.5;"/>
   </g>
   <g id="line2d_1">
    <path clip-path="url(#pa84cb9d350)" d="M 159.17473 117.960165 
L 160.121693 117.891062 
L 160.535952 117.814114 
L 161.731 117.370731 
L 162.263241 116.986089 
L 162.718951 116.371364 
L 162.881286 115.764301 
L 162.852809 115.184519 
L 162.51757 114.230305 
L 161.838486 113.187367 
L 160.702589 111.943444 
L 158.802255 110.312514 
L 156.626974 108.734568 
L 152.882624 106.339546 
L 140.331884 98.758868 
L 138.872948 97.623299 
L 137.827585 96.534527 
L 137.453621 95.82877 
L 137.428587 95.306576 
L 137.64764 94.898243 
L 138.149758 94.529199 
L 138.966849 94.229108 
L 140.239874 93.997716 
L 142.027746 93.876977 
L 144.44454 93.902279 
L 148.424597 94.202903 
L 152.278152 94.689301 
L 157.234746 95.520859 
L 161.703991 96.440224 
L 166.776294 97.669172 
L 171.713789 99.063701 
L 178.4196 101.321207 
L 183.140519 103.229148 
L 186.82006 104.964661 
L 190.062801 106.744119 
L 192.991966 108.64263 
L 195.117291 110.281183 
L 197.250495 112.287948 
L 198.528597 113.788396 
L 199.628901 115.421795 
L 200.394706 116.946231 
L 200.92961 118.509785 
L 201.180948 119.75555 
L 201.284968 121.208912 
L 201.170188 122.819183 
L 200.826175 124.414615 
L 200.250072 126.035199 
L 199.388606 127.770251 
L 198.266555 129.528042 
L 196.776529 131.433674 
L 194.658648 133.689362 
L 192.124099 135.985698 
L 189.596667 138.001985 
L 186.862857 139.973682 
L 182.881756 142.571468 
L 177.863331 145.521959 
L 171.808523 148.748213 
L 164.826752 152.151596 
L 156.18003 156.037287 
L 147.266733 159.775214 
L 134.227431 164.92382 
L 103.165835 176.933374 
L 99.290935 178.74055 
L 97.429855 179.828585 
L 96.585151 180.579853 
L 96.435146 180.934515 
L 96.546514 181.223575 
L 96.989143 181.469338 
L 98.006644 181.653806 
L 99.68637 181.701155 
L 102.224954 181.568244 
L 106.975438 181.04948 
L 112.449465 180.235251 
L 120.764718 178.743713 
L 129.096448 177.032129 
L 138.874669 174.797358 
L 149.08919 172.221066 
L 156.71764 170.134451 
L 165.129607 167.662118 
L 180.592943 162.582021 
L 188.742996 159.569228 
L 195.449397 156.874015 
L 203.269284 153.427865 
L 209.629849 150.321338 
L 214.003678 147.983951 
L 219.308372 144.865449 
L 223.720877 141.960756 
L 227.617792 139.073076 
L 230.778107 136.420953 
L 232.92867 134.394511 
L 235.083999 132.109977 
L 237.115884 129.617591 
L 238.84433 127.086479 
L 239.822855 125.378777 
L 240.786298 123.362724 
L 241.551208 121.326893 
L 242.124143 119.227126 
L 242.482789 117.10935 
L 242.624465 114.97494 
L 242.547053 112.825292 
L 242.284433 110.854458 
L 241.837876 108.873234 
L 241.208997 106.888107 
L 240.005431 104.063944 
L 238.642049 101.564777 
L 236.669034 98.602584 
L 234.308471 95.632893 
L 231.65706 92.750425 
L 228.856192 90.04974 
L 225.757148 87.351757 
L 221.791389 84.221844 
L 217.672854 81.256073 
L 212.319679 77.724364 
L 206.195712 74.022021 
L 200.001823 70.557448 
L 193.584602 67.200754 
L 186.48601 63.708858 
L 177.35663 59.491751 
L 169.866801 56.218964 
L 157.038203 50.924913 
L 151.744126 48.835544 
L 132.311722 41.538048 
L 115.846385 35.702426 
L 94.665132 28.486495 
L 67.930208 19.393773 
L 60.572871 16.648022 
L 57.207231 15.192892 
L 55.474992 14.214665 
L 55.030379 13.77726 
L 54.999417 13.508559 
L 55.208534 13.334319 
L 55.876195 13.183072 
L 57.540431 13.157545 
L 60.819648 13.434202 
L 65.895037 14.13294 
L 73.724628 15.477728 
L 83.306641 17.358836 
L 95.746606 20.053801 
L 109.125118 23.202824 
L 121.613118 26.353259 
L 133.480048 29.532717 
L 145.535902 32.954667 
L 157.839953 36.660756 
L 173.626474 41.76854 
L 183.796041 45.298255 
L 197.282263 50.31981 
L 207.170968 54.293025 
L 215.558961 57.894424 
L 223.359656 61.469591 
L 230.197096 64.815968 
L 236.186847 67.941901 
L 241.921822 71.138328 
L 247.816988 74.675949 
L 253.548927 78.421094 
L 258.377934 81.874748 
L 262.750051 85.307832 
L 266.730511 88.768034 
L 270.337395 92.278816 
L 272.787754 94.943252 
L 275.357299 98.078613 
L 277.414199 100.947946 
L 279.299199 104.005689 
L 280.882377 107.089369 
L 282.157959 110.197045 
L 283.040683 113.019752 
L 283.667417 115.868002 
L 283.989816 118.253387 
L 284.129131 120.64837 
L 284.084417 123.052072 
L 283.854995 125.463605 
L 283.358277 128.263622 
L 282.582217 131.171865 
L 281.672705 133.753892 
L 280.555232 136.340252 
L 279.230788 138.929843 
L 277.700716 141.521562 
L 275.7094 144.475055 
L 272.866839 148.149383 
L 270.542039 150.827398 
L 268.00882 153.502199 
L 263.826256 157.505646 
L 259.182015 161.507043 
L 255.281298 164.597291 
L 249.688954 168.696756 
L 243.574586 172.829444 
L 236.16156 177.460638 
L 228.254627 182.041251 
L 220.63332 186.176323 
L 211.752148 190.713266 
L 202.376766 195.231685 
L 191.146778 200.342714 
L 179.560749 205.331462 
L 168.556745 209.846639 
L 158.944621 213.639076 
L 136.652406 221.985478 
L 118.37705 228.449925 
L 99.419435 234.876989 
L 77.902153 241.912956 
L 43.818095 252.761839 
L 26.782955 258.294393 
L 18.968122 261.046248 
L 15.268326 262.561694 
L 13.830281 263.346254 
L 13.448351 263.756329 
L 13.482641 263.913091 
L 13.750693 264.050814 
L 14.621672 264.13955 
L 16.644114 264.037766 
L 20.527975 263.559903 
L 26.888766 262.516941 
L 36.659653 260.651378 
L 48.70034 258.116238 
L 62.67343 254.954601 
L 78.312393 251.191662 
L 94.682082 247.023397 
L 109.842109 242.958284 
L 124.899878 238.720211 
L 139.231796 234.490194 
L 153.007846 230.229604 
L 166.938406 225.70865 
L 187.668475 218.531798 
L 199.068854 214.321781 
L 211.654097 209.421227 
L 223.968621 204.329266 
L 235.243267 199.364712 
L 243.449049 195.538249 
L 252.952458 190.842225 
L 260.883698 186.667205 
L 269.10656 182.043165 
L 276.897677 177.323966 
L 282.966761 173.367637 
L 288.698861 169.352621 
L 294.541923 164.912278 
L 299.9402 160.409134 
L 304.286404 156.416278 
L 308.089747 152.564757 
L 311.536199 148.686673 
L 313.887706 145.755493 
L 316.034948 142.806001 
L 317.974378 139.839171 
L 320.075653 136.157 
L 321.718924 132.752322 
L 323.050193 129.419662 
L 324.087932 126.161708 
L 324.869052 122.890166 
L 325.391509 119.60631 
L 325.555209 117.960165 
L 325.555209 117.960165 
" style="fill:none;stroke:#0000ff;stroke-linecap:square;"/>
   </g>
   <g id="patch_4">
    <path d="M 7.2 117.960165 
L 331.797468 117.960165 
" style="fill:none;stroke:#000000;stroke-linecap:square;stroke-linejoin:miter;stroke-width:0.8;"/>
   </g>
   <g id="patch_5">
    <path d="M 159.17473 269.159479 
L 159.17473 8.123184 
" style="fill:none;stroke:#000000;stroke-linecap:square;stroke-linejoin:miter;stroke-width:0.8;"/>
   </g>
   <g id="matplotlib.axis_1">
    <g id="xtick_1">
     <g id="line2d_2">
      <defs>
       <path d="M 0 0 
L 0 -4 
" id="mfe178dbbe6" style="stroke:#000000;stroke-width:0.5;"/>
      </defs>
      <g>
       <use style="stroke:#000000;stroke-width:0.5;" x="53.2536273453" xlink:href="#mfe178dbbe6" y="117.960165345"/>
      </g>
     </g>
     <g id="text_1">
      <!-- -4 -->
      <defs>
       <path d="M 4.890625 31.390625 
L 31.203125 31.390625 
L 31.203125 23.390625 
L 4.890625 23.390625 
z
" id="BitstreamVeraSans-Roman-2d"/>
       <path d="M 37.796875 64.3125 
L 12.890625 25.390625 
L 37.796875 25.390625 
z
M 35.203125 72.90625 
L 47.609375 72.90625 
L 47.609375 25.390625 
L 58.015625 25.390625 
L 58.015625 17.1875 
L 47.609375 17.1875 
L 47.609375 0 
L 37.796875 0 
L 37.796875 17.1875 
L 4.890625 17.1875 
L 4.890625 26.703125 
z
" id="BitstreamVeraSans-Roman-34"/>
      </defs>
      <g transform="translate(48.2684710953 129.558602845)scale(0.1 -0.1)">
       <use xlink:href="#BitstreamVeraSans-Roman-2d"/>
       <use x="36.083984375" xlink:href="#BitstreamVeraSans-Roman-34"/>
      </g>
     </g>
    </g>
    <g id="xtick_2">
     <g id="line2d_3">
      <g>
       <use style="stroke:#000000;stroke-width:0.5;" x="106.214178768" xlink:href="#mfe178dbbe6" y="117.960165345"/>
      </g>
     </g>
     <g id="text_2">
      <!-- -2 -->
      <defs>
       <path d="M 19.1875 8.296875 
L 53.609375 8.296875 
L 53.609375 0 
L 7.328125 0 
L 7.328125 8.296875 
Q 12.9375 14.109375 22.625 23.890625 
Q 32.328125 33.6875 34.8125 36.53125 
Q 39.546875 41.84375 41.421875 45.53125 
Q 43.3125 49.21875 43.3125 52.78125 
Q 43.3125 58.59375 39.234375 62.25 
Q 35.15625 65.921875 28.609375 65.921875 
Q 23.96875 65.921875 18.8125 64.3125 
Q 13.671875 62.703125 7.8125 59.421875 
L 7.8125 69.390625 
Q 13.765625 71.78125 18.9375 73 
Q 24.125 74.21875 28.421875 74.21875 
Q 39.75 74.21875 46.484375 68.546875 
Q 53.21875 62.890625 53.21875 53.421875 
Q 53.21875 48.921875 51.53125 44.890625 
Q 49.859375 40.875 45.40625 35.40625 
Q 44.1875 33.984375 37.640625 27.21875 
Q 31.109375 20.453125 19.1875 8.296875 
" id="BitstreamVeraSans-Roman-32"/>
      </defs>
      <g transform="translate(101.229022518 129.558602845)scale(0.1 -0.1)">
       <use xlink:href="#BitstreamVeraSans-Roman-2d"/>
       <use x="36.083984375" xlink:href="#BitstreamVeraSans-Roman-32"/>
      </g>
     </g>
    </g>
    <g id="xtick_3">
     <g id="line2d_4">
      <g>
       <use style="stroke:#000000;stroke-width:0.5;" x="159.17473019" xlink:href="#mfe178dbbe6" y="117.960165345"/>
      </g>
     </g>
    </g>
    <g id="xtick_4">
     <g id="line2d_5">
      <g>
       <use style="stroke:#000000;stroke-width:0.5;" x="212.135281612" xlink:href="#mfe178dbbe6" y="117.960165345"/>
      </g>
     </g>
     <g id="text_3">
      <!-- 2 -->
      <g transform="translate(208.954031612 129.558602845)scale(0.1 -0.1)">
       <use xlink:href="#BitstreamVeraSans-Roman-32"/>
      </g>
     </g>
    </g>
    <g id="xtick_5">
     <g id="line2d_6">
      <g>
       <use style="stroke:#000000;stroke-width:0.5;" x="265.095833034" xlink:href="#mfe178dbbe6" y="117.960165345"/>
      </g>
     </g>
     <g id="text_4">
      <!-- 4 -->
      <g transform="translate(261.914583034 129.558602845)scale(0.1 -0.1)">
       <use xlink:href="#BitstreamVeraSans-Roman-34"/>
      </g>
     </g>
    </g>
    <g id="xtick_6">
     <g id="line2d_7">
      <g>
       <use style="stroke:#000000;stroke-width:0.5;" x="318.056384457" xlink:href="#mfe178dbbe6" y="117.960165345"/>
      </g>
     </g>
     <g id="text_5">
      <!-- 6 -->
      <defs>
       <path d="M 33.015625 40.375 
Q 26.375 40.375 22.484375 35.828125 
Q 18.609375 31.296875 18.609375 23.390625 
Q 18.609375 15.53125 22.484375 10.953125 
Q 26.375 6.390625 33.015625 6.390625 
Q 39.65625 6.390625 43.53125 10.953125 
Q 47.40625 15.53125 47.40625 23.390625 
Q 47.40625 31.296875 43.53125 35.828125 
Q 39.65625 40.375 33.015625 40.375 
M 52.59375 71.296875 
L 52.59375 62.3125 
Q 48.875 64.0625 45.09375 64.984375 
Q 41.3125 65.921875 37.59375 65.921875 
Q 27.828125 65.921875 22.671875 59.328125 
Q 17.53125 52.734375 16.796875 39.40625 
Q 19.671875 43.65625 24.015625 45.921875 
Q 28.375 48.1875 33.59375 48.1875 
Q 44.578125 48.1875 50.953125 41.515625 
Q 57.328125 34.859375 57.328125 23.390625 
Q 57.328125 12.15625 50.6875 5.359375 
Q 44.046875 -1.421875 33.015625 -1.421875 
Q 20.359375 -1.421875 13.671875 8.265625 
Q 6.984375 17.96875 6.984375 36.375 
Q 6.984375 53.65625 15.1875 63.9375 
Q 23.390625 74.21875 37.203125 74.21875 
Q 40.921875 74.21875 44.703125 73.484375 
Q 48.484375 72.75 52.59375 71.296875 
" id="BitstreamVeraSans-Roman-36"/>
      </defs>
      <g transform="translate(314.875134457 129.558602845)scale(0.1 -0.1)">
       <use xlink:href="#BitstreamVeraSans-Roman-36"/>
      </g>
     </g>
    </g>
    <g id="xtick_7">
     <g id="line2d_8">
      <defs>
       <path d="M 0 0 
L 0 -2 
" id="m1584e97a45" style="stroke:#000000;stroke-width:0.5;"/>
      </defs>
      <g>
       <use style="stroke:#000000;stroke-width:0.5;" x="13.5332137786" xlink:href="#m1584e97a45" y="117.960165345"/>
      </g>
     </g>
    </g>
    <g id="xtick_8">
     <g id="line2d_9">
      <g>
       <use style="stroke:#000000;stroke-width:0.5;" x="26.7733516342" xlink:href="#m1584e97a45" y="117.960165345"/>
      </g>
     </g>
    </g>
    <g id="xtick_9">
     <g id="line2d_10">
      <g>
       <use style="stroke:#000000;stroke-width:0.5;" x="40.0134894897" xlink:href="#m1584e97a45" y="117.960165345"/>
      </g>
     </g>
    </g>
    <g id="xtick_10">
     <g id="line2d_11">
      <g>
       <use style="stroke:#000000;stroke-width:0.5;" x="66.4937652009" xlink:href="#m1584e97a45" y="117.960165345"/>
      </g>
     </g>
    </g>
    <g id="xtick_11">
     <g id="line2d_12">
      <g>
       <use style="stroke:#000000;stroke-width:0.5;" x="79.7339030564" xlink:href="#m1584e97a45" y="117.960165345"/>
      </g>
     </g>
    </g>
    <g id="xtick_12">
     <g id="line2d_13">
      <g>
       <use style="stroke:#000000;stroke-width:0.5;" x="92.974040912" xlink:href="#m1584e97a45" y="117.960165345"/>
      </g>
     </g>
    </g>
    <g id="xtick_13">
     <g id="line2d_14">
      <g>
       <use style="stroke:#000000;stroke-width:0.5;" x="119.454316623" xlink:href="#m1584e97a45" y="117.960165345"/>
      </g>
     </g>
    </g>
    <g id="xtick_14">
     <g id="line2d_15">
      <g>
       <use style="stroke:#000000;stroke-width:0.5;" x="132.694454479" xlink:href="#m1584e97a45" y="117.960165345"/>
      </g>
     </g>
    </g>
    <g id="xtick_15">
     <g id="line2d_16">
      <g>
       <use style="stroke:#000000;stroke-width:0.5;" x="145.934592334" xlink:href="#m1584e97a45" y="117.960165345"/>
      </g>
     </g>
    </g>
    <g id="xtick_16">
     <g id="line2d_17">
      <g>
       <use style="stroke:#000000;stroke-width:0.5;" x="172.414868045" xlink:href="#m1584e97a45" y="117.960165345"/>
      </g>
     </g>
    </g>
    <g id="xtick_17">
     <g id="line2d_18">
      <g>
       <use style="stroke:#000000;stroke-width:0.5;" x="185.655005901" xlink:href="#m1584e97a45" y="117.960165345"/>
      </g>
     </g>
    </g>
    <g id="xtick_18">
     <g id="line2d_19">
      <g>
       <use style="stroke:#000000;stroke-width:0.5;" x="198.895143757" xlink:href="#m1584e97a45" y="117.960165345"/>
      </g>
     </g>
    </g>
    <g id="xtick_19">
     <g id="line2d_20">
      <g>
       <use style="stroke:#000000;stroke-width:0.5;" x="225.375419468" xlink:href="#m1584e97a45" y="117.960165345"/>
      </g>
     </g>
    </g>
    <g id="xtick_20">
     <g id="line2d_21">
      <g>
       <use style="stroke:#000000;stroke-width:0.5;" x="238.615557323" xlink:href="#m1584e97a45" y="117.960165345"/>
      </g>
     </g>
    </g>
    <g id="xtick_21">
     <g id="line2d_22">
      <g>
       <use style="stroke:#000000;stroke-width:0.5;" x="251.855695179" xlink:href="#m1584e97a45" y="117.960165345"/>
      </g>
     </g>
    </g>
    <g id="xtick_22">
     <g id="line2d_23">
      <g>
       <use style="stroke:#000000;stroke-width:0.5;" x="278.33597089" xlink:href="#m1584e97a45" y="117.960165345"/>
      </g>
     </g>
    </g>
    <g id="xtick_23">
     <g id="line2d_24">
      <g>
       <use style="stroke:#000000;stroke-width:0.5;" x="291.576108746" xlink:href="#m1584e97a45" y="117.960165345"/>
      </g>
     </g>
    </g>
    <g id="xtick_24">
     <g id="line2d_25">
      <g>
       <use style="stroke:#000000;stroke-width:0.5;" x="304.816246601" xlink:href="#m1584e97a45" y="117.960165345"/>
      </g>
     </g>
    </g>
    <g id="xtick_25">
     <g id="line2d_26">
      <g>
       <use style="stroke:#000000;stroke-width:0.5;" x="331.296522312" xlink:href="#m1584e97a45" y="117.960165345"/>
      </g>
     </g>
    </g>
   </g>
   <g id="matplotlib.axis_2">
    <g id="ytick_1">
     <g id="line2d_27">
      <defs>
       <path d="M 0 0 
L 4 0 
" id="me6b3911fa2" style="stroke:#000000;stroke-width:0.5;"/>
      </defs>
      <g>
       <use style="stroke:#000000;stroke-width:0.5;" x="159.17473019" xlink:href="#me6b3911fa2" y="223.881268189"/>
      </g>
     </g>
     <g id="text_6">
      <!-- -4 -->
      <g transform="translate(145.20441769 226.640643189)scale(0.1 -0.1)">
       <use xlink:href="#BitstreamVeraSans-Roman-2d"/>
       <use x="36.083984375" xlink:href="#BitstreamVeraSans-Roman-34"/>
      </g>
     </g>
    </g>
    <g id="ytick_2">
     <g id="line2d_28">
      <g>
       <use style="stroke:#000000;stroke-width:0.5;" x="159.17473019" xlink:href="#me6b3911fa2" y="170.920716767"/>
      </g>
     </g>
     <g id="text_7">
      <!-- -2 -->
      <g transform="translate(145.20441769 173.680091767)scale(0.1 -0.1)">
       <use xlink:href="#BitstreamVeraSans-Roman-2d"/>
       <use x="36.083984375" xlink:href="#BitstreamVeraSans-Roman-32"/>
      </g>
     </g>
    </g>
    <g id="ytick_3">
     <g id="line2d_29">
      <g>
       <use style="stroke:#000000;stroke-width:0.5;" x="159.17473019" xlink:href="#me6b3911fa2" y="117.960165345"/>
      </g>
     </g>
    </g>
    <g id="ytick_4">
     <g id="line2d_30">
      <g>
       <use style="stroke:#000000;stroke-width:0.5;" x="159.17473019" xlink:href="#me6b3911fa2" y="64.9996139223"/>
      </g>
     </g>
     <g id="text_8">
      <!-- 2 -->
      <g transform="translate(148.81223019 67.7589889223)scale(0.1 -0.1)">
       <use xlink:href="#BitstreamVeraSans-Roman-32"/>
      </g>
     </g>
    </g>
    <g id="ytick_5">
     <g id="line2d_31">
      <g>
       <use style="stroke:#000000;stroke-width:0.5;" x="159.17473019" xlink:href="#me6b3911fa2" y="12.0390625"/>
      </g>
     </g>
     <g id="text_9">
      <!-- 4 -->
      <g transform="translate(148.81223019 14.7984375)scale(0.1 -0.1)">
       <use xlink:href="#BitstreamVeraSans-Roman-34"/>
      </g>
     </g>
    </g>
    <g id="ytick_6">
     <g id="line2d_32">
      <defs>
       <path d="M 0 0 
L 2 0 
" id="m49fbf248a9" style="stroke:#000000;stroke-width:0.5;"/>
      </defs>
      <g>
       <use style="stroke:#000000;stroke-width:0.5;" x="159.17473019" xlink:href="#m49fbf248a9" y="263.601681756"/>
      </g>
     </g>
    </g>
    <g id="ytick_7">
     <g id="line2d_33">
      <g>
       <use style="stroke:#000000;stroke-width:0.5;" x="159.17473019" xlink:href="#m49fbf248a9" y="250.3615439"/>
      </g>
     </g>
    </g>
    <g id="ytick_8">
     <g id="line2d_34">
      <g>
       <use style="stroke:#000000;stroke-width:0.5;" x="159.17473019" xlink:href="#m49fbf248a9" y="237.121406045"/>
      </g>
     </g>
    </g>
    <g id="ytick_9">
     <g id="line2d_35">
      <g>
       <use style="stroke:#000000;stroke-width:0.5;" x="159.17473019" xlink:href="#m49fbf248a9" y="210.641130334"/>
      </g>
     </g>
    </g>
    <g id="ytick_10">
     <g id="line2d_36">
      <g>
       <use style="stroke:#000000;stroke-width:0.5;" x="159.17473019" xlink:href="#m49fbf248a9" y="197.400992478"/>
      </g>
     </g>
    </g>
    <g id="ytick_11">
     <g id="line2d_37">
      <g>
       <use style="stroke:#000000;stroke-width:0.5;" x="159.17473019" xlink:href="#m49fbf248a9" y="184.160854622"/>
      </g>
     </g>
    </g>
    <g id="ytick_12">
     <g id="line2d_38">
      <g>
       <use style="stroke:#000000;stroke-width:0.5;" x="159.17473019" xlink:href="#m49fbf248a9" y="157.680578911"/>
      </g>
     </g>
    </g>
    <g id="ytick_13">
     <g id="line2d_39">
      <g>
       <use style="stroke:#000000;stroke-width:0.5;" x="159.17473019" xlink:href="#m49fbf248a9" y="144.440441056"/>
      </g>
     </g>
    </g>
    <g id="ytick_14">
     <g id="line2d_40">
      <g>
       <use style="stroke:#000000;stroke-width:0.5;" x="159.17473019" xlink:href="#m49fbf248a9" y="131.2003032"/>
      </g>
     </g>
    </g>
    <g id="ytick_15">
     <g id="line2d_41">
      <g>
       <use style="stroke:#000000;stroke-width:0.5;" x="159.17473019" xlink:href="#m49fbf248a9" y="104.720027489"/>
      </g>
     </g>
    </g>
    <g id="ytick_16">
     <g id="line2d_42">
      <g>
       <use style="stroke:#000000;stroke-width:0.5;" x="159.17473019" xlink:href="#m49fbf248a9" y="91.4798896334"/>
      </g>
     </g>
    </g>
    <g id="ytick_17">
     <g id="line2d_43">
      <g>
       <use style="stroke:#000000;stroke-width:0.5;" x="159.17473019" xlink:href="#m49fbf248a9" y="78.2397517778"/>
      </g>
     </g>
    </g>
    <g id="ytick_18">
     <g id="line2d_44">
      <g>
       <use style="stroke:#000000;stroke-width:0.5;" x="159.17473019" xlink:href="#m49fbf248a9" y="51.7594760667"/>
      </g>
     </g>
    </g>
    <g id="ytick_19">
     <g id="line2d_45">
      <g>
       <use style="stroke:#000000;stroke-width:0.5;" x="159.17473019" xlink:href="#m49fbf248a9" y="38.5193382111"/>
      </g>
     </g>
    </g>
    <g id="ytick_20">
     <g id="line2d_46">
      <g>
       <use style="stroke:#000000;stroke-width:0.5;" x="159.17473019" xlink:href="#m49fbf248a9" y="25.2792003556"/>
      </g>
     </g>
    </g>
   </g>
  </g>
 </g>
 <defs>
  <clipPath id="pa84cb9d350">
   <rect height="261.036295253" width="324.597468477" x="7.2" y="8.12318355801"/>
  </clipPath>
 </defs>
</svg>
