<?xml version="1.0" encoding="utf-8" standalone="no"?>
<!DOCTYPE svg PUBLIC "-//W3C//DTD SVG 1.1//EN"
  "http://www.w3.org/Graphics/SVG/1.1/DTD/svg11.dtd">
<!-- Created with matplotlib (http://matplotlib.org/) -->
<svg height="276pt" version="1.1" viewBox="0 0 276 276" width="276pt" xmlns="http://www.w3.org/2000/svg" xmlns:xlink="http://www.w3.org/1999/xlink">
 <defs>
  <style type="text/css">
*{stroke-linecap:butt;stroke-linejoin:round;stroke-miterlimit:100000;}
  </style>
 </defs>
 <g id="figure_1">
  <g id="patch_1">
   <path d="M 0 276.341538 
L 276.341538 276.341538 
L 276.341538 0 
L 0 0 
z
" style="fill:#ffffff;"/>
  </g>
  <g id="axes_1">
   <g id="patch_2">
    <path d="M 7.2 269.141538 
L 269.141538 269.141538 
L 269.141538 7.2 
L 7.2 7.2 
z
" style="fill:#ffffff;"/>
   </g>
   <g id="patch_3">
    <path clip-path="url(#pae81c56000)" d="M 138.170769 138.170769 
Q 192.701545 106.687411 245.295829 76.322087 
" style="fill:none;stroke:#ff0000;stroke-dasharray:6.000000,6.000000;stroke-dashoffset:0.0;stroke-linecap:round;stroke-width:2.0;"/>
    <path clip-path="url(#pae81c56000)" d="M 234.135575 76.99196 
L 245.295829 76.322087 
L 239.135575 85.652214 
L 234.135575 76.99196 
z
" style="fill:#ff0000;stroke:#ff0000;stroke-linecap:round;stroke-width:2.0;"/>
    <g id="patch_4">
     <path clip-path="url(#pae81c56000)" d="M 138.170769 138.170769 
Q 106.687411 83.639994 76.322087 31.04571 
" style="fill:none;stroke:#ff0000;stroke-dasharray:6.000000,6.000000;stroke-dashoffset:0.0;stroke-linecap:round;stroke-width:2.0;"/>
     <path clip-path="url(#pae81c56000)" d="M 76.99196 42.205964 
L 76.322087 31.04571 
L 85.652214 37.205964 
L 76.99196 42.205964 
z
" style="fill:#ff0000;stroke:#ff0000;stroke-linecap:round;stroke-width:2.0;"/>
     <g id="patch_5">
      <path d="M 7.2 138.170769 
L 269.141538 138.170769 
" style="fill:none;stroke:#000000;stroke-linecap:square;stroke-linejoin:miter;stroke-width:0.8;"/>
     </g>
     <g id="patch_6">
      <path d="M 138.170769 269.141538 
L 138.170769 7.2 
" style="fill:none;stroke:#000000;stroke-linecap:square;stroke-linejoin:miter;stroke-width:0.8;"/>
     </g>
     <g id="matplotlib.axis_1">
      <g id="xtick_1">
       <g id="line2d_1">
        <defs>
         <path d="M 0 0 
L 0 -4 
" id="meb3f1b4f6d" style="stroke:#000000;stroke-width:0.5;"/>
        </defs>
        <g>
         <use style="stroke:#000000;stroke-width:0.5;" x="12.2373372781" xlink:href="#meb3f1b4f6d" y="138.170769231"/>
        </g>
       </g>
       <g id="text_1">
        <!-- -2 -->
        <defs>
         <path d="M 19.1875 8.296875 
L 53.609375 8.296875 
L 53.609375 0 
L 7.328125 0 
L 7.328125 8.296875 
Q 12.9375 14.109375 22.625 23.890625 
Q 32.328125 33.6875 34.8125 36.53125 
Q 39.546875 41.84375 41.421875 45.53125 
Q 43.3125 49.21875 43.3125 52.78125 
Q 43.3125 58.59375 39.234375 62.25 
Q 35.15625 65.921875 28.609375 65.921875 
Q 23.96875 65.921875 18.8125 64.3125 
Q 13.671875 62.703125 7.8125 59.421875 
L 7.8125 69.390625 
Q 13.765625 71.78125 18.9375 73 
Q 24.125 74.21875 28.421875 74.21875 
Q 39.75 74.21875 46.484375 68.546875 
Q 53.21875 62.890625 53.21875 53.421875 
Q 53.21875 48.921875 51.53125 44.890625 
Q 49.859375 40.875 45.40625 35.40625 
Q 44.1875 33.984375 37.640625 27.21875 
Q 31.109375 20.453125 19.1875 8.296875 
" id="BitstreamVeraSans-Roman-32"/>
         <path d="M 4.890625 31.390625 
L 31.203125 31.390625 
L 31.203125 23.390625 
L 4.890625 23.390625 
z
" id="BitstreamVeraSans-Roman-2d"/>
        </defs>
        <g transform="translate(7.25218102811 149.769206731)scale(0.1 -0.1)">
         <use xlink:href="#BitstreamVeraSans-Roman-2d"/>
         <use x="36.083984375" xlink:href="#BitstreamVeraSans-Roman-32"/>
        </g>
       </g>
      </g>
      <g id="xtick_2">
       <g id="line2d_2">
        <g>
         <use style="stroke:#000000;stroke-width:0.5;" x="75.2040532544" xlink:href="#meb3f1b4f6d" y="138.170769231"/>
        </g>
       </g>
       <g id="text_2">
        <!-- -1 -->
        <defs>
         <path d="M 12.40625 8.296875 
L 28.515625 8.296875 
L 28.515625 63.921875 
L 10.984375 60.40625 
L 10.984375 69.390625 
L 28.421875 72.90625 
L 38.28125 72.90625 
L 38.28125 8.296875 
L 54.390625 8.296875 
L 54.390625 0 
L 12.40625 0 
z
" id="BitstreamVeraSans-Roman-31"/>
        </defs>
        <g transform="translate(70.2188970044 149.769206731)scale(0.1 -0.1)">
         <use xlink:href="#BitstreamVeraSans-Roman-2d"/>
         <use x="36.083984375" xlink:href="#BitstreamVeraSans-Roman-31"/>
        </g>
       </g>
      </g>
      <g id="xtick_3">
       <g id="line2d_3">
        <g>
         <use style="stroke:#000000;stroke-width:0.5;" x="138.170769231" xlink:href="#meb3f1b4f6d" y="138.170769231"/>
        </g>
       </g>
      </g>
      <g id="xtick_4">
       <g id="line2d_4">
        <g>
         <use style="stroke:#000000;stroke-width:0.5;" x="201.137485207" xlink:href="#meb3f1b4f6d" y="138.170769231"/>
        </g>
       </g>
       <g id="text_3">
        <!-- 1 -->
        <g transform="translate(197.956235207 149.769206731)scale(0.1 -0.1)">
         <use xlink:href="#BitstreamVeraSans-Roman-31"/>
        </g>
       </g>
      </g>
      <g id="xtick_5">
       <g id="line2d_5">
        <g>
         <use style="stroke:#000000;stroke-width:0.5;" x="264.104201183" xlink:href="#meb3f1b4f6d" y="138.170769231"/>
        </g>
       </g>
       <g id="text_4">
        <!-- 2 -->
        <g transform="translate(260.922951183 149.769206731)scale(0.1 -0.1)">
         <use xlink:href="#BitstreamVeraSans-Roman-32"/>
        </g>
       </g>
      </g>
      <g id="xtick_6">
       <g id="line2d_6">
        <defs>
         <path d="M 0 0 
L 0 -2 
" id="m0f30f0eece" style="stroke:#000000;stroke-width:0.5;"/>
        </defs>
        <g>
         <use style="stroke:#000000;stroke-width:0.5;" x="24.8306804734" xlink:href="#m0f30f0eece" y="138.170769231"/>
        </g>
       </g>
      </g>
      <g id="xtick_7">
       <g id="line2d_7">
        <g>
         <use style="stroke:#000000;stroke-width:0.5;" x="37.4240236686" xlink:href="#m0f30f0eece" y="138.170769231"/>
        </g>
       </g>
      </g>
      <g id="xtick_8">
       <g id="line2d_8">
        <g>
         <use style="stroke:#000000;stroke-width:0.5;" x="50.0173668639" xlink:href="#m0f30f0eece" y="138.170769231"/>
        </g>
       </g>
      </g>
      <g id="xtick_9">
       <g id="line2d_9">
        <g>
         <use style="stroke:#000000;stroke-width:0.5;" x="62.6107100592" xlink:href="#m0f30f0eece" y="138.170769231"/>
        </g>
       </g>
      </g>
      <g id="xtick_10">
       <g id="line2d_10">
        <g>
         <use style="stroke:#000000;stroke-width:0.5;" x="75.2040532544" xlink:href="#m0f30f0eece" y="138.170769231"/>
        </g>
       </g>
      </g>
      <g id="xtick_11">
       <g id="line2d_11">
        <g>
         <use style="stroke:#000000;stroke-width:0.5;" x="87.7973964497" xlink:href="#m0f30f0eece" y="138.170769231"/>
        </g>
       </g>
      </g>
      <g id="xtick_12">
       <g id="line2d_12">
        <g>
         <use style="stroke:#000000;stroke-width:0.5;" x="100.390739645" xlink:href="#m0f30f0eece" y="138.170769231"/>
        </g>
       </g>
      </g>
      <g id="xtick_13">
       <g id="line2d_13">
        <g>
         <use style="stroke:#000000;stroke-width:0.5;" x="112.98408284" xlink:href="#m0f30f0eece" y="138.170769231"/>
        </g>
       </g>
      </g>
      <g id="xtick_14">
       <g id="line2d_14">
        <g>
         <use style="stroke:#000000;stroke-width:0.5;" x="125.577426036" xlink:href="#m0f30f0eece" y="138.170769231"/>
        </g>
       </g>
      </g>
      <g id="xtick_15">
       <g id="line2d_15">
        <g>
         <use style="stroke:#000000;stroke-width:0.5;" x="138.170769231" xlink:href="#m0f30f0eece" y="138.170769231"/>
        </g>
       </g>
      </g>
      <g id="xtick_16">
       <g id="line2d_16">
        <g>
         <use style="stroke:#000000;stroke-width:0.5;" x="150.764112426" xlink:href="#m0f30f0eece" y="138.170769231"/>
        </g>
       </g>
      </g>
      <g id="xtick_17">
       <g id="line2d_17">
        <g>
         <use style="stroke:#000000;stroke-width:0.5;" x="163.357455621" xlink:href="#m0f30f0eece" y="138.170769231"/>
        </g>
       </g>
      </g>
      <g id="xtick_18">
       <g id="line2d_18">
        <g>
         <use style="stroke:#000000;stroke-width:0.5;" x="175.950798817" xlink:href="#m0f30f0eece" y="138.170769231"/>
        </g>
       </g>
      </g>
      <g id="xtick_19">
       <g id="line2d_19">
        <g>
         <use style="stroke:#000000;stroke-width:0.5;" x="188.544142012" xlink:href="#m0f30f0eece" y="138.170769231"/>
        </g>
       </g>
      </g>
      <g id="xtick_20">
       <g id="line2d_20">
        <g>
         <use style="stroke:#000000;stroke-width:0.5;" x="201.137485207" xlink:href="#m0f30f0eece" y="138.170769231"/>
        </g>
       </g>
      </g>
      <g id="xtick_21">
       <g id="line2d_21">
        <g>
         <use style="stroke:#000000;stroke-width:0.5;" x="213.730828402" xlink:href="#m0f30f0eece" y="138.170769231"/>
        </g>
       </g>
      </g>
      <g id="xtick_22">
       <g id="line2d_22">
        <g>
         <use style="stroke:#000000;stroke-width:0.5;" x="226.324171598" xlink:href="#m0f30f0eece" y="138.170769231"/>
        </g>
       </g>
      </g>
      <g id="xtick_23">
       <g id="line2d_23">
        <g>
         <use style="stroke:#000000;stroke-width:0.5;" x="238.917514793" xlink:href="#m0f30f0eece" y="138.170769231"/>
        </g>
       </g>
      </g>
      <g id="xtick_24">
       <g id="line2d_24">
        <g>
         <use style="stroke:#000000;stroke-width:0.5;" x="251.510857988" xlink:href="#m0f30f0eece" y="138.170769231"/>
        </g>
       </g>
      </g>
      <g id="xtick_25">
       <g id="line2d_25">
        <g>
         <use style="stroke:#000000;stroke-width:0.5;" x="264.104201183" xlink:href="#m0f30f0eece" y="138.170769231"/>
        </g>
       </g>
      </g>
     </g>
     <g id="matplotlib.axis_2">
      <g id="ytick_1">
       <g id="line2d_26">
        <defs>
         <path d="M 0 0 
L 4 0 
" id="m5adb0a9b4f" style="stroke:#000000;stroke-width:0.5;"/>
        </defs>
        <g>
         <use style="stroke:#000000;stroke-width:0.5;" x="138.170769231" xlink:href="#m5adb0a9b4f" y="264.104201183"/>
        </g>
       </g>
       <g id="text_5">
        <!-- -2 -->
        <g transform="translate(124.200456731 266.863576183)scale(0.1 -0.1)">
         <use xlink:href="#BitstreamVeraSans-Roman-2d"/>
         <use x="36.083984375" xlink:href="#BitstreamVeraSans-Roman-32"/>
        </g>
       </g>
      </g>
      <g id="ytick_2">
       <g id="line2d_27">
        <g>
         <use style="stroke:#000000;stroke-width:0.5;" x="138.170769231" xlink:href="#m5adb0a9b4f" y="201.137485207"/>
        </g>
       </g>
       <g id="text_6">
        <!-- -1 -->
        <g transform="translate(124.200456731 203.896860207)scale(0.1 -0.1)">
         <use xlink:href="#BitstreamVeraSans-Roman-2d"/>
         <use x="36.083984375" xlink:href="#BitstreamVeraSans-Roman-31"/>
        </g>
       </g>
      </g>
      <g id="ytick_3">
       <g id="line2d_28">
        <g>
         <use style="stroke:#000000;stroke-width:0.5;" x="138.170769231" xlink:href="#m5adb0a9b4f" y="138.170769231"/>
        </g>
       </g>
      </g>
      <g id="ytick_4">
       <g id="line2d_29">
        <g>
         <use style="stroke:#000000;stroke-width:0.5;" x="138.170769231" xlink:href="#m5adb0a9b4f" y="75.2040532544"/>
        </g>
       </g>
       <g id="text_7">
        <!-- 1 -->
        <g transform="translate(127.808269231 77.9634282544)scale(0.1 -0.1)">
         <use xlink:href="#BitstreamVeraSans-Roman-31"/>
        </g>
       </g>
      </g>
      <g id="ytick_5">
       <g id="line2d_30">
        <g>
         <use style="stroke:#000000;stroke-width:0.5;" x="138.170769231" xlink:href="#m5adb0a9b4f" y="12.2373372781"/>
        </g>
       </g>
       <g id="text_8">
        <!-- 2 -->
        <g transform="translate(127.808269231 14.9967122781)scale(0.1 -0.1)">
         <use xlink:href="#BitstreamVeraSans-Roman-32"/>
        </g>
       </g>
      </g>
      <g id="ytick_6">
       <g id="line2d_31">
        <defs>
         <path d="M 0 0 
L 2 0 
" id="m11787be2de" style="stroke:#000000;stroke-width:0.5;"/>
        </defs>
        <g>
         <use style="stroke:#000000;stroke-width:0.5;" x="138.170769231" xlink:href="#m11787be2de" y="251.510857988"/>
        </g>
       </g>
      </g>
      <g id="ytick_7">
       <g id="line2d_32">
        <g>
         <use style="stroke:#000000;stroke-width:0.5;" x="138.170769231" xlink:href="#m11787be2de" y="238.917514793"/>
        </g>
       </g>
      </g>
      <g id="ytick_8">
       <g id="line2d_33">
        <g>
         <use style="stroke:#000000;stroke-width:0.5;" x="138.170769231" xlink:href="#m11787be2de" y="226.324171598"/>
        </g>
       </g>
      </g>
      <g id="ytick_9">
       <g id="line2d_34">
        <g>
         <use style="stroke:#000000;stroke-width:0.5;" x="138.170769231" xlink:href="#m11787be2de" y="213.730828402"/>
        </g>
       </g>
      </g>
      <g id="ytick_10">
       <g id="line2d_35">
        <g>
         <use style="stroke:#000000;stroke-width:0.5;" x="138.170769231" xlink:href="#m11787be2de" y="201.137485207"/>
        </g>
       </g>
      </g>
      <g id="ytick_11">
       <g id="line2d_36">
        <g>
         <use style="stroke:#000000;stroke-width:0.5;" x="138.170769231" xlink:href="#m11787be2de" y="188.544142012"/>
        </g>
       </g>
      </g>
      <g id="ytick_12">
       <g id="line2d_37">
        <g>
         <use style="stroke:#000000;stroke-width:0.5;" x="138.170769231" xlink:href="#m11787be2de" y="175.950798817"/>
        </g>
       </g>
      </g>
      <g id="ytick_13">
       <g id="line2d_38">
        <g>
         <use style="stroke:#000000;stroke-width:0.5;" x="138.170769231" xlink:href="#m11787be2de" y="163.357455621"/>
        </g>
       </g>
      </g>
      <g id="ytick_14">
       <g id="line2d_39">
        <g>
         <use style="stroke:#000000;stroke-width:0.5;" x="138.170769231" xlink:href="#m11787be2de" y="150.764112426"/>
        </g>
       </g>
      </g>
      <g id="ytick_15">
       <g id="line2d_40">
        <g>
         <use style="stroke:#000000;stroke-width:0.5;" x="138.170769231" xlink:href="#m11787be2de" y="138.170769231"/>
        </g>
       </g>
      </g>
      <g id="ytick_16">
       <g id="line2d_41">
        <g>
         <use style="stroke:#000000;stroke-width:0.5;" x="138.170769231" xlink:href="#m11787be2de" y="125.577426036"/>
        </g>
       </g>
      </g>
      <g id="ytick_17">
       <g id="line2d_42">
        <g>
         <use style="stroke:#000000;stroke-width:0.5;" x="138.170769231" xlink:href="#m11787be2de" y="112.98408284"/>
        </g>
       </g>
      </g>
      <g id="ytick_18">
       <g id="line2d_43">
        <g>
         <use style="stroke:#000000;stroke-width:0.5;" x="138.170769231" xlink:href="#m11787be2de" y="100.390739645"/>
        </g>
       </g>
      </g>
      <g id="ytick_19">
       <g id="line2d_44">
        <g>
         <use style="stroke:#000000;stroke-width:0.5;" x="138.170769231" xlink:href="#m11787be2de" y="87.7973964497"/>
        </g>
       </g>
      </g>
      <g id="ytick_20">
       <g id="line2d_45">
        <g>
         <use style="stroke:#000000;stroke-width:0.5;" x="138.170769231" xlink:href="#m11787be2de" y="75.2040532544"/>
        </g>
       </g>
      </g>
      <g id="ytick_21">
       <g id="line2d_46">
        <g>
         <use style="stroke:#000000;stroke-width:0.5;" x="138.170769231" xlink:href="#m11787be2de" y="62.6107100592"/>
        </g>
       </g>
      </g>
      <g id="ytick_22">
       <g id="line2d_47">
        <g>
         <use style="stroke:#000000;stroke-width:0.5;" x="138.170769231" xlink:href="#m11787be2de" y="50.0173668639"/>
        </g>
       </g>
      </g>
      <g id="ytick_23">
       <g id="line2d_48">
        <g>
         <use style="stroke:#000000;stroke-width:0.5;" x="138.170769231" xlink:href="#m11787be2de" y="37.4240236686"/>
        </g>
       </g>
      </g>
      <g id="ytick_24">
       <g id="line2d_49">
        <g>
         <use style="stroke:#000000;stroke-width:0.5;" x="138.170769231" xlink:href="#m11787be2de" y="24.8306804734"/>
        </g>
       </g>
      </g>
      <g id="ytick_25">
       <g id="line2d_50">
        <g>
         <use style="stroke:#000000;stroke-width:0.5;" x="138.170769231" xlink:href="#m11787be2de" y="12.2373372781"/>
        </g>
       </g>
      </g>
     </g>
     <g id="text_9">
      <!-- $\pi/2$ -->
      <defs>
       <path d="M 4.984375 0 
L 4.984375 2.6875 
Q 4.984375 2.9375 5.171875 3.21875 
L 20.703125 20.40625 
Q 24.21875 24.21875 26.40625 26.796875 
Q 28.609375 29.390625 30.75 32.765625 
Q 32.90625 36.140625 34.15625 39.625 
Q 35.40625 43.109375 35.40625 47.015625 
Q 35.40625 51.125 33.890625 54.859375 
Q 32.375 58.59375 29.375 60.84375 
Q 26.375 63.09375 22.125 63.09375 
Q 17.78125 63.09375 14.3125 60.46875 
Q 10.84375 57.859375 9.421875 53.71875 
Q 9.8125 53.8125 10.5 53.8125 
Q 12.75 53.8125 14.328125 52.296875 
Q 15.921875 50.78125 15.921875 48.390625 
Q 15.921875 46.09375 14.328125 44.5 
Q 12.75 42.921875 10.5 42.921875 
Q 8.15625 42.921875 6.5625 44.546875 
Q 4.984375 46.1875 4.984375 48.390625 
Q 4.984375 52.15625 6.390625 55.4375 
Q 7.8125 58.734375 10.46875 61.296875 
Q 13.140625 63.875 16.484375 65.234375 
Q 19.828125 66.609375 23.578125 66.609375 
Q 29.296875 66.609375 34.21875 64.1875 
Q 39.15625 61.765625 42.03125 57.34375 
Q 44.921875 52.9375 44.921875 47.015625 
Q 44.921875 42.671875 43.015625 38.765625 
Q 41.109375 34.859375 38.125 31.65625 
Q 35.15625 28.46875 30.515625 24.40625 
Q 25.875 20.359375 24.421875 19 
L 13.09375 8.109375 
L 22.703125 8.109375 
Q 29.78125 8.109375 34.546875 8.21875 
Q 39.3125 8.34375 39.59375 8.59375 
Q 40.765625 9.859375 42 17.828125 
L 44.921875 17.828125 
L 42.09375 0 
z
" id="Cmr10-32"/>
       <path d="M 5.609375 -23 
Q 5.609375 -22.703125 5.71875 -22.609375 
L 40.484375 73.78125 
Q 40.671875 74.359375 41.15625 74.671875 
Q 41.65625 75 42.28125 75 
Q 43.171875 75 43.71875 74.453125 
Q 44.28125 73.921875 44.28125 73 
L 44.28125 72.609375 
L 9.515625 -23.78125 
Q 8.9375 -25 7.625 -25 
Q 6.78125 -25 6.1875 -24.40625 
Q 5.609375 -23.828125 5.609375 -23 
" id="Cmmi10-3d"/>
       <path d="M 10.109375 1.703125 
Q 10.109375 2.25 10.5 3.328125 
Q 13.28125 9.125 15.6875 14.71875 
Q 18.109375 20.3125 20.03125 25.609375 
Q 21.96875 30.90625 23.578125 36.921875 
L 17.1875 36.921875 
Q 13.53125 36.921875 10.34375 34.625 
Q 7.171875 32.328125 5.078125 28.8125 
Q 4.890625 28.421875 4.5 28.421875 
L 3.328125 28.421875 
Q 2.390625 28.421875 2.390625 29.390625 
Q 2.390625 29.59375 2.59375 29.984375 
Q 5.859375 35.546875 9.59375 39.328125 
Q 13.328125 43.109375 18.015625 43.109375 
L 54.296875 43.109375 
Q 55.328125 43.109375 56.046875 42.421875 
Q 56.78125 41.75 56.78125 40.578125 
Q 56.78125 39.109375 55.734375 38.015625 
Q 54.6875 36.921875 53.21875 36.921875 
L 40.484375 36.921875 
Q 38.875 29.046875 38.71875 21.578125 
Q 38.71875 11.96875 42.09375 4.203125 
Q 42.390625 3.609375 42.390625 2.984375 
Q 42.390625 1.90625 41.75 0.96875 
Q 41.109375 0.046875 40.109375 -0.53125 
Q 39.109375 -1.125 37.984375 -1.125 
Q 35.359375 -1.125 34.375 3.171875 
Q 33.40625 7.46875 33.40625 11.53125 
Q 33.40625 17.234375 34.375 22.53125 
Q 35.359375 27.828125 37.5 36.921875 
L 26.609375 36.921875 
Q 18.703125 4.890625 17.09375 1.609375 
Q 15.671875 -1.125 13.1875 -1.125 
Q 11.96875 -1.125 11.03125 -0.3125 
Q 10.109375 0.484375 10.109375 1.703125 
" id="Cmmi10-bc"/>
      </defs>
      <g style="fill:#ff0000;" transform="translate(159.667188263 54.6828095833)rotate(-30.0)scale(0.18 -0.18)">
       <use xlink:href="#Cmmi10-bc"/>
       <use transform="translate(56.982421875 0.0)" xlink:href="#Cmmi10-3d"/>
       <use transform="translate(106.982421875 0.0)" xlink:href="#Cmr10-32"/>
      </g>
     </g>
     <g id="patch_7">
      <path clip-path="url(#pae81c56000)" d="M 138.170769 264.104201 
C 171.568706 264.104201 203.603246 250.83506 227.219153 227.219153 
C 250.83506 203.603246 264.104201 171.568706 264.104201 138.170769 
C 264.104201 104.772833 250.83506 72.738293 227.219153 49.122386 
C 203.603246 25.506478 171.568706 12.237337 138.170769 12.237337 
C 104.772833 12.237337 72.738293 25.506478 49.122386 49.122386 
C 25.506478 72.738293 12.237337 104.772833 12.237337 138.170769 
C 12.237337 171.568706 25.506478 203.603246 49.122386 227.219153 
C 72.738293 250.83506 104.772833 264.104201 138.170769 264.104201 
L 138.170769 264.104201 
z
" style="fill:none;stroke:#0000ff;stroke-linejoin:miter;"/>
     </g>
     <g id="patch_8">
      <path clip-path="url(#pae81c56000)" d="M 247.23232 75.204053 
C 230.538914 46.290225 203.013925 25.169558 170.76474 16.528415 
C 138.515555 7.887272 104.117882 12.415811 75.204053 29.109218 
" style="fill:none;stroke:#ff0000;stroke-linejoin:miter;stroke-width:2.0;"/>
     </g>
    </g>
   </g>
   <defs>
    <clipPath id="pae81c56000">
     <rect height="261.941538462" width="261.941538462" x="7.2" y="7.2"/>
    </clipPath>
   </defs>
  </g>
 </g>
</svg>
