<?xml version="1.0" encoding="utf-8" standalone="no"?>
<!DOCTYPE svg PUBLIC "-//W3C//DTD SVG 1.1//EN"
  "http://www.w3.org/Graphics/SVG/1.1/DTD/svg11.dtd">
<!-- Created with matplotlib (http://matplotlib.org/) -->
<svg height="281pt" version="1.1" viewBox="0 0 328 281" width="328pt" xmlns="http://www.w3.org/2000/svg" xmlns:xlink="http://www.w3.org/1999/xlink">
 <defs>
  <style type="text/css">
*{stroke-linecap:butt;stroke-linejoin:round;stroke-miterlimit:100000;}
  </style>
 </defs>
 <g id="figure_1">
  <g id="patch_1">
   <path d="M 0 281.834201 
L 328.544201 281.834201 
L 328.544201 0 
L 0 0 
z
" style="fill:#ffffff;"/>
  </g>
  <g id="axes_1">
   <g id="patch_2">
    <path d="M 7.2 274.634201 
L 269.141538 274.634201 
L 269.141538 12.692663 
L 7.2 12.692663 
z
" style="fill:#ffffff;"/>
   </g>
   <g id="patch_3">
    <path clip-path="url(#p5a9920ef9c)" d="M 138.170769 143.663432 
Q 192.701545 112.180074 245.295829 81.81475 
" style="fill:none;stroke:#ff0000;stroke-dasharray:6.000000,6.000000;stroke-dashoffset:0.0;stroke-linecap:round;stroke-width:2.0;"/>
    <path clip-path="url(#p5a9920ef9c)" d="M 234.135575 82.484623 
L 245.295829 81.81475 
L 239.135575 91.144877 
L 234.135575 82.484623 
z
" style="fill:#ff0000;stroke:#ff0000;stroke-linecap:round;stroke-width:2.0;"/>
    <g id="patch_4">
     <path clip-path="url(#p5a9920ef9c)" d="M 138.170769 143.663432 
Q 106.687411 89.132656 76.322087 36.538372 
" style="fill:none;stroke:#ff0000;stroke-dasharray:6.000000,6.000000;stroke-dashoffset:0.0;stroke-linecap:round;stroke-width:2.0;"/>
     <path clip-path="url(#p5a9920ef9c)" d="M 76.99196 47.698626 
L 76.322087 36.538372 
L 85.652214 42.698626 
L 76.99196 47.698626 
z
" style="fill:#ff0000;stroke:#ff0000;stroke-linecap:round;stroke-width:2.0;"/>
     <g id="patch_5">
      <path d="M 7.2 143.663432 
L 269.141538 143.663432 
" style="fill:none;stroke:#000000;stroke-linecap:square;stroke-linejoin:miter;stroke-width:0.8;"/>
     </g>
     <g id="patch_6">
      <path d="M 138.170769 274.634201 
L 138.170769 12.692663 
" style="fill:none;stroke:#000000;stroke-linecap:square;stroke-linejoin:miter;stroke-width:0.8;"/>
     </g>
     <g id="matplotlib.axis_1">
      <g id="xtick_1">
       <g id="line2d_1">
        <defs>
         <path d="M 0 0 
L 0 -4 
" id="m24542bd67f" style="stroke:#000000;stroke-width:0.5;"/>
        </defs>
        <g>
         <use style="stroke:#000000;stroke-width:0.5;" x="12.2373372781" xlink:href="#m24542bd67f" y="143.663431953"/>
        </g>
       </g>
       <g id="text_1">
        <!-- -2 -->
        <defs>
         <path d="M 19.1875 8.296875 
L 53.609375 8.296875 
L 53.609375 0 
L 7.328125 0 
L 7.328125 8.296875 
Q 12.9375 14.109375 22.625 23.890625 
Q 32.328125 33.6875 34.8125 36.53125 
Q 39.546875 41.84375 41.421875 45.53125 
Q 43.3125 49.21875 43.3125 52.78125 
Q 43.3125 58.59375 39.234375 62.25 
Q 35.15625 65.921875 28.609375 65.921875 
Q 23.96875 65.921875 18.8125 64.3125 
Q 13.671875 62.703125 7.8125 59.421875 
L 7.8125 69.390625 
Q 13.765625 71.78125 18.9375 73 
Q 24.125 74.21875 28.421875 74.21875 
Q 39.75 74.21875 46.484375 68.546875 
Q 53.21875 62.890625 53.21875 53.421875 
Q 53.21875 48.921875 51.53125 44.890625 
Q 49.859375 40.875 45.40625 35.40625 
Q 44.1875 33.984375 37.640625 27.21875 
Q 31.109375 20.453125 19.1875 8.296875 
" id="BitstreamVeraSans-Roman-32"/>
         <path d="M 4.890625 31.390625 
L 31.203125 31.390625 
L 31.203125 23.390625 
L 4.890625 23.390625 
z
" id="BitstreamVeraSans-Roman-2d"/>
        </defs>
        <g transform="translate(7.25218102811 155.261869453)scale(0.1 -0.1)">
         <use xlink:href="#BitstreamVeraSans-Roman-2d"/>
         <use x="36.083984375" xlink:href="#BitstreamVeraSans-Roman-32"/>
        </g>
       </g>
      </g>
      <g id="xtick_2">
       <g id="line2d_2">
        <g>
         <use style="stroke:#000000;stroke-width:0.5;" x="75.2040532544" xlink:href="#m24542bd67f" y="143.663431953"/>
        </g>
       </g>
       <g id="text_2">
        <!-- -1 -->
        <defs>
         <path d="M 12.40625 8.296875 
L 28.515625 8.296875 
L 28.515625 63.921875 
L 10.984375 60.40625 
L 10.984375 69.390625 
L 28.421875 72.90625 
L 38.28125 72.90625 
L 38.28125 8.296875 
L 54.390625 8.296875 
L 54.390625 0 
L 12.40625 0 
z
" id="BitstreamVeraSans-Roman-31"/>
        </defs>
        <g transform="translate(70.2188970044 155.261869453)scale(0.1 -0.1)">
         <use xlink:href="#BitstreamVeraSans-Roman-2d"/>
         <use x="36.083984375" xlink:href="#BitstreamVeraSans-Roman-31"/>
        </g>
       </g>
      </g>
      <g id="xtick_3">
       <g id="line2d_3">
        <g>
         <use style="stroke:#000000;stroke-width:0.5;" x="138.170769231" xlink:href="#m24542bd67f" y="143.663431953"/>
        </g>
       </g>
      </g>
      <g id="xtick_4">
       <g id="line2d_4">
        <g>
         <use style="stroke:#000000;stroke-width:0.5;" x="201.137485207" xlink:href="#m24542bd67f" y="143.663431953"/>
        </g>
       </g>
       <g id="text_3">
        <!-- 1 -->
        <g transform="translate(197.956235207 155.261869453)scale(0.1 -0.1)">
         <use xlink:href="#BitstreamVeraSans-Roman-31"/>
        </g>
       </g>
      </g>
      <g id="xtick_5">
       <g id="line2d_5">
        <g>
         <use style="stroke:#000000;stroke-width:0.5;" x="264.104201183" xlink:href="#m24542bd67f" y="143.663431953"/>
        </g>
       </g>
       <g id="text_4">
        <!-- 2 -->
        <g transform="translate(260.922951183 155.261869453)scale(0.1 -0.1)">
         <use xlink:href="#BitstreamVeraSans-Roman-32"/>
        </g>
       </g>
      </g>
      <g id="xtick_6">
       <g id="line2d_6">
        <defs>
         <path d="M 0 0 
L 0 -2 
" id="m0d67ff7693" style="stroke:#000000;stroke-width:0.5;"/>
        </defs>
        <g>
         <use style="stroke:#000000;stroke-width:0.5;" x="24.8306804734" xlink:href="#m0d67ff7693" y="143.663431953"/>
        </g>
       </g>
      </g>
      <g id="xtick_7">
       <g id="line2d_7">
        <g>
         <use style="stroke:#000000;stroke-width:0.5;" x="37.4240236686" xlink:href="#m0d67ff7693" y="143.663431953"/>
        </g>
       </g>
      </g>
      <g id="xtick_8">
       <g id="line2d_8">
        <g>
         <use style="stroke:#000000;stroke-width:0.5;" x="50.0173668639" xlink:href="#m0d67ff7693" y="143.663431953"/>
        </g>
       </g>
      </g>
      <g id="xtick_9">
       <g id="line2d_9">
        <g>
         <use style="stroke:#000000;stroke-width:0.5;" x="62.6107100592" xlink:href="#m0d67ff7693" y="143.663431953"/>
        </g>
       </g>
      </g>
      <g id="xtick_10">
       <g id="line2d_10">
        <g>
         <use style="stroke:#000000;stroke-width:0.5;" x="75.2040532544" xlink:href="#m0d67ff7693" y="143.663431953"/>
        </g>
       </g>
      </g>
      <g id="xtick_11">
       <g id="line2d_11">
        <g>
         <use style="stroke:#000000;stroke-width:0.5;" x="87.7973964497" xlink:href="#m0d67ff7693" y="143.663431953"/>
        </g>
       </g>
      </g>
      <g id="xtick_12">
       <g id="line2d_12">
        <g>
         <use style="stroke:#000000;stroke-width:0.5;" x="100.390739645" xlink:href="#m0d67ff7693" y="143.663431953"/>
        </g>
       </g>
      </g>
      <g id="xtick_13">
       <g id="line2d_13">
        <g>
         <use style="stroke:#000000;stroke-width:0.5;" x="112.98408284" xlink:href="#m0d67ff7693" y="143.663431953"/>
        </g>
       </g>
      </g>
      <g id="xtick_14">
       <g id="line2d_14">
        <g>
         <use style="stroke:#000000;stroke-width:0.5;" x="125.577426036" xlink:href="#m0d67ff7693" y="143.663431953"/>
        </g>
       </g>
      </g>
      <g id="xtick_15">
       <g id="line2d_15">
        <g>
         <use style="stroke:#000000;stroke-width:0.5;" x="138.170769231" xlink:href="#m0d67ff7693" y="143.663431953"/>
        </g>
       </g>
      </g>
      <g id="xtick_16">
       <g id="line2d_16">
        <g>
         <use style="stroke:#000000;stroke-width:0.5;" x="150.764112426" xlink:href="#m0d67ff7693" y="143.663431953"/>
        </g>
       </g>
      </g>
      <g id="xtick_17">
       <g id="line2d_17">
        <g>
         <use style="stroke:#000000;stroke-width:0.5;" x="163.357455621" xlink:href="#m0d67ff7693" y="143.663431953"/>
        </g>
       </g>
      </g>
      <g id="xtick_18">
       <g id="line2d_18">
        <g>
         <use style="stroke:#000000;stroke-width:0.5;" x="175.950798817" xlink:href="#m0d67ff7693" y="143.663431953"/>
        </g>
       </g>
      </g>
      <g id="xtick_19">
       <g id="line2d_19">
        <g>
         <use style="stroke:#000000;stroke-width:0.5;" x="188.544142012" xlink:href="#m0d67ff7693" y="143.663431953"/>
        </g>
       </g>
      </g>
      <g id="xtick_20">
       <g id="line2d_20">
        <g>
         <use style="stroke:#000000;stroke-width:0.5;" x="201.137485207" xlink:href="#m0d67ff7693" y="143.663431953"/>
        </g>
       </g>
      </g>
      <g id="xtick_21">
       <g id="line2d_21">
        <g>
         <use style="stroke:#000000;stroke-width:0.5;" x="213.730828402" xlink:href="#m0d67ff7693" y="143.663431953"/>
        </g>
       </g>
      </g>
      <g id="xtick_22">
       <g id="line2d_22">
        <g>
         <use style="stroke:#000000;stroke-width:0.5;" x="226.324171598" xlink:href="#m0d67ff7693" y="143.663431953"/>
        </g>
       </g>
      </g>
      <g id="xtick_23">
       <g id="line2d_23">
        <g>
         <use style="stroke:#000000;stroke-width:0.5;" x="238.917514793" xlink:href="#m0d67ff7693" y="143.663431953"/>
        </g>
       </g>
      </g>
      <g id="xtick_24">
       <g id="line2d_24">
        <g>
         <use style="stroke:#000000;stroke-width:0.5;" x="251.510857988" xlink:href="#m0d67ff7693" y="143.663431953"/>
        </g>
       </g>
      </g>
      <g id="xtick_25">
       <g id="line2d_25">
        <g>
         <use style="stroke:#000000;stroke-width:0.5;" x="264.104201183" xlink:href="#m0d67ff7693" y="143.663431953"/>
        </g>
       </g>
      </g>
     </g>
     <g id="matplotlib.axis_2">
      <g id="ytick_1">
       <g id="line2d_26">
        <defs>
         <path d="M 0 0 
L 4 0 
" id="m067f61ba4f" style="stroke:#000000;stroke-width:0.5;"/>
        </defs>
        <g>
         <use style="stroke:#000000;stroke-width:0.5;" x="138.170769231" xlink:href="#m067f61ba4f" y="269.596863905"/>
        </g>
       </g>
       <g id="text_5">
        <!-- -2 -->
        <g transform="translate(124.200456731 272.356238905)scale(0.1 -0.1)">
         <use xlink:href="#BitstreamVeraSans-Roman-2d"/>
         <use x="36.083984375" xlink:href="#BitstreamVeraSans-Roman-32"/>
        </g>
       </g>
      </g>
      <g id="ytick_2">
       <g id="line2d_27">
        <g>
         <use style="stroke:#000000;stroke-width:0.5;" x="138.170769231" xlink:href="#m067f61ba4f" y="206.630147929"/>
        </g>
       </g>
       <g id="text_6">
        <!-- -1 -->
        <g transform="translate(124.200456731 209.389522929)scale(0.1 -0.1)">
         <use xlink:href="#BitstreamVeraSans-Roman-2d"/>
         <use x="36.083984375" xlink:href="#BitstreamVeraSans-Roman-31"/>
        </g>
       </g>
      </g>
      <g id="ytick_3">
       <g id="line2d_28">
        <g>
         <use style="stroke:#000000;stroke-width:0.5;" x="138.170769231" xlink:href="#m067f61ba4f" y="143.663431953"/>
        </g>
       </g>
      </g>
      <g id="ytick_4">
       <g id="line2d_29">
        <g>
         <use style="stroke:#000000;stroke-width:0.5;" x="138.170769231" xlink:href="#m067f61ba4f" y="80.6967159763"/>
        </g>
       </g>
       <g id="text_7">
        <!-- 1 -->
        <g transform="translate(127.808269231 83.4560909763)scale(0.1 -0.1)">
         <use xlink:href="#BitstreamVeraSans-Roman-31"/>
        </g>
       </g>
      </g>
      <g id="ytick_5">
       <g id="line2d_30">
        <g>
         <use style="stroke:#000000;stroke-width:0.5;" x="138.170769231" xlink:href="#m067f61ba4f" y="17.73"/>
        </g>
       </g>
       <g id="text_8">
        <!-- 2 -->
        <g transform="translate(127.808269231 20.489375)scale(0.1 -0.1)">
         <use xlink:href="#BitstreamVeraSans-Roman-32"/>
        </g>
       </g>
      </g>
      <g id="ytick_6">
       <g id="line2d_31">
        <defs>
         <path d="M 0 0 
L 2 0 
" id="m315920156b" style="stroke:#000000;stroke-width:0.5;"/>
        </defs>
        <g>
         <use style="stroke:#000000;stroke-width:0.5;" x="138.170769231" xlink:href="#m315920156b" y="257.00352071"/>
        </g>
       </g>
      </g>
      <g id="ytick_7">
       <g id="line2d_32">
        <g>
         <use style="stroke:#000000;stroke-width:0.5;" x="138.170769231" xlink:href="#m315920156b" y="244.410177515"/>
        </g>
       </g>
      </g>
      <g id="ytick_8">
       <g id="line2d_33">
        <g>
         <use style="stroke:#000000;stroke-width:0.5;" x="138.170769231" xlink:href="#m315920156b" y="231.81683432"/>
        </g>
       </g>
      </g>
      <g id="ytick_9">
       <g id="line2d_34">
        <g>
         <use style="stroke:#000000;stroke-width:0.5;" x="138.170769231" xlink:href="#m315920156b" y="219.223491124"/>
        </g>
       </g>
      </g>
      <g id="ytick_10">
       <g id="line2d_35">
        <g>
         <use style="stroke:#000000;stroke-width:0.5;" x="138.170769231" xlink:href="#m315920156b" y="206.630147929"/>
        </g>
       </g>
      </g>
      <g id="ytick_11">
       <g id="line2d_36">
        <g>
         <use style="stroke:#000000;stroke-width:0.5;" x="138.170769231" xlink:href="#m315920156b" y="194.036804734"/>
        </g>
       </g>
      </g>
      <g id="ytick_12">
       <g id="line2d_37">
        <g>
         <use style="stroke:#000000;stroke-width:0.5;" x="138.170769231" xlink:href="#m315920156b" y="181.443461538"/>
        </g>
       </g>
      </g>
      <g id="ytick_13">
       <g id="line2d_38">
        <g>
         <use style="stroke:#000000;stroke-width:0.5;" x="138.170769231" xlink:href="#m315920156b" y="168.850118343"/>
        </g>
       </g>
      </g>
      <g id="ytick_14">
       <g id="line2d_39">
        <g>
         <use style="stroke:#000000;stroke-width:0.5;" x="138.170769231" xlink:href="#m315920156b" y="156.256775148"/>
        </g>
       </g>
      </g>
      <g id="ytick_15">
       <g id="line2d_40">
        <g>
         <use style="stroke:#000000;stroke-width:0.5;" x="138.170769231" xlink:href="#m315920156b" y="143.663431953"/>
        </g>
       </g>
      </g>
      <g id="ytick_16">
       <g id="line2d_41">
        <g>
         <use style="stroke:#000000;stroke-width:0.5;" x="138.170769231" xlink:href="#m315920156b" y="131.070088757"/>
        </g>
       </g>
      </g>
      <g id="ytick_17">
       <g id="line2d_42">
        <g>
         <use style="stroke:#000000;stroke-width:0.5;" x="138.170769231" xlink:href="#m315920156b" y="118.476745562"/>
        </g>
       </g>
      </g>
      <g id="ytick_18">
       <g id="line2d_43">
        <g>
         <use style="stroke:#000000;stroke-width:0.5;" x="138.170769231" xlink:href="#m315920156b" y="105.883402367"/>
        </g>
       </g>
      </g>
      <g id="ytick_19">
       <g id="line2d_44">
        <g>
         <use style="stroke:#000000;stroke-width:0.5;" x="138.170769231" xlink:href="#m315920156b" y="93.2900591716"/>
        </g>
       </g>
      </g>
      <g id="ytick_20">
       <g id="line2d_45">
        <g>
         <use style="stroke:#000000;stroke-width:0.5;" x="138.170769231" xlink:href="#m315920156b" y="80.6967159763"/>
        </g>
       </g>
      </g>
      <g id="ytick_21">
       <g id="line2d_46">
        <g>
         <use style="stroke:#000000;stroke-width:0.5;" x="138.170769231" xlink:href="#m315920156b" y="68.1033727811"/>
        </g>
       </g>
      </g>
      <g id="ytick_22">
       <g id="line2d_47">
        <g>
         <use style="stroke:#000000;stroke-width:0.5;" x="138.170769231" xlink:href="#m315920156b" y="55.5100295858"/>
        </g>
       </g>
      </g>
      <g id="ytick_23">
       <g id="line2d_48">
        <g>
         <use style="stroke:#000000;stroke-width:0.5;" x="138.170769231" xlink:href="#m315920156b" y="42.9166863905"/>
        </g>
       </g>
      </g>
      <g id="ytick_24">
       <g id="line2d_49">
        <g>
         <use style="stroke:#000000;stroke-width:0.5;" x="138.170769231" xlink:href="#m315920156b" y="30.3233431953"/>
        </g>
       </g>
      </g>
      <g id="ytick_25">
       <g id="line2d_50">
        <g>
         <use style="stroke:#000000;stroke-width:0.5;" x="138.170769231" xlink:href="#m315920156b" y="17.73"/>
        </g>
       </g>
      </g>
     </g>
     <g id="text_9">
      <!-- Rotation of $\frac{\pi}{2}$ -->
      <defs>
       <path id="BitstreamVeraSans-Roman-20"/>
       <path d="M 4.984375 0 
L 4.984375 2.6875 
Q 4.984375 2.9375 5.171875 3.21875 
L 20.703125 20.40625 
Q 24.21875 24.21875 26.40625 26.796875 
Q 28.609375 29.390625 30.75 32.765625 
Q 32.90625 36.140625 34.15625 39.625 
Q 35.40625 43.109375 35.40625 47.015625 
Q 35.40625 51.125 33.890625 54.859375 
Q 32.375 58.59375 29.375 60.84375 
Q 26.375 63.09375 22.125 63.09375 
Q 17.78125 63.09375 14.3125 60.46875 
Q 10.84375 57.859375 9.421875 53.71875 
Q 9.8125 53.8125 10.5 53.8125 
Q 12.75 53.8125 14.328125 52.296875 
Q 15.921875 50.78125 15.921875 48.390625 
Q 15.921875 46.09375 14.328125 44.5 
Q 12.75 42.921875 10.5 42.921875 
Q 8.15625 42.921875 6.5625 44.546875 
Q 4.984375 46.1875 4.984375 48.390625 
Q 4.984375 52.15625 6.390625 55.4375 
Q 7.8125 58.734375 10.46875 61.296875 
Q 13.140625 63.875 16.484375 65.234375 
Q 19.828125 66.609375 23.578125 66.609375 
Q 29.296875 66.609375 34.21875 64.1875 
Q 39.15625 61.765625 42.03125 57.34375 
Q 44.921875 52.9375 44.921875 47.015625 
Q 44.921875 42.671875 43.015625 38.765625 
Q 41.109375 34.859375 38.125 31.65625 
Q 35.15625 28.46875 30.515625 24.40625 
Q 25.875 20.359375 24.421875 19 
L 13.09375 8.109375 
L 22.703125 8.109375 
Q 29.78125 8.109375 34.546875 8.21875 
Q 39.3125 8.34375 39.59375 8.59375 
Q 40.765625 9.859375 42 17.828125 
L 44.921875 17.828125 
L 42.09375 0 
z
" id="Cmr10-32"/>
       <path d="M 54.890625 33.015625 
L 54.890625 0 
L 45.90625 0 
L 45.90625 32.71875 
Q 45.90625 40.484375 42.875 44.328125 
Q 39.84375 48.1875 33.796875 48.1875 
Q 26.515625 48.1875 22.3125 43.546875 
Q 18.109375 38.921875 18.109375 30.90625 
L 18.109375 0 
L 9.078125 0 
L 9.078125 54.6875 
L 18.109375 54.6875 
L 18.109375 46.1875 
Q 21.34375 51.125 25.703125 53.5625 
Q 30.078125 56 35.796875 56 
Q 45.21875 56 50.046875 50.171875 
Q 54.890625 44.34375 54.890625 33.015625 
" id="BitstreamVeraSans-Roman-6e"/>
       <path d="M 30.609375 48.390625 
Q 23.390625 48.390625 19.1875 42.75 
Q 14.984375 37.109375 14.984375 27.296875 
Q 14.984375 17.484375 19.15625 11.84375 
Q 23.34375 6.203125 30.609375 6.203125 
Q 37.796875 6.203125 41.984375 11.859375 
Q 46.1875 17.53125 46.1875 27.296875 
Q 46.1875 37.015625 41.984375 42.703125 
Q 37.796875 48.390625 30.609375 48.390625 
M 30.609375 56 
Q 42.328125 56 49.015625 48.375 
Q 55.71875 40.765625 55.71875 27.296875 
Q 55.71875 13.875 49.015625 6.21875 
Q 42.328125 -1.421875 30.609375 -1.421875 
Q 18.84375 -1.421875 12.171875 6.21875 
Q 5.515625 13.875 5.515625 27.296875 
Q 5.515625 40.765625 12.171875 48.375 
Q 18.84375 56 30.609375 56 
" id="BitstreamVeraSans-Roman-6f"/>
       <path d="M 10.109375 1.703125 
Q 10.109375 2.25 10.5 3.328125 
Q 13.28125 9.125 15.6875 14.71875 
Q 18.109375 20.3125 20.03125 25.609375 
Q 21.96875 30.90625 23.578125 36.921875 
L 17.1875 36.921875 
Q 13.53125 36.921875 10.34375 34.625 
Q 7.171875 32.328125 5.078125 28.8125 
Q 4.890625 28.421875 4.5 28.421875 
L 3.328125 28.421875 
Q 2.390625 28.421875 2.390625 29.390625 
Q 2.390625 29.59375 2.59375 29.984375 
Q 5.859375 35.546875 9.59375 39.328125 
Q 13.328125 43.109375 18.015625 43.109375 
L 54.296875 43.109375 
Q 55.328125 43.109375 56.046875 42.421875 
Q 56.78125 41.75 56.78125 40.578125 
Q 56.78125 39.109375 55.734375 38.015625 
Q 54.6875 36.921875 53.21875 36.921875 
L 40.484375 36.921875 
Q 38.875 29.046875 38.71875 21.578125 
Q 38.71875 11.96875 42.09375 4.203125 
Q 42.390625 3.609375 42.390625 2.984375 
Q 42.390625 1.90625 41.75 0.96875 
Q 41.109375 0.046875 40.109375 -0.53125 
Q 39.109375 -1.125 37.984375 -1.125 
Q 35.359375 -1.125 34.375 3.171875 
Q 33.40625 7.46875 33.40625 11.53125 
Q 33.40625 17.234375 34.375 22.53125 
Q 35.359375 27.828125 37.5 36.921875 
L 26.609375 36.921875 
Q 18.703125 4.890625 17.09375 1.609375 
Q 15.671875 -1.125 13.1875 -1.125 
Q 11.96875 -1.125 11.03125 -0.3125 
Q 10.109375 0.484375 10.109375 1.703125 
" id="Cmmi10-bc"/>
       <path d="M 44.390625 34.1875 
Q 47.5625 33.109375 50.5625 29.59375 
Q 53.5625 26.078125 56.59375 19.921875 
L 66.609375 0 
L 56 0 
L 46.6875 18.703125 
Q 43.0625 26.03125 39.671875 28.421875 
Q 36.28125 30.8125 30.421875 30.8125 
L 19.671875 30.8125 
L 19.671875 0 
L 9.8125 0 
L 9.8125 72.90625 
L 32.078125 72.90625 
Q 44.578125 72.90625 50.734375 67.671875 
Q 56.890625 62.453125 56.890625 51.90625 
Q 56.890625 45.015625 53.6875 40.46875 
Q 50.484375 35.9375 44.390625 34.1875 
M 19.671875 64.796875 
L 19.671875 38.921875 
L 32.078125 38.921875 
Q 39.203125 38.921875 42.84375 42.21875 
Q 46.484375 45.515625 46.484375 51.90625 
Q 46.484375 58.296875 42.84375 61.546875 
Q 39.203125 64.796875 32.078125 64.796875 
z
" id="BitstreamVeraSans-Roman-52"/>
       <path d="M 9.421875 54.6875 
L 18.40625 54.6875 
L 18.40625 0 
L 9.421875 0 
z
M 9.421875 75.984375 
L 18.40625 75.984375 
L 18.40625 64.59375 
L 9.421875 64.59375 
z
" id="BitstreamVeraSans-Roman-69"/>
       <path d="M 18.3125 70.21875 
L 18.3125 54.6875 
L 36.8125 54.6875 
L 36.8125 47.703125 
L 18.3125 47.703125 
L 18.3125 18.015625 
Q 18.3125 11.328125 20.140625 9.421875 
Q 21.96875 7.515625 27.59375 7.515625 
L 36.8125 7.515625 
L 36.8125 0 
L 27.59375 0 
Q 17.1875 0 13.234375 3.875 
Q 9.28125 7.765625 9.28125 18.015625 
L 9.28125 47.703125 
L 2.6875 47.703125 
L 2.6875 54.6875 
L 9.28125 54.6875 
L 9.28125 70.21875 
z
" id="BitstreamVeraSans-Roman-74"/>
       <path d="M 37.109375 75.984375 
L 37.109375 68.5 
L 28.515625 68.5 
Q 23.6875 68.5 21.796875 66.546875 
Q 19.921875 64.59375 19.921875 59.515625 
L 19.921875 54.6875 
L 34.71875 54.6875 
L 34.71875 47.703125 
L 19.921875 47.703125 
L 19.921875 0 
L 10.890625 0 
L 10.890625 47.703125 
L 2.296875 47.703125 
L 2.296875 54.6875 
L 10.890625 54.6875 
L 10.890625 58.5 
Q 10.890625 67.625 15.140625 71.796875 
Q 19.390625 75.984375 28.609375 75.984375 
z
" id="BitstreamVeraSans-Roman-66"/>
       <path d="M 34.28125 27.484375 
Q 23.390625 27.484375 19.1875 25 
Q 14.984375 22.515625 14.984375 16.5 
Q 14.984375 11.71875 18.140625 8.90625 
Q 21.296875 6.109375 26.703125 6.109375 
Q 34.1875 6.109375 38.703125 11.40625 
Q 43.21875 16.703125 43.21875 25.484375 
L 43.21875 27.484375 
z
M 52.203125 31.203125 
L 52.203125 0 
L 43.21875 0 
L 43.21875 8.296875 
Q 40.140625 3.328125 35.546875 0.953125 
Q 30.953125 -1.421875 24.3125 -1.421875 
Q 15.921875 -1.421875 10.953125 3.296875 
Q 6 8.015625 6 15.921875 
Q 6 25.140625 12.171875 29.828125 
Q 18.359375 34.515625 30.609375 34.515625 
L 43.21875 34.515625 
L 43.21875 35.40625 
Q 43.21875 41.609375 39.140625 45 
Q 35.0625 48.390625 27.6875 48.390625 
Q 23 48.390625 18.546875 47.265625 
Q 14.109375 46.140625 10.015625 43.890625 
L 10.015625 52.203125 
Q 14.9375 54.109375 19.578125 55.046875 
Q 24.21875 56 28.609375 56 
Q 40.484375 56 46.34375 49.84375 
Q 52.203125 43.703125 52.203125 31.203125 
" id="BitstreamVeraSans-Roman-61"/>
      </defs>
      <g style="fill:#ff0000;" transform="translate(206.864201183 20.88)scale(0.18 -0.18)">
       <use transform="translate(0.0 0.015625)" xlink:href="#BitstreamVeraSans-Roman-52"/>
       <use transform="translate(69.482421875 0.015625)" xlink:href="#BitstreamVeraSans-Roman-6f"/>
       <use transform="translate(130.6640625 0.015625)" xlink:href="#BitstreamVeraSans-Roman-74"/>
       <use transform="translate(169.873046875 0.015625)" xlink:href="#BitstreamVeraSans-Roman-61"/>
       <use transform="translate(231.15234375 0.015625)" xlink:href="#BitstreamVeraSans-Roman-74"/>
       <use transform="translate(270.361328125 0.015625)" xlink:href="#BitstreamVeraSans-Roman-69"/>
       <use transform="translate(298.14453125 0.015625)" xlink:href="#BitstreamVeraSans-Roman-6f"/>
       <use transform="translate(359.326171875 0.015625)" xlink:href="#BitstreamVeraSans-Roman-6e"/>
       <use transform="translate(422.705078125 0.015625)" xlink:href="#BitstreamVeraSans-Roman-20"/>
       <use transform="translate(454.4921875 0.015625)" xlink:href="#BitstreamVeraSans-Roman-6f"/>
       <use transform="translate(515.673828125 0.015625)" xlink:href="#BitstreamVeraSans-Roman-66"/>
       <use transform="translate(550.87890625 0.015625)" xlink:href="#BitstreamVeraSans-Roman-20"/>
       <use transform="translate(582.666015625 38.303125)scale(0.7)" xlink:href="#Cmmi10-bc"/>
       <use transform="translate(584.666015625 -40.3609375)scale(0.7)" xlink:href="#Cmr10-32"/>
       <path d="M 582.666016 12.515625 
L 582.666016 18.765625 
L 622.553711 18.765625 
L 622.553711 12.515625 
L 582.666016 12.515625 
z
"/>
      </g>
     </g>
     <g id="patch_7">
      <path clip-path="url(#p5a9920ef9c)" d="M 138.170769 269.596864 
C 171.568706 269.596864 203.603246 256.327723 227.219153 232.711816 
C 250.83506 209.095908 264.104201 177.061369 264.104201 143.663432 
C 264.104201 110.265495 250.83506 78.230956 227.219153 54.615048 
C 203.603246 30.999141 171.568706 17.73 138.170769 17.73 
C 104.772833 17.73 72.738293 30.999141 49.122386 54.615048 
C 25.506478 78.230956 12.237337 110.265495 12.237337 143.663432 
C 12.237337 177.061369 25.506478 209.095908 49.122386 232.711816 
C 72.738293 256.327723 104.772833 269.596864 138.170769 269.596864 
L 138.170769 269.596864 
z
" style="fill:none;stroke:#0000ff;stroke-linejoin:miter;"/>
     </g>
     <g id="patch_8">
      <path clip-path="url(#p5a9920ef9c)" d="M 247.23232 80.696716 
C 230.538914 51.782888 203.013925 30.662221 170.76474 22.021078 
C 138.515555 13.379935 104.117882 17.908474 75.204053 34.601881 
" style="fill:none;stroke:#ff0000;stroke-linejoin:miter;stroke-width:2.0;"/>
     </g>
    </g>
   </g>
   <defs>
    <clipPath id="p5a9920ef9c">
     <rect height="261.941538462" width="261.941538462" x="7.2" y="12.6926627219"/>
    </clipPath>
   </defs>
  </g>
 </g>
</svg>
