<?xml version="1.0" encoding="utf-8" standalone="no"?>
<!DOCTYPE svg PUBLIC "-//W3C//DTD SVG 1.1//EN"
  "http://www.w3.org/Graphics/SVG/1.1/DTD/svg11.dtd">
<!-- Created with matplotlib (http://matplotlib.org/) -->
<svg height="420pt" version="1.1" viewBox="0 0 420 420" width="420pt" xmlns="http://www.w3.org/2000/svg" xmlns:xlink="http://www.w3.org/1999/xlink">
 <defs>
  <style type="text/css">
*{stroke-linecap:square;stroke-linejoin:round;}
  </style>
 </defs>
 <g id="figure_1">
  <g id="patch_1">
   <path d="
M0 420.48
L420.48 420.48
L420.48 0
L0 0
z
" style="fill:#ffffff;"/>
  </g>
  <g id="axes_1">
   <g id="patch_2">
    <path d="
M7.2 413.28
L413.28 413.28
L413.28 7.2
L7.2 7.2
z
" style="fill:#ffffff;"/>
   </g>
   <g id="PathCollection_1">
    <defs>
     <path d="
M0 4.74342
C1.25797 4.74342 2.46458 4.24362 3.3541 3.3541
C4.24362 2.46458 4.74342 1.25797 4.74342 0
C4.74342 -1.25797 4.24362 -2.46458 3.3541 -3.3541
C2.46458 -4.24362 1.25797 -4.74342 0 -4.74342
C-1.25797 -4.74342 -2.46458 -4.24362 -3.3541 -3.3541
C-4.24362 -2.46458 -4.74342 -1.25797 -4.74342 0
C-4.74342 1.25797 -4.24362 2.46458 -3.3541 3.3541
C-2.46458 4.24362 -1.25797 4.74342 0 4.74342
z
" id="C0_0_72e6d5a2bf"/>
    </defs>
    <g clip-path="url(#p85c0e9ffdb)">
     <use x="174.743496503" xlink:href="#C0_0_72e6d5a2bf" y="174.743496503"/>
    </g>
   </g>
   <g id="patch_3">
    <path clip-path="url(#p85c0e9ffdb)" d="
M217.339 220.889
Q200.478 202.253 186.618 186.934" style="fill:none;stroke:#ff0000;stroke-linecap:round;stroke-width:4.0;"/>
    <path clip-path="url(#p85c0e9ffdb)" d="
M189.619 197.704
L186.618 186.934
L197.035 190.995
L189.619 197.704
z
" style="fill:#ff0000;stroke:#ff0000;stroke-linecap:round;stroke-width:4.0;"/>
   </g>
   <g id="line2d_1">
    <path clip-path="url(#p85c0e9ffdb)" d="
M15.0092 387.723
L405.471 387.723" style="fill:none;stroke:#000000;stroke-width:2.0;"/>
   </g>
   <g id="line2d_2">
    <path clip-path="url(#p85c0e9ffdb)" d="
M32.7575 405.471
L32.7575 15.0092" style="fill:none;stroke:#000000;stroke-width:2.0;"/>
   </g>
   <g id="line2d_3">
    <path clip-path="url(#p85c0e9ffdb)" d="
M103.75 405.471
L103.75 369.974" style="fill:none;stroke:#000000;"/>
   </g>
   <g id="line2d_4">
    <path clip-path="url(#p85c0e9ffdb)" d="
M15.0092 316.73
L50.5057 316.73" style="fill:none;stroke:#000000;"/>
   </g>
   <g id="line2d_5">
    <path clip-path="url(#p85c0e9ffdb)" d="
M174.743 405.471
L174.743 369.974" style="fill:none;stroke:#000000;"/>
   </g>
   <g id="line2d_6">
    <path clip-path="url(#p85c0e9ffdb)" d="
M15.0092 245.737
L50.5057 245.737" style="fill:none;stroke:#000000;"/>
   </g>
   <g id="line2d_7">
    <path clip-path="url(#p85c0e9ffdb)" d="
M245.737 405.471
L245.737 369.974" style="fill:none;stroke:#000000;"/>
   </g>
   <g id="line2d_8">
    <path clip-path="url(#p85c0e9ffdb)" d="
M15.0092 174.743
L50.5057 174.743" style="fill:none;stroke:#000000;"/>
   </g>
   <g id="line2d_9">
    <path clip-path="url(#p85c0e9ffdb)" d="
M316.73 405.471
L316.73 369.974" style="fill:none;stroke:#000000;"/>
   </g>
   <g id="line2d_10">
    <path clip-path="url(#p85c0e9ffdb)" d="
M15.0092 103.75
L50.5057 103.75" style="fill:none;stroke:#000000;"/>
   </g>
   <g id="line2d_11">
    <path clip-path="url(#p85c0e9ffdb)" d="
M387.723 405.471
L387.723 369.974" style="fill:none;stroke:#000000;"/>
   </g>
   <g id="line2d_12">
    <path clip-path="url(#p85c0e9ffdb)" d="
M15.0092 32.7575
L50.5057 32.7575" style="fill:none;stroke:#000000;"/>
   </g>
   <g id="matplotlib.axis_1"/>
   <g id="matplotlib.axis_2"/>
   <g id="text_1">
    <!-- $2+3i$ -->
    <defs>
     <path d="
M9.51562 7.71875
Q11.8594 4.29688 15.8125 2.64062
Q19.7812 0.984375 24.3125 0.984375
Q30.125 0.984375 32.5625 5.9375
Q35.0156 10.8906 35.0156 17.1875
Q35.0156 20.0156 34.5 22.8438
Q33.9844 25.6875 32.7656 28.125
Q31.5469 30.5625 29.4219 32.0312
Q27.2969 33.5 24.2188 33.5
L17.5781 33.5
Q16.7031 33.5 16.7031 34.4219
L16.7031 35.2969
Q16.7031 36.0781 17.5781 36.0781
L23.0938 36.5312
Q26.6094 36.5312 28.9219 39.1562
Q31.25 41.7969 32.3281 45.5781
Q33.4062 49.3594 33.4062 52.7812
Q33.4062 57.5625 31.1562 60.6406
Q28.9062 63.7188 24.3125 63.7188
Q20.5156 63.7188 17.0469 62.2812
Q13.5781 60.8438 11.5312 57.9062
Q11.7188 57.9531 11.8594 57.9844
Q12.0156 58.0156 12.2031 58.0156
Q14.4531 58.0156 15.9688 56.4531
Q17.4844 54.8906 17.4844 52.6875
Q17.4844 50.5312 15.9688 48.9688
Q14.4531 47.4062 12.2031 47.4062
Q10.0156 47.4062 8.45312 48.9688
Q6.89062 50.5312 6.89062 52.6875
Q6.89062 56.9844 9.46875 60.1562
Q12.0625 63.3281 16.1406 64.9688
Q20.2188 66.6094 24.3125 66.6094
Q27.3438 66.6094 30.7031 65.7031
Q34.0781 64.7969 36.8125 63.1094
Q39.5469 61.4219 41.2812 58.7812
Q43.0156 56.1562 43.0156 52.7812
Q43.0156 48.5781 41.1406 45.0156
Q39.2656 41.4531 35.9844 38.8594
Q32.7188 36.2812 28.8125 35.0156
Q33.1562 34.1875 37.0625 31.7344
Q40.9688 29.2969 43.3281 25.4844
Q45.7031 21.6875 45.7031 17.2812
Q45.7031 11.7656 42.6719 7.29688
Q39.6562 2.82812 34.7188 0.3125
Q29.7812 -2.20312 24.3125 -2.20312
Q19.625 -2.20312 14.9062 -0.40625
Q10.2031 1.375 7.20312 4.9375
Q4.20312 8.5 4.20312 13.4844
Q4.20312 15.9688 5.85938 17.625
Q7.51562 19.2812 10.0156 19.2812
Q11.625 19.2812 12.9688 18.5312
Q14.3125 17.7812 15.0625 16.4062
Q15.8281 15.0469 15.8281 13.4844
Q15.8281 11.0312 14.1094 9.375
Q12.4062 7.71875 10.0156 7.71875
z
" id="Cmr10-33"/>
     <path d="
M4.98438 0
L4.98438 2.6875
Q4.98438 2.9375 5.17188 3.21875
L20.7031 20.4062
Q24.2188 24.2188 26.4062 26.7969
Q28.6094 29.3906 30.75 32.7656
Q32.9062 36.1406 34.1562 39.625
Q35.4062 43.1094 35.4062 47.0156
Q35.4062 51.125 33.8906 54.8594
Q32.375 58.5938 29.375 60.8438
Q26.375 63.0938 22.125 63.0938
Q17.7812 63.0938 14.3125 60.4688
Q10.8438 57.8594 9.42188 53.7188
Q9.8125 53.8125 10.5 53.8125
Q12.75 53.8125 14.3281 52.2969
Q15.9219 50.7812 15.9219 48.3906
Q15.9219 46.0938 14.3281 44.5
Q12.75 42.9219 10.5 42.9219
Q8.15625 42.9219 6.5625 44.5469
Q4.98438 46.1875 4.98438 48.3906
Q4.98438 52.1562 6.39062 55.4375
Q7.8125 58.7344 10.4688 61.2969
Q13.1406 63.875 16.4844 65.2344
Q19.8281 66.6094 23.5781 66.6094
Q29.2969 66.6094 34.2188 64.1875
Q39.1562 61.7656 42.0312 57.3438
Q44.9219 52.9375 44.9219 47.0156
Q44.9219 42.6719 43.0156 38.7656
Q41.1094 34.8594 38.125 31.6562
Q35.1562 28.4688 30.5156 24.4062
Q25.875 20.3594 24.4219 19
L13.0938 8.10938
L22.7031 8.10938
Q29.7812 8.10938 34.5469 8.21875
Q39.3125 8.34375 39.5938 8.59375
Q40.7656 9.85938 42 17.8281
L44.9219 17.8281
L42.0938 0
z
" id="Cmr10-32"/>
     <path d="
M7.51562 23
Q6.6875 23 6.14062 23.625
Q5.60938 24.2656 5.60938 25
Q5.60938 25.7344 6.14062 26.3594
Q6.6875 27 7.51562 27
L36.9219 27
L36.9219 56.5
Q36.9219 57.2812 37.5 57.7812
Q38.0938 58.2969 38.9219 58.2969
Q39.6562 58.2969 40.2812 57.7812
Q40.9219 57.2812 40.9219 56.5
L40.9219 27
L70.3125 27
Q71.0469 27 71.5781 26.3594
Q72.125 25.7344 72.125 25
Q72.125 24.2656 71.5781 23.625
Q71.0469 23 70.3125 23
L40.9219 23
L40.9219 -6.5
Q40.9219 -7.28125 40.2812 -7.78125
Q39.6562 -8.29688 38.9219 -8.29688
Q38.0938 -8.29688 37.5 -7.78125
Q36.9219 -7.28125 36.9219 -6.5
L36.9219 23
z
" id="Cmr10-2b"/>
     <path d="
M7.8125 7.17188
Q7.8125 9.03125 8.59375 11.0781
L16.7031 32.625
Q18.0156 36.2812 18.0156 38.625
Q18.0156 41.6094 15.8281 41.6094
Q11.8594 41.6094 9.29688 37.5312
Q6.73438 33.4531 5.51562 28.4219
Q5.32812 27.7812 4.6875 27.7812
L3.51562 27.7812
Q2.6875 27.7812 2.6875 28.7188
L2.6875 29
Q4.29688 34.9688 7.60938 39.5781
Q10.9375 44.1875 16.0156 44.1875
Q19.5781 44.1875 22.0469 41.8438
Q24.5156 39.5 24.5156 35.8906
Q24.5156 34.0312 23.6875 31.9844
L15.5781 10.5
Q14.2031 7.17188 14.2031 4.5
Q14.2031 1.51562 16.5 1.51562
Q20.4062 1.51562 23.0156 5.6875
Q25.6406 9.85938 26.7031 14.7031
Q26.9062 15.2812 27.4844 15.2812
L28.7188 15.2812
Q29.1094 15.2812 29.3438 15.0156
Q29.5938 14.75 29.5938 14.4062
Q29.5938 14.3125 29.5 14.1094
Q28.125 8.45312 24.7344 3.65625
Q21.3438 -1.125 16.3125 -1.125
Q12.7969 -1.125 10.2969 1.29688
Q7.8125 3.71875 7.8125 7.17188
M19.0938 60.5938
Q19.0938 62.7031 20.8438 64.4062
Q22.6094 66.1094 24.7031 66.1094
Q26.4219 66.1094 27.5156 65.0625
Q28.6094 64.0156 28.6094 62.4062
Q28.6094 60.1562 26.8281 58.4688
Q25.0469 56.7812 22.9062 56.7812
Q21.2969 56.7812 20.1875 57.875
Q19.0938 58.9844 19.0938 60.5938" id="Cmmi10-69"/>
    </defs>
    <g style="fill:#ff0000;" transform="translate(203.076503497 259.416503497)scale(0.36 -0.36)">
     <use transform="translate(0.0 9.390625)" xlink:href="#Cmr10-32"/>
     <use transform="translate(67.55859375 9.390625)" xlink:href="#Cmr10-2b"/>
     <use transform="translate(151.6171875 9.390625)" xlink:href="#Cmr10-33"/>
     <use transform="translate(201.6171875 9.390625)" xlink:href="#Cmmi10-69"/>
    </g>
   </g>
  </g>
 </g>
 <defs>
  <clipPath id="p85c0e9ffdb">
   <rect height="406.08" width="406.08" x="7.2" y="7.2"/>
  </clipPath>
 </defs>
</svg>
