<?xml version="1.0" encoding="utf-8" standalone="no"?>
<!DOCTYPE svg PUBLIC "-//W3C//DTD SVG 1.1//EN"
  "http://www.w3.org/Graphics/SVG/1.1/DTD/svg11.dtd">
<!-- Created with matplotlib (http://matplotlib.org/) -->
<svg height="238pt" version="1.1" viewBox="0 0 564 238" width="564pt" xmlns="http://www.w3.org/2000/svg" xmlns:xlink="http://www.w3.org/1999/xlink">
 <defs>
  <style type="text/css">
*{stroke-linecap:butt;stroke-linejoin:round;}
  </style>
 </defs>
 <g id="figure_1">
  <g id="patch_1">
   <path d="
M0 238.507
L564.48 238.507
L564.48 0
L0 0
z
" style="fill:#ffffff;"/>
  </g>
  <g id="axes_1">
   <g id="patch_2">
    <path d="
M7.2 231.307
L557.28 231.307
L557.28 7.2
L7.2 7.2
z
" style="fill:#ffffff;"/>
   </g>
   <g id="matplotlib.axis_1"/>
   <g id="matplotlib.axis_2"/>
   <g id="patch_3">
    <path clip-path="url(#pb28ff077df)" d="
M47.1631 226.997
C54.956 226.997 62.4307 223.901 67.9411 218.39
C73.4515 212.88 76.5477 205.405 76.5477 197.612
C76.5477 189.819 73.4515 182.345 67.9411 176.834
C62.4307 171.324 54.956 168.228 47.1631 168.228
C39.3702 168.228 31.8954 171.324 26.385 176.834
C20.8746 182.345 17.7785 189.819 17.7785 197.612
C17.7785 205.405 20.8746 212.88 26.385 218.39
C31.8954 223.901 39.3702 226.997 47.1631 226.997
z
" style="fill:#cccccc;stroke:#cccccc;"/>
   </g>
   <g id="patch_4">
    <path clip-path="url(#pb28ff077df)" d="
M125.522 226.997
C133.315 226.997 140.79 223.901 146.3 218.39
C151.811 212.88 154.907 205.405 154.907 197.612
C154.907 189.819 151.811 182.345 146.3 176.834
C140.79 171.324 133.315 168.228 125.522 168.228
C117.729 168.228 110.254 171.324 104.744 176.834
C99.2336 182.345 96.1374 189.819 96.1374 197.612
C96.1374 205.405 99.2336 212.88 104.744 218.39
C110.254 223.901 117.729 226.997 125.522 226.997
z
" style="fill:#cccccc;stroke:#cccccc;"/>
   </g>
   <g id="patch_5">
    <path clip-path="url(#pb28ff077df)" d="
M203.881 226.997
C211.674 226.997 219.149 223.901 224.659 218.39
C230.169 212.88 233.266 205.405 233.266 197.612
C233.266 189.819 230.169 182.345 224.659 176.834
C219.149 171.324 211.674 168.228 203.881 168.228
C196.088 168.228 188.613 171.324 183.103 176.834
C177.593 182.345 174.496 189.819 174.496 197.612
C174.496 205.405 177.593 212.88 183.103 218.39
C188.613 223.901 196.088 226.997 203.881 226.997
z
" style="fill:#cccccc;stroke:#cccccc;"/>
   </g>
   <g id="patch_6">
    <path clip-path="url(#pb28ff077df)" d="
M47.1631 222.687
C53.813 222.687 60.1915 220.045 64.8937 215.343
C69.5959 210.641 72.2379 204.262 72.2379 197.612
C72.2379 190.962 69.5959 184.584 64.8937 179.882
C60.1915 175.179 53.813 172.537 47.1631 172.537
C40.5131 172.537 34.1347 175.179 29.4325 179.882
C24.7303 184.584 22.0882 190.962 22.0882 197.612
C22.0882 204.262 24.7303 210.641 29.4325 215.343
C34.1347 220.045 40.5131 222.687 47.1631 222.687
z
" style="fill:#ffffff;stroke:#ffffff;"/>
   </g>
   <g id="patch_7">
    <path clip-path="url(#pb28ff077df)" d="
M44.8123 226.605
C51.8779 226.605 58.655 223.798 63.6511 218.802
C68.6472 213.806 71.4544 207.029 71.4544 199.963
C71.4544 192.898 68.6472 186.12 63.6511 181.124
C58.655 176.128 51.8779 173.321 44.8123 173.321
C37.7468 173.321 30.9696 176.128 25.9735 181.124
C20.9774 186.12 18.1703 192.898 18.1703 199.963
C18.1703 207.029 20.9774 213.806 25.9735 218.802
C30.9696 223.798 37.7468 226.605 44.8123 226.605
z
" style="fill:#cccccc;stroke:#cccccc;"/>
   </g>
   <g id="patch_8">
    <path clip-path="url(#pb28ff077df)" d="
M125.522 222.687
C132.172 222.687 138.55 220.045 143.253 215.343
C147.955 210.641 150.597 204.262 150.597 197.612
C150.597 190.962 147.955 184.584 143.253 179.882
C138.55 175.179 132.172 172.537 125.522 172.537
C118.872 172.537 112.494 175.179 107.791 179.882
C103.089 184.584 100.447 190.962 100.447 197.612
C100.447 204.262 103.089 210.641 107.791 215.343
C112.494 220.045 118.872 222.687 125.522 222.687
z
" style="fill:#ffffff;stroke:#ffffff;"/>
   </g>
   <g id="patch_9">
    <path clip-path="url(#pb28ff077df)" d="
M123.171 226.605
C130.237 226.605 137.014 223.798 142.01 218.802
C147.006 213.806 149.813 207.029 149.813 199.963
C149.813 192.898 147.006 186.12 142.01 181.124
C137.014 176.128 130.237 173.321 123.171 173.321
C116.106 173.321 109.329 176.128 104.333 181.124
C99.3364 186.12 96.5292 192.898 96.5292 199.963
C96.5292 207.029 99.3364 213.806 104.333 218.802
C109.329 223.798 116.106 226.605 123.171 226.605
z
" style="fill:#cccccc;stroke:#cccccc;"/>
   </g>
   <g id="patch_10">
    <path clip-path="url(#pb28ff077df)" d="
M203.881 222.687
C210.531 222.687 216.909 220.045 221.612 215.343
C226.314 210.641 228.956 204.262 228.956 197.612
C228.956 190.962 226.314 184.584 221.612 179.882
C216.909 175.179 210.531 172.537 203.881 172.537
C197.231 172.537 190.853 175.179 186.15 179.882
C181.448 184.584 178.806 190.962 178.806 197.612
C178.806 204.262 181.448 210.641 186.15 215.343
C190.853 220.045 197.231 222.687 203.881 222.687
z
" style="fill:#ffffff;stroke:#ffffff;"/>
   </g>
   <g id="patch_11">
    <path clip-path="url(#pb28ff077df)" d="
M201.53 226.605
C208.596 226.605 215.373 223.798 220.369 218.802
C225.365 213.806 228.172 207.029 228.172 199.963
C228.172 192.898 225.365 186.12 220.369 181.124
C215.373 176.128 208.596 173.321 201.53 173.321
C194.465 173.321 187.688 176.128 182.691 181.124
C177.695 186.12 174.888 192.898 174.888 199.963
C174.888 207.029 177.695 213.806 182.691 218.802
C187.688 223.798 194.465 226.605 201.53 226.605
z
" style="fill:#cccccc;stroke:#cccccc;"/>
   </g>
   <g id="patch_12">
    <path clip-path="url(#pb28ff077df)" d="
M47.1631 148.638
C54.956 148.638 62.4307 145.542 67.9411 140.031
C73.4515 134.521 76.5477 127.046 76.5477 119.253
C76.5477 111.46 73.4515 103.986 67.9411 98.4753
C62.4307 92.9649 54.956 89.8687 47.1631 89.8687
C39.3702 89.8687 31.8954 92.9649 26.385 98.4753
C20.8746 103.986 17.7785 111.46 17.7785 119.253
C17.7785 127.046 20.8746 134.521 26.385 140.031
C31.8954 145.542 39.3702 148.638 47.1631 148.638
z
" style="fill:#cccccc;stroke:#cccccc;"/>
   </g>
   <g id="patch_13">
    <path clip-path="url(#pb28ff077df)" d="
M125.522 148.638
C133.315 148.638 140.79 145.542 146.3 140.031
C151.811 134.521 154.907 127.046 154.907 119.253
C154.907 111.46 151.811 103.986 146.3 98.4753
C140.79 92.9649 133.315 89.8687 125.522 89.8687
C117.729 89.8687 110.254 92.9649 104.744 98.4753
C99.2336 103.986 96.1374 111.46 96.1374 119.253
C96.1374 127.046 99.2336 134.521 104.744 140.031
C110.254 145.542 117.729 148.638 125.522 148.638
z
" style="fill:#cccccc;stroke:#cccccc;"/>
   </g>
   <g id="patch_14">
    <path clip-path="url(#pb28ff077df)" d="
M203.881 148.638
C211.674 148.638 219.149 145.542 224.659 140.031
C230.169 134.521 233.266 127.046 233.266 119.253
C233.266 111.46 230.169 103.986 224.659 98.4753
C219.149 92.9649 211.674 89.8687 203.881 89.8687
C196.088 89.8687 188.613 92.9649 183.103 98.4753
C177.593 103.986 174.496 111.46 174.496 119.253
C174.496 127.046 177.593 134.521 183.103 140.031
C188.613 145.542 196.088 148.638 203.881 148.638
z
" style="fill:#cccccc;stroke:#cccccc;"/>
   </g>
   <g id="patch_15">
    <path clip-path="url(#pb28ff077df)" d="
M282.24 148.638
C290.033 148.638 297.508 145.542 303.018 140.031
C308.528 134.521 311.625 127.046 311.625 119.253
C311.625 111.46 308.528 103.986 303.018 98.4753
C297.508 92.9649 290.033 89.8687 282.24 89.8687
C274.447 89.8687 266.972 92.9649 261.462 98.4753
C255.952 103.986 252.855 111.46 252.855 119.253
C252.855 127.046 255.952 134.521 261.462 140.031
C266.972 145.542 274.447 148.638 282.24 148.638
z
" style="fill:#cccccc;stroke:#cccccc;"/>
   </g>
   <g id="patch_16">
    <path clip-path="url(#pb28ff077df)" d="
M360.599 148.638
C368.392 148.638 375.867 145.542 381.377 140.031
C386.887 134.521 389.984 127.046 389.984 119.253
C389.984 111.46 386.887 103.986 381.377 98.4753
C375.867 92.9649 368.392 89.8687 360.599 89.8687
C352.806 89.8687 345.331 92.9649 339.821 98.4753
C334.311 103.986 331.214 111.46 331.214 119.253
C331.214 127.046 334.311 134.521 339.821 140.031
C345.331 145.542 352.806 148.638 360.599 148.638
z
" style="fill:#cccccc;stroke:#cccccc;"/>
   </g>
   <g id="patch_17">
    <path clip-path="url(#pb28ff077df)" d="
M47.1631 144.328
C53.813 144.328 60.1915 141.686 64.8937 136.984
C69.5959 132.282 72.2379 125.903 72.2379 119.253
C72.2379 112.603 69.5959 106.225 64.8937 101.523
C60.1915 96.8205 53.813 94.1785 47.1631 94.1785
C40.5131 94.1785 34.1347 96.8205 29.4325 101.523
C24.7303 106.225 22.0882 112.603 22.0882 119.253
C22.0882 125.903 24.7303 132.282 29.4325 136.984
C34.1347 141.686 40.5131 144.328 47.1631 144.328
z
" style="fill:#ffffff;stroke:#ffffff;"/>
   </g>
   <g id="patch_18">
    <path clip-path="url(#pb28ff077df)" d="
M44.8123 148.246
C51.8779 148.246 58.655 145.439 63.6511 140.443
C68.6472 135.447 71.4544 128.67 71.4544 121.604
C71.4544 114.539 68.6472 107.761 63.6511 102.765
C58.655 97.7692 51.8779 94.9621 44.8123 94.9621
C37.7468 94.9621 30.9696 97.7692 25.9735 102.765
C20.9774 107.761 18.1703 114.539 18.1703 121.604
C18.1703 128.67 20.9774 135.447 25.9735 140.443
C30.9696 145.439 37.7468 148.246 44.8123 148.246
z
" style="fill:#cccccc;stroke:#cccccc;"/>
   </g>
   <g id="patch_19">
    <path clip-path="url(#pb28ff077df)" d="
M125.522 144.328
C132.172 144.328 138.55 141.686 143.253 136.984
C147.955 132.282 150.597 125.903 150.597 119.253
C150.597 112.603 147.955 106.225 143.253 101.523
C138.55 96.8205 132.172 94.1785 125.522 94.1785
C118.872 94.1785 112.494 96.8205 107.791 101.523
C103.089 106.225 100.447 112.603 100.447 119.253
C100.447 125.903 103.089 132.282 107.791 136.984
C112.494 141.686 118.872 144.328 125.522 144.328
z
" style="fill:#ffffff;stroke:#ffffff;"/>
   </g>
   <g id="patch_20">
    <path clip-path="url(#pb28ff077df)" d="
M123.171 148.246
C130.237 148.246 137.014 145.439 142.01 140.443
C147.006 135.447 149.813 128.67 149.813 121.604
C149.813 114.539 147.006 107.761 142.01 102.765
C137.014 97.7692 130.237 94.9621 123.171 94.9621
C116.106 94.9621 109.329 97.7692 104.333 102.765
C99.3364 107.761 96.5292 114.539 96.5292 121.604
C96.5292 128.67 99.3364 135.447 104.333 140.443
C109.329 145.439 116.106 148.246 123.171 148.246
z
" style="fill:#cccccc;stroke:#cccccc;"/>
   </g>
   <g id="patch_21">
    <path clip-path="url(#pb28ff077df)" d="
M203.881 144.328
C210.531 144.328 216.909 141.686 221.612 136.984
C226.314 132.282 228.956 125.903 228.956 119.253
C228.956 112.603 226.314 106.225 221.612 101.523
C216.909 96.8205 210.531 94.1785 203.881 94.1785
C197.231 94.1785 190.853 96.8205 186.15 101.523
C181.448 106.225 178.806 112.603 178.806 119.253
C178.806 125.903 181.448 132.282 186.15 136.984
C190.853 141.686 197.231 144.328 203.881 144.328
z
" style="fill:#ffffff;stroke:#ffffff;"/>
   </g>
   <g id="patch_22">
    <path clip-path="url(#pb28ff077df)" d="
M201.53 148.246
C208.596 148.246 215.373 145.439 220.369 140.443
C225.365 135.447 228.172 128.67 228.172 121.604
C228.172 114.539 225.365 107.761 220.369 102.765
C215.373 97.7692 208.596 94.9621 201.53 94.9621
C194.465 94.9621 187.688 97.7692 182.691 102.765
C177.695 107.761 174.888 114.539 174.888 121.604
C174.888 128.67 177.695 135.447 182.691 140.443
C187.688 145.439 194.465 148.246 201.53 148.246
z
" style="fill:#cccccc;stroke:#cccccc;"/>
   </g>
   <g id="patch_23">
    <path clip-path="url(#pb28ff077df)" d="
M282.24 144.328
C288.89 144.328 295.268 141.686 299.971 136.984
C304.673 132.282 307.315 125.903 307.315 119.253
C307.315 112.603 304.673 106.225 299.971 101.523
C295.268 96.8205 288.89 94.1785 282.24 94.1785
C275.59 94.1785 269.212 96.8205 264.509 101.523
C259.807 106.225 257.165 112.603 257.165 119.253
C257.165 125.903 259.807 132.282 264.509 136.984
C269.212 141.686 275.59 144.328 282.24 144.328
z
" style="fill:#ffffff;stroke:#ffffff;"/>
   </g>
   <g id="patch_24">
    <path clip-path="url(#pb28ff077df)" d="
M279.889 148.246
C286.955 148.246 293.732 145.439 298.728 140.443
C303.724 135.447 306.531 128.67 306.531 121.604
C306.531 114.539 303.724 107.761 298.728 102.765
C293.732 97.7692 286.955 94.9621 279.889 94.9621
C272.824 94.9621 266.047 97.7692 261.05 102.765
C256.054 107.761 253.247 114.539 253.247 121.604
C253.247 128.67 256.054 135.447 261.05 140.443
C266.047 145.439 272.824 148.246 279.889 148.246
z
" style="fill:#cccccc;stroke:#cccccc;"/>
   </g>
   <g id="patch_25">
    <path clip-path="url(#pb28ff077df)" d="
M360.599 144.328
C367.249 144.328 373.627 141.686 378.33 136.984
C383.032 132.282 385.674 125.903 385.674 119.253
C385.674 112.603 383.032 106.225 378.33 101.523
C373.627 96.8205 367.249 94.1785 360.599 94.1785
C353.949 94.1785 347.571 96.8205 342.868 101.523
C338.166 106.225 335.524 112.603 335.524 119.253
C335.524 125.903 338.166 132.282 342.868 136.984
C347.571 141.686 353.949 144.328 360.599 144.328
z
" style="fill:#ffffff;stroke:#ffffff;"/>
   </g>
   <g id="patch_26">
    <path clip-path="url(#pb28ff077df)" d="
M358.248 148.246
C365.314 148.246 372.091 145.439 377.087 140.443
C382.083 135.447 384.89 128.67 384.89 121.604
C384.89 114.539 382.083 107.761 377.087 102.765
C372.091 97.7692 365.314 94.9621 358.248 94.9621
C351.183 94.9621 344.406 97.7692 339.409 102.765
C334.413 107.761 331.606 114.539 331.606 121.604
C331.606 128.67 334.413 135.447 339.409 140.443
C344.406 145.439 351.183 148.246 358.248 148.246
z
" style="fill:#cccccc;stroke:#cccccc;"/>
   </g>
   <g id="patch_27">
    <path clip-path="url(#pb28ff077df)" d="
M47.1631 70.279
C54.956 70.279 62.4307 67.1828 67.9411 61.6724
C73.4515 56.162 76.5477 48.6873 76.5477 40.8944
C76.5477 33.1015 73.4515 25.6267 67.9411 20.1163
C62.4307 14.6059 54.956 11.5097 47.1631 11.5097
C39.3702 11.5097 31.8954 14.6059 26.385 20.1163
C20.8746 25.6267 17.7785 33.1015 17.7785 40.8944
C17.7785 48.6873 20.8746 56.162 26.385 61.6724
C31.8954 67.1828 39.3702 70.279 47.1631 70.279
z
" style="fill:#cccccc;stroke:#cccccc;"/>
   </g>
   <g id="patch_28">
    <path clip-path="url(#pb28ff077df)" d="
M125.522 70.279
C133.315 70.279 140.79 67.1828 146.3 61.6724
C151.811 56.162 154.907 48.6873 154.907 40.8944
C154.907 33.1015 151.811 25.6267 146.3 20.1163
C140.79 14.6059 133.315 11.5097 125.522 11.5097
C117.729 11.5097 110.254 14.6059 104.744 20.1163
C99.2336 25.6267 96.1374 33.1015 96.1374 40.8944
C96.1374 48.6873 99.2336 56.162 104.744 61.6724
C110.254 67.1828 117.729 70.279 125.522 70.279
z
" style="fill:#cccccc;stroke:#cccccc;"/>
   </g>
   <g id="patch_29">
    <path clip-path="url(#pb28ff077df)" d="
M203.881 70.279
C211.674 70.279 219.149 67.1828 224.659 61.6724
C230.169 56.162 233.266 48.6873 233.266 40.8944
C233.266 33.1015 230.169 25.6267 224.659 20.1163
C219.149 14.6059 211.674 11.5097 203.881 11.5097
C196.088 11.5097 188.613 14.6059 183.103 20.1163
C177.593 25.6267 174.496 33.1015 174.496 40.8944
C174.496 48.6873 177.593 56.162 183.103 61.6724
C188.613 67.1828 196.088 70.279 203.881 70.279
z
" style="fill:#cccccc;stroke:#cccccc;"/>
   </g>
   <g id="patch_30">
    <path clip-path="url(#pb28ff077df)" d="
M282.24 70.279
C290.033 70.279 297.508 67.1828 303.018 61.6724
C308.528 56.162 311.625 48.6873 311.625 40.8944
C311.625 33.1015 308.528 25.6267 303.018 20.1163
C297.508 14.6059 290.033 11.5097 282.24 11.5097
C274.447 11.5097 266.972 14.6059 261.462 20.1163
C255.952 25.6267 252.855 33.1015 252.855 40.8944
C252.855 48.6873 255.952 56.162 261.462 61.6724
C266.972 67.1828 274.447 70.279 282.24 70.279
z
" style="fill:#cccccc;stroke:#cccccc;"/>
   </g>
   <g id="patch_31">
    <path clip-path="url(#pb28ff077df)" d="
M360.599 70.279
C368.392 70.279 375.867 67.1828 381.377 61.6724
C386.887 56.162 389.984 48.6873 389.984 40.8944
C389.984 33.1015 386.887 25.6267 381.377 20.1163
C375.867 14.6059 368.392 11.5097 360.599 11.5097
C352.806 11.5097 345.331 14.6059 339.821 20.1163
C334.311 25.6267 331.214 33.1015 331.214 40.8944
C331.214 48.6873 334.311 56.162 339.821 61.6724
C345.331 67.1828 352.806 70.279 360.599 70.279
z
" style="fill:#cccccc;stroke:#cccccc;"/>
   </g>
   <g id="patch_32">
    <path clip-path="url(#pb28ff077df)" d="
M438.958 70.279
C446.751 70.279 454.226 67.1828 459.736 61.6724
C465.246 56.162 468.343 48.6873 468.343 40.8944
C468.343 33.1015 465.246 25.6267 459.736 20.1163
C454.226 14.6059 446.751 11.5097 438.958 11.5097
C431.165 11.5097 423.69 14.6059 418.18 20.1163
C412.669 25.6267 409.573 33.1015 409.573 40.8944
C409.573 48.6873 412.669 56.162 418.18 61.6724
C423.69 67.1828 431.165 70.279 438.958 70.279
z
" style="fill:#cccccc;stroke:#cccccc;"/>
   </g>
   <g id="patch_33">
    <path clip-path="url(#pb28ff077df)" d="
M517.317 70.279
C525.11 70.279 532.585 67.1828 538.095 61.6724
C543.605 56.162 546.702 48.6873 546.702 40.8944
C546.702 33.1015 543.605 25.6267 538.095 20.1163
C532.585 14.6059 525.11 11.5097 517.317 11.5097
C509.524 11.5097 502.049 14.6059 496.539 20.1163
C491.028 25.6267 487.932 33.1015 487.932 40.8944
C487.932 48.6873 491.028 56.162 496.539 61.6724
C502.049 67.1828 509.524 70.279 517.317 70.279
z
" style="fill:#cccccc;stroke:#cccccc;"/>
   </g>
   <g id="patch_34">
    <path clip-path="url(#pb28ff077df)" d="
M47.1631 65.9692
C53.813 65.9692 60.1915 63.3272 64.8937 58.625
C69.5959 53.9228 72.2379 47.5443 72.2379 40.8944
C72.2379 34.2444 69.5959 27.866 64.8937 23.1637
C60.1915 18.4615 53.813 15.8195 47.1631 15.8195
C40.5131 15.8195 34.1347 18.4615 29.4325 23.1637
C24.7303 27.866 22.0882 34.2444 22.0882 40.8944
C22.0882 47.5443 24.7303 53.9228 29.4325 58.625
C34.1347 63.3272 40.5131 65.9692 47.1631 65.9692
z
" style="fill:#ffffff;stroke:#ffffff;"/>
   </g>
   <g id="patch_35">
    <path clip-path="url(#pb28ff077df)" d="
M44.8123 69.8872
C51.8779 69.8872 58.655 67.08 63.6511 62.0839
C68.6472 57.0878 71.4544 50.3107 71.4544 43.2451
C71.4544 36.1796 68.6472 29.4025 63.6511 24.4064
C58.655 19.4103 51.8779 16.6031 44.8123 16.6031
C37.7468 16.6031 30.9696 19.4103 25.9735 24.4064
C20.9774 29.4025 18.1703 36.1796 18.1703 43.2451
C18.1703 50.3107 20.9774 57.0878 25.9735 62.0839
C30.9696 67.08 37.7468 69.8872 44.8123 69.8872
z
" style="fill:#cccccc;stroke:#cccccc;"/>
   </g>
   <g id="patch_36">
    <path clip-path="url(#pb28ff077df)" d="
M125.522 65.9692
C132.172 65.9692 138.55 63.3272 143.253 58.625
C147.955 53.9228 150.597 47.5443 150.597 40.8944
C150.597 34.2444 147.955 27.866 143.253 23.1637
C138.55 18.4615 132.172 15.8195 125.522 15.8195
C118.872 15.8195 112.494 18.4615 107.791 23.1637
C103.089 27.866 100.447 34.2444 100.447 40.8944
C100.447 47.5443 103.089 53.9228 107.791 58.625
C112.494 63.3272 118.872 65.9692 125.522 65.9692
z
" style="fill:#ffffff;stroke:#ffffff;"/>
   </g>
   <g id="patch_37">
    <path clip-path="url(#pb28ff077df)" d="
M123.171 69.8872
C130.237 69.8872 137.014 67.08 142.01 62.0839
C147.006 57.0878 149.813 50.3107 149.813 43.2451
C149.813 36.1796 147.006 29.4025 142.01 24.4064
C137.014 19.4103 130.237 16.6031 123.171 16.6031
C116.106 16.6031 109.329 19.4103 104.333 24.4064
C99.3364 29.4025 96.5292 36.1796 96.5292 43.2451
C96.5292 50.3107 99.3364 57.0878 104.333 62.0839
C109.329 67.08 116.106 69.8872 123.171 69.8872
z
" style="fill:#cccccc;stroke:#cccccc;"/>
   </g>
   <g id="patch_38">
    <path clip-path="url(#pb28ff077df)" d="
M203.881 65.9692
C210.531 65.9692 216.909 63.3272 221.612 58.625
C226.314 53.9228 228.956 47.5443 228.956 40.8944
C228.956 34.2444 226.314 27.866 221.612 23.1637
C216.909 18.4615 210.531 15.8195 203.881 15.8195
C197.231 15.8195 190.853 18.4615 186.15 23.1637
C181.448 27.866 178.806 34.2444 178.806 40.8944
C178.806 47.5443 181.448 53.9228 186.15 58.625
C190.853 63.3272 197.231 65.9692 203.881 65.9692
z
" style="fill:#ffffff;stroke:#ffffff;"/>
   </g>
   <g id="patch_39">
    <path clip-path="url(#pb28ff077df)" d="
M201.53 69.8872
C208.596 69.8872 215.373 67.08 220.369 62.0839
C225.365 57.0878 228.172 50.3107 228.172 43.2451
C228.172 36.1796 225.365 29.4025 220.369 24.4064
C215.373 19.4103 208.596 16.6031 201.53 16.6031
C194.465 16.6031 187.688 19.4103 182.691 24.4064
C177.695 29.4025 174.888 36.1796 174.888 43.2451
C174.888 50.3107 177.695 57.0878 182.691 62.0839
C187.688 67.08 194.465 69.8872 201.53 69.8872
z
" style="fill:#cccccc;stroke:#cccccc;"/>
   </g>
   <g id="patch_40">
    <path clip-path="url(#pb28ff077df)" d="
M282.24 65.9692
C288.89 65.9692 295.268 63.3272 299.971 58.625
C304.673 53.9228 307.315 47.5443 307.315 40.8944
C307.315 34.2444 304.673 27.866 299.971 23.1637
C295.268 18.4615 288.89 15.8195 282.24 15.8195
C275.59 15.8195 269.212 18.4615 264.509 23.1637
C259.807 27.866 257.165 34.2444 257.165 40.8944
C257.165 47.5443 259.807 53.9228 264.509 58.625
C269.212 63.3272 275.59 65.9692 282.24 65.9692
z
" style="fill:#ffffff;stroke:#ffffff;"/>
   </g>
   <g id="patch_41">
    <path clip-path="url(#pb28ff077df)" d="
M279.889 69.8872
C286.955 69.8872 293.732 67.08 298.728 62.0839
C303.724 57.0878 306.531 50.3107 306.531 43.2451
C306.531 36.1796 303.724 29.4025 298.728 24.4064
C293.732 19.4103 286.955 16.6031 279.889 16.6031
C272.824 16.6031 266.047 19.4103 261.05 24.4064
C256.054 29.4025 253.247 36.1796 253.247 43.2451
C253.247 50.3107 256.054 57.0878 261.05 62.0839
C266.047 67.08 272.824 69.8872 279.889 69.8872
z
" style="fill:#cccccc;stroke:#cccccc;"/>
   </g>
   <g id="patch_42">
    <path clip-path="url(#pb28ff077df)" d="
M360.599 65.9692
C367.249 65.9692 373.627 63.3272 378.33 58.625
C383.032 53.9228 385.674 47.5443 385.674 40.8944
C385.674 34.2444 383.032 27.866 378.33 23.1637
C373.627 18.4615 367.249 15.8195 360.599 15.8195
C353.949 15.8195 347.571 18.4615 342.868 23.1637
C338.166 27.866 335.524 34.2444 335.524 40.8944
C335.524 47.5443 338.166 53.9228 342.868 58.625
C347.571 63.3272 353.949 65.9692 360.599 65.9692
z
" style="fill:#ffffff;stroke:#ffffff;"/>
   </g>
   <g id="patch_43">
    <path clip-path="url(#pb28ff077df)" d="
M358.248 69.8872
C365.314 69.8872 372.091 67.08 377.087 62.0839
C382.083 57.0878 384.89 50.3107 384.89 43.2451
C384.89 36.1796 382.083 29.4025 377.087 24.4064
C372.091 19.4103 365.314 16.6031 358.248 16.6031
C351.183 16.6031 344.406 19.4103 339.409 24.4064
C334.413 29.4025 331.606 36.1796 331.606 43.2451
C331.606 50.3107 334.413 57.0878 339.409 62.0839
C344.406 67.08 351.183 69.8872 358.248 69.8872
z
" style="fill:#cccccc;stroke:#cccccc;"/>
   </g>
   <g id="patch_44">
    <path clip-path="url(#pb28ff077df)" d="
M438.958 65.9692
C445.608 65.9692 451.986 63.3272 456.689 58.625
C461.391 53.9228 464.033 47.5443 464.033 40.8944
C464.033 34.2444 461.391 27.866 456.689 23.1637
C451.986 18.4615 445.608 15.8195 438.958 15.8195
C432.308 15.8195 425.93 18.4615 421.227 23.1637
C416.525 27.866 413.883 34.2444 413.883 40.8944
C413.883 47.5443 416.525 53.9228 421.227 58.625
C425.93 63.3272 432.308 65.9692 438.958 65.9692
z
" style="fill:#ffffff;stroke:#ffffff;"/>
   </g>
   <g id="patch_45">
    <path clip-path="url(#pb28ff077df)" d="
M436.607 69.8872
C443.673 69.8872 450.45 67.08 455.446 62.0839
C460.442 57.0878 463.249 50.3107 463.249 43.2451
C463.249 36.1796 460.442 29.4025 455.446 24.4064
C450.45 19.4103 443.673 16.6031 436.607 16.6031
C429.542 16.6031 422.765 19.4103 417.768 24.4064
C412.772 29.4025 409.965 36.1796 409.965 43.2451
C409.965 50.3107 412.772 57.0878 417.768 62.0839
C422.765 67.08 429.542 69.8872 436.607 69.8872
z
" style="fill:#cccccc;stroke:#cccccc;"/>
   </g>
   <g id="patch_46">
    <path clip-path="url(#pb28ff077df)" d="
M517.317 65.9692
C523.967 65.9692 530.345 63.3272 535.048 58.625
C539.75 53.9228 542.392 47.5443 542.392 40.8944
C542.392 34.2444 539.75 27.866 535.048 23.1637
C530.345 18.4615 523.967 15.8195 517.317 15.8195
C510.667 15.8195 504.289 18.4615 499.586 23.1637
C494.884 27.866 492.242 34.2444 492.242 40.8944
C492.242 47.5443 494.884 53.9228 499.586 58.625
C504.289 63.3272 510.667 65.9692 517.317 65.9692
z
" style="fill:#ffffff;stroke:#ffffff;"/>
   </g>
   <g id="patch_47">
    <path clip-path="url(#pb28ff077df)" d="
M514.966 69.8872
C522.032 69.8872 528.809 67.08 533.805 62.0839
C538.801 57.0878 541.608 50.3107 541.608 43.2451
C541.608 36.1796 538.801 29.4025 533.805 24.4064
C528.809 19.4103 522.032 16.6031 514.966 16.6031
C507.901 16.6031 501.123 19.4103 496.127 24.4064
C491.131 29.4025 488.324 36.1796 488.324 43.2451
C488.324 50.3107 491.131 57.0878 496.127 62.0839
C501.123 67.08 507.901 69.8872 514.966 69.8872
z
" style="fill:#cccccc;stroke:#cccccc;"/>
   </g>
  </g>
 </g>
 <defs>
  <clipPath id="pb28ff077df">
   <rect height="224.106666667" width="550.08" x="7.2" y="7.2"/>
  </clipPath>
 </defs>
</svg>
