<?xml version="1.0" encoding="utf-8" standalone="no"?>
<!DOCTYPE svg PUBLIC "-//W3C//DTD SVG 1.1//EN"
  "http://www.w3.org/Graphics/SVG/1.1/DTD/svg11.dtd">
<!-- Created with matplotlib (http://matplotlib.org/) -->
<svg height="420pt" version="1.1" viewBox="0 0 420 420" width="420pt" xmlns="http://www.w3.org/2000/svg" xmlns:xlink="http://www.w3.org/1999/xlink">
 <defs>
  <style type="text/css">
*{stroke-linecap:butt;stroke-linejoin:round;}
  </style>
 </defs>
 <g id="figure_1">
  <g id="patch_1">
   <path d="
M0 420.48
L420.48 420.48
L420.48 0
L0 0
z
" style="fill:#ffffff;"/>
  </g>
  <g id="axes_1">
   <g id="patch_2">
    <path d="
M7.2 413.28
L413.28 413.28
L413.28 7.2
L7.2 7.2
z
" style="fill:#ffffff;"/>
   </g>
   <g id="matplotlib.axis_1"/>
   <g id="matplotlib.axis_2"/>
   <g id="patch_3">
    <path clip-path="url(#p85c0e9ffdb)" d="
M68.254 405.471
C82.3747 405.471 95.9189 399.861 105.904 389.876
C115.889 379.891 121.499 366.347 121.499 352.226
C121.499 338.105 115.889 324.561 105.904 314.576
C95.9189 304.591 82.3747 298.981 68.254 298.981
C54.1333 298.981 40.5891 304.591 30.6043 314.576
C20.6194 324.561 15.0092 338.105 15.0092 352.226
C15.0092 366.347 20.6194 379.891 30.6043 389.876
C40.5891 399.861 54.1333 405.471 68.254 405.471
z
" style="fill:#cccccc;stroke:#cccccc;"/>
   </g>
   <g id="patch_4">
    <path clip-path="url(#p85c0e9ffdb)" d="
M210.24 405.471
C224.361 405.471 237.905 399.861 247.89 389.876
C257.875 379.891 263.485 366.347 263.485 352.226
C263.485 338.105 257.875 324.561 247.89 314.576
C237.905 304.591 224.361 298.981 210.24 298.981
C196.119 298.981 182.575 304.591 172.59 314.576
C162.605 324.561 156.995 338.105 156.995 352.226
C156.995 366.347 162.605 379.891 172.59 389.876
C182.575 399.861 196.119 405.471 210.24 405.471
z
" style="fill:#cccccc;stroke:#cccccc;"/>
   </g>
   <g id="patch_5">
    <path clip-path="url(#p85c0e9ffdb)" d="
M352.226 405.471
C366.347 405.471 379.891 399.861 389.876 389.876
C399.861 379.891 405.471 366.347 405.471 352.226
C405.471 338.105 399.861 324.561 389.876 314.576
C379.891 304.591 366.347 298.981 352.226 298.981
C338.105 298.981 324.561 304.591 314.576 314.576
C304.591 324.561 298.981 338.105 298.981 352.226
C298.981 366.347 304.591 379.891 314.576 389.876
C324.561 399.861 338.105 405.471 352.226 405.471
z
" style="fill:#cccccc;stroke:#cccccc;"/>
   </g>
   <g id="patch_6">
    <path clip-path="url(#p85c0e9ffdb)" d="
M68.254 397.662
C80.3036 397.662 91.8614 392.874 100.382 384.354
C108.902 375.833 113.69 364.276 113.69 352.226
C113.69 340.176 108.902 328.619 100.382 320.098
C91.8614 311.578 80.3036 306.79 68.254 306.79
C56.2043 306.79 44.6466 311.578 36.1262 320.098
C27.6058 328.619 22.8185 340.176 22.8185 352.226
C22.8185 364.276 27.6058 375.833 36.1262 384.354
C44.6466 392.874 56.2043 397.662 68.254 397.662
z
" style="fill:#ffffff;stroke:#ffffff;"/>
   </g>
   <g id="patch_7">
    <path clip-path="url(#p85c0e9ffdb)" d="
M63.9944 404.761
C76.7972 404.761 89.0773 399.674 98.1302 390.621
C107.183 381.568 112.27 369.288 112.27 356.486
C112.27 343.683 107.183 331.403 98.1302 322.35
C89.0773 313.297 76.7972 308.21 63.9944 308.21
C51.1917 308.21 38.9116 313.297 29.8587 322.35
C20.8057 331.403 15.7192 343.683 15.7192 356.486
C15.7192 369.288 20.8057 381.568 29.8587 390.621
C38.9116 399.674 51.1917 404.761 63.9944 404.761
z
" style="fill:#cccccc;stroke:#cccccc;"/>
   </g>
   <g id="patch_8">
    <path clip-path="url(#p85c0e9ffdb)" d="
M210.24 397.662
C222.29 397.662 233.847 392.874 242.368 384.354
C250.888 375.833 255.676 364.276 255.676 352.226
C255.676 340.176 250.888 328.619 242.368 320.098
C233.847 311.578 222.29 306.79 210.24 306.79
C198.19 306.79 186.633 311.578 178.112 320.098
C169.592 328.619 164.804 340.176 164.804 352.226
C164.804 364.276 169.592 375.833 178.112 384.354
C186.633 392.874 198.19 397.662 210.24 397.662
z
" style="fill:#ffffff;stroke:#ffffff;"/>
   </g>
   <g id="patch_9">
    <path clip-path="url(#p85c0e9ffdb)" d="
M205.98 404.761
C218.783 404.761 231.063 399.674 240.116 390.621
C249.169 381.568 254.256 369.288 254.256 356.486
C254.256 343.683 249.169 331.403 240.116 322.35
C231.063 313.297 218.783 308.21 205.98 308.21
C193.178 308.21 180.898 313.297 171.845 322.35
C162.792 331.403 157.705 343.683 157.705 356.486
C157.705 369.288 162.792 381.568 171.845 390.621
C180.898 399.674 193.178 404.761 205.98 404.761
z
" style="fill:#cccccc;stroke:#cccccc;"/>
   </g>
   <g id="patch_10">
    <path clip-path="url(#p85c0e9ffdb)" d="
M352.226 397.662
C364.276 397.662 375.833 392.874 384.354 384.354
C392.874 375.833 397.662 364.276 397.662 352.226
C397.662 340.176 392.874 328.619 384.354 320.098
C375.833 311.578 364.276 306.79 352.226 306.79
C340.176 306.79 328.619 311.578 320.098 320.098
C311.578 328.619 306.79 340.176 306.79 352.226
C306.79 364.276 311.578 375.833 320.098 384.354
C328.619 392.874 340.176 397.662 352.226 397.662
z
" style="fill:#ffffff;stroke:#ffffff;"/>
   </g>
   <g id="patch_11">
    <path clip-path="url(#p85c0e9ffdb)" d="
M347.966 404.761
C360.769 404.761 373.049 399.674 382.102 390.621
C391.155 381.568 396.242 369.288 396.242 356.486
C396.242 343.683 391.155 331.403 382.102 322.35
C373.049 313.297 360.769 308.21 347.966 308.21
C335.164 308.21 322.884 313.297 313.831 322.35
C304.778 331.403 299.691 343.683 299.691 356.486
C299.691 369.288 304.778 381.568 313.831 390.621
C322.884 399.674 335.164 404.761 347.966 404.761
z
" style="fill:#cccccc;stroke:#cccccc;"/>
   </g>
   <g id="patch_12">
    <path clip-path="url(#p85c0e9ffdb)" d="
M68.254 121.499
C82.3747 121.499 95.9189 115.889 105.904 105.904
C115.889 95.9189 121.499 82.3747 121.499 68.254
C121.499 54.1333 115.889 40.5891 105.904 30.6043
C95.9189 20.6194 82.3747 15.0092 68.254 15.0092
C54.1333 15.0092 40.5891 20.6194 30.6043 30.6043
C20.6194 40.5891 15.0092 54.1333 15.0092 68.254
C15.0092 82.3747 20.6194 95.9189 30.6043 105.904
C40.5891 115.889 54.1333 121.499 68.254 121.499
z
" style="fill:#cccccc;stroke:#cccccc;"/>
   </g>
   <g id="patch_13">
    <path clip-path="url(#p85c0e9ffdb)" d="
M210.24 121.499
C224.361 121.499 237.905 115.889 247.89 105.904
C257.875 95.9189 263.485 82.3747 263.485 68.254
C263.485 54.1333 257.875 40.5891 247.89 30.6043
C237.905 20.6194 224.361 15.0092 210.24 15.0092
C196.119 15.0092 182.575 20.6194 172.59 30.6043
C162.605 40.5891 156.995 54.1333 156.995 68.254
C156.995 82.3747 162.605 95.9189 172.59 105.904
C182.575 115.889 196.119 121.499 210.24 121.499
z
" style="fill:#cccccc;stroke:#cccccc;"/>
   </g>
   <g id="patch_14">
    <path clip-path="url(#p85c0e9ffdb)" d="
M352.226 121.499
C366.347 121.499 379.891 115.889 389.876 105.904
C399.861 95.9189 405.471 82.3747 405.471 68.254
C405.471 54.1333 399.861 40.5891 389.876 30.6043
C379.891 20.6194 366.347 15.0092 352.226 15.0092
C338.105 15.0092 324.561 20.6194 314.576 30.6043
C304.591 40.5891 298.981 54.1333 298.981 68.254
C298.981 82.3747 304.591 95.9189 314.576 105.904
C324.561 115.889 338.105 121.499 352.226 121.499
z
" style="fill:#cccccc;stroke:#cccccc;"/>
   </g>
   <g id="patch_15">
    <path clip-path="url(#p85c0e9ffdb)" d="
M68.254 113.69
C80.3036 113.69 91.8614 108.902 100.382 100.382
C108.902 91.8614 113.69 80.3036 113.69 68.254
C113.69 56.2043 108.902 44.6466 100.382 36.1262
C91.8614 27.6058 80.3036 22.8185 68.254 22.8185
C56.2043 22.8185 44.6466 27.6058 36.1262 36.1262
C27.6058 44.6466 22.8185 56.2043 22.8185 68.254
C22.8185 80.3036 27.6058 91.8614 36.1262 100.382
C44.6466 108.902 56.2043 113.69 68.254 113.69
z
" style="fill:#ffffff;stroke:#ffffff;"/>
   </g>
   <g id="patch_16">
    <path clip-path="url(#p85c0e9ffdb)" d="
M63.9944 120.789
C76.7972 120.789 89.0773 115.702 98.1302 106.649
C107.183 97.5964 112.27 85.3163 112.27 72.5136
C112.27 59.7108 107.183 47.4307 98.1302 38.3778
C89.0773 29.3249 76.7972 24.2383 63.9944 24.2383
C51.1917 24.2383 38.9116 29.3249 29.8587 38.3778
C20.8057 47.4307 15.7192 59.7108 15.7192 72.5136
C15.7192 85.3163 20.8057 97.5964 29.8587 106.649
C38.9116 115.702 51.1917 120.789 63.9944 120.789
z
" style="fill:#cccccc;stroke:#cccccc;"/>
   </g>
   <g id="patch_17">
    <path clip-path="url(#p85c0e9ffdb)" d="
M210.24 113.69
C222.29 113.69 233.847 108.902 242.368 100.382
C250.888 91.8614 255.676 80.3036 255.676 68.254
C255.676 56.2043 250.888 44.6466 242.368 36.1262
C233.847 27.6058 222.29 22.8185 210.24 22.8185
C198.19 22.8185 186.633 27.6058 178.112 36.1262
C169.592 44.6466 164.804 56.2043 164.804 68.254
C164.804 80.3036 169.592 91.8614 178.112 100.382
C186.633 108.902 198.19 113.69 210.24 113.69
z
" style="fill:#ffffff;stroke:#ffffff;"/>
   </g>
   <g id="patch_18">
    <path clip-path="url(#p85c0e9ffdb)" d="
M205.98 120.789
C218.783 120.789 231.063 115.702 240.116 106.649
C249.169 97.5964 254.256 85.3163 254.256 72.5136
C254.256 59.7108 249.169 47.4307 240.116 38.3778
C231.063 29.3249 218.783 24.2383 205.98 24.2383
C193.178 24.2383 180.898 29.3249 171.845 38.3778
C162.792 47.4307 157.705 59.7108 157.705 72.5136
C157.705 85.3163 162.792 97.5964 171.845 106.649
C180.898 115.702 193.178 120.789 205.98 120.789
z
" style="fill:#cccccc;stroke:#cccccc;"/>
   </g>
   <g id="patch_19">
    <path clip-path="url(#p85c0e9ffdb)" d="
M352.226 113.69
C364.276 113.69 375.833 108.902 384.354 100.382
C392.874 91.8614 397.662 80.3036 397.662 68.254
C397.662 56.2043 392.874 44.6466 384.354 36.1262
C375.833 27.6058 364.276 22.8185 352.226 22.8185
C340.176 22.8185 328.619 27.6058 320.098 36.1262
C311.578 44.6466 306.79 56.2043 306.79 68.254
C306.79 80.3036 311.578 91.8614 320.098 100.382
C328.619 108.902 340.176 113.69 352.226 113.69
z
" style="fill:#ffffff;stroke:#ffffff;"/>
   </g>
   <g id="patch_20">
    <path clip-path="url(#p85c0e9ffdb)" d="
M347.966 120.789
C360.769 120.789 373.049 115.702 382.102 106.649
C391.155 97.5964 396.242 85.3163 396.242 72.5136
C396.242 59.7108 391.155 47.4307 382.102 38.3778
C373.049 29.3249 360.769 24.2383 347.966 24.2383
C335.164 24.2383 322.884 29.3249 313.831 38.3778
C304.778 47.4307 299.691 59.7108 299.691 72.5136
C299.691 85.3163 304.778 97.5964 313.831 106.649
C322.884 115.702 335.164 120.789 347.966 120.789
z
" style="fill:#cccccc;stroke:#cccccc;"/>
   </g>
  </g>
 </g>
 <defs>
  <clipPath id="p85c0e9ffdb">
   <rect height="406.08" width="406.08" x="7.2" y="7.2"/>
  </clipPath>
 </defs>
</svg>
