<?xml version="1.0" encoding="utf-8" standalone="no"?>
<!DOCTYPE svg PUBLIC "-//W3C//DTD SVG 1.1//EN"
  "http://www.w3.org/Graphics/SVG/1.1/DTD/svg11.dtd">
<!-- Created with matplotlib (http://matplotlib.org/) -->
<svg height="332pt" version="1.1" viewBox="0 0 564 332" width="564pt" xmlns="http://www.w3.org/2000/svg" xmlns:xlink="http://www.w3.org/1999/xlink">
 <defs>
  <style type="text/css">
*{stroke-linecap:butt;stroke-linejoin:round;}
  </style>
 </defs>
 <g id="figure_1">
  <g id="patch_1">
   <path d="
M0 332.867
L564.48 332.867
L564.48 0
L0 0
z
" style="fill:#ffffff;"/>
  </g>
  <g id="axes_1">
   <g id="patch_2">
    <path d="
M7.2 325.667
L557.28 325.667
L557.28 7.2
L7.2 7.2
z
" style="fill:#ffffff;"/>
   </g>
   <g id="matplotlib.axis_1"/>
   <g id="matplotlib.axis_2"/>
   <g id="patch_3">
    <path clip-path="url(#paf60ccb7b9)" d="
M59.5355 319.543
C70.6097 319.543 81.2317 315.143 89.0623 307.313
C96.8928 299.482 101.293 288.86 101.293 277.786
C101.293 266.712 96.8928 256.09 89.0623 248.259
C81.2317 240.429 70.6097 236.029 59.5355 236.029
C48.4614 236.029 37.8394 240.429 30.0088 248.259
C22.1783 256.09 17.7785 266.712 17.7785 277.786
C17.7785 288.86 22.1783 299.482 30.0088 307.313
C37.8394 315.143 48.4614 319.543 59.5355 319.543
z
" style="fill:#cccccc;stroke:#cccccc;"/>
   </g>
   <g id="patch_4">
    <path clip-path="url(#paf60ccb7b9)" d="
M170.888 319.543
C181.962 319.543 192.584 315.143 200.414 307.313
C208.245 299.482 212.645 288.86 212.645 277.786
C212.645 266.712 208.245 256.09 200.414 248.259
C192.584 240.429 181.962 236.029 170.888 236.029
C159.814 236.029 149.192 240.429 141.361 248.259
C133.53 256.09 129.131 266.712 129.131 277.786
C129.131 288.86 133.53 299.482 141.361 307.313
C149.192 315.143 159.814 319.543 170.888 319.543
z
" style="fill:#cccccc;stroke:#cccccc;"/>
   </g>
   <g id="patch_5">
    <path clip-path="url(#paf60ccb7b9)" d="
M282.24 319.543
C293.314 319.543 303.936 315.143 311.767 307.313
C319.597 299.482 323.997 288.86 323.997 277.786
C323.997 266.712 319.597 256.09 311.767 248.259
C303.936 240.429 293.314 236.029 282.24 236.029
C271.166 236.029 260.544 240.429 252.713 248.259
C244.883 256.09 240.483 266.712 240.483 277.786
C240.483 288.86 244.883 299.482 252.713 307.313
C260.544 315.143 271.166 319.543 282.24 319.543
z
" style="fill:#cccccc;stroke:#cccccc;"/>
   </g>
   <g id="patch_6">
    <path clip-path="url(#paf60ccb7b9)" d="
M59.5355 313.419
C68.9855 313.419 78.0496 309.664 84.7317 302.982
C91.4138 296.3 95.1683 287.236 95.1683 277.786
C95.1683 268.336 91.4138 259.272 84.7317 252.59
C78.0496 245.908 68.9855 242.153 59.5355 242.153
C50.0856 242.153 41.0215 245.908 34.3394 252.59
C27.6573 259.272 23.9028 268.336 23.9028 277.786
C23.9028 287.236 27.6573 296.3 34.3394 302.982
C41.0215 309.664 50.0856 313.419 59.5355 313.419
z
" style="fill:#ffffff;stroke:#ffffff;"/>
   </g>
   <g id="patch_7">
    <path clip-path="url(#paf60ccb7b9)" d="
M56.195 318.986
C66.2355 318.986 75.8661 314.997 82.9659 307.897
C90.0656 300.798 94.0547 291.167 94.0547 281.126
C94.0547 271.086 90.0656 261.455 82.9659 254.356
C75.8661 247.256 66.2355 243.267 56.195 243.267
C46.1545 243.267 36.5238 247.256 29.4241 254.356
C22.3244 261.455 18.3352 271.086 18.3352 281.126
C18.3352 291.167 22.3244 300.798 29.4241 307.897
C36.5238 314.997 46.1545 318.986 56.195 318.986
z
" style="fill:#cccccc;stroke:#cccccc;"/>
   </g>
   <g id="patch_8">
    <path clip-path="url(#paf60ccb7b9)" d="
M170.888 313.419
C180.338 313.419 189.402 309.664 196.084 302.982
C202.766 296.3 206.52 287.236 206.52 277.786
C206.52 268.336 202.766 259.272 196.084 252.59
C189.402 245.908 180.338 242.153 170.888 242.153
C161.438 242.153 152.374 245.908 145.692 252.59
C139.01 259.272 135.255 268.336 135.255 277.786
C135.255 287.236 139.01 296.3 145.692 302.982
C152.374 309.664 161.438 313.419 170.888 313.419
z
" style="fill:#ffffff;stroke:#ffffff;"/>
   </g>
   <g id="patch_9">
    <path clip-path="url(#paf60ccb7b9)" d="
M167.547 318.986
C177.588 318.986 187.218 314.997 194.318 307.897
C201.418 300.798 205.407 291.167 205.407 281.126
C205.407 271.086 201.418 261.455 194.318 254.356
C187.218 247.256 177.588 243.267 167.547 243.267
C157.507 243.267 147.876 247.256 140.776 254.356
C133.677 261.455 129.687 271.086 129.687 281.126
C129.687 291.167 133.677 300.798 140.776 307.897
C147.876 314.997 157.507 318.986 167.547 318.986
z
" style="fill:#cccccc;stroke:#cccccc;"/>
   </g>
   <g id="patch_10">
    <path clip-path="url(#paf60ccb7b9)" d="
M282.24 313.419
C291.69 313.419 300.754 309.664 307.436 302.982
C314.118 296.3 317.873 287.236 317.873 277.786
C317.873 268.336 314.118 259.272 307.436 252.59
C300.754 245.908 291.69 242.153 282.24 242.153
C272.79 242.153 263.726 245.908 257.044 252.59
C250.362 259.272 246.607 268.336 246.607 277.786
C246.607 287.236 250.362 296.3 257.044 302.982
C263.726 309.664 272.79 313.419 282.24 313.419
z
" style="fill:#ffffff;stroke:#ffffff;"/>
   </g>
   <g id="patch_11">
    <path clip-path="url(#paf60ccb7b9)" d="
M278.899 318.986
C288.94 318.986 298.571 314.997 305.67 307.897
C312.77 300.798 316.759 291.167 316.759 281.126
C316.759 271.086 312.77 261.455 305.67 254.356
C298.571 247.256 288.94 243.267 278.899 243.267
C268.859 243.267 259.228 247.256 252.129 254.356
C245.029 261.455 241.04 271.086 241.04 281.126
C241.04 291.167 245.029 300.798 252.129 307.897
C259.228 314.997 268.859 318.986 278.899 318.986
z
" style="fill:#cccccc;stroke:#cccccc;"/>
   </g>
   <g id="patch_12">
    <path clip-path="url(#paf60ccb7b9)" d="
M59.5355 208.191
C70.6097 208.191 81.2317 203.791 89.0623 195.96
C96.8928 188.13 101.293 177.508 101.293 166.434
C101.293 155.36 96.8928 144.738 89.0623 136.907
C81.2317 129.076 70.6097 124.677 59.5355 124.677
C48.4614 124.677 37.8394 129.076 30.0088 136.907
C22.1783 144.738 17.7785 155.36 17.7785 166.434
C17.7785 177.508 22.1783 188.13 30.0088 195.96
C37.8394 203.791 48.4614 208.191 59.5355 208.191
z
" style="fill:#cccccc;stroke:#cccccc;"/>
   </g>
   <g id="patch_13">
    <path clip-path="url(#paf60ccb7b9)" d="
M170.888 208.191
C181.962 208.191 192.584 203.791 200.414 195.96
C208.245 188.13 212.645 177.508 212.645 166.434
C212.645 155.36 208.245 144.738 200.414 136.907
C192.584 129.076 181.962 124.677 170.888 124.677
C159.814 124.677 149.192 129.076 141.361 136.907
C133.53 144.738 129.131 155.36 129.131 166.434
C129.131 177.508 133.53 188.13 141.361 195.96
C149.192 203.791 159.814 208.191 170.888 208.191
z
" style="fill:#cccccc;stroke:#cccccc;"/>
   </g>
   <g id="patch_14">
    <path clip-path="url(#paf60ccb7b9)" d="
M282.24 208.191
C293.314 208.191 303.936 203.791 311.767 195.96
C319.597 188.13 323.997 177.508 323.997 166.434
C323.997 155.36 319.597 144.738 311.767 136.907
C303.936 129.076 293.314 124.677 282.24 124.677
C271.166 124.677 260.544 129.076 252.713 136.907
C244.883 144.738 240.483 155.36 240.483 166.434
C240.483 177.508 244.883 188.13 252.713 195.96
C260.544 203.791 271.166 208.191 282.24 208.191
z
" style="fill:#cccccc;stroke:#cccccc;"/>
   </g>
   <g id="patch_15">
    <path clip-path="url(#paf60ccb7b9)" d="
M393.592 208.191
C404.666 208.191 415.288 203.791 423.119 195.96
C430.95 188.13 435.349 177.508 435.349 166.434
C435.349 155.36 430.95 144.738 423.119 136.907
C415.288 129.076 404.666 124.677 393.592 124.677
C382.518 124.677 371.896 129.076 364.066 136.907
C356.235 144.738 351.835 155.36 351.835 166.434
C351.835 177.508 356.235 188.13 364.066 195.96
C371.896 203.791 382.518 208.191 393.592 208.191
z
" style="fill:#cccccc;stroke:#cccccc;"/>
   </g>
   <g id="patch_16">
    <path clip-path="url(#paf60ccb7b9)" d="
M504.944 208.191
C516.019 208.191 526.641 203.791 534.471 195.96
C542.302 188.13 546.702 177.508 546.702 166.434
C546.702 155.36 542.302 144.738 534.471 136.907
C526.641 129.076 516.019 124.677 504.944 124.677
C493.87 124.677 483.248 129.076 475.418 136.907
C467.587 144.738 463.187 155.36 463.187 166.434
C463.187 177.508 467.587 188.13 475.418 195.96
C483.248 203.791 493.87 208.191 504.944 208.191
z
" style="fill:#cccccc;stroke:#cccccc;"/>
   </g>
   <g id="patch_17">
    <path clip-path="url(#paf60ccb7b9)" d="
M59.5355 202.066
C68.9855 202.066 78.0496 198.312 84.7317 191.63
C91.4138 184.948 95.1683 175.884 95.1683 166.434
C95.1683 156.984 91.4138 147.92 84.7317 141.238
C78.0496 134.555 68.9855 130.801 59.5355 130.801
C50.0856 130.801 41.0215 134.555 34.3394 141.238
C27.6573 147.92 23.9028 156.984 23.9028 166.434
C23.9028 175.884 27.6573 184.948 34.3394 191.63
C41.0215 198.312 50.0856 202.066 59.5355 202.066
z
" style="fill:#ffffff;stroke:#ffffff;"/>
   </g>
   <g id="patch_18">
    <path clip-path="url(#paf60ccb7b9)" d="
M56.195 207.634
C66.2355 207.634 75.8661 203.645 82.9659 196.545
C90.0656 189.445 94.0547 179.815 94.0547 169.774
C94.0547 159.734 90.0656 150.103 82.9659 143.003
C75.8661 135.904 66.2355 131.914 56.195 131.914
C46.1545 131.914 36.5238 135.904 29.4241 143.003
C22.3244 150.103 18.3352 159.734 18.3352 169.774
C18.3352 179.815 22.3244 189.445 29.4241 196.545
C36.5238 203.645 46.1545 207.634 56.195 207.634
z
" style="fill:#cccccc;stroke:#cccccc;"/>
   </g>
   <g id="patch_19">
    <path clip-path="url(#paf60ccb7b9)" d="
M170.888 202.066
C180.338 202.066 189.402 198.312 196.084 191.63
C202.766 184.948 206.52 175.884 206.52 166.434
C206.52 156.984 202.766 147.92 196.084 141.238
C189.402 134.555 180.338 130.801 170.888 130.801
C161.438 130.801 152.374 134.555 145.692 141.238
C139.01 147.92 135.255 156.984 135.255 166.434
C135.255 175.884 139.01 184.948 145.692 191.63
C152.374 198.312 161.438 202.066 170.888 202.066
z
" style="fill:#ffffff;stroke:#ffffff;"/>
   </g>
   <g id="patch_20">
    <path clip-path="url(#paf60ccb7b9)" d="
M167.547 207.634
C177.588 207.634 187.218 203.645 194.318 196.545
C201.418 189.445 205.407 179.815 205.407 169.774
C205.407 159.734 201.418 150.103 194.318 143.003
C187.218 135.904 177.588 131.914 167.547 131.914
C157.507 131.914 147.876 135.904 140.776 143.003
C133.677 150.103 129.687 159.734 129.687 169.774
C129.687 179.815 133.677 189.445 140.776 196.545
C147.876 203.645 157.507 207.634 167.547 207.634
z
" style="fill:#cccccc;stroke:#cccccc;"/>
   </g>
   <g id="patch_21">
    <path clip-path="url(#paf60ccb7b9)" d="
M282.24 202.066
C291.69 202.066 300.754 198.312 307.436 191.63
C314.118 184.948 317.873 175.884 317.873 166.434
C317.873 156.984 314.118 147.92 307.436 141.238
C300.754 134.555 291.69 130.801 282.24 130.801
C272.79 130.801 263.726 134.555 257.044 141.238
C250.362 147.92 246.607 156.984 246.607 166.434
C246.607 175.884 250.362 184.948 257.044 191.63
C263.726 198.312 272.79 202.066 282.24 202.066
z
" style="fill:#ffffff;stroke:#ffffff;"/>
   </g>
   <g id="patch_22">
    <path clip-path="url(#paf60ccb7b9)" d="
M278.899 207.634
C288.94 207.634 298.571 203.645 305.67 196.545
C312.77 189.445 316.759 179.815 316.759 169.774
C316.759 159.734 312.77 150.103 305.67 143.003
C298.571 135.904 288.94 131.914 278.899 131.914
C268.859 131.914 259.228 135.904 252.129 143.003
C245.029 150.103 241.04 159.734 241.04 169.774
C241.04 179.815 245.029 189.445 252.129 196.545
C259.228 203.645 268.859 207.634 278.899 207.634
z
" style="fill:#cccccc;stroke:#cccccc;"/>
   </g>
   <g id="patch_23">
    <path clip-path="url(#paf60ccb7b9)" d="
M393.592 202.066
C403.042 202.066 412.106 198.312 418.788 191.63
C425.47 184.948 429.225 175.884 429.225 166.434
C429.225 156.984 425.47 147.92 418.788 141.238
C412.106 134.555 403.042 130.801 393.592 130.801
C384.142 130.801 375.078 134.555 368.396 141.238
C361.714 147.92 357.96 156.984 357.96 166.434
C357.96 175.884 361.714 184.948 368.396 191.63
C375.078 198.312 384.142 202.066 393.592 202.066
z
" style="fill:#ffffff;stroke:#ffffff;"/>
   </g>
   <g id="patch_24">
    <path clip-path="url(#paf60ccb7b9)" d="
M390.252 207.634
C400.292 207.634 409.923 203.645 417.023 196.545
C424.122 189.445 428.111 179.815 428.111 169.774
C428.111 159.734 424.122 150.103 417.023 143.003
C409.923 135.904 400.292 131.914 390.252 131.914
C380.211 131.914 370.58 135.904 363.481 143.003
C356.381 150.103 352.392 159.734 352.392 169.774
C352.392 179.815 356.381 189.445 363.481 196.545
C370.58 203.645 380.211 207.634 390.252 207.634
z
" style="fill:#cccccc;stroke:#cccccc;"/>
   </g>
   <g id="patch_25">
    <path clip-path="url(#paf60ccb7b9)" d="
M504.944 202.066
C514.394 202.066 523.458 198.312 530.141 191.63
C536.823 184.948 540.577 175.884 540.577 166.434
C540.577 156.984 536.823 147.92 530.141 141.238
C523.458 134.555 514.394 130.801 504.944 130.801
C495.495 130.801 486.43 134.555 479.748 141.238
C473.066 147.92 469.312 156.984 469.312 166.434
C469.312 175.884 473.066 184.948 479.748 191.63
C486.43 198.312 495.495 202.066 504.944 202.066
z
" style="fill:#ffffff;stroke:#ffffff;"/>
   </g>
   <g id="patch_26">
    <path clip-path="url(#paf60ccb7b9)" d="
M501.604 207.634
C511.644 207.634 521.275 203.645 528.375 196.545
C535.475 189.445 539.464 179.815 539.464 169.774
C539.464 159.734 535.475 150.103 528.375 143.003
C521.275 135.904 511.644 131.914 501.604 131.914
C491.563 131.914 481.933 135.904 474.833 143.003
C467.733 150.103 463.744 159.734 463.744 169.774
C463.744 179.815 467.733 189.445 474.833 196.545
C481.933 203.645 491.563 207.634 501.604 207.634
z
" style="fill:#cccccc;stroke:#cccccc;"/>
   </g>
   <g id="patch_27">
    <path clip-path="url(#paf60ccb7b9)" d="
M59.5355 96.8385
C70.6097 96.8385 81.2317 92.4388 89.0623 84.6082
C96.8928 76.7776 101.293 66.1556 101.293 55.0815
C101.293 44.0073 96.8928 33.3853 89.0623 25.5547
C81.2317 17.7242 70.6097 13.3244 59.5355 13.3244
C48.4614 13.3244 37.8394 17.7242 30.0088 25.5547
C22.1783 33.3853 17.7785 44.0073 17.7785 55.0815
C17.7785 66.1556 22.1783 76.7776 30.0088 84.6082
C37.8394 92.4388 48.4614 96.8385 59.5355 96.8385
z
" style="fill:#cccccc;stroke:#cccccc;"/>
   </g>
   <g id="patch_28">
    <path clip-path="url(#paf60ccb7b9)" d="
M170.888 96.8385
C181.962 96.8385 192.584 92.4388 200.414 84.6082
C208.245 76.7776 212.645 66.1556 212.645 55.0815
C212.645 44.0073 208.245 33.3853 200.414 25.5547
C192.584 17.7242 181.962 13.3244 170.888 13.3244
C159.814 13.3244 149.192 17.7242 141.361 25.5547
C133.53 33.3853 129.131 44.0073 129.131 55.0815
C129.131 66.1556 133.53 76.7776 141.361 84.6082
C149.192 92.4388 159.814 96.8385 170.888 96.8385
z
" style="fill:#cccccc;stroke:#cccccc;"/>
   </g>
   <g id="patch_29">
    <path clip-path="url(#paf60ccb7b9)" d="
M282.24 96.8385
C293.314 96.8385 303.936 92.4388 311.767 84.6082
C319.597 76.7776 323.997 66.1556 323.997 55.0815
C323.997 44.0073 319.597 33.3853 311.767 25.5547
C303.936 17.7242 293.314 13.3244 282.24 13.3244
C271.166 13.3244 260.544 17.7242 252.713 25.5547
C244.883 33.3853 240.483 44.0073 240.483 55.0815
C240.483 66.1556 244.883 76.7776 252.713 84.6082
C260.544 92.4388 271.166 96.8385 282.24 96.8385
z
" style="fill:#cccccc;stroke:#cccccc;"/>
   </g>
   <g id="patch_30">
    <path clip-path="url(#paf60ccb7b9)" d="
M59.5355 90.7142
C68.9855 90.7142 78.0496 86.9597 84.7317 80.2776
C91.4138 73.5955 95.1683 64.5314 95.1683 55.0815
C95.1683 45.6316 91.4138 36.5674 84.7317 29.8853
C78.0496 23.2032 68.9855 19.4487 59.5355 19.4487
C50.0856 19.4487 41.0215 23.2032 34.3394 29.8853
C27.6573 36.5674 23.9028 45.6316 23.9028 55.0815
C23.9028 64.5314 27.6573 73.5955 34.3394 80.2776
C41.0215 86.9597 50.0856 90.7142 59.5355 90.7142
z
" style="fill:#ffffff;stroke:#ffffff;"/>
   </g>
   <g id="patch_31">
    <path clip-path="url(#paf60ccb7b9)" d="
M56.195 96.2818
C66.2355 96.2818 75.8661 92.2926 82.9659 85.1929
C90.0656 78.0932 94.0547 68.4625 94.0547 58.422
C94.0547 48.3815 90.0656 38.7509 82.9659 31.6511
C75.8661 24.5514 66.2355 20.5623 56.195 20.5623
C46.1545 20.5623 36.5238 24.5514 29.4241 31.6511
C22.3244 38.7509 18.3352 48.3815 18.3352 58.422
C18.3352 68.4625 22.3244 78.0932 29.4241 85.1929
C36.5238 92.2926 46.1545 96.2818 56.195 96.2818
z
" style="fill:#cccccc;stroke:#cccccc;"/>
   </g>
   <g id="patch_32">
    <path clip-path="url(#paf60ccb7b9)" d="
M170.888 90.7142
C180.338 90.7142 189.402 86.9597 196.084 80.2776
C202.766 73.5955 206.52 64.5314 206.52 55.0815
C206.52 45.6316 202.766 36.5674 196.084 29.8853
C189.402 23.2032 180.338 19.4487 170.888 19.4487
C161.438 19.4487 152.374 23.2032 145.692 29.8853
C139.01 36.5674 135.255 45.6316 135.255 55.0815
C135.255 64.5314 139.01 73.5955 145.692 80.2776
C152.374 86.9597 161.438 90.7142 170.888 90.7142
z
" style="fill:#ffffff;stroke:#ffffff;"/>
   </g>
   <g id="patch_33">
    <path clip-path="url(#paf60ccb7b9)" d="
M167.547 96.2818
C177.588 96.2818 187.218 92.2926 194.318 85.1929
C201.418 78.0932 205.407 68.4625 205.407 58.422
C205.407 48.3815 201.418 38.7509 194.318 31.6511
C187.218 24.5514 177.588 20.5623 167.547 20.5623
C157.507 20.5623 147.876 24.5514 140.776 31.6511
C133.677 38.7509 129.687 48.3815 129.687 58.422
C129.687 68.4625 133.677 78.0932 140.776 85.1929
C147.876 92.2926 157.507 96.2818 167.547 96.2818
z
" style="fill:#cccccc;stroke:#cccccc;"/>
   </g>
   <g id="patch_34">
    <path clip-path="url(#paf60ccb7b9)" d="
M282.24 90.7142
C291.69 90.7142 300.754 86.9597 307.436 80.2776
C314.118 73.5955 317.873 64.5314 317.873 55.0815
C317.873 45.6316 314.118 36.5674 307.436 29.8853
C300.754 23.2032 291.69 19.4487 282.24 19.4487
C272.79 19.4487 263.726 23.2032 257.044 29.8853
C250.362 36.5674 246.607 45.6316 246.607 55.0815
C246.607 64.5314 250.362 73.5955 257.044 80.2776
C263.726 86.9597 272.79 90.7142 282.24 90.7142
z
" style="fill:#ffffff;stroke:#ffffff;"/>
   </g>
   <g id="patch_35">
    <path clip-path="url(#paf60ccb7b9)" d="
M278.899 96.2818
C288.94 96.2818 298.571 92.2926 305.67 85.1929
C312.77 78.0932 316.759 68.4625 316.759 58.422
C316.759 48.3815 312.77 38.7509 305.67 31.6511
C298.571 24.5514 288.94 20.5623 278.899 20.5623
C268.859 20.5623 259.228 24.5514 252.129 31.6511
C245.029 38.7509 241.04 48.3815 241.04 58.422
C241.04 68.4625 245.029 78.0932 252.129 85.1929
C259.228 92.2926 268.859 96.2818 278.899 96.2818
z
" style="fill:#cccccc;stroke:#cccccc;"/>
   </g>
  </g>
 </g>
 <defs>
  <clipPath id="paf60ccb7b9">
   <rect height="318.467368421" width="550.08" x="7.2" y="7.2"/>
  </clipPath>
 </defs>
</svg>
