<?xml version="1.0" encoding="utf-8" standalone="no"?>
<!DOCTYPE svg PUBLIC "-//W3C//DTD SVG 1.1//EN"
  "http://www.w3.org/Graphics/SVG/1.1/DTD/svg11.dtd">
<!-- Created with matplotlib (http://matplotlib.org/) -->
<svg height="420pt" version="1.1" viewBox="0 0 564 420" width="564pt" xmlns="http://www.w3.org/2000/svg" xmlns:xlink="http://www.w3.org/1999/xlink">
 <defs>
  <style type="text/css">
*{stroke-linecap:butt;stroke-linejoin:round;stroke-miterlimit:100000;}
  </style>
 </defs>
 <g id="figure_1">
  <g id="patch_1">
   <path d="M 0 420.48 
L 564.48 420.48 
L 564.48 0 
L 0 0 
z
" style="fill:#ffffff;"/>
  </g>
  <g id="axes_1">
   <g id="patch_2">
    <path d="M 7.2 413.28 
L 557.28 413.28 
L 557.28 7.2 
L 7.2 7.2 
z
" style="fill:#ffffff;"/>
   </g>
   <g id="patch_3">
    <path clip-path="url(#pd7e087ca70)" d="M 61.855385 161.432308 
Q 39.816923 161.432308 18.896496 161.432308 
" style="fill:none;stroke:#000000;stroke-linecap:round;"/>
    <path clip-path="url(#pd7e087ca70)" d="M 28.896496 166.432308 
L 18.896496 161.432308 
L 28.896496 156.432308 
L 28.896496 166.432308 
z
" style="stroke:#000000;stroke-linecap:round;"/>
   </g>
   <g id="patch_4">
    <path clip-path="url(#pd7e087ca70)" d="M 61.855385 161.432308 
Q 304.278462 161.432308 545.583504 161.432308 
" style="fill:none;stroke:#000000;stroke-linecap:round;"/>
    <path clip-path="url(#pd7e087ca70)" d="M 535.583504 156.432308 
L 545.583504 161.432308 
L 535.583504 166.432308 
L 535.583504 156.432308 
z
" style="stroke:#000000;stroke-linecap:round;"/>
   </g>
   <g id="patch_5">
    <path clip-path="url(#pd7e087ca70)" d="M 61.855385 161.432308 
Q 61.855385 88.220769 61.855385 16.127265 
" style="fill:none;stroke:#000000;stroke-linecap:round;"/>
    <path clip-path="url(#pd7e087ca70)" d="M 56.855385 26.127265 
L 61.855385 16.127265 
L 66.855385 26.127265 
L 56.855385 26.127265 
z
" style="stroke:#000000;stroke-linecap:round;"/>
   </g>
   <g id="patch_6">
    <path clip-path="url(#pd7e087ca70)" d="M 61.855385 161.432308 
Q 61.855385 283.451538 61.855385 404.352735 
" style="fill:none;stroke:#000000;stroke-linecap:round;"/>
    <path clip-path="url(#pd7e087ca70)" d="M 66.855385 394.352735 
L 61.855385 404.352735 
L 56.855385 394.352735 
L 66.855385 394.352735 
z
" style="stroke:#000000;stroke-linecap:round;"/>
   </g>
   <g id="patch_7">
    <path clip-path="url(#pd7e087ca70)" d="M 39.816923 100.062105 
Q 28.797692 98.54804 19.993716 97.338355 
" style="fill:none;stroke:#000000;stroke-linecap:round;stroke-width:2.0;"/>
    <path clip-path="url(#pd7e087ca70)" d="M 29.22002 103.653046 
L 19.993716 97.338355 
L 30.581251 93.746127 
L 29.22002 103.653046 
z
" style="stroke:#000000;stroke-linecap:round;stroke-width:2.0;"/>
   </g>
   <g id="patch_8">
    <path clip-path="url(#pd7e087ca70)" d="M 480.586154 293.665522 
Q 486.095769 309.563206 490.873163 323.348106 
" style="fill:none;stroke:#000000;stroke-linecap:round;stroke-width:2.0;"/>
    <path clip-path="url(#pd7e087ca70)" d="M 492.322897 312.262157 
L 490.873163 323.348106 
L 482.874244 315.53675 
L 492.322897 312.262157 
z
" style="stroke:#000000;stroke-linecap:round;stroke-width:2.0;"/>
   </g>
   <g id="line2d_1">
    <path clip-path="url(#pd7e087ca70)" d="M 39.816923 100.062105 
L 67.070637 103.92161 
L 92.126315 107.689167 
L 116.257098 111.541668 
L 138.569952 115.324363 
L 160.87611 119.345138 
L 181.947602 123.392095 
L 199.56445 126.985167 
L 218.328379 131.049541 
L 234.15123 134.691064 
L 249.205435 138.360684 
L 265.140447 142.49052 
L 278.323534 146.122295 
L 291.989831 150.119832 
L 303.610354 153.728559 
L 316.85927 158.109465 
L 327.423701 161.832759 
L 335.85552 164.969258 
L 344.840072 168.490896 
L 353.7782 172.199219 
L 362.711524 176.135075 
L 371.710245 180.36246 
L 380.290526 184.67313 
L 388.598095 189.145128 
L 393.343682 191.848314 
L 400.558924 196.191899 
L 407.303411 200.539238 
L 413.868494 205.077065 
L 418.47698 208.467696 
L 425.520168 214.026281 
L 432.088044 219.687742 
L 435.877997 223.199711 
L 441.562459 228.860006 
L 446.456816 234.172928 
L 451.213555 239.80009 
L 455.229235 244.971835 
L 459.933947 251.61989 
L 463.499548 257.166081 
L 466.920311 262.984132 
L 469.943742 268.610721 
L 472.86835 274.572371 
L 475.838937 281.260357 
L 478.543082 288.027814 
L 480.586154 293.665522 
L 480.586154 293.665522 
" style="fill:none;stroke:#000000;stroke-linecap:square;stroke-width:2.0;"/>
   </g>
   <g id="matplotlib.axis_1"/>
   <g id="matplotlib.axis_2"/>
   <g id="PathCollection_1">
    <path clip-path="url(#pd7e087ca70)" d="M 369.9671 184.264744 
C 371.225069 184.264744 372.431684 183.764947 373.321202 182.875429 
C 374.210721 181.985911 374.710517 180.779296 374.710517 179.521327 
C 374.710517 178.263358 374.210721 177.056744 373.321202 176.167225 
C 372.431684 175.277707 371.225069 174.777911 369.9671 174.777911 
C 368.709132 174.777911 367.502517 175.277707 366.612998 176.167225 
C 365.72348 177.056744 365.223684 178.263358 365.223684 179.521327 
C 365.223684 180.779296 365.72348 181.985911 366.612998 182.875429 
C 367.502517 183.764947 368.709132 184.264744 369.9671 184.264744 
z
" style="fill:#0000ff;"/>
   </g>
  </g>
 </g>
 <defs>
  <clipPath id="pd7e087ca70">
   <rect height="406.08" width="550.08" x="7.2" y="7.2"/>
  </clipPath>
 </defs>
</svg>
