<?xml version="1.0" encoding="utf-8" standalone="no"?>
<!DOCTYPE svg PUBLIC "-//W3C//DTD SVG 1.1//EN"
  "http://www.w3.org/Graphics/SVG/1.1/DTD/svg11.dtd">
<!-- Created with matplotlib (http://matplotlib.org/) -->
<svg height="420pt" version="1.1" viewBox="0 0 564 420" width="564pt" xmlns="http://www.w3.org/2000/svg" xmlns:xlink="http://www.w3.org/1999/xlink">
 <defs>
  <style type="text/css">
*{stroke-linecap:butt;stroke-linejoin:round;stroke-miterlimit:100000;}
  </style>
 </defs>
 <g id="figure_1">
  <g id="patch_1">
   <path d="M 0 420.48 
L 564.48 420.48 
L 564.48 0 
L 0 0 
z
" style="fill:#ffffff;"/>
  </g>
  <g id="axes_1">
   <g id="patch_2">
    <path d="M 7.2 413.28 
L 557.28 413.28 
L 557.28 7.2 
L 7.2 7.2 
z
" style="fill:#ffffff;"/>
   </g>
   <g id="patch_3">
    <path clip-path="url(#p6fbf39c9a8)" d="M 61.855385 161.432308 
Q 39.816923 161.432308 18.896496 161.432308 
" style="fill:none;stroke:#000000;stroke-linecap:round;"/>
    <path clip-path="url(#p6fbf39c9a8)" d="M 28.896496 166.432308 
L 18.896496 161.432308 
L 28.896496 156.432308 
L 28.896496 166.432308 
z
" style="stroke:#000000;stroke-linecap:round;"/>
   </g>
   <g id="patch_4">
    <path clip-path="url(#p6fbf39c9a8)" d="M 61.855385 161.432308 
Q 304.278462 161.432308 545.583504 161.432308 
" style="fill:none;stroke:#000000;stroke-linecap:round;"/>
    <path clip-path="url(#p6fbf39c9a8)" d="M 535.583504 156.432308 
L 545.583504 161.432308 
L 535.583504 166.432308 
L 535.583504 156.432308 
z
" style="stroke:#000000;stroke-linecap:round;"/>
   </g>
   <g id="patch_5">
    <path clip-path="url(#p6fbf39c9a8)" d="M 61.855385 161.432308 
Q 61.855385 88.220769 61.855385 16.127265 
" style="fill:none;stroke:#000000;stroke-linecap:round;"/>
    <path clip-path="url(#p6fbf39c9a8)" d="M 56.855385 26.127265 
L 61.855385 16.127265 
L 66.855385 26.127265 
L 56.855385 26.127265 
z
" style="stroke:#000000;stroke-linecap:round;"/>
   </g>
   <g id="patch_6">
    <path clip-path="url(#p6fbf39c9a8)" d="M 61.855385 161.432308 
Q 61.855385 283.451538 61.855385 404.352735 
" style="fill:none;stroke:#000000;stroke-linecap:round;"/>
    <path clip-path="url(#p6fbf39c9a8)" d="M 66.855385 394.352735 
L 61.855385 404.352735 
L 56.855385 394.352735 
L 66.855385 394.352735 
z
" style="stroke:#000000;stroke-linecap:round;"/>
   </g>
   <g id="patch_7">
    <path clip-path="url(#p6fbf39c9a8)" d="M 39.816923 100.062105 
Q 28.797692 98.54804 19.993716 97.338355 
" style="fill:none;stroke:#000000;stroke-linecap:round;stroke-width:2.0;"/>
    <path clip-path="url(#p6fbf39c9a8)" d="M 29.22002 103.653046 
L 19.993716 97.338355 
L 30.581251 93.746127 
L 29.22002 103.653046 
z
" style="stroke:#000000;stroke-linecap:round;stroke-width:2.0;"/>
   </g>
   <g id="patch_8">
    <path clip-path="url(#p6fbf39c9a8)" d="M 480.586154 293.665522 
Q 486.095769 309.563206 490.873163 323.348106 
" style="fill:none;stroke:#000000;stroke-linecap:round;stroke-width:2.0;"/>
    <path clip-path="url(#p6fbf39c9a8)" d="M 492.322897 312.262157 
L 490.873163 323.348106 
L 482.874244 315.53675 
L 492.322897 312.262157 
z
" style="stroke:#000000;stroke-linecap:round;stroke-width:2.0;"/>
   </g>
   <g id="line2d_1">
    <path clip-path="url(#p6fbf39c9a8)" d="M 39.816923 100.062105 
L 67.070637 103.92161 
L 92.126315 107.689167 
L 116.257098 111.541668 
L 138.569952 115.324363 
L 160.87611 119.345138 
L 181.947602 123.392095 
L 199.56445 126.985167 
L 218.328379 131.049541 
L 234.15123 134.691064 
L 249.205435 138.360684 
L 265.140447 142.49052 
L 278.323534 146.122295 
L 291.989831 150.119832 
L 303.610354 153.728559 
L 316.85927 158.109465 
L 327.423701 161.832759 
L 335.85552 164.969258 
L 344.840072 168.490896 
L 353.7782 172.199219 
L 362.711524 176.135075 
L 371.710245 180.36246 
L 380.290526 184.67313 
L 388.598095 189.145128 
L 393.343682 191.848314 
L 400.558924 196.191899 
L 407.303411 200.539238 
L 413.868494 205.077065 
L 418.47698 208.467696 
L 425.520168 214.026281 
L 432.088044 219.687742 
L 435.877997 223.199711 
L 441.562459 228.860006 
L 446.456816 234.172928 
L 451.213555 239.80009 
L 455.229235 244.971835 
L 459.933947 251.61989 
L 463.499548 257.166081 
L 466.920311 262.984132 
L 469.943742 268.610721 
L 472.86835 274.572371 
L 475.838937 281.260357 
L 478.543082 288.027814 
L 480.586154 293.665522 
L 480.586154 293.665522 
" style="fill:none;stroke:#000000;stroke-linecap:square;stroke-width:2.0;"/>
   </g>
   <g id="line2d_2">
    <path clip-path="url(#p6fbf39c9a8)" d="M 332.231345 163.602125 
L 326.417254 161.432308 
" style="fill:none;stroke:#0000ff;stroke-linecap:square;stroke-width:2.0;"/>
   </g>
   <g id="line2d_3">
    <path clip-path="url(#p6fbf39c9a8)" d="M 326.417254 161.432308 
L 326.417254 161.468505 
" style="fill:none;stroke:#ff0000;stroke-dasharray:6.000000,6.000000;stroke-dashoffset:0.0;"/>
   </g>
   <g id="matplotlib.axis_1"/>
   <g id="matplotlib.axis_2"/>
   <g id="PathCollection_1">
    <path clip-path="url(#p6fbf39c9a8)" d="M 332.231345 168.345542 
C 333.489314 168.345542 334.695929 167.845746 335.585447 166.956227 
C 336.474965 166.066709 336.974762 164.860094 336.974762 163.602125 
C 336.974762 162.344157 336.474965 161.137542 335.585447 160.248023 
C 334.695929 159.358505 333.489314 158.858709 332.231345 158.858709 
C 330.973376 158.858709 329.766761 159.358505 328.877243 160.248023 
C 327.987725 161.137542 327.487929 162.344157 327.487929 163.602125 
C 327.487929 164.860094 327.987725 166.066709 328.877243 166.956227 
C 329.766761 167.845746 330.973376 168.345542 332.231345 168.345542 
z
" style="fill:#0000ff;"/>
   </g>
   <g id="PathCollection_2">
    <path clip-path="url(#p6fbf39c9a8)" d="M 326.417254 166.175724 
C 327.675223 166.175724 328.881838 165.675928 329.771356 164.78641 
C 330.660874 163.896891 331.160671 162.690276 331.160671 161.432308 
C 331.160671 160.174339 330.660874 158.967724 329.771356 158.078206 
C 328.881838 157.188687 327.675223 156.688891 326.417254 156.688891 
C 325.159285 156.688891 323.95267 157.188687 323.063152 158.078206 
C 322.173634 158.967724 321.673838 160.174339 321.673838 161.432308 
C 321.673838 162.690276 322.173634 163.896891 323.063152 164.78641 
C 323.95267 165.675928 325.159285 166.175724 326.417254 166.175724 
z
" style="fill:#0000ff;"/>
   </g>
   <g id="PathCollection_3">
    <path clip-path="url(#p6fbf39c9a8)" d="M 326.417254 166.211922 
C 327.675223 166.211922 328.881838 165.712126 329.771356 164.822607 
C 330.660874 163.933089 331.160671 162.726474 331.160671 161.468505 
C 331.160671 160.210537 330.660874 159.003922 329.771356 158.114403 
C 328.881838 157.224885 327.675223 156.725089 326.417254 156.725089 
C 325.159285 156.725089 323.95267 157.224885 323.063152 158.114403 
C 322.173634 159.003922 321.673838 160.210537 321.673838 161.468505 
C 321.673838 162.726474 322.173634 163.933089 323.063152 164.822607 
C 323.95267 165.712126 325.159285 166.211922 326.417254 166.211922 
z
" style="fill:#ff0000;"/>
   </g>
  </g>
 </g>
 <defs>
  <clipPath id="p6fbf39c9a8">
   <rect height="406.08" width="550.08" x="7.2" y="7.2"/>
  </clipPath>
 </defs>
</svg>
