<?xml version="1.0" encoding="utf-8" standalone="no"?>
<!DOCTYPE svg PUBLIC "-//W3C//DTD SVG 1.1//EN"
  "http://www.w3.org/Graphics/SVG/1.1/DTD/svg11.dtd">
<!-- Created with matplotlib (http://matplotlib.org/) -->
<svg height="276pt" version="1.1" viewBox="0 0 250 276" width="250pt" xmlns="http://www.w3.org/2000/svg" xmlns:xlink="http://www.w3.org/1999/xlink">
 <defs>
  <style type="text/css">
*{stroke-linecap:butt;stroke-linejoin:round;stroke-miterlimit:100000;}
  </style>
 </defs>
 <g id="figure_1">
  <g id="patch_1">
   <path d="M 0 276.40962 
L 250.059663 276.40962 
L 250.059663 0 
L 0 0 
z
" style="fill:#ffffff;"/>
  </g>
  <g id="axes_1">
   <g id="patch_2">
    <path d="M 16.823462 269.20962 
L 242.859663 269.20962 
L 242.859663 7.2 
L 16.823462 7.2 
z
" style="fill:#ffffff;"/>
   </g>
   <g id="line2d_1">
    <path clip-path="url(#p981c008a6e)" d="M 21.170313 229.581147 
L 31.48124 219.422234 
L 36.697614 214.57006 
L 41.178102 210.670464 
L 45.001028 207.591282 
L 48.963596 204.68327 
L 52.907141 202.113187 
L 55.948848 200.372886 
L 60.057075 198.382885 
L 62.753988 197.314004 
L 66.062229 196.271138 
L 69.146485 195.57295 
L 72.050064 195.162502 
L 75.040562 194.993144 
L 77.566318 195.051358 
L 79.869965 195.264932 
L 82.651191 195.725367 
L 85.338215 196.378007 
L 88.363507 197.352215 
L 91.131839 198.459759 
L 94.511529 200.081153 
L 97.568798 201.790745 
L 101.308658 204.175551 
L 103.826114 205.949787 
L 108.224366 209.343803 
L 111.479225 212.069129 
L 116.98777 217.021129 
L 122.289765 222.089195 
L 134.49247 234.218053 
L 142.295031 241.76733 
L 147.546709 246.523289 
L 152.554043 250.696474 
L 156.787676 253.883506 
L 160.952903 256.664453 
L 164.543106 258.748088 
L 167.470683 260.215718 
L 170.623652 261.550797 
L 173.042709 262.395671 
L 176.085686 263.230212 
L 178.058281 263.632496 
L 181.261799 264.049496 
L 183.876521 264.170974 
L 186.720832 264.0788 
L 189.363638 263.784191 
L 192.609575 263.149566 
L 194.803607 262.552855 
L 197.868016 261.498117 
L 201.009067 260.157292 
L 204.232675 258.519376 
L 207.52545 256.587156 
L 210.825634 254.405248 
L 214.491922 251.717481 
L 219.080919 248.007015 
L 224.095468 243.584681 
L 230.68213 237.345118 
L 238.512813 229.581147 
L 238.512813 229.581147 
" style="fill:none;stroke:#000000;stroke-linecap:square;"/>
   </g>
   <g id="line2d_2">
    <path clip-path="url(#p981c008a6e)" d="M 21.170313 194.990014 
L 22.382741 195.01126 
L 23.586953 195.074396 
L 26.764765 195.441426 
L 28.823612 195.833213 
L 31.558034 196.538045 
L 35.401356 197.876334 
L 38.843458 199.407397 
L 41.808248 200.966096 
L 45.409265 203.140604 
L 48.552799 205.27379 
L 51.392276 207.373605 
L 55.850699 210.966644 
L 60.85107 215.360756 
L 66.913409 221.076712 
L 75.61089 229.686099 
L 85.43382 239.373292 
L 90.630081 244.228003 
L 96.167819 249.03611 
L 100.083061 252.142023 
L 103.902783 254.894209 
L 107.52014 257.216815 
L 110.810426 259.067793 
L 114.475202 260.814954 
L 117.327204 261.933145 
L 120.597936 262.944547 
L 123.680979 263.625137 
L 126.75163 264.034364 
L 129.126669 264.164893 
L 132.415026 264.076596 
L 135.56751 263.699447 
L 138.108698 263.189069 
L 141.428816 262.249625 
L 144.043971 261.297401 
L 147.03202 259.987974 
L 150.614015 258.120402 
L 153.699201 256.26594 
L 157.766892 253.499305 
L 161.978006 250.287595 
L 166.09406 246.851812 
L 170.604914 242.807853 
L 177.314724 236.398684 
L 198.718477 215.46437 
L 204.161925 210.689771 
L 207.892166 207.680746 
L 212.050364 204.627875 
L 215.441794 202.402764 
L 218.98662 200.356345 
L 222.524668 198.61959 
L 226.020164 197.221472 
L 229.191599 196.238318 
L 231.513807 195.695674 
L 233.903411 195.29667 
L 237.135674 195.017423 
L 238.512813 194.990014 
L 238.512813 194.990014 
" style="fill:none;stroke:#ff0000;stroke-linecap:square;"/>
   </g>
   <g id="line2d_3">
    <path clip-path="url(#p981c008a6e)" d="M 21.170313 229.581147 
L 238.512813 12.238647 
L 238.512813 12.238647 
" style="fill:none;stroke:#0000ff;stroke-linecap:square;"/>
   </g>
   <g id="patch_3">
    <path d="M 16.823462 229.581147 
L 242.859663 229.581147 
" style="fill:none;stroke:#000000;stroke-linecap:square;stroke-linejoin:miter;stroke-width:0.8;"/>
   </g>
   <g id="patch_4">
    <path d="M 21.170313 269.20962 
L 21.170313 7.2 
" style="fill:none;stroke:#000000;stroke-linecap:square;stroke-linejoin:miter;stroke-width:0.8;"/>
   </g>
   <g id="matplotlib.axis_1">
    <g id="xtick_1">
     <g id="line2d_4">
      <defs>
       <path d="M 0 0 
L 0 -4 
" id="m34bec53104" style="stroke:#000000;stroke-width:0.5;"/>
      </defs>
      <g>
       <use style="stroke:#000000;stroke-width:0.5;" x="21.1703125" xlink:href="#m34bec53104" y="229.581147035"/>
      </g>
     </g>
    </g>
    <g id="xtick_2">
     <g id="line2d_5">
      <g>
       <use style="stroke:#000000;stroke-width:0.5;" x="55.7614457975" xlink:href="#m34bec53104" y="229.581147035"/>
      </g>
     </g>
     <g id="text_1">
      <!-- 1 -->
      <defs>
       <path d="M 12.40625 8.296875 
L 28.515625 8.296875 
L 28.515625 63.921875 
L 10.984375 60.40625 
L 10.984375 69.390625 
L 28.421875 72.90625 
L 38.28125 72.90625 
L 38.28125 8.296875 
L 54.390625 8.296875 
L 54.390625 0 
L 12.40625 0 
z
" id="BitstreamVeraSans-Roman-31"/>
      </defs>
      <g transform="translate(52.5801957975 241.179584535)scale(0.1 -0.1)">
       <use xlink:href="#BitstreamVeraSans-Roman-31"/>
      </g>
     </g>
    </g>
    <g id="xtick_3">
     <g id="line2d_6">
      <g>
       <use style="stroke:#000000;stroke-width:0.5;" x="90.352579095" xlink:href="#m34bec53104" y="229.581147035"/>
      </g>
     </g>
     <g id="text_2">
      <!-- 2 -->
      <defs>
       <path d="M 19.1875 8.296875 
L 53.609375 8.296875 
L 53.609375 0 
L 7.328125 0 
L 7.328125 8.296875 
Q 12.9375 14.109375 22.625 23.890625 
Q 32.328125 33.6875 34.8125 36.53125 
Q 39.546875 41.84375 41.421875 45.53125 
Q 43.3125 49.21875 43.3125 52.78125 
Q 43.3125 58.59375 39.234375 62.25 
Q 35.15625 65.921875 28.609375 65.921875 
Q 23.96875 65.921875 18.8125 64.3125 
Q 13.671875 62.703125 7.8125 59.421875 
L 7.8125 69.390625 
Q 13.765625 71.78125 18.9375 73 
Q 24.125 74.21875 28.421875 74.21875 
Q 39.75 74.21875 46.484375 68.546875 
Q 53.21875 62.890625 53.21875 53.421875 
Q 53.21875 48.921875 51.53125 44.890625 
Q 49.859375 40.875 45.40625 35.40625 
Q 44.1875 33.984375 37.640625 27.21875 
Q 31.109375 20.453125 19.1875 8.296875 
" id="BitstreamVeraSans-Roman-32"/>
      </defs>
      <g transform="translate(87.171329095 241.179584535)scale(0.1 -0.1)">
       <use xlink:href="#BitstreamVeraSans-Roman-32"/>
      </g>
     </g>
    </g>
    <g id="xtick_4">
     <g id="line2d_7">
      <g>
       <use style="stroke:#000000;stroke-width:0.5;" x="124.943712392" xlink:href="#m34bec53104" y="229.581147035"/>
      </g>
     </g>
     <g id="text_3">
      <!-- 3 -->
      <defs>
       <path d="M 40.578125 39.3125 
Q 47.65625 37.796875 51.625 33 
Q 55.609375 28.21875 55.609375 21.1875 
Q 55.609375 10.40625 48.1875 4.484375 
Q 40.765625 -1.421875 27.09375 -1.421875 
Q 22.515625 -1.421875 17.65625 -0.515625 
Q 12.796875 0.390625 7.625 2.203125 
L 7.625 11.71875 
Q 11.71875 9.328125 16.59375 8.109375 
Q 21.484375 6.890625 26.8125 6.890625 
Q 36.078125 6.890625 40.9375 10.546875 
Q 45.796875 14.203125 45.796875 21.1875 
Q 45.796875 27.640625 41.28125 31.265625 
Q 36.765625 34.90625 28.71875 34.90625 
L 20.21875 34.90625 
L 20.21875 43.015625 
L 29.109375 43.015625 
Q 36.375 43.015625 40.234375 45.921875 
Q 44.09375 48.828125 44.09375 54.296875 
Q 44.09375 59.90625 40.109375 62.90625 
Q 36.140625 65.921875 28.71875 65.921875 
Q 24.65625 65.921875 20.015625 65.03125 
Q 15.375 64.15625 9.8125 62.3125 
L 9.8125 71.09375 
Q 15.4375 72.65625 20.34375 73.4375 
Q 25.25 74.21875 29.59375 74.21875 
Q 40.828125 74.21875 47.359375 69.109375 
Q 53.90625 64.015625 53.90625 55.328125 
Q 53.90625 49.265625 50.4375 45.09375 
Q 46.96875 40.921875 40.578125 39.3125 
" id="BitstreamVeraSans-Roman-33"/>
      </defs>
      <g transform="translate(121.762462392 241.179584535)scale(0.1 -0.1)">
       <use xlink:href="#BitstreamVeraSans-Roman-33"/>
      </g>
     </g>
    </g>
    <g id="xtick_5">
     <g id="line2d_8">
      <g>
       <use style="stroke:#000000;stroke-width:0.5;" x="159.53484569" xlink:href="#m34bec53104" y="229.581147035"/>
      </g>
     </g>
     <g id="text_4">
      <!-- 4 -->
      <defs>
       <path d="M 37.796875 64.3125 
L 12.890625 25.390625 
L 37.796875 25.390625 
z
M 35.203125 72.90625 
L 47.609375 72.90625 
L 47.609375 25.390625 
L 58.015625 25.390625 
L 58.015625 17.1875 
L 47.609375 17.1875 
L 47.609375 0 
L 37.796875 0 
L 37.796875 17.1875 
L 4.890625 17.1875 
L 4.890625 26.703125 
z
" id="BitstreamVeraSans-Roman-34"/>
      </defs>
      <g transform="translate(156.35359569 241.179584535)scale(0.1 -0.1)">
       <use xlink:href="#BitstreamVeraSans-Roman-34"/>
      </g>
     </g>
    </g>
    <g id="xtick_6">
     <g id="line2d_9">
      <g>
       <use style="stroke:#000000;stroke-width:0.5;" x="194.125978987" xlink:href="#m34bec53104" y="229.581147035"/>
      </g>
     </g>
     <g id="text_5">
      <!-- 5 -->
      <defs>
       <path d="M 10.796875 72.90625 
L 49.515625 72.90625 
L 49.515625 64.59375 
L 19.828125 64.59375 
L 19.828125 46.734375 
Q 21.96875 47.46875 24.109375 47.828125 
Q 26.265625 48.1875 28.421875 48.1875 
Q 40.625 48.1875 47.75 41.5 
Q 54.890625 34.8125 54.890625 23.390625 
Q 54.890625 11.625 47.5625 5.09375 
Q 40.234375 -1.421875 26.90625 -1.421875 
Q 22.3125 -1.421875 17.546875 -0.640625 
Q 12.796875 0.140625 7.71875 1.703125 
L 7.71875 11.625 
Q 12.109375 9.234375 16.796875 8.0625 
Q 21.484375 6.890625 26.703125 6.890625 
Q 35.15625 6.890625 40.078125 11.328125 
Q 45.015625 15.765625 45.015625 23.390625 
Q 45.015625 31 40.078125 35.4375 
Q 35.15625 39.890625 26.703125 39.890625 
Q 22.75 39.890625 18.8125 39.015625 
Q 14.890625 38.140625 10.796875 36.28125 
z
" id="BitstreamVeraSans-Roman-35"/>
      </defs>
      <g transform="translate(190.944728987 241.179584535)scale(0.1 -0.1)">
       <use xlink:href="#BitstreamVeraSans-Roman-35"/>
      </g>
     </g>
    </g>
    <g id="xtick_7">
     <g id="line2d_10">
      <g>
       <use style="stroke:#000000;stroke-width:0.5;" x="228.717112285" xlink:href="#m34bec53104" y="229.581147035"/>
      </g>
     </g>
     <g id="text_6">
      <!-- 6 -->
      <defs>
       <path d="M 33.015625 40.375 
Q 26.375 40.375 22.484375 35.828125 
Q 18.609375 31.296875 18.609375 23.390625 
Q 18.609375 15.53125 22.484375 10.953125 
Q 26.375 6.390625 33.015625 6.390625 
Q 39.65625 6.390625 43.53125 10.953125 
Q 47.40625 15.53125 47.40625 23.390625 
Q 47.40625 31.296875 43.53125 35.828125 
Q 39.65625 40.375 33.015625 40.375 
M 52.59375 71.296875 
L 52.59375 62.3125 
Q 48.875 64.0625 45.09375 64.984375 
Q 41.3125 65.921875 37.59375 65.921875 
Q 27.828125 65.921875 22.671875 59.328125 
Q 17.53125 52.734375 16.796875 39.40625 
Q 19.671875 43.65625 24.015625 45.921875 
Q 28.375 48.1875 33.59375 48.1875 
Q 44.578125 48.1875 50.953125 41.515625 
Q 57.328125 34.859375 57.328125 23.390625 
Q 57.328125 12.15625 50.6875 5.359375 
Q 44.046875 -1.421875 33.015625 -1.421875 
Q 20.359375 -1.421875 13.671875 8.265625 
Q 6.984375 17.96875 6.984375 36.375 
Q 6.984375 53.65625 15.1875 63.9375 
Q 23.390625 74.21875 37.203125 74.21875 
Q 40.921875 74.21875 44.703125 73.484375 
Q 48.484375 72.75 52.59375 71.296875 
" id="BitstreamVeraSans-Roman-36"/>
      </defs>
      <g transform="translate(225.535862285 241.179584535)scale(0.1 -0.1)">
       <use xlink:href="#BitstreamVeraSans-Roman-36"/>
      </g>
     </g>
    </g>
    <g id="xtick_8">
     <g id="line2d_11">
      <defs>
       <path d="M 0 0 
L 0 -2 
" id="mc88602f161" style="stroke:#000000;stroke-width:0.5;"/>
      </defs>
      <g>
       <use style="stroke:#000000;stroke-width:0.5;" x="28.0885391595" xlink:href="#mc88602f161" y="229.581147035"/>
      </g>
     </g>
    </g>
    <g id="xtick_9">
     <g id="line2d_12">
      <g>
       <use style="stroke:#000000;stroke-width:0.5;" x="35.006765819" xlink:href="#mc88602f161" y="229.581147035"/>
      </g>
     </g>
    </g>
    <g id="xtick_10">
     <g id="line2d_13">
      <g>
       <use style="stroke:#000000;stroke-width:0.5;" x="41.9249924785" xlink:href="#mc88602f161" y="229.581147035"/>
      </g>
     </g>
    </g>
    <g id="xtick_11">
     <g id="line2d_14">
      <g>
       <use style="stroke:#000000;stroke-width:0.5;" x="48.843219138" xlink:href="#mc88602f161" y="229.581147035"/>
      </g>
     </g>
    </g>
    <g id="xtick_12">
     <g id="line2d_15">
      <g>
       <use style="stroke:#000000;stroke-width:0.5;" x="55.7614457975" xlink:href="#mc88602f161" y="229.581147035"/>
      </g>
     </g>
    </g>
    <g id="xtick_13">
     <g id="line2d_16">
      <g>
       <use style="stroke:#000000;stroke-width:0.5;" x="62.679672457" xlink:href="#mc88602f161" y="229.581147035"/>
      </g>
     </g>
    </g>
    <g id="xtick_14">
     <g id="line2d_17">
      <g>
       <use style="stroke:#000000;stroke-width:0.5;" x="69.5978991165" xlink:href="#mc88602f161" y="229.581147035"/>
      </g>
     </g>
    </g>
    <g id="xtick_15">
     <g id="line2d_18">
      <g>
       <use style="stroke:#000000;stroke-width:0.5;" x="76.516125776" xlink:href="#mc88602f161" y="229.581147035"/>
      </g>
     </g>
    </g>
    <g id="xtick_16">
     <g id="line2d_19">
      <g>
       <use style="stroke:#000000;stroke-width:0.5;" x="83.4343524355" xlink:href="#mc88602f161" y="229.581147035"/>
      </g>
     </g>
    </g>
    <g id="xtick_17">
     <g id="line2d_20">
      <g>
       <use style="stroke:#000000;stroke-width:0.5;" x="90.352579095" xlink:href="#mc88602f161" y="229.581147035"/>
      </g>
     </g>
    </g>
    <g id="xtick_18">
     <g id="line2d_21">
      <g>
       <use style="stroke:#000000;stroke-width:0.5;" x="97.2708057545" xlink:href="#mc88602f161" y="229.581147035"/>
      </g>
     </g>
    </g>
    <g id="xtick_19">
     <g id="line2d_22">
      <g>
       <use style="stroke:#000000;stroke-width:0.5;" x="104.189032414" xlink:href="#mc88602f161" y="229.581147035"/>
      </g>
     </g>
    </g>
    <g id="xtick_20">
     <g id="line2d_23">
      <g>
       <use style="stroke:#000000;stroke-width:0.5;" x="111.107259073" xlink:href="#mc88602f161" y="229.581147035"/>
      </g>
     </g>
    </g>
    <g id="xtick_21">
     <g id="line2d_24">
      <g>
       <use style="stroke:#000000;stroke-width:0.5;" x="118.025485733" xlink:href="#mc88602f161" y="229.581147035"/>
      </g>
     </g>
    </g>
    <g id="xtick_22">
     <g id="line2d_25">
      <g>
       <use style="stroke:#000000;stroke-width:0.5;" x="124.943712392" xlink:href="#mc88602f161" y="229.581147035"/>
      </g>
     </g>
    </g>
    <g id="xtick_23">
     <g id="line2d_26">
      <g>
       <use style="stroke:#000000;stroke-width:0.5;" x="131.861939052" xlink:href="#mc88602f161" y="229.581147035"/>
      </g>
     </g>
    </g>
    <g id="xtick_24">
     <g id="line2d_27">
      <g>
       <use style="stroke:#000000;stroke-width:0.5;" x="138.780165711" xlink:href="#mc88602f161" y="229.581147035"/>
      </g>
     </g>
    </g>
    <g id="xtick_25">
     <g id="line2d_28">
      <g>
       <use style="stroke:#000000;stroke-width:0.5;" x="145.698392371" xlink:href="#mc88602f161" y="229.581147035"/>
      </g>
     </g>
    </g>
    <g id="xtick_26">
     <g id="line2d_29">
      <g>
       <use style="stroke:#000000;stroke-width:0.5;" x="152.61661903" xlink:href="#mc88602f161" y="229.581147035"/>
      </g>
     </g>
    </g>
    <g id="xtick_27">
     <g id="line2d_30">
      <g>
       <use style="stroke:#000000;stroke-width:0.5;" x="159.53484569" xlink:href="#mc88602f161" y="229.581147035"/>
      </g>
     </g>
    </g>
    <g id="xtick_28">
     <g id="line2d_31">
      <g>
       <use style="stroke:#000000;stroke-width:0.5;" x="166.453072349" xlink:href="#mc88602f161" y="229.581147035"/>
      </g>
     </g>
    </g>
    <g id="xtick_29">
     <g id="line2d_32">
      <g>
       <use style="stroke:#000000;stroke-width:0.5;" x="173.371299009" xlink:href="#mc88602f161" y="229.581147035"/>
      </g>
     </g>
    </g>
    <g id="xtick_30">
     <g id="line2d_33">
      <g>
       <use style="stroke:#000000;stroke-width:0.5;" x="180.289525668" xlink:href="#mc88602f161" y="229.581147035"/>
      </g>
     </g>
    </g>
    <g id="xtick_31">
     <g id="line2d_34">
      <g>
       <use style="stroke:#000000;stroke-width:0.5;" x="187.207752328" xlink:href="#mc88602f161" y="229.581147035"/>
      </g>
     </g>
    </g>
    <g id="xtick_32">
     <g id="line2d_35">
      <g>
       <use style="stroke:#000000;stroke-width:0.5;" x="194.125978987" xlink:href="#mc88602f161" y="229.581147035"/>
      </g>
     </g>
    </g>
    <g id="xtick_33">
     <g id="line2d_36">
      <g>
       <use style="stroke:#000000;stroke-width:0.5;" x="201.044205647" xlink:href="#mc88602f161" y="229.581147035"/>
      </g>
     </g>
    </g>
    <g id="xtick_34">
     <g id="line2d_37">
      <g>
       <use style="stroke:#000000;stroke-width:0.5;" x="207.962432306" xlink:href="#mc88602f161" y="229.581147035"/>
      </g>
     </g>
    </g>
    <g id="xtick_35">
     <g id="line2d_38">
      <g>
       <use style="stroke:#000000;stroke-width:0.5;" x="214.880658966" xlink:href="#mc88602f161" y="229.581147035"/>
      </g>
     </g>
    </g>
    <g id="xtick_36">
     <g id="line2d_39">
      <g>
       <use style="stroke:#000000;stroke-width:0.5;" x="221.798885625" xlink:href="#mc88602f161" y="229.581147035"/>
      </g>
     </g>
    </g>
    <g id="xtick_37">
     <g id="line2d_40">
      <g>
       <use style="stroke:#000000;stroke-width:0.5;" x="228.717112285" xlink:href="#mc88602f161" y="229.581147035"/>
      </g>
     </g>
    </g>
    <g id="xtick_38">
     <g id="line2d_41">
      <g>
       <use style="stroke:#000000;stroke-width:0.5;" x="235.635338944" xlink:href="#mc88602f161" y="229.581147035"/>
      </g>
     </g>
    </g>
    <g id="xtick_39">
     <g id="line2d_42">
      <g>
       <use style="stroke:#000000;stroke-width:0.5;" x="242.553565604" xlink:href="#mc88602f161" y="229.581147035"/>
      </g>
     </g>
    </g>
   </g>
   <g id="matplotlib.axis_2">
    <g id="ytick_1">
     <g id="line2d_43">
      <defs>
       <path d="M 0 0 
L 4 0 
" id="m2ce0663e9c" style="stroke:#000000;stroke-width:0.5;"/>
      </defs>
      <g>
       <use style="stroke:#000000;stroke-width:0.5;" x="21.1703125" xlink:href="#m2ce0663e9c" y="264.172280333"/>
      </g>
     </g>
     <g id="text_7">
      <!-- -1 -->
      <defs>
       <path d="M 4.890625 31.390625 
L 31.203125 31.390625 
L 31.203125 23.390625 
L 4.890625 23.390625 
z
" id="BitstreamVeraSans-Roman-2d"/>
      </defs>
      <g transform="translate(7.2 266.931655333)scale(0.1 -0.1)">
       <use xlink:href="#BitstreamVeraSans-Roman-2d"/>
       <use x="36.083984375" xlink:href="#BitstreamVeraSans-Roman-31"/>
      </g>
     </g>
    </g>
    <g id="ytick_2">
     <g id="line2d_44">
      <g>
       <use style="stroke:#000000;stroke-width:0.5;" x="21.1703125" xlink:href="#m2ce0663e9c" y="229.581147035"/>
      </g>
     </g>
    </g>
    <g id="ytick_3">
     <g id="line2d_45">
      <g>
       <use style="stroke:#000000;stroke-width:0.5;" x="21.1703125" xlink:href="#m2ce0663e9c" y="194.990013738"/>
      </g>
     </g>
     <g id="text_8">
      <!-- 1 -->
      <g transform="translate(10.8078125 197.749388738)scale(0.1 -0.1)">
       <use xlink:href="#BitstreamVeraSans-Roman-31"/>
      </g>
     </g>
    </g>
    <g id="ytick_4">
     <g id="line2d_46">
      <g>
       <use style="stroke:#000000;stroke-width:0.5;" x="21.1703125" xlink:href="#m2ce0663e9c" y="160.39888044"/>
      </g>
     </g>
     <g id="text_9">
      <!-- 2 -->
      <g transform="translate(10.8078125 163.15825544)scale(0.1 -0.1)">
       <use xlink:href="#BitstreamVeraSans-Roman-32"/>
      </g>
     </g>
    </g>
    <g id="ytick_5">
     <g id="line2d_47">
      <g>
       <use style="stroke:#000000;stroke-width:0.5;" x="21.1703125" xlink:href="#m2ce0663e9c" y="125.807747143"/>
      </g>
     </g>
     <g id="text_10">
      <!-- 3 -->
      <g transform="translate(10.8078125 128.567122143)scale(0.1 -0.1)">
       <use xlink:href="#BitstreamVeraSans-Roman-33"/>
      </g>
     </g>
    </g>
    <g id="ytick_6">
     <g id="line2d_48">
      <g>
       <use style="stroke:#000000;stroke-width:0.5;" x="21.1703125" xlink:href="#m2ce0663e9c" y="91.2166138454"/>
      </g>
     </g>
     <g id="text_11">
      <!-- 4 -->
      <g transform="translate(10.8078125 93.9759888454)scale(0.1 -0.1)">
       <use xlink:href="#BitstreamVeraSans-Roman-34"/>
      </g>
     </g>
    </g>
    <g id="ytick_7">
     <g id="line2d_49">
      <g>
       <use style="stroke:#000000;stroke-width:0.5;" x="21.1703125" xlink:href="#m2ce0663e9c" y="56.6254805479"/>
      </g>
     </g>
     <g id="text_12">
      <!-- 5 -->
      <g transform="translate(10.8078125 59.3848555479)scale(0.1 -0.1)">
       <use xlink:href="#BitstreamVeraSans-Roman-35"/>
      </g>
     </g>
    </g>
    <g id="ytick_8">
     <g id="line2d_50">
      <g>
       <use style="stroke:#000000;stroke-width:0.5;" x="21.1703125" xlink:href="#m2ce0663e9c" y="22.0343472504"/>
      </g>
     </g>
     <g id="text_13">
      <!-- 6 -->
      <g transform="translate(10.8078125 24.7937222504)scale(0.1 -0.1)">
       <use xlink:href="#BitstreamVeraSans-Roman-36"/>
      </g>
     </g>
    </g>
    <g id="ytick_9">
     <g id="line2d_51">
      <defs>
       <path d="M 0 0 
L 2 0 
" id="m4e8a7a781c" style="stroke:#000000;stroke-width:0.5;"/>
      </defs>
      <g>
       <use style="stroke:#000000;stroke-width:0.5;" x="21.1703125" xlink:href="#m4e8a7a781c" y="257.254053673"/>
      </g>
     </g>
    </g>
    <g id="ytick_10">
     <g id="line2d_52">
      <g>
       <use style="stroke:#000000;stroke-width:0.5;" x="21.1703125" xlink:href="#m4e8a7a781c" y="250.335827014"/>
      </g>
     </g>
    </g>
    <g id="ytick_11">
     <g id="line2d_53">
      <g>
       <use style="stroke:#000000;stroke-width:0.5;" x="21.1703125" xlink:href="#m4e8a7a781c" y="243.417600354"/>
      </g>
     </g>
    </g>
    <g id="ytick_12">
     <g id="line2d_54">
      <g>
       <use style="stroke:#000000;stroke-width:0.5;" x="21.1703125" xlink:href="#m4e8a7a781c" y="236.499373695"/>
      </g>
     </g>
    </g>
    <g id="ytick_13">
     <g id="line2d_55">
      <g>
       <use style="stroke:#000000;stroke-width:0.5;" x="21.1703125" xlink:href="#m4e8a7a781c" y="229.581147035"/>
      </g>
     </g>
    </g>
    <g id="ytick_14">
     <g id="line2d_56">
      <g>
       <use style="stroke:#000000;stroke-width:0.5;" x="21.1703125" xlink:href="#m4e8a7a781c" y="222.662920376"/>
      </g>
     </g>
    </g>
    <g id="ytick_15">
     <g id="line2d_57">
      <g>
       <use style="stroke:#000000;stroke-width:0.5;" x="21.1703125" xlink:href="#m4e8a7a781c" y="215.744693716"/>
      </g>
     </g>
    </g>
    <g id="ytick_16">
     <g id="line2d_58">
      <g>
       <use style="stroke:#000000;stroke-width:0.5;" x="21.1703125" xlink:href="#m4e8a7a781c" y="208.826467057"/>
      </g>
     </g>
    </g>
    <g id="ytick_17">
     <g id="line2d_59">
      <g>
       <use style="stroke:#000000;stroke-width:0.5;" x="21.1703125" xlink:href="#m4e8a7a781c" y="201.908240397"/>
      </g>
     </g>
    </g>
    <g id="ytick_18">
     <g id="line2d_60">
      <g>
       <use style="stroke:#000000;stroke-width:0.5;" x="21.1703125" xlink:href="#m4e8a7a781c" y="194.990013738"/>
      </g>
     </g>
    </g>
    <g id="ytick_19">
     <g id="line2d_61">
      <g>
       <use style="stroke:#000000;stroke-width:0.5;" x="21.1703125" xlink:href="#m4e8a7a781c" y="188.071787078"/>
      </g>
     </g>
    </g>
    <g id="ytick_20">
     <g id="line2d_62">
      <g>
       <use style="stroke:#000000;stroke-width:0.5;" x="21.1703125" xlink:href="#m4e8a7a781c" y="181.153560419"/>
      </g>
     </g>
    </g>
    <g id="ytick_21">
     <g id="line2d_63">
      <g>
       <use style="stroke:#000000;stroke-width:0.5;" x="21.1703125" xlink:href="#m4e8a7a781c" y="174.235333759"/>
      </g>
     </g>
    </g>
    <g id="ytick_22">
     <g id="line2d_64">
      <g>
       <use style="stroke:#000000;stroke-width:0.5;" x="21.1703125" xlink:href="#m4e8a7a781c" y="167.3171071"/>
      </g>
     </g>
    </g>
    <g id="ytick_23">
     <g id="line2d_65">
      <g>
       <use style="stroke:#000000;stroke-width:0.5;" x="21.1703125" xlink:href="#m4e8a7a781c" y="160.39888044"/>
      </g>
     </g>
    </g>
    <g id="ytick_24">
     <g id="line2d_66">
      <g>
       <use style="stroke:#000000;stroke-width:0.5;" x="21.1703125" xlink:href="#m4e8a7a781c" y="153.480653781"/>
      </g>
     </g>
    </g>
    <g id="ytick_25">
     <g id="line2d_67">
      <g>
       <use style="stroke:#000000;stroke-width:0.5;" x="21.1703125" xlink:href="#m4e8a7a781c" y="146.562427121"/>
      </g>
     </g>
    </g>
    <g id="ytick_26">
     <g id="line2d_68">
      <g>
       <use style="stroke:#000000;stroke-width:0.5;" x="21.1703125" xlink:href="#m4e8a7a781c" y="139.644200462"/>
      </g>
     </g>
    </g>
    <g id="ytick_27">
     <g id="line2d_69">
      <g>
       <use style="stroke:#000000;stroke-width:0.5;" x="21.1703125" xlink:href="#m4e8a7a781c" y="132.725973802"/>
      </g>
     </g>
    </g>
    <g id="ytick_28">
     <g id="line2d_70">
      <g>
       <use style="stroke:#000000;stroke-width:0.5;" x="21.1703125" xlink:href="#m4e8a7a781c" y="125.807747143"/>
      </g>
     </g>
    </g>
    <g id="ytick_29">
     <g id="line2d_71">
      <g>
       <use style="stroke:#000000;stroke-width:0.5;" x="21.1703125" xlink:href="#m4e8a7a781c" y="118.889520483"/>
      </g>
     </g>
    </g>
    <g id="ytick_30">
     <g id="line2d_72">
      <g>
       <use style="stroke:#000000;stroke-width:0.5;" x="21.1703125" xlink:href="#m4e8a7a781c" y="111.971293824"/>
      </g>
     </g>
    </g>
    <g id="ytick_31">
     <g id="line2d_73">
      <g>
       <use style="stroke:#000000;stroke-width:0.5;" x="21.1703125" xlink:href="#m4e8a7a781c" y="105.053067164"/>
      </g>
     </g>
    </g>
    <g id="ytick_32">
     <g id="line2d_74">
      <g>
       <use style="stroke:#000000;stroke-width:0.5;" x="21.1703125" xlink:href="#m4e8a7a781c" y="98.1348405049"/>
      </g>
     </g>
    </g>
    <g id="ytick_33">
     <g id="line2d_75">
      <g>
       <use style="stroke:#000000;stroke-width:0.5;" x="21.1703125" xlink:href="#m4e8a7a781c" y="91.2166138454"/>
      </g>
     </g>
    </g>
    <g id="ytick_34">
     <g id="line2d_76">
      <g>
       <use style="stroke:#000000;stroke-width:0.5;" x="21.1703125" xlink:href="#m4e8a7a781c" y="84.2983871859"/>
      </g>
     </g>
    </g>
    <g id="ytick_35">
     <g id="line2d_77">
      <g>
       <use style="stroke:#000000;stroke-width:0.5;" x="21.1703125" xlink:href="#m4e8a7a781c" y="77.3801605264"/>
      </g>
     </g>
    </g>
    <g id="ytick_36">
     <g id="line2d_78">
      <g>
       <use style="stroke:#000000;stroke-width:0.5;" x="21.1703125" xlink:href="#m4e8a7a781c" y="70.4619338669"/>
      </g>
     </g>
    </g>
    <g id="ytick_37">
     <g id="line2d_79">
      <g>
       <use style="stroke:#000000;stroke-width:0.5;" x="21.1703125" xlink:href="#m4e8a7a781c" y="63.5437072074"/>
      </g>
     </g>
    </g>
    <g id="ytick_38">
     <g id="line2d_80">
      <g>
       <use style="stroke:#000000;stroke-width:0.5;" x="21.1703125" xlink:href="#m4e8a7a781c" y="56.6254805479"/>
      </g>
     </g>
    </g>
    <g id="ytick_39">
     <g id="line2d_81">
      <g>
       <use style="stroke:#000000;stroke-width:0.5;" x="21.1703125" xlink:href="#m4e8a7a781c" y="49.7072538884"/>
      </g>
     </g>
    </g>
    <g id="ytick_40">
     <g id="line2d_82">
      <g>
       <use style="stroke:#000000;stroke-width:0.5;" x="21.1703125" xlink:href="#m4e8a7a781c" y="42.7890272289"/>
      </g>
     </g>
    </g>
    <g id="ytick_41">
     <g id="line2d_83">
      <g>
       <use style="stroke:#000000;stroke-width:0.5;" x="21.1703125" xlink:href="#m4e8a7a781c" y="35.8708005694"/>
      </g>
     </g>
    </g>
    <g id="ytick_42">
     <g id="line2d_84">
      <g>
       <use style="stroke:#000000;stroke-width:0.5;" x="21.1703125" xlink:href="#m4e8a7a781c" y="28.9525739099"/>
      </g>
     </g>
    </g>
    <g id="ytick_43">
     <g id="line2d_85">
      <g>
       <use style="stroke:#000000;stroke-width:0.5;" x="21.1703125" xlink:href="#m4e8a7a781c" y="22.0343472504"/>
      </g>
     </g>
    </g>
    <g id="ytick_44">
     <g id="line2d_86">
      <g>
       <use style="stroke:#000000;stroke-width:0.5;" x="21.1703125" xlink:href="#m4e8a7a781c" y="15.1161205909"/>
      </g>
     </g>
    </g>
    <g id="ytick_45">
     <g id="line2d_87">
      <g>
       <use style="stroke:#000000;stroke-width:0.5;" x="21.1703125" xlink:href="#m4e8a7a781c" y="8.19789393141"/>
      </g>
     </g>
    </g>
   </g>
  </g>
 </g>
 <defs>
  <clipPath id="p981c008a6e">
   <rect height="262.009620177" width="226.036200513" x="16.8234624901" y="7.2"/>
  </clipPath>
 </defs>
</svg>
