<?xml version="1.0" encoding="utf-8" standalone="no"?>
<!DOCTYPE svg PUBLIC "-//W3C//DTD SVG 1.1//EN"
  "http://www.w3.org/Graphics/SVG/1.1/DTD/svg11.dtd">
<!-- Created with matplotlib (http://matplotlib.org/) -->
<svg height="187pt" version="1.1" viewBox="0 0 562 187" width="562pt" xmlns="http://www.w3.org/2000/svg" xmlns:xlink="http://www.w3.org/1999/xlink">
 <defs>
  <style type="text/css">
*{stroke-linecap:butt;stroke-linejoin:round;stroke-miterlimit:100000;}
  </style>
 </defs>
 <g id="figure_1">
  <g id="patch_1">
   <path d="M 0 187.817072 
L 562.600031 187.817072 
L 562.600031 0 
L 0 0 
z
" style="fill:#ffffff;"/>
  </g>
  <g id="axes_1">
   <g id="patch_2">
    <path d="M 20.422916 179.051072 
L 555.400031 179.051072 
L 555.400031 8.764317 
L 20.422916 8.764317 
z
" style="fill:#ffffff;"/>
   </g>
   <g id="line2d_1">
    <path clip-path="url(#pe548e1f5e0)" d="M 30.710938 93.908536 
L 47.484316 77.252257 
L 58.424622 66.721109 
L 67.732994 58.135428 
L 73.720487 52.850198 
L 82.616848 45.410805 
L 88.984496 40.432437 
L 95.355666 35.774925 
L 100.851628 32.038932 
L 105.140062 29.316554 
L 110.714451 26.043737 
L 115.146418 23.665392 
L 120.269013 21.173256 
L 126.075502 18.693098 
L 131.194436 16.819922 
L 137.42619 14.946792 
L 142.682498 13.722013 
L 143.793934 13.505212 
L 149.553047 12.61992 
L 155.878016 12.111037 
L 158.961372 12.03981 
L 164.518967 12.204641 
L 167.329904 12.431444 
L 171.63744 12.965227 
L 177.481252 14.047123 
L 181.234509 14.956914 
L 187.543641 16.858947 
L 192.481705 18.667373 
L 197.483375 20.778019 
L 203.231632 23.540185 
L 210.344382 27.436372 
L 214.74524 30.10018 
L 220.946234 34.164565 
L 226.475745 38.078532 
L 232.121011 42.336934 
L 239.276121 48.083753 
L 244.727208 52.699136 
L 252.36917 59.472214 
L 260.434717 66.944705 
L 269.90338 76.045305 
L 285.969923 91.967167 
L 305.174919 111.044331 
L 315.269886 120.760597 
L 323.492626 128.380099 
L 329.426003 133.666679 
L 336.983603 140.09461 
L 344.1823 145.852325 
L 349.912862 150.150932 
L 353.915093 152.990924 
L 360.239024 157.188086 
L 363.363944 159.124241 
L 369.260187 162.516563 
L 373.314343 164.643681 
L 378.208396 166.979989 
L 383.311864 169.138114 
L 388.534431 171.043997 
L 394.195 172.755145 
L 398.711444 173.850524 
L 400.367177 174.191316 
L 404.625064 174.916607 
L 409.968359 175.51666 
L 415.986792 175.776326 
L 418.060893 175.763353 
L 423.554342 175.475286 
L 425.790576 175.252755 
L 430.357256 174.610042 
L 436.431314 173.366636 
L 440.674487 172.238152 
L 445.829657 170.584415 
L 449.030243 169.404308 
L 454.077726 167.309553 
L 459.813979 164.590837 
L 463.868114 162.459313 
L 471.033594 158.284436 
L 475.340036 155.536039 
L 481.54466 151.278527 
L 485.840046 148.136629 
L 492.685592 142.824636 
L 500.070011 136.712418 
L 508.920906 128.932385 
L 516.689036 121.763971 
L 524.611836 114.195152 
L 537.286481 101.722154 
L 545.11201 93.908536 
L 545.11201 93.908536 
" style="fill:none;stroke:#000000;stroke-linecap:square;"/>
   </g>
   <g id="line2d_2">
    <path clip-path="url(#pe548e1f5e0)" d="M 30.710938 12.039063 
L 34.056348 12.107404 
L 36.941363 12.276022 
L 38.082883 12.370742 
L 43.040719 12.965759 
L 49.044048 14.083175 
L 53.767143 15.264224 
L 58.454204 16.694958 
L 61.439472 17.738437 
L 66.696149 19.82109 
L 71.026614 21.766577 
L 74.137398 23.288999 
L 81.02581 27.019621 
L 87.200544 30.766821 
L 93.012349 34.622158 
L 99.228807 39.075952 
L 105.404347 43.813366 
L 109.659204 47.244837 
L 117.152439 53.588459 
L 123.989968 59.672898 
L 130.934982 66.097066 
L 140.760027 75.515702 
L 155.966045 90.564306 
L 177.275629 111.729146 
L 186.129308 120.249594 
L 195.389075 128.830002 
L 203.038605 135.586336 
L 211.564125 142.685402 
L 217.151335 147.055697 
L 224.535149 152.448528 
L 228.756431 155.320449 
L 233.582791 158.403599 
L 239.93015 162.115648 
L 245.661747 165.116078 
L 250.972246 167.585002 
L 254.675391 169.123824 
L 260.166938 171.121692 
L 265.296801 172.674412 
L 270.562073 173.946576 
L 275.344676 174.815413 
L 277.947459 175.172417 
L 282.914493 175.625559 
L 285.616547 175.745846 
L 291.414324 175.703085 
L 296.419183 175.336355 
L 302.981148 174.394987 
L 307.144204 173.529309 
L 313.345925 171.858814 
L 317.773313 170.392078 
L 322.796163 168.457576 
L 328.180141 166.072708 
L 331.935528 164.223866 
L 336.716368 161.656695 
L 342.322772 158.352679 
L 348.875531 154.10925 
L 353.31858 151.01098 
L 357.939145 147.610709 
L 364.961866 142.118967 
L 370.989572 137.120995 
L 379.748263 129.448879 
L 386.244859 123.490657 
L 394.734408 115.429962 
L 405.616022 104.77212 
L 438.859188 71.837574 
L 448.401454 62.819139 
L 457.106379 54.957023 
L 463.904169 49.118977 
L 471.871407 42.672228 
L 477.881391 38.126882 
L 483.638986 34.053917 
L 489.205343 30.397363 
L 493.67334 27.673896 
L 497.70811 25.383754 
L 502.694991 22.783695 
L 506.033031 21.190149 
L 512.509121 18.445449 
L 516.02627 17.151588 
L 521.953719 15.292656 
L 527.209539 13.98865 
L 529.802471 13.466333 
L 535.763291 12.57225 
L 539.188525 12.253259 
L 541.252537 12.130017 
L 545.11201 12.039063 
L 545.11201 12.039063 
" style="fill:none;stroke:#ff0000;stroke-linecap:square;"/>
   </g>
   <g id="patch_3">
    <path d="M 20.422916 93.908536 
L 555.400031 93.908536 
" style="fill:none;stroke:#000000;stroke-linecap:square;stroke-linejoin:miter;stroke-width:0.8;"/>
   </g>
   <g id="patch_4">
    <path d="M 30.710938 179.051072 
L 30.710938 8.764317 
" style="fill:none;stroke:#000000;stroke-linecap:square;stroke-linejoin:miter;stroke-width:0.8;"/>
   </g>
   <g id="matplotlib.axis_1">
    <g id="xtick_1">
     <g id="line2d_3">
      <defs>
       <path d="M 0 0 
L 0 -4 
" id="m79bec8bfdd" style="stroke:#000000;stroke-width:0.5;"/>
      </defs>
      <g>
       <use style="stroke:#000000;stroke-width:0.5;" x="30.7109375" xlink:href="#m79bec8bfdd" y="93.9085359178"/>
      </g>
     </g>
    </g>
    <g id="xtick_2">
     <g id="line2d_4">
      <g>
       <use style="stroke:#000000;stroke-width:0.5;" x="112.580410918" xlink:href="#m79bec8bfdd" y="93.9085359178"/>
      </g>
     </g>
     <g id="text_1">
      <!-- 1 -->
      <defs>
       <path d="M 12.40625 8.296875 
L 28.515625 8.296875 
L 28.515625 63.921875 
L 10.984375 60.40625 
L 10.984375 69.390625 
L 28.421875 72.90625 
L 38.28125 72.90625 
L 38.28125 8.296875 
L 54.390625 8.296875 
L 54.390625 0 
L 12.40625 0 
z
" id="BitstreamVeraSans-Roman-31"/>
      </defs>
      <g transform="translate(109.399160918 105.506973418)scale(0.1 -0.1)">
       <use xlink:href="#BitstreamVeraSans-Roman-31"/>
      </g>
     </g>
    </g>
    <g id="xtick_3">
     <g id="line2d_5">
      <g>
       <use style="stroke:#000000;stroke-width:0.5;" x="194.449884336" xlink:href="#m79bec8bfdd" y="93.9085359178"/>
      </g>
     </g>
     <g id="text_2">
      <!-- 2 -->
      <defs>
       <path d="M 19.1875 8.296875 
L 53.609375 8.296875 
L 53.609375 0 
L 7.328125 0 
L 7.328125 8.296875 
Q 12.9375 14.109375 22.625 23.890625 
Q 32.328125 33.6875 34.8125 36.53125 
Q 39.546875 41.84375 41.421875 45.53125 
Q 43.3125 49.21875 43.3125 52.78125 
Q 43.3125 58.59375 39.234375 62.25 
Q 35.15625 65.921875 28.609375 65.921875 
Q 23.96875 65.921875 18.8125 64.3125 
Q 13.671875 62.703125 7.8125 59.421875 
L 7.8125 69.390625 
Q 13.765625 71.78125 18.9375 73 
Q 24.125 74.21875 28.421875 74.21875 
Q 39.75 74.21875 46.484375 68.546875 
Q 53.21875 62.890625 53.21875 53.421875 
Q 53.21875 48.921875 51.53125 44.890625 
Q 49.859375 40.875 45.40625 35.40625 
Q 44.1875 33.984375 37.640625 27.21875 
Q 31.109375 20.453125 19.1875 8.296875 
" id="BitstreamVeraSans-Roman-32"/>
      </defs>
      <g transform="translate(191.268634336 105.506973418)scale(0.1 -0.1)">
       <use xlink:href="#BitstreamVeraSans-Roman-32"/>
      </g>
     </g>
    </g>
    <g id="xtick_4">
     <g id="line2d_6">
      <g>
       <use style="stroke:#000000;stroke-width:0.5;" x="276.319357753" xlink:href="#m79bec8bfdd" y="93.9085359178"/>
      </g>
     </g>
     <g id="text_3">
      <!-- 3 -->
      <defs>
       <path d="M 40.578125 39.3125 
Q 47.65625 37.796875 51.625 33 
Q 55.609375 28.21875 55.609375 21.1875 
Q 55.609375 10.40625 48.1875 4.484375 
Q 40.765625 -1.421875 27.09375 -1.421875 
Q 22.515625 -1.421875 17.65625 -0.515625 
Q 12.796875 0.390625 7.625 2.203125 
L 7.625 11.71875 
Q 11.71875 9.328125 16.59375 8.109375 
Q 21.484375 6.890625 26.8125 6.890625 
Q 36.078125 6.890625 40.9375 10.546875 
Q 45.796875 14.203125 45.796875 21.1875 
Q 45.796875 27.640625 41.28125 31.265625 
Q 36.765625 34.90625 28.71875 34.90625 
L 20.21875 34.90625 
L 20.21875 43.015625 
L 29.109375 43.015625 
Q 36.375 43.015625 40.234375 45.921875 
Q 44.09375 48.828125 44.09375 54.296875 
Q 44.09375 59.90625 40.109375 62.90625 
Q 36.140625 65.921875 28.71875 65.921875 
Q 24.65625 65.921875 20.015625 65.03125 
Q 15.375 64.15625 9.8125 62.3125 
L 9.8125 71.09375 
Q 15.4375 72.65625 20.34375 73.4375 
Q 25.25 74.21875 29.59375 74.21875 
Q 40.828125 74.21875 47.359375 69.109375 
Q 53.90625 64.015625 53.90625 55.328125 
Q 53.90625 49.265625 50.4375 45.09375 
Q 46.96875 40.921875 40.578125 39.3125 
" id="BitstreamVeraSans-Roman-33"/>
      </defs>
      <g transform="translate(273.138107753 105.506973418)scale(0.1 -0.1)">
       <use xlink:href="#BitstreamVeraSans-Roman-33"/>
      </g>
     </g>
    </g>
    <g id="xtick_5">
     <g id="line2d_7">
      <g>
       <use style="stroke:#000000;stroke-width:0.5;" x="358.188831171" xlink:href="#m79bec8bfdd" y="93.9085359178"/>
      </g>
     </g>
     <g id="text_4">
      <!-- 4 -->
      <defs>
       <path d="M 37.796875 64.3125 
L 12.890625 25.390625 
L 37.796875 25.390625 
z
M 35.203125 72.90625 
L 47.609375 72.90625 
L 47.609375 25.390625 
L 58.015625 25.390625 
L 58.015625 17.1875 
L 47.609375 17.1875 
L 47.609375 0 
L 37.796875 0 
L 37.796875 17.1875 
L 4.890625 17.1875 
L 4.890625 26.703125 
z
" id="BitstreamVeraSans-Roman-34"/>
      </defs>
      <g transform="translate(355.007581171 105.506973418)scale(0.1 -0.1)">
       <use xlink:href="#BitstreamVeraSans-Roman-34"/>
      </g>
     </g>
    </g>
    <g id="xtick_6">
     <g id="line2d_8">
      <g>
       <use style="stroke:#000000;stroke-width:0.5;" x="440.058304589" xlink:href="#m79bec8bfdd" y="93.9085359178"/>
      </g>
     </g>
     <g id="text_5">
      <!-- 5 -->
      <defs>
       <path d="M 10.796875 72.90625 
L 49.515625 72.90625 
L 49.515625 64.59375 
L 19.828125 64.59375 
L 19.828125 46.734375 
Q 21.96875 47.46875 24.109375 47.828125 
Q 26.265625 48.1875 28.421875 48.1875 
Q 40.625 48.1875 47.75 41.5 
Q 54.890625 34.8125 54.890625 23.390625 
Q 54.890625 11.625 47.5625 5.09375 
Q 40.234375 -1.421875 26.90625 -1.421875 
Q 22.3125 -1.421875 17.546875 -0.640625 
Q 12.796875 0.140625 7.71875 1.703125 
L 7.71875 11.625 
Q 12.109375 9.234375 16.796875 8.0625 
Q 21.484375 6.890625 26.703125 6.890625 
Q 35.15625 6.890625 40.078125 11.328125 
Q 45.015625 15.765625 45.015625 23.390625 
Q 45.015625 31 40.078125 35.4375 
Q 35.15625 39.890625 26.703125 39.890625 
Q 22.75 39.890625 18.8125 39.015625 
Q 14.890625 38.140625 10.796875 36.28125 
z
" id="BitstreamVeraSans-Roman-35"/>
      </defs>
      <g transform="translate(436.877054589 105.506973418)scale(0.1 -0.1)">
       <use xlink:href="#BitstreamVeraSans-Roman-35"/>
      </g>
     </g>
    </g>
    <g id="xtick_7">
     <g id="line2d_9">
      <g>
       <use style="stroke:#000000;stroke-width:0.5;" x="521.927778007" xlink:href="#m79bec8bfdd" y="93.9085359178"/>
      </g>
     </g>
     <g id="text_6">
      <!-- 6 -->
      <defs>
       <path d="M 33.015625 40.375 
Q 26.375 40.375 22.484375 35.828125 
Q 18.609375 31.296875 18.609375 23.390625 
Q 18.609375 15.53125 22.484375 10.953125 
Q 26.375 6.390625 33.015625 6.390625 
Q 39.65625 6.390625 43.53125 10.953125 
Q 47.40625 15.53125 47.40625 23.390625 
Q 47.40625 31.296875 43.53125 35.828125 
Q 39.65625 40.375 33.015625 40.375 
M 52.59375 71.296875 
L 52.59375 62.3125 
Q 48.875 64.0625 45.09375 64.984375 
Q 41.3125 65.921875 37.59375 65.921875 
Q 27.828125 65.921875 22.671875 59.328125 
Q 17.53125 52.734375 16.796875 39.40625 
Q 19.671875 43.65625 24.015625 45.921875 
Q 28.375 48.1875 33.59375 48.1875 
Q 44.578125 48.1875 50.953125 41.515625 
Q 57.328125 34.859375 57.328125 23.390625 
Q 57.328125 12.15625 50.6875 5.359375 
Q 44.046875 -1.421875 33.015625 -1.421875 
Q 20.359375 -1.421875 13.671875 8.265625 
Q 6.984375 17.96875 6.984375 36.375 
Q 6.984375 53.65625 15.1875 63.9375 
Q 23.390625 74.21875 37.203125 74.21875 
Q 40.921875 74.21875 44.703125 73.484375 
Q 48.484375 72.75 52.59375 71.296875 
" id="BitstreamVeraSans-Roman-36"/>
      </defs>
      <g transform="translate(518.746528007 105.506973418)scale(0.1 -0.1)">
       <use xlink:href="#BitstreamVeraSans-Roman-36"/>
      </g>
     </g>
    </g>
    <g id="xtick_8">
     <g id="line2d_10">
      <defs>
       <path d="M 0 0 
L 0 -2 
" id="ma170bbbb27" style="stroke:#000000;stroke-width:0.5;"/>
      </defs>
      <g>
       <use style="stroke:#000000;stroke-width:0.5;" x="47.0848321836" xlink:href="#ma170bbbb27" y="93.9085359178"/>
      </g>
     </g>
    </g>
    <g id="xtick_9">
     <g id="line2d_11">
      <g>
       <use style="stroke:#000000;stroke-width:0.5;" x="63.4587268671" xlink:href="#ma170bbbb27" y="93.9085359178"/>
      </g>
     </g>
    </g>
    <g id="xtick_10">
     <g id="line2d_12">
      <g>
       <use style="stroke:#000000;stroke-width:0.5;" x="79.8326215507" xlink:href="#ma170bbbb27" y="93.9085359178"/>
      </g>
     </g>
    </g>
    <g id="xtick_11">
     <g id="line2d_13">
      <g>
       <use style="stroke:#000000;stroke-width:0.5;" x="96.2065162342" xlink:href="#ma170bbbb27" y="93.9085359178"/>
      </g>
     </g>
    </g>
    <g id="xtick_12">
     <g id="line2d_14">
      <g>
       <use style="stroke:#000000;stroke-width:0.5;" x="112.580410918" xlink:href="#ma170bbbb27" y="93.9085359178"/>
      </g>
     </g>
    </g>
    <g id="xtick_13">
     <g id="line2d_15">
      <g>
       <use style="stroke:#000000;stroke-width:0.5;" x="128.954305601" xlink:href="#ma170bbbb27" y="93.9085359178"/>
      </g>
     </g>
    </g>
    <g id="xtick_14">
     <g id="line2d_16">
      <g>
       <use style="stroke:#000000;stroke-width:0.5;" x="145.328200285" xlink:href="#ma170bbbb27" y="93.9085359178"/>
      </g>
     </g>
    </g>
    <g id="xtick_15">
     <g id="line2d_17">
      <g>
       <use style="stroke:#000000;stroke-width:0.5;" x="161.702094968" xlink:href="#ma170bbbb27" y="93.9085359178"/>
      </g>
     </g>
    </g>
    <g id="xtick_16">
     <g id="line2d_18">
      <g>
       <use style="stroke:#000000;stroke-width:0.5;" x="178.075989652" xlink:href="#ma170bbbb27" y="93.9085359178"/>
      </g>
     </g>
    </g>
    <g id="xtick_17">
     <g id="line2d_19">
      <g>
       <use style="stroke:#000000;stroke-width:0.5;" x="194.449884336" xlink:href="#ma170bbbb27" y="93.9085359178"/>
      </g>
     </g>
    </g>
    <g id="xtick_18">
     <g id="line2d_20">
      <g>
       <use style="stroke:#000000;stroke-width:0.5;" x="210.823779019" xlink:href="#ma170bbbb27" y="93.9085359178"/>
      </g>
     </g>
    </g>
    <g id="xtick_19">
     <g id="line2d_21">
      <g>
       <use style="stroke:#000000;stroke-width:0.5;" x="227.197673703" xlink:href="#ma170bbbb27" y="93.9085359178"/>
      </g>
     </g>
    </g>
    <g id="xtick_20">
     <g id="line2d_22">
      <g>
       <use style="stroke:#000000;stroke-width:0.5;" x="243.571568386" xlink:href="#ma170bbbb27" y="93.9085359178"/>
      </g>
     </g>
    </g>
    <g id="xtick_21">
     <g id="line2d_23">
      <g>
       <use style="stroke:#000000;stroke-width:0.5;" x="259.94546307" xlink:href="#ma170bbbb27" y="93.9085359178"/>
      </g>
     </g>
    </g>
    <g id="xtick_22">
     <g id="line2d_24">
      <g>
       <use style="stroke:#000000;stroke-width:0.5;" x="276.319357753" xlink:href="#ma170bbbb27" y="93.9085359178"/>
      </g>
     </g>
    </g>
    <g id="xtick_23">
     <g id="line2d_25">
      <g>
       <use style="stroke:#000000;stroke-width:0.5;" x="292.693252437" xlink:href="#ma170bbbb27" y="93.9085359178"/>
      </g>
     </g>
    </g>
    <g id="xtick_24">
     <g id="line2d_26">
      <g>
       <use style="stroke:#000000;stroke-width:0.5;" x="309.06714712" xlink:href="#ma170bbbb27" y="93.9085359178"/>
      </g>
     </g>
    </g>
    <g id="xtick_25">
     <g id="line2d_27">
      <g>
       <use style="stroke:#000000;stroke-width:0.5;" x="325.441041804" xlink:href="#ma170bbbb27" y="93.9085359178"/>
      </g>
     </g>
    </g>
    <g id="xtick_26">
     <g id="line2d_28">
      <g>
       <use style="stroke:#000000;stroke-width:0.5;" x="341.814936488" xlink:href="#ma170bbbb27" y="93.9085359178"/>
      </g>
     </g>
    </g>
    <g id="xtick_27">
     <g id="line2d_29">
      <g>
       <use style="stroke:#000000;stroke-width:0.5;" x="358.188831171" xlink:href="#ma170bbbb27" y="93.9085359178"/>
      </g>
     </g>
    </g>
    <g id="xtick_28">
     <g id="line2d_30">
      <g>
       <use style="stroke:#000000;stroke-width:0.5;" x="374.562725855" xlink:href="#ma170bbbb27" y="93.9085359178"/>
      </g>
     </g>
    </g>
    <g id="xtick_29">
     <g id="line2d_31">
      <g>
       <use style="stroke:#000000;stroke-width:0.5;" x="390.936620538" xlink:href="#ma170bbbb27" y="93.9085359178"/>
      </g>
     </g>
    </g>
    <g id="xtick_30">
     <g id="line2d_32">
      <g>
       <use style="stroke:#000000;stroke-width:0.5;" x="407.310515222" xlink:href="#ma170bbbb27" y="93.9085359178"/>
      </g>
     </g>
    </g>
    <g id="xtick_31">
     <g id="line2d_33">
      <g>
       <use style="stroke:#000000;stroke-width:0.5;" x="423.684409905" xlink:href="#ma170bbbb27" y="93.9085359178"/>
      </g>
     </g>
    </g>
    <g id="xtick_32">
     <g id="line2d_34">
      <g>
       <use style="stroke:#000000;stroke-width:0.5;" x="440.058304589" xlink:href="#ma170bbbb27" y="93.9085359178"/>
      </g>
     </g>
    </g>
    <g id="xtick_33">
     <g id="line2d_35">
      <g>
       <use style="stroke:#000000;stroke-width:0.5;" x="456.432199273" xlink:href="#ma170bbbb27" y="93.9085359178"/>
      </g>
     </g>
    </g>
    <g id="xtick_34">
     <g id="line2d_36">
      <g>
       <use style="stroke:#000000;stroke-width:0.5;" x="472.806093956" xlink:href="#ma170bbbb27" y="93.9085359178"/>
      </g>
     </g>
    </g>
    <g id="xtick_35">
     <g id="line2d_37">
      <g>
       <use style="stroke:#000000;stroke-width:0.5;" x="489.17998864" xlink:href="#ma170bbbb27" y="93.9085359178"/>
      </g>
     </g>
    </g>
    <g id="xtick_36">
     <g id="line2d_38">
      <g>
       <use style="stroke:#000000;stroke-width:0.5;" x="505.553883323" xlink:href="#ma170bbbb27" y="93.9085359178"/>
      </g>
     </g>
    </g>
    <g id="xtick_37">
     <g id="line2d_39">
      <g>
       <use style="stroke:#000000;stroke-width:0.5;" x="521.927778007" xlink:href="#ma170bbbb27" y="93.9085359178"/>
      </g>
     </g>
    </g>
    <g id="xtick_38">
     <g id="line2d_40">
      <g>
       <use style="stroke:#000000;stroke-width:0.5;" x="538.30167269" xlink:href="#ma170bbbb27" y="93.9085359178"/>
      </g>
     </g>
    </g>
    <g id="xtick_39">
     <g id="line2d_41">
      <g>
       <use style="stroke:#000000;stroke-width:0.5;" x="554.675567374" xlink:href="#ma170bbbb27" y="93.9085359178"/>
      </g>
     </g>
    </g>
   </g>
   <g id="matplotlib.axis_2">
    <g id="ytick_1">
     <g id="line2d_42">
      <defs>
       <path d="M 0 0 
L 4 0 
" id="m79fefdb021" style="stroke:#000000;stroke-width:0.5;"/>
      </defs>
      <g>
       <use style="stroke:#000000;stroke-width:0.5;" x="30.7109375" xlink:href="#m79fefdb021" y="175.778009336"/>
      </g>
     </g>
     <g id="text_7">
      <!-- -1 -->
      <defs>
       <path d="M 4.890625 31.390625 
L 31.203125 31.390625 
L 31.203125 23.390625 
L 4.890625 23.390625 
z
" id="BitstreamVeraSans-Roman-2d"/>
      </defs>
      <g transform="translate(16.740625 178.537384336)scale(0.1 -0.1)">
       <use xlink:href="#BitstreamVeraSans-Roman-2d"/>
       <use x="36.083984375" xlink:href="#BitstreamVeraSans-Roman-31"/>
      </g>
     </g>
    </g>
    <g id="ytick_2">
     <g id="line2d_43">
      <g>
       <use style="stroke:#000000;stroke-width:0.5;" x="30.7109375" xlink:href="#m79fefdb021" y="134.843272627"/>
      </g>
     </g>
     <g id="text_8">
      <!-- -0.5 -->
      <defs>
       <path d="M 31.78125 66.40625 
Q 24.171875 66.40625 20.328125 58.90625 
Q 16.5 51.421875 16.5 36.375 
Q 16.5 21.390625 20.328125 13.890625 
Q 24.171875 6.390625 31.78125 6.390625 
Q 39.453125 6.390625 43.28125 13.890625 
Q 47.125 21.390625 47.125 36.375 
Q 47.125 51.421875 43.28125 58.90625 
Q 39.453125 66.40625 31.78125 66.40625 
M 31.78125 74.21875 
Q 44.046875 74.21875 50.515625 64.515625 
Q 56.984375 54.828125 56.984375 36.375 
Q 56.984375 17.96875 50.515625 8.265625 
Q 44.046875 -1.421875 31.78125 -1.421875 
Q 19.53125 -1.421875 13.0625 8.265625 
Q 6.59375 17.96875 6.59375 36.375 
Q 6.59375 54.828125 13.0625 64.515625 
Q 19.53125 74.21875 31.78125 74.21875 
" id="BitstreamVeraSans-Roman-30"/>
       <path d="M 10.6875 12.40625 
L 21 12.40625 
L 21 0 
L 10.6875 0 
z
" id="BitstreamVeraSans-Roman-2e"/>
      </defs>
      <g transform="translate(7.2 137.602647627)scale(0.1 -0.1)">
       <use xlink:href="#BitstreamVeraSans-Roman-2d"/>
       <use x="36.083984375" xlink:href="#BitstreamVeraSans-Roman-30"/>
       <use x="99.70703125" xlink:href="#BitstreamVeraSans-Roman-2e"/>
       <use x="131.494140625" xlink:href="#BitstreamVeraSans-Roman-35"/>
      </g>
     </g>
    </g>
    <g id="ytick_3">
     <g id="line2d_44">
      <g>
       <use style="stroke:#000000;stroke-width:0.5;" x="30.7109375" xlink:href="#m79fefdb021" y="93.9085359178"/>
      </g>
     </g>
    </g>
    <g id="ytick_4">
     <g id="line2d_45">
      <g>
       <use style="stroke:#000000;stroke-width:0.5;" x="30.7109375" xlink:href="#m79fefdb021" y="52.9737992089"/>
      </g>
     </g>
     <g id="text_9">
      <!-- 0.5 -->
      <g transform="translate(10.8078125 55.7331742089)scale(0.1 -0.1)">
       <use xlink:href="#BitstreamVeraSans-Roman-30"/>
       <use x="63.623046875" xlink:href="#BitstreamVeraSans-Roman-2e"/>
       <use x="95.41015625" xlink:href="#BitstreamVeraSans-Roman-35"/>
      </g>
     </g>
    </g>
    <g id="ytick_5">
     <g id="line2d_46">
      <g>
       <use style="stroke:#000000;stroke-width:0.5;" x="30.7109375" xlink:href="#m79fefdb021" y="12.0390625"/>
      </g>
     </g>
     <g id="text_10">
      <!-- 1 -->
      <g transform="translate(20.3484375 14.7984375)scale(0.1 -0.1)">
       <use xlink:href="#BitstreamVeraSans-Roman-31"/>
      </g>
     </g>
    </g>
    <g id="ytick_6">
     <g id="line2d_47">
      <defs>
       <path d="M 0 0 
L 2 0 
" id="m50d40eed6c" style="stroke:#000000;stroke-width:0.5;"/>
      </defs>
      <g>
       <use style="stroke:#000000;stroke-width:0.5;" x="30.7109375" xlink:href="#m50d40eed6c" y="167.591061994"/>
      </g>
     </g>
    </g>
    <g id="ytick_7">
     <g id="line2d_48">
      <g>
       <use style="stroke:#000000;stroke-width:0.5;" x="30.7109375" xlink:href="#m50d40eed6c" y="159.404114652"/>
      </g>
     </g>
    </g>
    <g id="ytick_8">
     <g id="line2d_49">
      <g>
       <use style="stroke:#000000;stroke-width:0.5;" x="30.7109375" xlink:href="#m50d40eed6c" y="151.21716731"/>
      </g>
     </g>
    </g>
    <g id="ytick_9">
     <g id="line2d_50">
      <g>
       <use style="stroke:#000000;stroke-width:0.5;" x="30.7109375" xlink:href="#m50d40eed6c" y="143.030219968"/>
      </g>
     </g>
    </g>
    <g id="ytick_10">
     <g id="line2d_51">
      <g>
       <use style="stroke:#000000;stroke-width:0.5;" x="30.7109375" xlink:href="#m50d40eed6c" y="134.843272627"/>
      </g>
     </g>
    </g>
    <g id="ytick_11">
     <g id="line2d_52">
      <g>
       <use style="stroke:#000000;stroke-width:0.5;" x="30.7109375" xlink:href="#m50d40eed6c" y="126.656325285"/>
      </g>
     </g>
    </g>
    <g id="ytick_12">
     <g id="line2d_53">
      <g>
       <use style="stroke:#000000;stroke-width:0.5;" x="30.7109375" xlink:href="#m50d40eed6c" y="118.469377943"/>
      </g>
     </g>
    </g>
    <g id="ytick_13">
     <g id="line2d_54">
      <g>
       <use style="stroke:#000000;stroke-width:0.5;" x="30.7109375" xlink:href="#m50d40eed6c" y="110.282430601"/>
      </g>
     </g>
    </g>
    <g id="ytick_14">
     <g id="line2d_55">
      <g>
       <use style="stroke:#000000;stroke-width:0.5;" x="30.7109375" xlink:href="#m50d40eed6c" y="102.09548326"/>
      </g>
     </g>
    </g>
    <g id="ytick_15">
     <g id="line2d_56">
      <g>
       <use style="stroke:#000000;stroke-width:0.5;" x="30.7109375" xlink:href="#m50d40eed6c" y="93.9085359178"/>
      </g>
     </g>
    </g>
    <g id="ytick_16">
     <g id="line2d_57">
      <g>
       <use style="stroke:#000000;stroke-width:0.5;" x="30.7109375" xlink:href="#m50d40eed6c" y="85.721588576"/>
      </g>
     </g>
    </g>
    <g id="ytick_17">
     <g id="line2d_58">
      <g>
       <use style="stroke:#000000;stroke-width:0.5;" x="30.7109375" xlink:href="#m50d40eed6c" y="77.5346412342"/>
      </g>
     </g>
    </g>
    <g id="ytick_18">
     <g id="line2d_59">
      <g>
       <use style="stroke:#000000;stroke-width:0.5;" x="30.7109375" xlink:href="#m50d40eed6c" y="69.3476938925"/>
      </g>
     </g>
    </g>
    <g id="ytick_19">
     <g id="line2d_60">
      <g>
       <use style="stroke:#000000;stroke-width:0.5;" x="30.7109375" xlink:href="#m50d40eed6c" y="61.1607465507"/>
      </g>
     </g>
    </g>
    <g id="ytick_20">
     <g id="line2d_61">
      <g>
       <use style="stroke:#000000;stroke-width:0.5;" x="30.7109375" xlink:href="#m50d40eed6c" y="52.9737992089"/>
      </g>
     </g>
    </g>
    <g id="ytick_21">
     <g id="line2d_62">
      <g>
       <use style="stroke:#000000;stroke-width:0.5;" x="30.7109375" xlink:href="#m50d40eed6c" y="44.7868518671"/>
      </g>
     </g>
    </g>
    <g id="ytick_22">
     <g id="line2d_63">
      <g>
       <use style="stroke:#000000;stroke-width:0.5;" x="30.7109375" xlink:href="#m50d40eed6c" y="36.5999045253"/>
      </g>
     </g>
    </g>
    <g id="ytick_23">
     <g id="line2d_64">
      <g>
       <use style="stroke:#000000;stroke-width:0.5;" x="30.7109375" xlink:href="#m50d40eed6c" y="28.4129571836"/>
      </g>
     </g>
    </g>
    <g id="ytick_24">
     <g id="line2d_65">
      <g>
       <use style="stroke:#000000;stroke-width:0.5;" x="30.7109375" xlink:href="#m50d40eed6c" y="20.2260098418"/>
      </g>
     </g>
    </g>
    <g id="ytick_25">
     <g id="line2d_66">
      <g>
       <use style="stroke:#000000;stroke-width:0.5;" x="30.7109375" xlink:href="#m50d40eed6c" y="12.0390625"/>
      </g>
     </g>
    </g>
   </g>
  </g>
 </g>
 <defs>
  <clipPath id="pe548e1f5e0">
   <rect height="170.286754394" width="534.977115385" x="20.4229160503" y="8.7643172232"/>
  </clipPath>
 </defs>
</svg>
